<?xml version="1.0" encoding="UTF-8" standalone="no"?>
<!DOCTYPE svg PUBLIC "-//W3C//DTD SVG 1.1//EN" "http://www.w3.org/Graphics/SVG/1.1/DTD/svg11.dtd">
<svg width="100%" height="100%" viewBox="0 0 5120 1593" version="1.1" xmlns="http://www.w3.org/2000/svg" xmlns:xlink="http://www.w3.org/1999/xlink" xml:space="preserve" xmlns:serif="http://www.serif.com/" style="fill-rule:evenodd;clip-rule:evenodd;stroke-linejoin:round;stroke-miterlimit:2;">
    <g id="Automation" transform="matrix(1,0,0,1,52.045495,74.634045)">
        <g transform="matrix(0.879174,0,0,1.034588,324.195142,336.80993)">
            <path d="M1234.9,585.2l-64.42,27.28l105.54,179.94c6.08,10.36 7.87,19.2 5.38,26.52c-2.49,7.31 -8.05,12.8 -16.67,16.45c-8.75,3.71 -17.36,4.19 -25.83,1.45c-8.47,-2.74 -15.72,-9.23 -21.73,-19.48l-105.54,-179.94l-64.42,27.28c-10.07,4.27 -18.67,5.55 -25.79,3.86c-7.12,-1.7 -12.49,-5.64 -16.13,-11.84c-3.77,-6.42 -4.19,-12.57 -1.26,-18.45c2.92,-5.88 9.22,-10.87 18.9,-14.97l187.69,-79.5c10.21,-4.32 18.92,-5.62 26.14,-3.9c7.22,1.72 12.64,5.68 16.28,11.88c3.63,6.2 4.04,12.25 1.21,18.15c-2.82,5.91 -9.27,10.99 -19.35,15.26Z" style="fill-rule:nonzero;"/>
            <path d="M1529.91,705.14c-9.43,13.6 -19.47,24.79 -30.1,33.59c-10.64,8.79 -23.87,15.85 -39.71,21.18c-14.46,4.87 -28.29,6.71 -41.5,5.54c-13.21,-1.17 -24.71,-4.91 -34.51,-11.23c-9.79,-6.31 -16.95,-14.33 -21.48,-24.04c-6.11,-13.11 -6.43,-25.93 -0.96,-38.46c5.47,-12.53 16,-23.25 31.6,-32.16c3.25,-1.91 11.4,-6.48 24.44,-13.71c13.04,-7.23 24.14,-13.57 33.31,-19.03c9.17,-5.45 18.99,-11.64 29.47,-18.55c-6.58,-12.41 -13.9,-20.67 -21.95,-24.8c-8.06,-4.12 -20.41,-3.38 -37.07,2.22c-14.32,4.82 -24.3,10.14 -29.95,15.97c-5.65,5.83 -9.47,13 -11.47,21.53c-2,8.52 -3.56,14.23 -4.69,17.11c-1.13,2.88 -5.2,5.51 -12.22,7.87c-6.33,2.13 -12.61,2.25 -18.83,0.35c-6.22,-1.9 -10.59,-5.54 -13.1,-10.92c-3.93,-8.42 -4.23,-17.8 -0.92,-28.12c3.31,-10.32 11.21,-20.56 23.68,-30.71c12.47,-10.15 29.79,-18.96 51.96,-26.42c24.79,-8.34 45.43,-12.41 61.93,-12.21c16.5,0.2 30.19,4.7 41.06,13.49c10.87,8.8 20.45,22.09 28.74,39.87c5.24,11.23 9.65,20.78 13.23,28.64c3.59,7.86 7.55,16.61 11.88,26.26c4.2,9.01 10.33,17.81 18.4,26.4c8.07,8.59 12.75,14.29 14.06,17.1c2.29,4.91 1.66,10.31 -1.9,16.17c-3.56,5.87 -8.78,9.96 -15.66,12.28c-5.78,1.95 -12.57,1.56 -20.37,-1.16c-7.8,-2.72 -16.91,-7.4 -27.34,-14.05Zm-36.03,-68.08c-7.06,5.36 -17.81,12.12 -32.24,20.29c-14.43,8.17 -24.36,13.95 -29.79,17.34c-5.43,3.38 -9.99,7.96 -13.67,13.74c-3.68,5.77 -3.88,12.17 -0.61,19.19c3.38,7.25 9.49,12.34 18.34,15.25c8.84,2.91 18.5,2.61 28.96,-0.92c11.15,-3.75 20.48,-9.3 27.97,-16.62c7.5,-7.33 11.92,-15.01 13.27,-23.05c1.71,-8.97 -1.3,-21.76 -9.05,-38.38l-3.19,-6.85Z" style="fill-rule:nonzero;"/>
            <path d="M1816.02,585.43c4.86,13.61 5.13,26.27 0.79,37.97c-4.33,11.71 -13.22,22.02 -26.67,30.95c-13.45,8.93 -31.09,16.21 -52.91,21.84c-20.83,5.37 -39.66,7.27 -56.47,5.69c-16.82,-1.58 -30.22,-5.52 -40.21,-11.82c-9.99,-6.3 -16.45,-13.55 -19.37,-21.74c-1.94,-5.42 -1.32,-10.64 1.83,-15.66c3.16,-5.02 8.21,-8.43 15.15,-10.22c6.09,-1.57 11.22,-1.51 15.39,0.17c4.16,1.69 8.55,4.44 13.16,8.25c9.09,7.26 18.56,11.98 28.4,14.18c9.84,2.2 21.92,1.45 36.23,-2.24c11.62,-3 20.37,-7.65 26.24,-13.97c5.87,-6.31 7.79,-12.3 5.77,-17.96c-3.1,-8.67 -9.22,-14 -18.36,-15.98c-9.14,-1.98 -23.22,-2.49 -42.22,-1.54c-21.49,0.94 -39.33,0.71 -53.53,-0.69c-14.2,-1.4 -26.41,-4.93 -36.63,-10.58c-10.22,-5.65 -17.31,-14.01 -21.27,-25.09c-3.53,-9.88 -3.39,-20.1 0.41,-30.69c3.8,-10.58 11.54,-20.24 23.2,-28.97c11.66,-8.73 27.06,-15.56 46.19,-20.5c15.02,-3.88 28.99,-6.03 41.92,-6.47c12.92,-0.44 24.18,0.54 33.78,2.93c9.6,2.39 17.46,5.76 23.57,10.1c6.12,4.34 10.1,9.1 11.95,14.28c2.02,5.66 1.45,10.87 -1.73,15.64c-3.17,4.76 -8.87,8.21 -17.09,10.33c-5.95,1.54 -11.53,1.4 -16.75,-0.41c-5.21,-1.81 -11.54,-4.91 -19,-9.3c-6.11,-3.68 -12.66,-6.2 -19.65,-7.56c-6.98,-1.35 -15.58,-0.72 -25.78,1.92c-10.49,2.71 -18.53,6.85 -24.11,12.44c-5.59,5.58 -7.37,11.21 -5.35,16.87c1.85,5.18 5.92,8.77 12.2,10.76c6.28,2 14.14,2.96 23.56,2.9c9.42,-0.06 22.27,-0.48 38.55,-1.26c19.33,-0.91 35.63,-0.25 48.88,1.99c13.26,2.24 24.09,6.12 32.48,11.65c8.4,5.53 14.21,12.81 17.44,21.84Z" style="fill-rule:nonzero;"/>
            <path d="M2030.14,589.15l-70.66,-63.67l-25.7,31.66l10.02,40.07c2.43,9.73 1.3,17.75 -3.41,24.06c-4.7,6.32 -10.97,10.18 -18.79,11.6c-9.13,1.65 -16.94,0.36 -23.45,-3.87c-6.51,-4.23 -11.02,-11.39 -13.55,-21.49l-53.75,-214.94c-2.8,-11.2 -2.4,-20.19 1.21,-26.95c3.61,-6.76 10.12,-10.99 19.54,-12.7c9.13,-1.65 17.03,-0.31 23.72,4.02c6.68,4.33 11.32,11.66 13.9,22l30.57,122.24l51.84,-71.51c6.41,-8.88 11.45,-15.06 15.12,-18.56c3.67,-3.49 8.62,-5.8 14.85,-6.93c7.39,-1.33 14.05,-0.45 19.97,2.67c5.93,3.11 9.64,7.68 11.15,13.72c1.85,7.39 -3.73,18.69 -16.73,33.9l-25.37,30.25l81.16,70.26c6,5.22 10.37,9.22 13.11,12.01c2.74,2.79 4.47,5.59 5.17,8.43c2,8 1.01,14.78 -2.98,20.32c-3.99,5.55 -10.18,9.08 -18.59,10.59c-7.24,1.31 -13.24,0.65 -17.98,-1.96c-4.74,-2.62 -11.54,-7.69 -20.39,-15.23Z" style="fill-rule:nonzero;"/>
            <path d="M2315.95,508.3c2.15,14.1 -0.06,26.62 -6.61,37.56c-6.55,10.94 -17.33,19.86 -32.33,26.77c-15,6.91 -33.81,11.61 -56.43,14.1c-21.59,2.37 -40.53,1.6 -56.8,-2.33c-16.28,-3.92 -28.73,-9.69 -37.35,-17.31c-8.63,-7.62 -13.58,-15.67 -14.88,-24.16c-0.85,-5.62 0.76,-10.68 4.86,-15.19c4.09,-4.51 9.74,-7.16 16.93,-7.95c6.32,-0.69 11.36,0.08 15.14,2.33c3.78,2.25 7.57,5.58 11.37,9.98c7.56,8.43 15.97,14.43 25.25,17.98c9.28,3.55 21.33,4.51 36.17,2.88c12.04,-1.32 21.58,-4.69 28.59,-10.09c7.02,-5.4 10.08,-11.04 9.19,-16.9c-1.37,-8.99 -6.37,-15.1 -15,-18.34c-8.63,-3.24 -22.41,-5.72 -41.34,-7.45c-21.37,-2.09 -38.93,-4.83 -52.66,-8.21c-13.73,-3.38 -25.09,-8.57 -34.07,-15.58c-8.98,-7.01 -14.34,-16.25 -16.09,-27.74c-1.56,-10.23 0.57,-20.3 6.38,-30.21c5.81,-9.9 15.32,-18.34 28.52,-25.31c13.2,-6.97 29.72,-11.54 49.55,-13.72c15.57,-1.71 29.77,-1.87 42.6,-0.49c12.83,1.38 23.74,3.93 32.75,7.63c9,3.71 16.1,8.13 21.28,13.27c5.19,5.14 8.19,10.39 9.01,15.76c0.89,5.87 -0.69,10.93 -4.75,15.18c-4.06,4.25 -10.35,6.85 -18.86,7.78c-6.17,0.68 -11.65,-0.24 -16.44,-2.76c-4.79,-2.52 -10.43,-6.47 -16.92,-11.85c-5.31,-4.49 -11.28,-7.9 -17.91,-10.22c-6.62,-2.32 -15.22,-2.9 -25.8,-1.73c-10.87,1.19 -19.6,4.15 -26.2,8.87c-6.6,4.72 -9.45,10.02 -8.56,15.88c0.82,5.37 4.13,9.48 9.94,12.33c5.81,2.85 13.37,4.91 22.67,6.17c9.3,1.26 22.06,2.65 38.27,4.17c19.24,1.82 35.18,4.76 47.82,8.83c12.64,4.07 22.56,9.42 29.77,16.05c7.21,6.63 11.52,14.63 12.95,23.99Z" style="fill-rule:nonzero;"/>
            <path d="M2745.13,485.36c-0.64,16.73 -6.29,31.62 -16.95,44.67c-10.65,13.05 -25.9,23.08 -45.73,30.08c-19.83,7 -43.14,10.13 -69.93,9.39c-32.12,-0.89 -58.42,-6.79 -78.89,-17.68c-14.52,-7.83 -26.16,-18.07 -34.94,-30.72c-8.77,-12.65 -12.94,-24.82 -12.48,-36.52c0.26,-6.79 3.26,-12.53 9,-17.22c5.74,-4.69 12.9,-6.91 21.48,-6.67c6.96,0.19 12.77,2.24 17.43,6.15c4.67,3.91 8.56,9.62 11.68,17.14c3.81,8.92 8,16.4 12.58,22.45c4.58,6.05 11.17,11.11 19.75,15.19c8.59,4.08 19.98,6.32 34.19,6.71c19.54,0.54 35.56,-2.88 48.07,-10.28c12.51,-7.4 18.99,-16.88 19.43,-28.45c0.35,-9.18 -2.65,-16.73 -9.02,-22.63c-6.37,-5.91 -14.71,-10.51 -25.03,-13.82c-10.32,-3.31 -24.15,-6.91 -41.48,-10.79c-23.21,-5.31 -42.57,-11.29 -58.1,-17.96c-15.52,-6.67 -27.71,-15.5 -36.54,-26.52c-8.84,-11.01 -12.95,-24.51 -12.33,-40.48c0.59,-15.22 5.99,-28.61 16.22,-40.16c10.23,-11.55 24.71,-20.25 43.46,-26.08c18.75,-5.84 40.63,-8.41 65.65,-7.71c19.98,0.56 37.18,3.14 51.6,7.76c14.42,4.62 26.3,10.55 35.66,17.8c9.35,7.25 16.1,14.77 20.25,22.57c4.14,7.8 6.08,15.34 5.8,22.64c-0.26,6.67 -3.26,12.6 -9.02,17.79c-5.76,5.19 -12.78,7.67 -21.07,7.44c-7.55,-0.21 -13.22,-1.97 -17.02,-5.29c-3.8,-3.32 -7.85,-8.69 -12.16,-16.11c-5.52,-10.61 -12.31,-18.95 -20.37,-25.03c-8.06,-6.08 -21.27,-9.38 -39.63,-9.89c-17.02,-0.47 -30.87,2.32 -41.55,8.38c-10.68,6.06 -16.19,13.56 -16.54,22.49c-0.21,5.53 1.38,10.36 4.78,14.49c3.4,4.12 8.15,7.72 14.25,10.79c6.11,3.07 12.31,5.51 18.61,7.32c6.3,1.81 16.72,4.49 31.25,8.05c18.21,4.16 34.67,8.65 49.38,13.46c14.71,4.82 27.16,10.51 37.35,17.09c10.19,6.58 18.03,14.76 23.5,24.55c5.48,9.79 7.95,21.66 7.41,35.62Z" style="fill-rule:nonzero;"/>
            <path d="M2878.32,407.76l-21.49,147.83c-1.49,10.24 -5.48,17.69 -11.98,22.33c-6.5,4.64 -14.15,6.5 -22.97,5.58c-8.82,-0.93 -15.59,-4.36 -20.33,-10.31c-4.73,-5.95 -6.37,-13.92 -4.92,-23.91l21.28,-146.33c1.47,-10.12 5.33,-17.45 11.59,-21.99c6.26,-4.54 13.79,-6.35 22.61,-5.42c8.82,0.93 15.72,4.25 20.71,9.97c4.99,5.72 6.82,13.14 5.49,22.26Zm-22.08,-55.96c-8.38,-0.88 -15.23,-3.82 -20.54,-8.81c-5.32,-5 -7.39,-11.49 -6.23,-19.49c1.05,-7.24 4.97,-12.89 11.75,-16.93c6.78,-4.04 14.21,-5.64 22.3,-4.79c7.79,0.82 14.39,3.67 19.8,8.55c5.41,4.88 7.52,11.38 6.34,19.5c-1.14,7.87 -4.98,13.71 -11.5,17.53c-6.52,3.82 -13.83,5.3 -21.91,4.45Z" style="fill-rule:nonzero;"/>
            <path d="M3138.41,530.05l-18.08,66.78c-2.86,10.55 -7.81,17.91 -14.87,22.08c-7.06,4.17 -15.2,5.36 -24.44,3.55c-8.95,-1.75 -15.49,-5.8 -19.62,-12.17c-4.13,-6.36 -4.77,-14.81 -1.91,-25.36l21.67,-80.03c3.42,-12.63 5.57,-22.54 6.45,-29.73c0.88,-7.19 -0.31,-13.46 -3.57,-18.81c-3.26,-5.35 -9.73,-8.97 -19.4,-10.86c-19.34,-3.78 -33.61,-0.63 -42.79,9.45c-9.19,10.08 -16.64,25.67 -22.35,46.77l-18.38,67.89c-2.82,10.43 -7.73,17.76 -14.74,22.01c-7,4.25 -15.05,5.48 -24.14,3.71c-8.95,-1.75 -15.55,-5.85 -19.81,-12.3c-4.26,-6.45 -4.97,-14.89 -2.15,-25.31l38.91,-143.68c2.56,-9.44 7.06,-16.12 13.51,-20.02c6.45,-3.9 13.86,-5.04 22.24,-3.4c8.08,1.58 14.21,5.2 18.37,10.86c4.17,5.66 5.15,12.53 2.96,20.63l-1.3,4.78c13.07,-8.42 26.12,-13.94 39.13,-16.56c13.02,-2.62 26.67,-2.53 40.96,0.26c14.87,2.91 26.96,7.92 36.28,15.04c9.32,7.12 16.06,16.44 20.24,27.98c12.75,-8.36 25.5,-13.9 38.24,-16.64c12.75,-2.74 26.05,-2.75 39.9,-0.04c16.17,3.16 29.36,8.58 39.59,16.26c10.23,7.68 16.87,17.12 19.92,28.3c2.59,10.06 1.25,24.85 -4.03,44.35l-26.55,98.06c-2.86,10.55 -7.81,17.91 -14.87,22.08c-7.06,4.17 -15.2,5.36 -24.44,3.55c-8.95,-1.75 -15.55,-5.85 -19.81,-12.3c-4.26,-6.45 -4.97,-14.89 -2.15,-25.31l22.86,-84.44c2.92,-10.79 4.72,-19.55 5.4,-26.26c0.68,-6.71 -0.77,-12.74 -4.33,-18.09c-3.57,-5.35 -10.19,-8.97 -19.86,-10.86c-7.79,-1.52 -15.72,-1.01 -23.79,1.55c-8.06,2.56 -14.94,6.76 -20.63,12.63c-6.62,7.62 -12.84,22.16 -18.65,43.62Z" style="fill-rule:nonzero;"/>
            <path d="M3431.84,520.11l-2.55,5.84c15.59,-7.84 30.29,-12.56 44.11,-14.17c13.82,-1.61 28.02,-0.12 42.59,4.48c17.49,5.52 31.92,14.44 43.29,26.75c11.37,12.31 18.1,27.19 20.19,44.63c2.09,17.44 -1.27,36.25 -10.08,56.43c-6.5,14.87 -14.93,27.75 -25.3,38.64c-10.37,10.89 -21.7,19.2 -33.99,24.92c-12.29,5.72 -25.3,9 -39.02,9.84c-13.72,0.84 -27.31,-0.86 -40.78,-5.11c-16.24,-5.13 -28.67,-12.2 -37.29,-21.23c-8.61,-9.03 -15.57,-20.49 -20.88,-34.38l-31.71,72.56c-9.28,21.24 -23.01,28.99 -41.2,23.25c-10.69,-3.37 -16.57,-8.35 -17.65,-14.93c-1.07,-6.58 0.68,-15.12 5.27,-25.62l91.09,-208.48c4.02,-9.2 9.38,-15.33 16.09,-18.38c6.71,-3.05 14.15,-3.29 22.35,-0.7c8.05,2.54 13.59,6.94 16.63,13.2c3.03,6.26 2.64,13.75 -1.18,22.49Zm80.72,105.42c5.57,-12.74 8.06,-24.41 7.47,-35c-0.59,-10.59 -3.87,-19.61 -9.85,-27.07c-5.98,-7.46 -13.9,-12.74 -23.76,-15.85c-15.69,-4.95 -31.21,-3.87 -46.56,3.23c-15.35,7.11 -27.48,20.86 -36.4,41.28c-8.4,19.23 -9.59,35.87 -3.57,49.92c6.03,14.05 16.95,23.57 32.78,28.57c9.44,2.98 19.21,3.41 29.3,1.29c10.09,-2.12 19.6,-7.07 28.53,-14.86c8.93,-7.79 16.29,-18.29 22.06,-31.5Z" style="fill-rule:nonzero;"/>
            <path d="M3584.69,732.2l109.36,-203.28c5.05,-9.39 11.33,-15.53 18.83,-18.42c7.5,-2.9 15.43,-2.72 23.78,0.52c8.35,3.24 13.81,8.24 16.37,14.97c2.56,6.74 1.29,14.86 -3.82,24.36l-109.36,203.28c-5.11,9.5 -11.54,15.62 -19.28,18.35c-7.74,2.74 -15.72,2.51 -23.94,-0.68c-8.08,-3.14 -13.32,-8.15 -15.73,-15.04c-2.4,-6.88 -1.14,-14.9 3.78,-24.06Z" style="fill-rule:nonzero;"/>
            <path d="M3881.97,792.8l-103.79,-48.83c-6.54,10.3 -9.99,20.47 -10.36,30.52c-0.36,10.04 2.08,18.89 7.34,26.54c5.26,7.65 12.61,13.7 22.07,18.15c6.35,2.99 12.56,5.08 18.63,6.28c6.07,1.2 12.45,1.61 19.13,1.23c6.68,-0.38 13.1,-1.14 19.25,-2.27c6.15,-1.13 14.26,-2.79 24.31,-4.96c4.01,-0.7 8.54,0.14 13.6,2.51c5.44,2.56 9.02,5.9 10.74,10.02c1.72,4.12 1.07,8.49 -1.94,13.11c-2.65,4.07 -7.64,7.95 -14.94,11.63c-7.31,3.68 -16.38,6.25 -27.23,7.69c-10.84,1.44 -23.08,1.12 -36.69,-0.97c-13.62,-2.09 -27.88,-6.64 -42.78,-13.65c-34.08,-16.03 -55.2,-36.76 -63.35,-62.17c-8.16,-25.42 -3.02,-52.27 15.42,-80.57c8.68,-13.32 19.06,-24.59 31.15,-33.79c12.09,-9.2 25.26,-15.77 39.51,-19.72c14.25,-3.94 29.33,-5.01 45.25,-3.2c15.92,1.81 31.85,6.46 47.79,13.96c20.73,9.75 36.09,21.84 46.09,36.25c9.99,14.41 14.85,29.25 14.56,44.5c-0.29,15.26 -4.42,29 -12.38,41.22c-7.39,11.34 -16,16.89 -25.83,16.65c-9.83,-0.24 -21.68,-3.62 -35.55,-10.14Zm-87.11,-74.43l96.21,45.26c8.75,-16.02 11.37,-29.86 7.87,-41.5c-3.5,-11.65 -12.18,-20.73 -26.05,-27.25c-13.22,-6.22 -26.6,-7.44 -40.14,-3.67c-13.54,3.77 -26.17,12.83 -37.89,27.17Z" style="fill-rule:nonzero;"/>
        </g>
        <g transform="matrix(1,0,0,1.034588,-0,-87.340726)">
            <path d="M1270.34,789.75l-116.94,-142.41l81.39,174.1c4.5,9.63 5.66,17.83 3.46,24.59c-2.2,6.76 -6.97,11.75 -14.33,14.96c-7.12,3.11 -14.05,3.27 -20.78,0.48c-6.73,-2.79 -12.38,-9.06 -16.94,-18.81l-93.29,-199.56c-5.15,-11.01 -5.65,-19.73 -1.52,-26.17c4.14,-6.43 11.25,-11.85 21.33,-16.26l16.37,-7.15c9.85,-4.3 17.4,-6.56 22.65,-6.79c5.25,-0.22 9.99,1.44 14.22,4.98c4.23,3.54 10.06,9.76 17.51,18.66l102.49,121.59l-26.67,-154.7c-1.99,-11.28 -2.96,-19.63 -2.92,-25.04c0.04,-5.41 1.89,-9.94 5.54,-13.6c3.65,-3.66 10.39,-7.65 20.24,-11.95l16.37,-7.15c10.09,-4.41 18.99,-5.98 26.72,-4.73c7.73,1.25 14.17,7.38 19.31,18.39l93.29,199.56c4.5,9.63 5.66,17.83 3.46,24.59c-2.2,6.76 -7.03,11.77 -14.51,15.04c-7,3.06 -13.88,3.16 -20.64,0.32c-6.76,-2.85 -12.39,-9.09 -16.9,-18.72l-81.39,-174.1l33.29,178.95c2.15,11.63 3.5,20.26 4.06,25.88c0.56,5.63 -0.54,11.46 -3.29,17.49c-2.75,6.04 -8.22,10.84 -16.41,14.42c-6.17,2.69 -11.99,3.68 -17.47,2.97c-5.48,-0.71 -10.34,-2.56 -14.59,-5.54c-4.25,-2.98 -8.2,-6.61 -11.84,-10.88c-3.64,-4.28 -7.41,-8.74 -11.3,-13.4Z" style="fill-rule:nonzero;"/>
            <path d="M1622.29,675.89c-9.07,13.13 -18.53,23.83 -28.37,32.1c-9.85,8.27 -21.87,14.69 -36.08,19.26c-12.97,4.17 -25.22,5.36 -36.75,3.56c-11.53,-1.8 -21.41,-6.08 -29.64,-12.86c-8.23,-6.77 -14.05,-15.11 -17.46,-25.03c-4.6,-13.38 -4.14,-26.19 1.39,-38.44c5.53,-12.25 15.4,-22.46 29.61,-30.61c2.97,-1.75 10.38,-5.92 22.24,-12.52c11.86,-6.6 21.98,-12.4 30.34,-17.41c8.36,-5.01 17.34,-10.71 26.94,-17.12c-5.06,-12.7 -11,-21.3 -17.83,-25.8c-6.83,-4.5 -17.72,-4.35 -32.67,0.46c-12.85,4.13 -21.92,8.97 -27.22,14.52c-5.3,5.55 -9.07,12.53 -11.32,20.95c-2.25,8.42 -3.95,14.04 -5.11,16.86c-1.15,2.82 -4.88,5.25 -11.18,7.28c-5.68,1.83 -11.2,1.64 -16.55,-0.55c-5.35,-2.19 -8.97,-6.04 -10.86,-11.53c-2.96,-8.6 -2.68,-17.97 0.82,-28.12c3.51,-10.15 11.03,-19.99 22.57,-29.54c11.54,-9.54 27.25,-17.51 47.14,-23.91c22.24,-7.15 40.6,-10.23 55.07,-9.25c14.47,0.98 26.22,6.13 35.26,15.43c9.03,9.3 16.67,23.03 22.92,41.18c3.94,11.46 7.26,21.21 9.95,29.23c2.69,8.02 5.66,16.95 8.91,26.78c3.16,9.2 8.04,18.27 14.62,27.23c6.58,8.96 10.37,14.87 11.35,17.74c1.73,5.02 0.86,10.37 -2.61,16.06c-3.46,5.69 -8.28,9.53 -14.46,11.51c-5.19,1.67 -11.13,0.96 -17.82,-2.13c-6.69,-3.09 -14.42,-8.2 -23.18,-15.33Zm-27.68,-69.69c-6.51,5.01 -16.33,11.25 -29.47,18.73c-13.14,7.47 -22.19,12.77 -27.16,15.89c-4.96,3.12 -9.23,7.48 -12.79,13.07c-3.57,5.59 -4.12,11.97 -1.65,19.13c2.55,7.4 7.62,12.77 15.21,16.1c7.59,3.33 16.09,3.48 25.48,0.47c10.01,-3.22 18.51,-8.31 25.52,-15.27c7,-6.96 11.33,-14.42 12.99,-22.38c2.02,-8.87 0.12,-21.79 -5.72,-38.75l-2.4,-6.99Z" style="fill-rule:nonzero;"/>
            <path d="M1853.29,620.78l-64.05,-61.86l-21.61,32.29l10.04,39.8c2.44,9.66 1.68,17.71 -2.26,24.14c-3.94,6.43 -9.32,10.46 -16.16,12.06c-7.97,1.88 -14.88,0.79 -20.73,-3.28c-5.85,-4.06 -10.04,-11.11 -12.57,-21.13l-53.84,-213.49c-2.81,-11.13 -2.73,-20.12 0.24,-26.97c2.96,-6.85 8.56,-11.25 16.78,-13.18c7.97,-1.88 14.96,-0.74 20.96,3.42c6.01,4.16 10.3,11.37 12.89,21.64l30.62,121.42l43.36,-72.78c5.36,-9.04 9.6,-15.35 12.72,-18.93c3.12,-3.58 7.4,-6.02 12.83,-7.3c6.45,-1.52 12.33,-0.8 17.63,2.16c5.3,2.96 8.71,7.44 10.22,13.43c1.85,7.34 -2.7,18.77 -13.66,34.31l-21.36,30.88l73.48,68.18c5.43,5.07 9.4,8.96 11.89,11.67c2.49,2.72 4.1,5.48 4.8,8.29c2,7.95 1.34,14.74 -2,20.39c-3.33,5.64 -8.67,9.33 -16.01,11.06c-6.33,1.49 -11.61,0.99 -15.86,-1.51c-4.25,-2.5 -10.38,-7.4 -18.38,-14.71Z" style="fill-rule:nonzero;"/>
            <path d="M1960.47,439.48l29.06,146.28c2.01,10.13 1.04,18.26 -2.91,24.38c-3.96,6.12 -9.77,9.89 -17.44,11.31c-7.67,1.42 -14.43,-0.08 -20.29,-4.5c-5.85,-4.42 -9.76,-11.58 -11.72,-21.47l-28.77,-144.79c-1.99,-10.01 -1.09,-18 2.7,-23.95c3.79,-5.96 9.52,-9.65 17.19,-11.07c7.67,-1.42 14.51,-0.07 20.5,4.08c5.99,4.14 9.89,10.72 11.68,19.75Zm-36.28,-47.48c-7.29,1.35 -13.95,0.35 -19.99,-3.02c-6.04,-3.36 -9.84,-9 -11.41,-16.91c-1.42,-7.17 0.06,-13.56 4.44,-19.18c4.39,-5.62 10.1,-9.08 17.13,-10.39c6.78,-1.26 13.2,-0.27 19.28,2.96c6.08,3.23 9.91,8.86 11.51,16.89c1.55,7.79 0.2,14.35 -4.04,19.69c-4.24,5.34 -9.88,8.66 -16.91,9.96Z" style="fill-rule:nonzero;"/>
            <path d="M2072.86,420.55l0.85,6.18c7.66,-13.05 16.62,-23.06 26.89,-30.03c10.27,-6.97 22.57,-11.38 36.89,-13.23c13.94,-1.8 26.8,-0.47 38.58,3.98c11.78,4.45 21.12,11.69 28.02,21.72c4.35,5.79 7.53,12.23 9.56,19.34c2.03,7.1 3.82,16.27 5.37,27.49l13.12,95.06c1.41,10.23 0.06,18.28 -4.06,24.14c-4.12,5.86 -10.05,9.29 -17.79,10.29c-7.87,1.01 -14.63,-0.84 -20.28,-5.58c-5.64,-4.73 -9.16,-12.09 -10.53,-22.07l-11.75,-85.14c-2.32,-16.84 -6.52,-29.41 -12.59,-37.71c-6.07,-8.3 -16.33,-11.51 -30.79,-9.65c-9.42,1.21 -17.63,5.03 -24.63,11.46c-7,6.42 -11.65,14.61 -13.95,24.56c-1.53,7.94 -0.86,22.33 2.02,43.16l8.83,64c1.43,10.35 0.02,18.44 -4.24,24.26c-4.25,5.82 -10.32,9.23 -18.19,10.25c-7.61,0.98 -14.24,-0.89 -19.89,-5.63c-5.64,-4.73 -9.16,-12.09 -10.53,-22.07l-20.37,-147.64c-1.34,-9.73 -0.15,-17.28 3.57,-22.65c3.73,-5.37 9.4,-8.54 17.01,-9.53c4.65,-0.6 8.99,-0.08 13.02,1.56c4.04,1.64 7.48,4.43 10.32,8.38c2.84,3.95 4.69,8.98 5.53,15.09Z" style="fill-rule:nonzero;"/>
            <path d="M2475.56,395.71l8.31,149.49c0.95,17.09 -0.12,31.89 -3.2,44.41c-3.09,12.51 -8.57,23.01 -16.44,31.48c-7.87,8.48 -18.43,15.01 -31.67,19.6c-13.24,4.59 -29.87,7.41 -49.9,8.45c-18.33,0.95 -34.85,-0.68 -49.56,-4.89c-14.71,-4.21 -26.18,-10.05 -34.42,-17.5c-8.24,-7.45 -12.59,-15.32 -13.05,-23.62c-0.35,-6.28 1.58,-11.52 5.78,-15.71c4.2,-4.19 9.42,-6.44 15.66,-6.77c7.8,-0.4 14.81,2.57 21.03,8.93c3.05,3.24 6.2,6.52 9.44,9.81c3.25,3.3 6.79,6.08 10.63,8.33c3.84,2.26 8.4,3.85 13.66,4.77c5.27,0.92 11.28,1.21 18.04,0.86c13.78,-0.72 24.37,-3.12 31.77,-7.23c7.4,-4.1 12.44,-9.56 15.13,-16.38c2.69,-6.82 4.08,-14.04 4.17,-21.67c0.1,-7.63 -0.19,-19.87 -0.87,-36.73c-7.58,11.48 -16.57,20.4 -26.97,26.73c-10.41,6.34 -23.02,9.89 -37.84,10.66c-17.81,0.92 -33.63,-2.67 -47.44,-10.77c-13.82,-8.11 -24.74,-19.89 -32.77,-35.35c-8.03,-15.46 -12.62,-33.56 -13.77,-54.3c-0.86,-15.46 0.54,-29.52 4.21,-42.19c3.66,-12.67 9.29,-23.48 16.88,-32.45c7.59,-8.96 16.53,-15.89 26.82,-20.77c10.29,-4.88 21.74,-7.65 34.35,-8.31c15.08,-0.78 28.3,1.33 39.67,6.35c11.36,5.02 22.12,13.25 32.28,24.7l-0.39,-6.97c-0.5,-8.92 1.4,-15.95 5.67,-21.09c4.28,-5.14 9.99,-7.89 17.14,-8.26c10.27,-0.53 17.28,2.35 21.02,8.65c3.74,6.3 5.95,15.54 6.63,27.73Zm-150.65,73.23c1.16,20.86 6.75,36.39 16.77,46.58c10.02,10.19 22.51,14.9 37.46,14.13c8.84,-0.46 17.07,-3.19 24.68,-8.18c7.61,-5 13.63,-12.24 18.06,-21.73c4.43,-9.49 6.27,-20.84 5.54,-34.03c-1.17,-20.99 -6.85,-37.08 -17.06,-48.27c-10.21,-11.19 -23.11,-16.38 -38.71,-15.57c-15.21,0.79 -27.09,7.01 -35.64,18.68c-8.54,11.66 -12.24,27.8 -11.1,48.41Z" style="fill-rule:nonzero;"/>
            <path d="M2742.55,528.54l-30.69,-179.38l-16.31,190.4c-0.9,10.54 -4.01,18.24 -9.33,23.12c-5.32,4.88 -12,7 -20.04,6.35c-7.79,-0.62 -13.92,-3.73 -18.41,-9.33c-4.49,-5.6 -6.27,-13.73 -5.36,-24.39l18.7,-218.24c1.03,-12.04 4.97,-19.9 11.82,-23.58c6.85,-3.68 15.79,-5.08 26.82,-4.2l17.91,1.43c10.77,0.86 18.51,2.43 23.21,4.7c4.7,2.27 8.02,5.95 9.93,11.02c1.92,5.08 3.89,13.26 5.93,24.53l28.52,154.39l54.4,-147.76c3.93,-10.8 7.27,-18.55 10.03,-23.25c2.75,-4.7 6.65,-7.8 11.67,-9.29c5.03,-1.49 12.93,-1.81 23.7,-0.94l17.91,1.43c11.03,0.88 19.61,3.68 25.74,8.41c6.13,4.72 8.68,13.1 7.64,25.14l-18.7,218.24c-0.9,10.54 -4.01,18.24 -9.33,23.12c-5.32,4.88 -12.06,6.99 -20.24,6.34c-7.66,-0.61 -13.72,-3.75 -18.2,-9.41c-4.48,-5.66 -6.27,-13.76 -5.37,-24.3l16.31,-190.4l-60.8,172.06c-3.96,11.17 -7.11,19.35 -9.45,24.53c-2.34,5.18 -6.23,9.76 -11.66,13.75c-5.44,3.98 -12.63,5.62 -21.59,4.9c-6.75,-0.54 -12.34,-2.41 -16.77,-5.6c-4.43,-3.2 -7.75,-7.09 -9.97,-11.69c-2.22,-4.6 -3.85,-9.62 -4.88,-15.07c-1.04,-5.45 -2.08,-11.12 -3.15,-17.02Z" style="fill-rule:nonzero;"/>
            <path d="M3133.25,533.97l-102.54,-18.43c-2.09,11.53 -1.64,22.11 1.34,31.73c2.98,9.62 7.92,17.36 14.81,23.21c6.89,5.85 15,9.61 24.35,11.29c6.27,1.13 12.14,1.45 17.6,0.95c5.46,-0.49 10.91,-1.82 16.36,-3.97c5.45,-2.16 10.55,-4.6 15.32,-7.33c4.76,-2.73 10.98,-6.48 18.65,-11.24c3.12,-1.74 7.17,-2.17 12.16,-1.27c5.38,0.97 9.46,3.17 12.24,6.62c2.78,3.44 3.67,7.76 2.67,12.96c-0.88,4.58 -3.77,9.6 -8.66,15.05c-4.89,5.46 -11.62,10.33 -20.19,14.61c-8.57,4.28 -18.88,7.26 -30.92,8.94c-12.04,1.68 -25.43,1.19 -40.15,-1.46c-33.67,-6.05 -58.06,-20.04 -73.18,-41.96c-15.12,-21.92 -19.62,-48.78 -13.5,-80.58c2.88,-14.97 7.86,-28.45 14.93,-40.42c7.07,-11.98 15.91,-21.75 26.5,-29.32c10.59,-7.57 22.83,-12.63 36.7,-15.2c13.87,-2.56 28.68,-2.43 44.42,0.4c20.48,3.68 37.25,11.02 50.3,22c13.05,10.99 21.95,23.76 26.7,38.31c4.75,14.55 5.8,28.69 3.16,42.43c-2.45,12.74 -7.82,20.33 -16.1,22.74c-8.28,2.42 -19.27,2.39 -32.96,-0.07Zm-97,-47.2l95.05,17.08c2.05,-17.55 -0.29,-31.38 -7.02,-41.49c-6.73,-10.11 -16.94,-16.39 -30.64,-18.85c-13.06,-2.35 -24.62,0.09 -34.68,7.3c-10.06,7.22 -17.63,19.2 -22.71,35.95Z" style="fill-rule:nonzero;"/>
            <path d="M3299.37,480.51l-1.73,6c12.36,-9.08 24.68,-14.87 36.96,-17.37c12.28,-2.5 25.38,-1.87 39.3,1.89c13.54,3.66 24.82,9.77 33.84,18.35c9.01,8.57 14.65,18.79 16.9,30.63c1.63,6.97 1.94,14.11 0.91,21.41c-1.03,7.3 -3.12,16.41 -6.27,27.32l-26.69,92.37c-2.87,9.94 -7.39,16.82 -13.57,20.64c-6.17,3.82 -13.02,4.72 -20.55,2.69c-7.65,-2.06 -13.1,-6.35 -16.36,-12.85c-3.26,-6.5 -3.49,-14.6 -0.69,-24.29l23.9,-82.73c4.73,-16.36 5.99,-29.51 3.79,-39.45c-2.2,-9.94 -10.32,-16.8 -24.37,-20.59c-9.15,-2.47 -18.26,-2.09 -27.3,1.16c-9.05,3.24 -16.66,9 -22.83,17.26c-4.64,6.72 -9.89,20.2 -15.74,40.44l-17.97,62.18c-2.91,10.06 -7.5,16.96 -13.78,20.68c-6.28,3.73 -13.25,4.56 -20.9,2.49c-7.4,-2 -12.73,-6.25 -15.99,-12.74c-3.26,-6.5 -3.49,-14.6 -0.69,-24.29l41.45,-143.46c2.73,-9.45 6.9,-15.94 12.52,-19.46c5.61,-3.52 12.12,-4.28 19.52,-2.28c4.51,1.22 8.29,3.35 11.33,6.39c3.04,3.04 5.06,6.92 6.07,11.63c1,4.71 0.65,10.04 -1.07,15.98Z" style="fill-rule:nonzero;"/>
            <path d="M3546.29,556.09l-51.41,140.42c-3.56,9.73 -8.65,16.27 -15.26,19.61c-6.61,3.35 -13.6,3.76 -20.96,1.24c-7.36,-2.52 -12.41,-7.12 -15.15,-13.79c-2.74,-6.68 -2.36,-14.76 1.11,-24.25l50.89,-138.99c3.52,-9.61 8.47,-16.06 14.85,-19.35c6.38,-3.29 13.26,-3.67 20.62,-1.16c7.36,2.52 12.55,7.03 15.56,13.53c3.01,6.5 2.92,14.08 -0.25,22.74Zm-6.48,-58.69c-7,-2.39 -12.22,-6.52 -15.67,-12.37c-3.45,-5.85 -3.79,-12.58 -1.01,-20.17c2.52,-6.88 7.14,-11.68 13.86,-14.38c6.72,-2.71 13.46,-2.91 20.21,-0.6c6.51,2.23 11.54,6.22 15.09,11.97c3.56,5.76 3.92,12.49 1.1,20.2c-2.74,7.47 -7.33,12.48 -13.78,15.01c-6.45,2.53 -13.05,2.64 -19.8,0.33Z" style="fill-rule:nonzero;"/>
            <path d="M3671,768.55c-15.82,3.91 -30.25,5.76 -43.3,5.56c-13.04,-0.21 -26.43,-3.2 -40.16,-8.98c-12.53,-5.28 -22.47,-12.31 -29.8,-21.09c-7.33,-8.78 -11.72,-18.35 -13.16,-28.7c-1.44,-10.35 -0.01,-20.32 4.31,-29.9c5.82,-12.92 15.02,-22.16 27.61,-27.71c12.58,-5.55 26.98,-6.76 43.18,-3.65c3.42,0.61 11.82,2.3 25.21,5.05c13.39,2.75 24.92,4.97 34.61,6.64c9.68,1.67 20.31,3.23 31.88,4.67c5.02,-12.71 6.54,-22.95 4.57,-30.71c-1.97,-7.76 -10.18,-14.68 -24.62,-20.76c-12.42,-5.23 -22.51,-7.48 -30.29,-6.78c-7.78,0.71 -15.41,3.47 -22.9,8.28c-7.49,4.81 -12.64,7.89 -15.46,9.25c-2.81,1.36 -7.26,0.75 -13.35,-1.81c-5.49,-2.31 -9.47,-6.01 -11.94,-11.1c-2.47,-5.09 -2.5,-10.28 -0.11,-15.59c3.74,-8.31 10.43,-15.1 20.05,-20.39c9.62,-5.28 22.03,-7.75 37.21,-7.4c15.18,0.35 32.38,4.57 51.6,12.66c21.49,9.04 37.28,18.61 47.36,28.69c10.09,10.08 15.28,21.49 15.57,34.25c0.29,12.75 -3.51,27.9 -11.42,45.44c-4.99,11.08 -9.26,20.47 -12.8,28.18c-3.54,7.71 -7.51,16.26 -11.89,25.68c-4,8.89 -6.65,18.79 -7.95,29.7c-1.3,10.92 -2.57,17.76 -3.82,20.53c-2.18,4.85 -6.53,8.27 -13.04,10.26c-6.51,2 -12.75,1.74 -18.72,-0.77c-5.01,-2.11 -8.94,-6.47 -11.78,-13.09c-2.84,-6.62 -5.06,-15.41 -6.65,-26.38Zm27.58,-69.73c-8.31,-0.48 -19.93,-2.18 -34.87,-5.1c-14.94,-2.93 -25.34,-4.83 -31.19,-5.72c-5.85,-0.88 -12.03,-0.4 -18.55,1.46c-6.52,1.86 -11.33,6.25 -14.45,13.17c-3.22,7.15 -3.16,14.42 0.19,21.8c3.35,7.38 9.56,12.98 18.63,16.8c9.67,4.07 19.52,5.78 29.54,5.12c10.02,-0.65 18.4,-3.41 25.13,-8.26c7.64,-5.3 15.15,-16.14 22.53,-32.52l3.04,-6.75Z" style="fill-rule:nonzero;"/>
            <path d="M3766.38,811.05l108.23,-197.53c5,-9.12 10.88,-14.94 17.64,-17.46c6.76,-2.52 13.71,-1.96 20.84,1.7c7.13,3.65 11.62,8.91 13.47,15.76c1.84,6.85 0.24,14.9 -4.82,24.13l-108.23,197.53c-5.06,9.23 -11.07,15.02 -18.03,17.37c-6.96,2.35 -13.95,1.73 -20.97,-1.87c-6.9,-3.53 -11.2,-8.8 -12.9,-15.79c-1.69,-6.99 -0.1,-14.94 4.77,-23.83Z" style="fill-rule:nonzero;"/>
        </g>
    </g>
</svg>
