<?xml version="1.0" encoding="UTF-8" standalone="no"?>
<!DOCTYPE svg PUBLIC "-//W3C//DTD SVG 1.1//EN" "http://www.w3.org/Graphics/SVG/1.1/DTD/svg11.dtd">
<svg width="100%" height="100%" viewBox="0 0 5120 1593" version="1.1" xmlns="http://www.w3.org/2000/svg" xmlns:xlink="http://www.w3.org/1999/xlink" xml:space="preserve" xmlns:serif="http://www.serif.com/" style="fill-rule:evenodd;clip-rule:evenodd;stroke-linejoin:round;stroke-miterlimit:2;">
    <g id="Custom">
        <g transform="matrix(0.879174,0,0,1.034588,324.195142,336.80993)">
            <path d="M1436.85,665.59c4.32,8.01 6.67,17.58 7.05,28.71c0.38,11.13 -1.99,23.13 -7.11,35.99c-5.12,12.86 -13.91,25.11 -26.37,36.74c-12.46,11.64 -28.99,21.46 -49.59,29.48c-15.62,6.08 -30.5,10.35 -44.65,12.82c-14.15,2.46 -27.87,3.07 -41.18,1.81c-13.3,-1.26 -26.68,-4.53 -40.12,-9.82c-12.07,-4.85 -23.5,-11.1 -34.29,-18.73c-10.8,-7.63 -20.56,-16.46 -29.31,-26.49c-8.74,-10.02 -16.48,-21.27 -23.2,-33.74c-10.92,-20.25 -17.23,-39.74 -18.93,-58.45c-1.7,-18.72 0.84,-36.29 7.63,-52.7c6.79,-16.42 17.26,-30.98 31.42,-43.69c14.16,-12.71 31.07,-22.9 50.73,-30.55c23.97,-9.33 47.5,-13.58 70.59,-12.74c23.1,0.84 42.85,5.29 59.26,13.37c16.41,8.08 27.48,17.44 33.22,28.08c3.15,5.84 3.5,11.93 1.06,18.28c-2.44,6.35 -7.09,10.86 -13.96,13.53c-7.67,2.99 -14.26,3.68 -19.77,2.09c-5.5,-1.6 -12.65,-5.25 -21.43,-10.97c-14.53,-9.43 -28.75,-15.18 -42.65,-17.24c-13.9,-2.06 -28.59,-0.08 -44.08,5.95c-24.64,9.59 -39.98,25.19 -46.01,46.78c-6.03,21.59 -1.15,47.03 14.64,76.32c10.55,19.57 22.56,34.58 36.02,45.05c13.47,10.47 27.85,16.6 43.15,18.4c15.3,1.79 30.9,-0.4 46.79,-6.59c17.23,-6.71 29.85,-16.02 37.85,-27.92c8,-11.91 11.23,-26.07 9.7,-42.51c-1.02,-7.63 -0.77,-14.27 0.75,-19.91c1.52,-5.64 6.45,-10.09 14.8,-13.34c7.14,-2.78 14.4,-3.05 21.8,-0.81c7.4,2.24 12.8,6.51 16.19,12.8Z" style="fill-rule:nonzero;"/>
            <path d="M1667.23,664.1c-10.16,13.21 -20.79,24 -31.9,32.37c-11.1,8.37 -24.71,14.9 -40.82,19.6c-14.71,4.29 -28.63,5.6 -41.76,3.91c-13.13,-1.69 -24.42,-5.88 -33.86,-12.57c-9.44,-6.69 -16.16,-14.98 -20.15,-24.86c-5.39,-13.33 -5.01,-26.15 1.13,-38.46c6.14,-12.31 17.25,-22.6 33.32,-30.89c3.35,-1.78 11.74,-6.02 25.15,-12.73c13.42,-6.71 24.85,-12.61 34.3,-17.7c9.45,-5.09 19.6,-10.88 30.44,-17.37c-5.9,-12.65 -12.76,-21.19 -20.58,-25.63c-7.82,-4.44 -20.21,-4.18 -37.16,0.77c-14.57,4.25 -24.83,9.18 -30.79,14.78c-5.96,5.6 -10.17,12.62 -12.63,21.05c-2.46,8.44 -4.33,14.07 -5.61,16.91c-1.28,2.84 -5.49,5.3 -12.64,7.38c-6.44,1.88 -12.72,1.75 -18.83,-0.39c-6.11,-2.14 -10.27,-5.95 -12.49,-11.42c-3.47,-8.57 -3.26,-17.94 0.61,-28.12c3.87,-10.18 12.31,-20.1 25.32,-29.75c13.01,-9.65 30.79,-17.77 53.34,-24.36c25.21,-7.36 46.05,-10.62 62.53,-9.77c16.47,0.85 29.9,5.88 40.28,15.09c10.38,9.21 19.23,22.86 26.54,40.96c4.62,11.43 8.51,21.14 11.66,29.13c3.15,8 6.64,16.89 10.44,26.69c3.71,9.16 9.35,18.2 16.94,27.09c7.59,8.9 11.96,14.77 13.12,17.63c2.02,5 1.1,10.36 -2.78,16.08c-3.87,5.72 -9.31,9.61 -16.31,11.65c-5.88,1.72 -12.65,1.06 -20.29,-1.96c-7.64,-3.02 -16.49,-8.06 -26.54,-15.11Zm-32.3,-69.42c-7.35,5.07 -18.45,11.41 -33.31,19.01c-14.86,7.6 -25.09,12.98 -30.7,16.15c-5.61,3.17 -10.41,7.56 -14.4,13.19c-3.99,5.62 -4.54,12.01 -1.65,19.15c2.98,7.38 8.81,12.7 17.49,15.95c8.68,3.26 18.34,3.33 28.98,0.22c11.35,-3.31 20.96,-8.48 28.85,-15.51c7.89,-7.03 12.72,-14.53 14.51,-22.5c2.2,-8.89 -0.12,-21.79 -6.95,-38.69l-2.82,-6.96Z" style="fill-rule:nonzero;"/>
            <path d="M1791.31,474.53l1.77,6.05c6.95,-13.79 15.78,-24.7 26.47,-32.73c10.7,-8.03 24.02,-13.74 39.98,-17.11c15.52,-3.28 30.23,-3.34 44.13,-0.19c13.9,3.16 25.4,9.35 34.51,18.58c5.67,5.29 10.11,11.35 13.34,18.19c3.22,6.84 6.44,15.76 9.66,26.75l27.24,93.07c2.93,10.01 2.45,18.16 -1.43,24.43c-3.89,6.27 -10.14,10.31 -18.77,12.14c-8.77,1.85 -16.65,0.73 -23.65,-3.37c-7,-4.1 -11.93,-11.03 -14.79,-20.8l-24.4,-83.36c-4.83,-16.49 -11.21,-28.53 -19.16,-36.12c-7.95,-7.59 -19.97,-9.69 -36.06,-6.29c-10.49,2.22 -19.27,6.89 -26.34,14.03c-7.07,7.14 -11.26,15.77 -12.56,25.9c-0.69,8.06 1.95,22.28 7.92,42.68l18.34,62.65c2.97,10.14 2.43,18.32 -1.62,24.56c-4.05,6.24 -10.46,10.28 -19.22,12.14c-8.48,1.79 -16.22,0.64 -23.22,-3.46c-7,-4.1 -11.93,-11.03 -14.79,-20.8l-42.31,-144.54c-2.79,-9.53 -2.43,-17.16 1.08,-22.89c3.51,-5.74 9.5,-9.5 17.98,-11.29c5.17,-1.09 10.15,-1.04 14.92,0.15c4.78,1.2 9.03,3.6 12.76,7.22c3.73,3.62 6.47,8.42 8.22,14.41Z" style="fill-rule:nonzero;"/>
            <path d="M2170.54,557.96l-34.24,-216.09c-1.78,-11.23 -0.1,-19.99 5.02,-26.29c5.13,-6.3 12.46,-10 22,-11.09c9.83,-1.13 18.24,0.74 25.21,5.59c6.97,4.85 11.36,12.96 13.15,24.31l34.24,216.09c1.8,11.35 0.1,20.18 -5.1,26.49c-5.2,6.31 -12.72,10.03 -22.55,11.15c-9.39,1.07 -17.59,-0.88 -24.58,-5.85c-6.99,-4.98 -11.38,-13.08 -13.15,-24.31Z" style="fill-rule:nonzero;"/>
            <path d="M2507.3,467.52l2.19,68.5c0.35,10.82 -2.28,19 -7.88,24.54c-5.6,5.54 -13.14,8.42 -22.61,8.64c-9.18,0.21 -16.7,-2.32 -22.58,-7.6c-5.87,-5.28 -8.98,-13.33 -9.33,-24.15l-2.62,-82.09c-0.41,-12.96 -1.25,-23.01 -2.52,-30.16c-1.27,-7.15 -4.27,-12.96 -9,-17.45c-4.74,-4.49 -12.06,-6.61 -21.98,-6.39c-19.84,0.46 -32.72,6.55 -38.64,18.27c-5.92,11.72 -8.54,28.4 -7.85,50.04l2.23,69.64c0.34,10.69 -2.25,18.84 -7.77,24.45c-5.52,5.6 -12.95,8.51 -22.28,8.73c-9.18,0.21 -16.78,-2.35 -22.8,-7.69c-6.02,-5.34 -9.21,-13.35 -9.55,-24.05l-4.71,-147.39c-0.31,-9.69 2.08,-17.11 7.18,-22.26c5.09,-5.15 11.94,-7.83 20.52,-8.03c8.29,-0.19 15.29,2.01 20.99,6.6c5.7,4.59 8.69,11.04 8.95,19.34l0.16,4.91c10.17,-10.94 21.17,-19.06 33,-24.37c11.83,-5.31 25.07,-8.13 39.73,-8.47c15.25,-0.35 28.43,1.92 39.55,6.83c11.12,4.91 20.4,12.5 27.84,22.78c9.88,-10.8 20.58,-18.89 32.12,-24.25c11.53,-5.37 24.41,-8.21 38.62,-8.54c16.58,-0.38 30.96,2.06 43.13,7.31c12.17,5.26 21.38,12.98 27.63,23.16c5.48,9.19 8.54,23.79 9.18,43.79l3.22,100.58c0.35,10.82 -2.28,19 -7.88,24.54c-5.6,5.54 -13.14,8.42 -22.61,8.64c-9.18,0.21 -16.78,-2.35 -22.8,-7.69c-6.02,-5.34 -9.21,-13.35 -9.55,-24.05l-2.77,-86.62c-0.35,-11.07 -1.19,-19.93 -2.52,-26.57c-1.32,-6.64 -4.5,-12.17 -9.53,-16.59c-5.03,-4.42 -12.51,-6.51 -22.42,-6.28c-7.99,0.18 -15.52,2.37 -22.57,6.56c-7.05,4.19 -12.47,9.73 -16.25,16.62c-4.16,8.78 -5.89,24.18 -5.19,46.2Z" style="fill-rule:nonzero;"/>
            <path d="M2867.47,558.84c-15.92,8.14 -31.02,13.92 -45.3,17.34c-14.28,3.42 -29.88,4.27 -46.79,2.55c-15.44,-1.57 -28.64,-5.55 -39.6,-11.93c-10.96,-6.38 -18.97,-14.33 -24.04,-23.84c-5.07,-9.52 -6.87,-19.46 -5.41,-29.83c1.98,-14 8.88,-25.4 20.72,-34.2c11.83,-8.81 27.11,-13.97 45.82,-15.48c3.93,-0.36 13.65,-1.08 29.17,-2.16c15.52,-1.08 28.83,-2.16 39.95,-3.25c11.12,-1.08 23.22,-2.54 36.31,-4.38c1.17,-13.57 -0.63,-23.8 -5.4,-30.69c-4.77,-6.89 -16.05,-11.24 -33.84,-13.05c-15.29,-1.56 -27.06,-0.92 -35.29,1.92c-8.23,2.84 -15.62,7.6 -22.15,14.28c-6.54,6.69 -11.11,11.07 -13.72,13.15c-2.61,2.08 -7.66,2.74 -15.16,1.97c-6.76,-0.69 -12.35,-3.13 -16.75,-7.32c-4.41,-4.19 -6.2,-9.16 -5.39,-14.91c1.27,-9 6.26,-17.36 14.96,-25.09c8.7,-7.73 21.38,-13.54 38.04,-17.42c16.66,-3.88 36.82,-4.61 60.5,-2.2c26.47,2.7 46.9,7.48 61.3,14.33c14.4,6.86 23.91,16.35 28.53,28.48c4.63,12.13 5.6,27.7 2.92,46.69c-1.69,12 -3.17,22.18 -4.43,30.54c-1.26,8.36 -2.68,17.66 -4.28,27.89c-1.36,9.62 -0.9,19.84 1.38,30.66c2.28,10.82 3.2,17.72 2.78,20.72c-0.74,5.25 -4.32,9.73 -10.74,13.45c-6.42,3.72 -13.3,5.2 -20.65,4.45c-6.18,-0.63 -11.93,-3.72 -17.26,-9.27c-5.33,-5.55 -10.72,-13.36 -16.16,-23.42Zm6.49,-74.44c-9.21,1.85 -22.45,3.45 -39.72,4.79c-17.27,1.34 -29.24,2.41 -35.91,3.18c-6.67,0.78 -13.25,2.96 -19.72,6.55c-6.47,3.59 -10.24,9.13 -11.3,16.63c-1.09,7.75 1.43,14.69 7.57,20.83c6.14,6.14 14.8,9.78 25.98,10.92c11.91,1.21 23.22,0.12 33.92,-3.29c10.7,-3.41 18.9,-8.37 24.59,-14.89c6.53,-7.19 11.06,-19.66 13.56,-37.41l1.03,-7.31Z" style="fill-rule:nonzero;"/>
            <path d="M3234.87,476.02l-39.09,145.97c-4.47,16.69 -10.41,30.64 -17.82,41.86c-7.41,11.22 -16.78,19.86 -28.13,25.93c-11.35,6.07 -25,9.56 -40.97,10.47c-15.97,0.91 -35.07,-0.78 -57.31,-5.08c-20.36,-3.94 -37.91,-9.88 -52.64,-17.83c-14.73,-7.95 -25.4,-16.59 -32.01,-25.94c-6.61,-9.35 -8.83,-18.07 -6.66,-26.17c1.64,-6.14 5.44,-10.66 11.38,-13.58c5.95,-2.92 12.38,-3.7 19.32,-2.36c8.66,1.68 15.38,6.39 20.13,14.15c2.29,3.93 4.68,7.91 7.17,11.94c2.49,4.03 5.47,7.64 8.95,10.83c3.47,3.19 7.94,5.92 13.41,8.21c5.46,2.28 11.95,4.15 19.46,5.6c15.31,2.96 27.67,3.45 37.09,1.46c9.42,-1.99 16.69,-5.9 21.83,-11.75c5.14,-5.85 8.99,-12.43 11.55,-19.74c2.57,-7.31 6.19,-19.16 10.89,-35.55c-11.99,9.04 -24.7,15.23 -38.12,18.57c-13.43,3.34 -28.37,3.42 -44.83,0.24c-19.78,-3.83 -35.93,-11.46 -48.43,-22.92c-12.5,-11.45 -20.65,-25.68 -24.46,-42.68c-3.8,-17 -2.99,-35.62 2.43,-55.87c4.04,-15.09 10.11,-28.25 18.2,-39.46c8.09,-11.21 17.73,-20.13 28.92,-26.74c11.19,-6.61 23.2,-10.91 36.03,-12.88c12.83,-1.97 26.25,-1.6 40.26,1.1c16.75,3.24 30.53,8.78 41.35,16.61c10.81,7.83 19.93,18.6 27.35,32.3l1.82,-6.81c2.33,-8.71 6.67,-14.97 13,-18.78c6.34,-3.81 13.48,-4.95 21.42,-3.41c11.41,2.21 18.14,6.83 20.21,13.88c2.06,7.05 1.5,16.52 -1.69,28.42Zm-188.4,30.56c-5.45,20.37 -4.34,36.78 3.33,49.24c7.68,12.46 19.82,20.29 36.43,23.5c9.82,1.9 19.7,1.45 29.63,-1.34c9.94,-2.79 18.86,-8.16 26.76,-16.12c7.9,-7.96 13.58,-18.38 17.03,-31.27c5.49,-20.49 4.45,-37.47 -3.11,-50.94c-7.56,-13.47 -20,-21.87 -37.33,-25.22c-16.9,-3.27 -31.9,-0.42 -45,8.53c-13.11,8.95 -22.35,23.49 -27.74,43.62Z" style="fill-rule:nonzero;"/>
            <path d="M3368.62,502.93l-52.08,142.22c-3.61,9.85 -9.09,16.58 -16.46,20.16c-7.36,3.59 -15.29,4.26 -23.77,2.02c-8.48,-2.24 -14.43,-6.65 -17.84,-13.22c-3.41,-6.57 -3.36,-14.66 0.17,-24.28l51.56,-140.78c3.56,-9.73 8.9,-16.36 16.01,-19.89c7.11,-3.52 14.9,-4.16 23.39,-1.92c8.48,2.24 14.58,6.56 18.29,12.94c3.71,6.39 3.96,13.96 0.75,22.74Zm-10.02,-58.41c-8.06,-2.13 -14.18,-6.06 -18.37,-11.78c-4.19,-5.72 -4.87,-12.43 -2.06,-20.12c2.55,-6.97 7.59,-11.93 15.11,-14.89c7.52,-2.95 15.17,-3.4 22.95,-1.35c7.49,1.98 13.39,5.78 17.69,11.4c4.3,5.62 5.02,12.33 2.16,20.15c-2.77,7.57 -7.77,12.74 -14.99,15.51c-7.22,2.77 -14.72,3.13 -22.49,1.07Z" style="fill-rule:nonzero;"/>
            <path d="M3494.57,539.09l-2.68,5.8c15.07,-7.81 29.71,-12.35 43.91,-13.62c14.2,-1.27 28.94,0.65 44.24,5.77c14.88,4.98 26.91,12.18 36.07,21.6c9.17,9.42 14.31,20.14 15.44,32.14c1.01,7.1 0.49,14.23 -1.55,21.39c-2.04,7.16 -5.5,16.01 -10.39,26.55l-41.32,89.24c-4.45,9.6 -10.39,16 -17.84,19.19c-7.45,3.19 -15.3,3.4 -23.57,0.64c-8.41,-2.81 -14.06,-7.61 -16.97,-14.4c-2.91,-6.79 -2.19,-14.87 2.15,-24.23l37.01,-79.93c7.32,-15.81 10.34,-28.77 9.05,-38.87c-1.29,-10.1 -9.65,-17.73 -25.09,-22.89c-10.06,-3.36 -20.41,-3.88 -31.03,-1.55c-10.63,2.33 -19.93,7.3 -27.91,14.91c-6.06,6.22 -13.62,19.11 -22.68,38.67l-27.82,60.08c-4.5,9.72 -10.53,16.12 -18.09,19.21c-7.56,3.09 -15.54,3.22 -23.95,0.41c-8.13,-2.72 -13.65,-7.47 -16.55,-14.26c-2.91,-6.79 -2.19,-14.87 2.15,-24.23l64.18,-138.61c4.23,-9.13 9.73,-15.17 16.51,-18.12c6.77,-2.94 14.23,-3.05 22.36,-0.33c4.96,1.66 8.98,4.15 12.05,7.48c3.07,3.33 4.9,7.39 5.46,12.17c0.57,4.79 -0.48,10.05 -3.13,15.79Z" style="fill-rule:nonzero;"/>
            <path d="M3819.61,762.68l-105.33,-46.38c-6.21,10.45 -9.33,20.7 -9.37,30.75c-0.04,10.05 2.69,18.83 8.2,26.36c5.5,7.53 13.05,13.4 22.65,17.63c6.44,2.84 12.72,4.79 18.83,5.85c6.11,1.06 12.5,1.32 19.16,0.78c6.67,-0.54 13.06,-1.44 19.17,-2.72c6.12,-1.28 14.16,-3.12 24.14,-5.53c3.99,-0.8 8.55,-0.06 13.67,2.19c5.52,2.43 9.21,5.69 11.06,9.76c1.85,4.08 1.35,8.46 -1.52,13.15c-2.52,4.13 -7.38,8.13 -14.56,11.98c-7.19,3.85 -16.18,6.63 -26.97,8.32c-10.79,1.7 -23.03,1.66 -36.71,-0.11c-13.68,-1.77 -28.08,-5.99 -43.21,-12.65c-34.58,-15.23 -56.36,-35.45 -65.34,-60.67c-8.98,-25.22 -4.71,-52.18 12.8,-80.9c8.25,-13.52 18.26,-25.02 30.05,-34.5c11.79,-9.48 24.74,-16.36 38.85,-20.63c14.12,-4.27 29.16,-5.69 45.13,-4.26c15.97,1.43 32.05,5.71 48.22,12.84c21.04,9.27 36.79,20.98 47.24,35.16c10.46,14.17 15.79,28.89 15.99,44.15c0.2,15.26 -3.48,29.09 -11.04,41.49c-7.02,11.51 -15.45,17.26 -25.28,17.25c-9.84,-0.01 -21.79,-3.11 -35.86,-9.31Zm-89.48,-72.36l97.64,43c8.23,-16.22 10.4,-30.11 6.52,-41.67c-3.88,-11.56 -12.85,-20.44 -26.92,-26.63c-13.41,-5.91 -26.83,-6.82 -40.24,-2.73c-13.42,4.08 -25.75,13.43 -36.99,28.04Z" style="fill-rule:nonzero;"/>
        </g>
        <g transform="matrix(1,0,0,1.034588,-0,-87.340726)">
            <path d="M1033.35,924.08l-31.25,-21.65l-97.02,62.17l8.89,36.88c3.46,14.39 5.01,24.61 4.63,30.67c-0.38,6.06 -4.15,11.38 -11.31,15.97c-6.08,3.89 -12.92,5.19 -20.54,3.88c-7.62,-1.31 -13.3,-4.69 -17.04,-10.15c-2.16,-3.15 -3.85,-6.75 -5.06,-10.8c-1.22,-4.05 -2.63,-9.87 -4.23,-17.45l-41.69,-188.91c-1.21,-5.41 -2.67,-11.92 -4.36,-19.51c-1.69,-7.6 -2.53,-14.27 -2.49,-20.03c0.03,-5.76 1.46,-11.31 4.27,-16.67c2.81,-5.35 7.53,-10.15 14.15,-14.39c6.73,-4.31 13.19,-6.68 19.39,-7.1c6.19,-0.42 12.01,0.42 17.44,2.53c5.43,2.11 10.62,4.78 15.58,8.02c4.96,3.24 11.45,7.65 19.49,13.22l164.44,108.9c12.65,8.2 20.74,14.87 24.27,20.01c3.67,5.35 4.73,11.73 3.17,19.15c-1.55,7.41 -5.59,13.21 -12.1,17.38c-3.8,2.43 -7.5,3.86 -11.12,4.29c-3.61,0.43 -7.11,0.1 -10.51,-0.97c-3.39,-1.07 -7.75,-3.27 -13.06,-6.58c-5.32,-3.31 -9.96,-6.26 -13.92,-8.86Zm-139.64,-2.71l71.3,-45.69l-101.27,-72.14l29.96,117.83Z" style="fill-rule:nonzero;"/>
            <path d="M1099.02,721.83l2.91,5.56c2.77,-14.76 7.82,-27.07 15.13,-36.93c7.31,-9.86 17.42,-17.95 30.31,-24.26c12.54,-6.14 25.14,-8.99 37.77,-8.55c12.64,0.44 23.93,4.3 33.87,11.56c6.08,4.08 11.29,9.15 15.63,15.2c4.34,6.06 9.16,14.14 14.46,24.24l44.84,85.55c4.83,9.21 6.3,17.23 4.41,24.08c-1.88,6.85 -6.31,11.98 -13.28,15.39c-7.09,3.47 -14.1,3.87 -21.04,1.2c-6.94,-2.67 -12.77,-8.49 -17.48,-17.47l-40.16,-76.62c-7.94,-15.16 -16.2,-25.68 -24.76,-31.58c-8.56,-5.89 -19.35,-5.66 -32.36,0.71c-8.48,4.15 -14.92,10.38 -19.33,18.67c-4.41,8.3 -6,17.51 -4.78,27.63c1.27,7.99 6.81,21.35 16.64,40.1l30.19,57.59c4.88,9.32 6.31,17.4 4.28,24.25c-2.03,6.85 -6.59,12.01 -13.67,15.48c-6.85,3.36 -13.75,3.7 -20.7,1.03c-6.94,-2.67 -12.77,-8.49 -17.48,-17.47l-69.64,-132.87c-4.59,-8.76 -6.04,-16.26 -4.36,-22.52c1.68,-6.26 5.95,-11.06 12.81,-14.42c4.18,-2.05 8.46,-2.94 12.83,-2.68c4.37,0.26 8.57,1.8 12.6,4.62c4.03,2.82 7.49,6.98 10.38,12.48Z" style="fill-rule:nonzero;"/>
            <path d="M1405.13,790.15l0.09,-12.45l-122.53,-124.51c-7.29,-7.07 -11.74,-12.53 -13.34,-16.38c-1.7,-4.09 -2.19,-8.3 -1.47,-12.65c0.72,-4.35 2.54,-8.31 5.47,-11.89c2.93,-3.58 6.45,-6.17 10.56,-7.77c7.13,-2.77 13.41,-2.67 18.86,0.3c5.45,2.97 11.26,8 17.44,15.1l90.83,101.43l-5.86,-124.89c-0.55,-10.1 -0.6,-18.15 -0.15,-24.15c0.45,-6.01 1.73,-10.44 3.84,-13.29c2.11,-2.85 5.76,-5.29 10.96,-7.31c3.74,-1.46 7.74,-1.89 11.98,-1.3c4.24,0.59 7.98,2.15 11.22,4.7c3.23,2.54 5.6,5.62 7.11,9.24c0.44,2.41 0.97,5.86 1.58,10.37c0.61,4.51 1.01,9.17 1.19,13.99l3.4,188.32c0.42,16.52 -0.33,29.9 -2.24,40.14c-1.91,10.24 -6.34,19.25 -13.28,27.03c-6.94,7.78 -17.83,14.56 -32.69,20.34c-14.5,5.63 -26,8.34 -34.51,8.12c-8.51,-0.22 -14.44,-4.36 -17.8,-12.41c-2.28,-5.49 -2.32,-10.39 -0.12,-14.71c2.2,-4.32 6.69,-7.79 13.45,-10.42c2.66,-1.03 5.4,-1.69 8.23,-1.98c3.43,-0.52 6.3,-1.23 8.59,-2.12c5.68,-2.21 9.81,-4.76 12.39,-7.66c2.58,-2.9 4.33,-6.87 5.25,-11.91c0.92,-5.04 1.45,-12.13 1.57,-21.26Z" style="fill-rule:nonzero;"/>
            <path d="M1495.9,530.86l5.57,-1.76l-9.93,-29.44c-2.66,-7.9 -4.53,-14.16 -5.61,-18.78c-1.08,-4.62 -1.17,-8.86 -0.28,-12.72c0.85,-3.97 2.78,-7.59 5.79,-10.86c3.01,-3.26 6.8,-5.62 11.38,-7.06c6.44,-2.03 13.04,-1.53 19.82,1.5c4.52,2.02 7.99,5.13 10.44,9.32c2.44,4.19 5.05,10.42 7.84,18.68l11.26,33.39l18.57,-5.85c7.18,-2.26 13.21,-2.34 18.1,-0.24c4.89,2.1 8.2,5.72 9.93,10.87c2.22,6.58 1.08,12.04 -3.42,16.37c-4.5,4.33 -11.76,8.07 -21.79,11.23l-9.47,2.98l30.38,90.1c2.58,7.66 4.85,13.46 6.8,17.42c1.95,3.95 4.56,6.84 7.85,8.65c3.28,1.81 7.65,1.86 13.09,0.14c2.97,-0.94 6.82,-2.71 11.56,-5.33c4.73,-2.62 8.52,-4.37 11.37,-5.27c4.09,-1.29 8.3,-0.86 12.65,1.28c4.35,2.14 7.31,5.54 8.89,10.21c2.66,7.9 0.24,15.34 -7.26,22.34c-7.5,7 -19.61,13.13 -36.32,18.39c-15.85,4.99 -28.72,6.2 -38.63,3.63c-9.91,-2.57 -17.66,-8 -23.27,-16.3c-5.6,-8.29 -10.97,-20.04 -16.09,-35.24l-31.71,-94.05l-6.69,2.11c-7.3,2.3 -13.44,2.38 -18.41,0.24c-4.97,-2.14 -8.32,-5.78 -10.05,-10.93c-1.74,-5.15 -1.15,-10 1.77,-14.56c2.91,-4.56 8.21,-8.05 15.88,-10.46Z" style="fill-rule:nonzero;"/>
            <path d="M1677.86,424.92l19.75,74.04c4.61,-8.95 9.46,-16.33 14.56,-22.15c5.1,-5.82 11.15,-10.74 18.15,-14.76c7,-4.02 14.84,-7.11 23.54,-9.28c13.11,-3.27 25.46,-3.49 37.04,-0.65c11.58,2.83 21.64,8.64 30.17,17.44c5.25,5.06 9.49,11.12 12.72,18.18c3.23,7.06 6.13,15.4 8.69,25.03l25.51,95.61c2.67,9.99 2.32,18.14 -1.05,24.44c-3.36,6.3 -8.95,10.42 -16.77,12.37c-17.02,4.24 -28.23,-3.75 -33.63,-23.98l-22.48,-84.27c-4.26,-15.96 -9.99,-27.63 -17.2,-35c-7.21,-7.37 -17.69,-9.34 -31.43,-5.91c-9.2,2.29 -16.82,6.89 -22.85,13.78c-6.03,6.9 -9.7,15.19 -11.01,24.87c-0.79,8.13 1.35,21.69 6.42,40.71l17.6,65.99c2.63,9.87 2.34,17.97 -0.88,24.3c-3.22,6.33 -8.93,10.51 -17.12,12.55c-17.02,4.24 -28.23,-3.75 -33.63,-23.98l-57.74,-216.44c-2.7,-10.12 -2.48,-18.26 0.64,-24.43c3.13,-6.17 8.72,-10.27 16.79,-12.28c8.2,-2.04 15.28,-1.08 21.24,2.89c5.97,3.97 10.28,10.95 12.95,20.95Z" style="fill-rule:nonzero;"/>
            <path d="M1944.02,442.44l29.84,146.13c2.07,10.12 1.14,18.26 -2.78,24.39c-3.92,6.14 -9.72,9.94 -17.38,11.4c-7.66,1.46 -14.43,-0 -20.31,-4.4c-5.87,-4.4 -9.82,-11.53 -11.84,-21.41l-29.54,-144.65c-2.04,-10 -1.19,-17.99 2.57,-23.97c3.76,-5.98 9.47,-9.7 17.13,-11.16c7.66,-1.46 14.5,-0.14 20.52,3.97c6.02,4.11 9.94,10.67 11.78,19.69Zm-36.53,-47.29c-7.28,1.39 -13.95,0.42 -20.01,-2.92c-6.06,-3.33 -9.89,-8.95 -11.5,-16.86c-1.46,-7.16 -0.02,-13.56 4.34,-19.2c4.36,-5.64 10.05,-9.13 17.07,-10.47c6.77,-1.29 13.2,-0.34 19.3,2.86c6.09,3.2 9.96,8.81 11.6,16.84c1.59,7.78 0.28,14.35 -3.94,19.71c-4.21,5.36 -9.83,8.71 -16.86,10.05Z" style="fill-rule:nonzero;"/>
            <path d="M2056.15,422.97l0.89,6.17c7.59,-13.09 16.5,-23.14 26.73,-30.17c10.23,-7.03 22.51,-11.5 36.82,-13.42c13.93,-1.87 26.8,-0.61 38.6,3.78c11.8,4.39 21.18,11.58 28.14,21.58c4.38,5.77 7.6,12.2 9.67,19.29c2.07,7.09 3.91,16.25 5.52,27.47l13.63,94.99c1.47,10.22 0.16,18.28 -3.93,24.16c-4.09,5.88 -10,9.34 -17.74,10.38c-7.87,1.05 -14.64,-0.77 -20.31,-5.47c-5.67,-4.7 -9.22,-12.04 -10.65,-22.01l-12.21,-85.08c-2.41,-16.83 -6.68,-29.38 -12.79,-37.64c-6.12,-8.27 -16.4,-11.43 -30.84,-9.49c-9.42,1.26 -17.6,5.12 -24.56,11.58c-6.96,6.46 -11.57,14.67 -13.82,24.63c-1.49,7.95 -0.74,22.33 2.25,43.15l9.17,63.95c1.48,10.35 0.11,18.44 -4.11,24.28c-4.22,5.84 -10.27,9.29 -18.14,10.34c-7.61,1.02 -14.25,-0.82 -19.92,-5.53c-5.67,-4.7 -9.22,-12.04 -10.65,-22.01l-21.17,-147.54c-1.39,-9.72 -0.24,-17.28 3.45,-22.67c3.7,-5.39 9.35,-8.59 16.96,-9.61c4.64,-0.62 8.99,-0.12 13.03,1.49c4.04,1.62 7.5,4.39 10.36,8.33c2.87,3.94 4.74,8.96 5.61,15.07Z" style="fill-rule:nonzero;"/>
            <path d="M2458.54,396.1l9.13,149.44c1.04,17.09 0.06,31.89 -2.96,44.42c-3.02,12.53 -8.44,23.05 -16.27,31.56c-7.83,8.52 -18.35,15.1 -31.56,19.77c-13.22,4.66 -29.83,7.57 -49.85,8.71c-18.33,1.05 -34.86,-0.5 -49.59,-4.64c-14.73,-4.14 -26.24,-9.91 -34.51,-17.32c-8.28,-7.41 -12.67,-15.26 -13.18,-23.55c-0.38,-6.28 1.51,-11.53 5.69,-15.74c4.18,-4.21 9.39,-6.49 15.63,-6.85c7.8,-0.45 14.83,2.49 21.08,8.82c3.07,3.23 6.23,6.48 9.5,9.76c3.27,3.28 6.83,6.04 10.68,8.28c3.85,2.24 8.42,3.81 13.69,4.7c5.27,0.9 11.29,1.15 18.05,0.77c13.78,-0.79 24.36,-3.25 31.73,-7.39c7.38,-4.14 12.39,-9.63 15.04,-16.46c2.65,-6.83 4,-14.06 4.05,-21.7c0.06,-7.63 -0.3,-19.87 -1.07,-36.72c-7.51,11.52 -16.46,20.48 -26.83,26.87c-10.37,6.39 -22.96,10.01 -37.78,10.86c-17.81,1.02 -33.64,-2.49 -47.5,-10.53c-13.86,-8.03 -24.85,-19.76 -32.97,-35.18c-8.12,-15.42 -12.81,-33.5 -14.07,-54.23c-0.94,-15.45 0.38,-29.52 3.98,-42.21c3.59,-12.69 9.16,-23.53 16.7,-32.53c7.54,-9 16.44,-15.97 26.7,-20.91c10.26,-4.94 21.7,-7.76 34.31,-8.48c15.08,-0.86 28.31,1.19 39.7,6.15c11.39,4.96 22.19,13.14 32.41,24.53l-0.43,-6.97c-0.55,-8.92 1.31,-15.96 5.56,-21.12c4.25,-5.16 9.95,-7.94 17.1,-8.35c10.27,-0.59 17.29,2.26 21.07,8.54c3.77,6.28 6.03,15.51 6.78,27.7Zm-150.24,74.01c1.27,20.86 6.95,36.35 17.03,46.5c10.08,10.14 22.59,14.79 37.54,13.93c8.84,-0.5 17.05,-3.27 24.63,-8.31c7.58,-5.03 13.56,-12.31 17.94,-21.83c4.38,-9.52 6.16,-20.87 5.35,-34.06c-1.28,-20.98 -7.06,-37.04 -17.32,-48.18c-10.27,-11.14 -23.2,-16.26 -38.8,-15.37c-15.21,0.87 -27.05,7.15 -35.53,18.86c-8.48,11.7 -12.09,27.86 -10.83,48.46Z" style="fill-rule:nonzero;"/>
            <path d="M2831.05,342.38l-130.36,-8.6l-4.79,67.8l120.03,7.92c8.83,0.58 15.29,2.93 19.37,7.05c4.08,4.12 5.9,9.31 5.46,15.59c-0.44,6.28 -2.95,11.25 -7.51,14.93c-4.57,3.67 -11.33,5.21 -20.29,4.62l-120.03,-7.92l-5.55,78.54l134.84,8.9c9.09,0.6 15.8,3.09 20.13,7.48c4.32,4.39 6.25,9.97 5.77,16.75c-0.46,6.53 -3.14,11.68 -8.04,15.46c-4.9,3.78 -11.9,5.36 -20.99,4.77l-157.25,-10.37c-12.6,-0.83 -21.47,-4.13 -26.61,-9.89c-5.14,-5.76 -7.28,-14.67 -6.43,-26.73l14.66,-207.56c0.57,-8.04 2.26,-14.52 5.09,-19.44c2.83,-4.92 6.95,-8.37 12.38,-10.35c5.43,-1.98 12.23,-2.69 20.41,-2.15l152.77,10.08c9.22,0.61 15.94,3.04 20.14,7.29c4.2,4.25 6.08,9.58 5.63,15.98c-0.46,6.53 -3.07,11.62 -7.83,15.28c-4.76,3.66 -11.75,5.19 -20.98,4.58Z" style="fill-rule:nonzero;"/>
            <path d="M2892.25,557.71l30.27,-221.6c1.4,-10.23 4.81,-17.67 10.24,-22.31c5.43,-4.64 12.14,-6.45 20.15,-5.43c8,1.02 14.1,4.43 18.3,10.24c4.2,5.8 5.59,13.88 4.17,24.24l-30.27,221.6c-1.41,10.36 -4.96,17.81 -10.64,22.35c-5.68,4.54 -12.45,6.31 -20.33,5.31c-7.75,-0.99 -13.67,-4.47 -17.78,-10.46c-4.11,-5.98 -5.48,-13.97 -4.12,-23.95Z" style="fill-rule:nonzero;"/>
            <path d="M3177.36,567.6c-2.77,13.97 -8.66,25.27 -17.67,33.92c-9.01,8.65 -20.89,14.26 -35.66,16.84c-14.76,2.58 -31.99,2.05 -51.69,-1.6c-18.8,-3.48 -34.36,-9.25 -46.68,-17.3c-12.32,-8.05 -20.86,-16.84 -25.59,-26.37c-4.74,-9.53 -6.27,-18.49 -4.61,-26.9c1.1,-5.56 4.09,-9.94 8.97,-13.14c4.88,-3.2 10.45,-4.21 16.71,-3.05c5.5,1.02 9.46,3.1 11.89,6.24c2.43,3.14 4.52,7.31 6.27,12.5c3.58,10.02 8.67,17.95 15.27,23.78c6.6,5.84 16.36,9.95 29.27,12.34c10.49,1.94 19.53,1.28 27.14,-1.99c7.61,-3.27 11.99,-7.81 13.14,-13.62c1.77,-8.9 -0.43,-16.03 -6.59,-21.4c-6.16,-5.37 -16.87,-11.39 -32.11,-18.06c-17.17,-7.67 -30.95,-14.93 -41.32,-21.79c-10.37,-6.86 -18.18,-14.81 -23.41,-23.85c-5.23,-9.04 -6.72,-19.25 -4.47,-30.62c2.01,-10.14 7.04,-19.13 15.1,-27c8.06,-7.86 18.72,-13.35 32,-16.46c13.28,-3.11 28.55,-3.07 45.81,0.13c13.56,2.51 25.47,6.13 35.73,10.85c10.27,4.72 18.56,10.04 24.88,15.95c6.32,5.91 10.81,12 13.48,18.26c2.67,6.26 3.48,12.05 2.42,17.36c-1.15,5.81 -4.11,10.19 -8.87,13.16c-4.76,2.96 -10.85,3.76 -18.27,2.38c-5.37,-1 -9.65,-3.33 -12.83,-6.99c-3.18,-3.67 -6.62,-8.92 -10.3,-15.75c-2.98,-5.68 -6.87,-10.5 -11.65,-14.46c-4.78,-3.96 -11.78,-6.8 -20.98,-8.5c-9.46,-1.75 -17.71,-1.26 -24.75,1.47c-7.04,2.73 -11.13,7 -12.29,12.81c-1.05,5.31 0.38,10.1 4.31,14.35c3.93,4.25 9.57,8.21 16.93,11.88c7.36,3.67 17.56,8.38 30.61,14.13c15.48,6.84 27.84,13.87 37.08,21.1c9.24,7.22 15.8,14.94 19.67,23.16c3.87,8.21 4.89,16.96 3.05,26.23Z" style="fill-rule:nonzero;"/>
            <path d="M3376.52,593.73l-100.42,-27.23c-3.15,11.3 -3.68,21.88 -1.6,31.72c2.08,9.84 6.28,17.98 12.6,24.4c6.32,6.42 14.05,10.87 23.21,13.35c6.14,1.67 11.96,2.49 17.44,2.47c5.48,-0.02 11.04,-0.86 16.66,-2.54c5.63,-1.68 10.94,-3.67 15.93,-5.97c5,-2.3 11.54,-5.5 19.62,-9.58c3.27,-1.47 7.34,-1.54 12.23,-0.21c5.27,1.43 9.12,3.98 11.57,7.65c2.45,3.67 2.94,8.05 1.46,13.14c-1.3,4.48 -4.64,9.23 -10.02,14.24c-5.38,5.01 -12.53,9.28 -21.47,12.8c-8.93,3.52 -19.48,5.6 -31.63,6.23c-12.15,0.63 -25.43,-1.02 -39.85,-4.93c-32.97,-8.94 -55.97,-24.98 -69,-48.12c-13.03,-23.14 -15.02,-50.28 -5.98,-81.42c4.26,-14.66 10.46,-27.65 18.62,-38.97c8.15,-11.32 17.86,-20.29 29.11,-26.91c11.25,-6.62 23.91,-10.61 37.96,-11.96c14.05,-1.35 28.79,0.06 44.21,4.24c20.06,5.44 36.08,14.2 48.06,26.27c11.98,12.07 19.66,25.56 23.04,40.46c3.38,14.9 3.12,29.08 -0.78,42.53c-3.62,12.48 -9.67,19.57 -18.14,21.26c-8.47,1.69 -19.41,0.72 -32.83,-2.92Zm-92.24,-55.41l93.08,25.25c3.67,-17.3 2.62,-31.28 -3.14,-41.93c-5.77,-10.65 -15.36,-17.79 -28.77,-21.43c-12.79,-3.47 -24.53,-2.04 -35.22,4.27c-10.69,6.32 -19.34,17.6 -25.95,33.84Z" style="fill-rule:nonzero;"/>
            <path d="M3605.6,735.46l36.26,-80.48l-20.83,-123.04c-1.71,-11.02 -2.64,-19.44 -2.78,-25.26c-0.14,-5.83 0.59,-10.53 2.2,-14.1c2.65,-5.88 7.3,-9.97 13.94,-12.25c6.64,-2.28 13.42,-1.97 20.34,0.94c7.28,3.07 11.91,7.38 13.87,12.94c1.97,5.56 4.03,15.87 6.2,30.92l14.37,97.67l84.3,-56.15c5.12,-3.47 9.42,-6.4 12.9,-8.78c3.49,-2.38 7.09,-4.46 10.81,-6.26c3.72,-1.8 7.41,-2.82 11.07,-3.06c3.66,-0.24 7.64,0.54 11.94,2.35c6.69,2.81 11.32,7.27 13.9,13.36c2.58,6.1 2.62,11.91 0.13,17.45c-2.03,4.5 -5.19,8.52 -9.48,12.07c-4.3,3.55 -10.98,8.14 -20.06,13.79l-109.62,69.79l-36.26,80.48c-4.73,10.5 -10.77,17.29 -18.13,20.37c-7.35,3.08 -14.91,2.99 -22.67,-0.28c-7.88,-3.32 -13.11,-8.57 -15.69,-15.77c-2.58,-7.19 -1.48,-16.1 3.3,-26.72Z" style="fill-rule:nonzero;"/>
            <path d="M3961.29,830.83c-7.74,13.41 -17.03,24.61 -27.89,33.6c-10.85,8.99 -22.72,15.35 -35.6,19.07c-12.88,3.72 -26.26,4.69 -40.14,2.9c-13.88,-1.79 -27.92,-6.51 -42.14,-14.18c-14.1,-7.6 -25.51,-16.64 -34.23,-27.1c-8.72,-10.47 -14.84,-22.02 -18.36,-34.65c-3.52,-12.63 -4.19,-25.68 -2.02,-39.13c2.17,-13.46 7.16,-26.94 14.96,-40.46c7.86,-13.63 17.22,-24.94 28.08,-33.93c10.85,-8.99 22.63,-15.32 35.34,-18.99c12.7,-3.67 26.05,-4.58 40.04,-2.73c13.99,1.85 27.92,6.51 41.8,13.99c14.1,7.6 25.63,16.7 34.57,27.28c8.95,10.59 15.17,22.16 18.66,34.7c3.49,12.55 4.14,25.58 1.93,39.09c-2.2,13.51 -7.21,27.03 -15.01,40.54Zm-46.74,-25.2c10.59,-18.36 14.66,-34.9 12.2,-49.63c-2.46,-14.73 -10.74,-25.89 -24.84,-33.49c-9.1,-4.9 -18.43,-6.95 -28,-6.12c-9.57,0.82 -18.8,4.67 -27.69,11.55c-8.89,6.88 -16.76,16.26 -23.61,28.13c-6.79,11.76 -10.87,23.03 -12.25,33.82c-1.38,10.79 0.03,20.37 4.21,28.75c4.18,8.38 10.94,15.08 20.26,20.11c14.1,7.6 28.3,8.52 42.58,2.75c14.29,-5.77 26.67,-17.72 37.13,-35.86Z" style="fill-rule:nonzero;"/>
            <path d="M4073.01,999.88l4.03,-5.34c-9.91,2.67 -19.32,4.13 -28.22,4.39c-8.9,0.26 -17.51,-0.94 -25.81,-3.6c-8.3,-2.67 -16.77,-7.04 -25.39,-13.12c-10.41,-7.35 -18.17,-16.02 -23.28,-26.01c-5.11,-9.99 -7.16,-20.24 -6.16,-30.75c1.32,-12.63 8.23,-27.23 20.74,-43.8l62.3,-82.49c6.3,-8.34 12.94,-13.19 19.94,-14.56c7,-1.37 13.71,0.21 20.12,4.73c6.52,4.6 10.21,10.39 11.05,17.38c0.85,6.99 -1.84,14.6 -8.05,22.83l-50.32,66.63c-7.29,9.66 -12.57,18.36 -15.84,26.1c-3.27,7.74 -4.12,15.01 -2.56,21.8c1.56,6.79 6.08,12.82 13.54,18.09c7.26,5.12 15.67,7.86 25.23,8.22c9.56,0.36 18.35,-1.78 26.36,-6.41c6.87,-4.19 17.83,-16.25 32.88,-36.17l38.23,-50.62c6.22,-8.23 12.9,-13.03 20.04,-14.37c7.14,-1.35 13.92,0.24 20.34,4.77c6.42,4.53 10.01,10.22 10.8,17.08c0.78,6.86 -1.97,14.46 -8.27,22.8l-91.09,120.61c-5.99,7.93 -12.35,12.56 -19.07,13.89c-6.73,1.33 -13.04,-0.08 -18.93,-4.24c-5.89,-4.16 -9.2,-9.65 -9.93,-16.47c-0.73,-6.83 1.71,-13.95 7.31,-21.37Z" style="fill-rule:nonzero;"/>
        </g>
    </g>
</svg>
