<?xml version="1.0" encoding="UTF-8" standalone="no"?>
<!DOCTYPE svg PUBLIC "-//W3C//DTD SVG 1.1//EN" "http://www.w3.org/Graphics/SVG/1.1/DTD/svg11.dtd">
<svg width="100%" height="100%" viewBox="0 0 5120 1593" version="1.1" xmlns="http://www.w3.org/2000/svg" xmlns:xlink="http://www.w3.org/1999/xlink" xml:space="preserve" xmlns:serif="http://www.serif.com/" style="fill-rule:evenodd;clip-rule:evenodd;stroke-linejoin:round;stroke-miterlimit:2;">
    <g id="Gamification" transform="matrix(1,0,0,1,24.3038,-1.148145)">
        <g transform="matrix(0.879174,0,0,1.034588,397.673098,416.216586)">
            <path d="M1255.18,574.69l-117.15,47.81l36.07,63.81l97.92,-39.97c9.08,-3.71 16.83,-4.74 23.26,-3.11c6.43,1.63 11.28,5.35 14.55,11.13c3.27,5.79 3.6,11.31 0.98,16.56c-2.62,5.26 -8.4,9.71 -17.34,13.36l-97.92,39.97l46.45,82.19c5.9,10.44 7.5,19.31 4.82,26.62c-2.69,7.31 -8.37,12.74 -17.05,16.28c-8.81,3.6 -17.43,3.97 -25.86,1.13c-8.43,-2.84 -15.56,-9.43 -21.39,-19.75l-108.49,-191.96c-4.1,-7.26 -6.19,-13.71 -6.25,-19.34c-0.06,-5.63 2.02,-10.6 6.24,-14.9c4.22,-4.31 10.54,-8.17 18.95,-11.61l140.18,-57.21c9.48,-3.87 17.53,-4.96 24.16,-3.26c6.63,1.69 11.57,5.43 14.84,11.22c3.33,5.9 3.71,11.58 1.12,17.03c-2.59,5.45 -8.62,10.11 -18.1,13.98Z" style="fill-rule:nonzero;"/>
            <path d="M1597.96,602.27c6.46,14.34 9.79,28.42 9.99,42.23c0.2,13.82 -2.72,26.69 -8.76,38.63c-6.04,11.94 -14.93,22.48 -26.67,31.62c-11.74,9.14 -26.25,16.53 -43.54,22.15c-17.15,5.58 -33.63,8.25 -49.44,8c-15.81,-0.25 -30.7,-3.12 -44.68,-8.61c-13.97,-5.49 -26.24,-13.36 -36.8,-23.61c-10.56,-10.24 -19.1,-22.59 -25.61,-37.05c-6.57,-14.57 -9.95,-28.77 -10.15,-42.59c-0.2,-13.82 2.68,-26.61 8.64,-38.39c5.96,-11.77 14.87,-22.26 26.75,-31.44c11.88,-9.19 26.25,-16.53 43.13,-22.01c17.15,-5.58 33.77,-8.29 49.86,-8.13c16.09,0.16 31.07,2.96 44.95,8.42c13.88,5.46 26.11,13.34 36.7,23.64c10.59,10.3 19.14,22.68 25.65,37.14Zm-56.85,18.49c-8.84,-19.63 -20.81,-33.26 -35.9,-40.88c-15.09,-7.62 -31.21,-8.65 -48.36,-3.07c-11.07,3.6 -19.72,9.21 -25.96,16.83c-6.24,7.62 -9.5,16.94 -9.77,27.94c-0.28,11.01 2.45,22.86 8.16,35.55c5.67,12.58 12.86,22.84 21.59,30.78c8.73,7.94 18.41,13.05 29.02,15.32c10.62,2.27 21.6,1.56 32.94,-2.12c17.15,-5.58 28.33,-15.52 33.55,-29.81c5.22,-14.3 3.45,-31.14 -5.28,-50.54Z" style="fill-rule:nonzero;"/>
            <path d="M1720.72,602.65l14.27,41.3c3.46,10.02 3.29,18.23 -0.52,24.63c-3.81,6.39 -9.98,10.65 -18.51,12.78c-8.38,2.09 -16.15,1.28 -23.3,-2.45c-7.15,-3.72 -12.44,-10.54 -15.86,-20.44l-47.56,-137.66c-7.68,-22.22 -2.06,-35.69 16.84,-40.4c9.66,-2.41 17.52,-1.55 23.58,2.58c6.06,4.13 11.05,11.21 14.98,21.25c3.46,-11.88 7.95,-21.33 13.47,-28.35c5.52,-7.02 14.4,-12.05 26.62,-15.1c12.22,-3.05 24.98,-3.41 38.29,-1.09c13.3,2.32 21.44,7.77 24.4,16.34c2.09,6.04 1.36,11.63 -2.19,16.78c-3.55,5.15 -8.16,8.43 -13.85,9.85c-2.13,0.53 -7.67,0.7 -16.61,0.5c-8.94,-0.2 -16.54,0.49 -22.79,2.05c-8.53,2.13 -14.83,5.77 -18.92,10.92c-4.09,5.15 -6.33,11.84 -6.73,20.07c-0.4,8.23 0.62,17.65 3.05,28.26c2.43,10.61 6.21,23.34 11.34,38.19Z" style="fill-rule:nonzero;"/>
            <path d="M2058.03,573.92l-17.83,-86.47l-99.62,-91.54c-8.77,-8.28 -15.12,-14.81 -19.04,-19.59c-3.92,-4.78 -6.27,-9.1 -7.07,-12.94c-1.3,-6.32 0.45,-12.21 5.27,-17.65c4.82,-5.44 11.46,-8.8 19.92,-10.06c8.9,-1.33 16.09,-0.19 21.56,3.4c5.48,3.59 14.13,11.09 25.95,22.49l77.02,73.82l43.55,-91.77c2.6,-5.63 4.78,-10.36 6.54,-14.2c1.76,-3.84 3.83,-7.5 6.19,-10.98c2.36,-3.48 5.2,-6.3 8.52,-8.46c3.31,-2.15 7.6,-3.62 12.85,-4.4c8.17,-1.22 15.46,0.03 21.86,3.74c6.4,3.71 10.22,8.54 11.45,14.49c1,4.83 0.61,9.88 -1.17,15.12c-1.77,5.25 -5.14,12.65 -10.08,22.2l-58.72,116.65l17.83,86.47c2.33,11.28 1,20.17 -3.98,26.66c-4.98,6.49 -12.21,10.44 -21.69,11.85c-9.63,1.43 -18,-0.16 -25.12,-4.79c-7.12,-4.63 -11.85,-12.64 -14.21,-24.05Z" style="fill-rule:nonzero;"/>
            <path d="M2456.86,462.59c1.47,15.3 0.02,29.61 -4.35,42.92c-4.37,13.31 -11.42,24.97 -21.16,34.99c-9.74,10.02 -21.75,18.02 -36.03,24c-14.29,5.98 -30.65,9.61 -49.1,10.89c-18.3,1.27 -35,-0.1 -50.1,-4.1c-15.1,-4 -28.44,-10.31 -40.04,-18.91c-11.6,-8.6 -20.78,-19.08 -27.54,-31.43c-6.76,-12.35 -10.88,-26.24 -12.36,-41.66c-1.49,-15.55 -0.06,-29.99 4.31,-43.3c4.37,-13.31 11.35,-24.91 20.95,-34.79c9.6,-9.88 21.62,-17.82 36.05,-23.81c14.43,-5.99 30.65,-9.61 48.66,-10.86c18.3,-1.27 35.15,0.09 50.54,4.07c15.39,3.98 28.85,10.25 40.37,18.79c11.52,8.54 20.66,19.02 27.43,31.43c6.76,12.41 10.89,26.33 12.37,41.76Zm-60.67,4.21c-2.01,-20.95 -9,-36.88 -20.98,-47.79c-11.97,-10.91 -27.11,-15.73 -45.41,-14.46c-11.81,0.82 -21.97,4.14 -30.47,9.97c-8.5,5.83 -14.7,13.99 -18.6,24.49c-3.89,10.5 -5.19,22.52 -3.89,36.07c1.29,13.42 4.82,24.98 10.58,34.69c5.76,9.7 13.36,16.91 22.81,21.62c9.44,4.71 20.22,6.65 32.32,5.81c18.3,-1.27 32.32,-8.15 42.04,-20.63c9.72,-12.48 13.59,-29.07 11.6,-49.77Z" style="fill-rule:nonzero;"/>
            <path d="M2673.27,542.28l0.28,-6.6c-7.59,7.57 -15.49,13.88 -23.71,18.91c-8.22,5.03 -17.12,8.69 -26.7,10.98c-9.58,2.28 -20.44,3.24 -32.58,2.86c-14.65,-0.45 -27.68,-3.44 -39.07,-8.96c-11.4,-5.52 -20.08,-12.9 -26.06,-22.16c-7.08,-11.18 -10.18,-27.02 -9.29,-47.52l4.39,-102.06c0.44,-10.31 3.51,-17.93 9.21,-22.86c5.7,-4.92 13.06,-7.25 22.09,-6.97c9.18,0.28 16.47,3.09 21.87,8.42c5.4,5.33 7.88,13.09 7.45,23.28l-3.54,82.44c-0.51,11.95 0.24,22.02 2.26,30.2c2.02,8.19 6,14.67 11.95,19.45c5.94,4.78 14.17,7.34 24.68,7.66c10.21,0.32 19.94,-1.96 29.19,-6.84c9.25,-4.88 16.13,-11.4 20.63,-19.57c3.72,-7.19 6.11,-23.11 7.17,-47.76l2.69,-62.63c0.44,-10.19 3.58,-17.77 9.43,-22.75c5.85,-4.98 13.28,-7.33 22.31,-7.05c9.03,0.28 16.17,3.05 21.43,8.32c5.26,5.26 7.66,13.05 7.22,23.37l-6.42,149.23c-0.42,9.81 -3.37,17.09 -8.83,21.83c-5.47,4.74 -12.34,6.98 -20.63,6.73c-8.29,-0.26 -15.02,-3.02 -20.21,-8.28c-5.18,-5.26 -7.58,-12.48 -7.18,-21.66Z" style="fill-rule:nonzero;"/>
            <path d="M2860.03,512.59l-7.19,42.61c-1.75,10.34 -5.91,17.75 -12.51,22.22c-6.59,4.47 -14.28,6.17 -23.08,5.1c-8.65,-1.05 -15.32,-4.54 -20.01,-10.45c-4.69,-5.91 -6.17,-13.98 -4.44,-24.19l23.98,-142.02c3.87,-22.92 15.56,-33.19 35.05,-30.82c9.97,1.22 16.7,4.77 20.19,10.66c3.49,5.89 4.58,14.1 3.25,24.62c8.95,-9.59 17.65,-16.6 26.11,-21.04c8.45,-4.44 18.99,-5.89 31.59,-4.35c12.61,1.54 24.4,5.71 35.37,12.51c10.97,6.8 15.71,14.63 14.21,23.48c-1.05,6.23 -4.45,11.06 -10.19,14.49c-5.74,3.43 -11.54,4.79 -17.41,4.08c-2.2,-0.27 -7.32,-2.07 -15.36,-5.4c-8.04,-3.33 -15.29,-5.39 -21.74,-6.18c-8.8,-1.07 -16.31,0.01 -22.54,3.26c-6.23,3.24 -11.54,8.54 -15.92,15.89c-4.38,7.35 -8.06,16.28 -11.03,26.79c-2.97,10.51 -5.75,23.42 -8.34,38.75Z" style="fill-rule:nonzero;"/>
            <path d="M3367,597.34c-5.4,16.1 -15.13,29.38 -29.19,39.85c-14.06,10.47 -31.71,17.05 -52.94,19.76c-21.24,2.71 -44.74,0.94 -70.52,-5.3c-30.91,-7.49 -54.74,-18.62 -71.49,-33.41c-11.85,-10.59 -20.22,-22.93 -25.13,-37c-4.9,-14.08 -5.47,-26.75 -1.69,-38c2.19,-6.54 6.74,-11.49 13.64,-14.85c6.9,-3.37 14.49,-4.05 22.75,-2.05c6.69,1.62 11.75,4.81 15.16,9.56c3.41,4.75 5.56,11.1 6.44,19.03c1.15,9.44 3.08,17.56 5.8,24.37c2.72,6.81 7.66,13.08 14.83,18.81c7.17,5.73 17.58,10.25 31.26,13.56c18.8,4.55 35.32,4.53 49.57,-0.07c14.25,-4.6 23.24,-12.46 26.97,-23.6c2.96,-8.84 2.2,-16.77 -2.29,-23.82c-4.49,-7.04 -11.27,-13.23 -20.34,-18.57c-9.07,-5.34 -21.46,-11.67 -37.17,-19.01c-21,-9.93 -38.08,-19.73 -51.24,-29.39c-13.16,-9.67 -22.45,-20.75 -27.89,-33.25c-5.43,-12.5 -5.57,-26.44 -0.41,-41.81c4.91,-14.65 13.98,-26.52 27.19,-35.62c13.22,-9.1 29.75,-14.55 49.61,-16.35c19.85,-1.8 41.82,0.22 65.89,6.05c19.23,4.66 35.18,10.71 47.85,18.17c12.67,7.45 22.51,15.66 29.51,24.62c7,8.96 11.41,17.65 13.2,26.07c1.8,8.42 1.52,16.14 -0.84,23.16c-2.15,6.41 -6.76,11.55 -13.83,15.4c-7.07,3.85 -14.59,4.81 -22.56,2.88c-7.26,-1.76 -12.27,-4.64 -15,-8.64c-2.74,-4 -5.14,-10.05 -7.2,-18.14c-2.33,-11.43 -6.54,-20.92 -12.62,-28.48c-6.09,-7.56 -17.96,-13.48 -35.62,-17.76c-16.38,-3.97 -30.61,-4.11 -42.71,-0.43c-12.09,3.68 -19.58,9.82 -22.46,18.41c-1.79,5.33 -1.62,10.34 0.5,15.04c2.12,4.7 5.7,9.17 10.75,13.4c5.05,4.23 10.37,7.88 15.97,10.93c5.6,3.06 14.94,7.81 28.02,14.25c16.48,7.79 31.17,15.53 44.07,23.24c12.89,7.7 23.35,15.8 31.36,24.28c8.01,8.48 13.28,18.04 15.8,28.66c2.52,10.62 1.53,22.65 -2.98,36.09Z" style="fill-rule:nonzero;"/>
            <path d="M3516.78,547.3l-60.97,139.65c-4.22,9.68 -10.13,16.14 -17.71,19.39c-7.58,3.25 -15.53,3.56 -23.87,0.93c-8.33,-2.63 -13.99,-7.3 -16.98,-14.01c-2.99,-6.72 -2.43,-14.79 1.69,-24.23l60.35,-138.23c4.17,-9.56 9.92,-15.93 17.24,-19.13c7.32,-3.2 15.14,-3.48 23.48,-0.85c8.33,2.63 14.15,7.21 17.45,13.76c3.3,6.55 3.07,14.12 -0.69,22.74Zm-6.33,-58.78c-7.91,-2.5 -13.78,-6.69 -17.6,-12.6c-3.82,-5.9 -4.08,-12.63 -0.79,-20.18c2.99,-6.84 8.33,-11.57 16.02,-14.18c7.69,-2.61 15.36,-2.71 23,-0.3c7.36,2.32 13.01,6.38 16.95,12.19c3.94,5.81 4.24,12.55 0.89,20.21c-3.25,7.43 -8.56,12.37 -15.94,14.81c-7.38,2.44 -14.89,2.45 -22.53,0.04Z" style="fill-rule:nonzero;"/>
            <path d="M3600.62,548.75l6.11,2.26l14.55,-28.38c3.9,-7.62 7.2,-13.5 9.9,-17.65c2.69,-4.15 5.92,-7.38 9.69,-9.69c3.83,-2.43 8.3,-3.9 13.41,-4.41c5.11,-0.51 10.17,0.16 15.2,2.02c7.06,2.61 12.29,7.23 15.68,13.84c2.26,4.41 2.8,8.96 1.6,13.67c-1.2,4.7 -3.84,11.04 -7.92,19l-16.5,32.19l20.37,7.54c7.88,2.92 13.07,6.73 15.58,11.43c2.51,4.71 2.5,9.54 -0.04,14.5c-3.25,6.35 -8.48,9.7 -15.69,10.05c-7.21,0.35 -16.31,-1.51 -27.31,-5.58l-10.39,-3.85l-44.54,86.88c-3.79,7.38 -6.39,13.18 -7.82,17.39c-1.43,4.21 -1.46,8.04 -0.08,11.5c1.38,3.46 5.05,6.3 11.03,8.51c3.26,1.21 7.92,2.35 13.99,3.43c6.07,1.08 10.67,2.2 13.79,3.35c4.48,1.66 7.74,4.68 9.77,9.07c2.03,4.39 1.89,8.83 -0.41,13.33c-3.9,7.62 -11.78,11.63 -23.63,12.05c-11.85,0.42 -26.93,-2.76 -45.26,-9.55c-17.38,-6.43 -29.28,-13.79 -35.7,-22.07c-6.42,-8.28 -8.77,-17.32 -7.06,-27.12c1.71,-9.8 6.32,-22.03 13.84,-36.68l46.49,-90.69l-7.33,-2.71c-8.01,-2.97 -13.29,-6.84 -15.85,-11.63c-2.55,-4.79 -2.56,-9.66 -0.01,-14.63c2.54,-4.96 6.83,-8.21 12.87,-9.75c6.04,-1.54 13.27,-0.75 21.69,2.37Z" style="fill-rule:nonzero;"/>
            <path d="M3849.15,776.7l-104.62,-47.53c-6.36,10.38 -9.64,20.59 -9.83,30.64c-0.19,10.05 2.41,18.86 7.8,26.45c5.39,7.59 12.85,13.54 22.38,17.88c6.4,2.91 12.65,4.93 18.74,6.05c6.09,1.13 12.48,1.46 19.15,0.99c6.67,-0.46 13.08,-1.3 19.21,-2.51c6.13,-1.21 14.21,-2.96 24.22,-5.26c4,-0.75 8.55,0.03 13.64,2.34c5.49,2.49 9.12,5.79 10.91,9.88c1.79,4.1 1.22,8.47 -1.71,13.14c-2.58,4.11 -7.5,8.05 -14.74,11.82c-7.24,3.77 -16.28,6.45 -27.09,8.03c-10.82,1.58 -23.05,1.41 -36.71,-0.52c-13.65,-1.92 -27.99,-6.3 -43.01,-13.12c-34.35,-15.61 -55.82,-36.07 -64.42,-61.38c-8.59,-25.31 -3.92,-52.23 14.03,-80.75c8.45,-13.43 18.64,-24.82 30.57,-34.17c11.93,-9.35 24.98,-16.09 39.16,-20.2c14.18,-4.12 29.24,-5.37 45.19,-3.76c15.95,1.61 31.96,6.06 48.02,13.36c20.9,9.49 36.47,21.38 46.71,35.67c10.24,14.29 15.35,29.06 15.32,44.32c-0.03,15.26 -3.92,29.05 -11.67,41.37c-7.19,11.43 -15.71,17.09 -25.54,16.97c-9.84,-0.12 -21.74,-3.35 -35.72,-9.7Zm-88.38,-73.34l96.98,44.06c8.47,-16.13 10.85,-30 7.15,-41.6c-3.7,-11.6 -12.54,-20.58 -26.51,-26.92c-13.32,-6.05 -26.72,-7.11 -40.2,-3.17c-13.48,3.94 -25.95,13.15 -37.41,27.63Z" style="fill-rule:nonzero;"/>
        </g>
        <g transform="matrix(1,0,0,1.034588,73.477957,-7.934071)">
            <path d="M683.41,1193.06l-157.73,-155.88c-8.19,-8.1 -12.43,-15.98 -12.71,-23.63c-0.28,-7.66 2.6,-14.35 8.66,-20.07c6.24,-5.9 13.31,-8.67 21.23,-8.32c7.91,0.35 16.01,4.62 24.3,12.81l157.73,155.88c8.28,8.19 12.54,16.13 12.78,23.83c0.23,7.7 -2.77,14.5 -9,20.4c-5.96,5.63 -12.94,8.23 -20.94,7.79c-8.01,-0.44 -16.11,-4.71 -24.3,-12.81Z" style="fill-rule:nonzero;"/>
            <path d="M715.18,966.21l3.98,4.9c-0.28,-15 2.17,-28.03 7.34,-39.08c5.17,-11.05 13.44,-20.9 24.8,-29.53c11.05,-8.4 22.82,-13.58 35.31,-15.54c12.48,-1.96 24.33,-0.32 35.55,4.92c6.79,2.85 12.92,6.83 18.41,11.94c5.49,5.12 11.85,12.13 19.09,21.03l61.32,75.39c6.6,8.11 9.67,15.71 9.21,22.78c-0.46,7.07 -3.76,12.94 -9.9,17.61c-6.24,4.75 -13.04,6.47 -20.39,5.17c-7.35,-1.3 -14.24,-5.91 -20.68,-13.82l-54.93,-67.53c-10.86,-13.36 -21.09,-22.11 -30.69,-26.27c-9.59,-4.16 -20.12,-1.88 -31.59,6.83c-7.47,5.68 -12.53,13 -15.17,21.97c-2.64,8.97 -2.34,18.31 0.91,28c2.86,7.59 11.01,19.65 24.45,36.17l41.29,50.76c6.68,8.21 9.72,15.87 9.12,22.97c-0.6,7.1 -4.02,13.02 -10.27,17.77c-6.04,4.59 -12.73,6.23 -20.08,4.94c-7.35,-1.3 -14.24,-5.91 -20.68,-13.82l-95.25,-117.09c-6.28,-7.72 -9.22,-14.8 -8.84,-21.26c0.38,-6.45 3.59,-11.98 9.63,-16.56c3.68,-2.8 7.7,-4.49 12.03,-5.06c4.34,-0.57 8.77,0.14 13.3,2.14c4.53,2 8.76,5.43 12.71,10.28Z" style="fill-rule:nonzero;"/>
            <path d="M874.42,822.66l4.94,-3.04l-17.2,-26.12c-4.61,-7.01 -8.04,-12.62 -10.28,-16.84c-2.24,-4.22 -3.42,-8.3 -3.55,-12.25c-0.2,-4.05 0.74,-8.02 2.81,-11.91c2.07,-3.89 5.14,-7.08 9.21,-9.58c5.71,-3.51 12.24,-4.62 19.58,-3.31c4.89,0.87 9.06,3.04 12.51,6.52c3.45,3.48 7.58,8.88 12.4,16.2l19.5,29.63l16.48,-10.13c6.37,-3.92 12.19,-5.45 17.47,-4.59c5.27,0.86 9.41,3.57 12.42,8.14c3.84,5.84 4.15,11.4 0.91,16.67c-3.24,5.27 -9.31,10.65 -18.21,16.12l-8.4,5.17l52.63,79.96c4.47,6.8 8.16,11.87 11.07,15.23c2.91,3.36 6.18,5.52 9.83,6.49c3.65,0.97 7.88,-0.04 12.72,-3.01c2.64,-1.62 5.91,-4.27 9.82,-7.94c3.91,-3.67 7.13,-6.29 9.65,-7.84c3.63,-2.23 7.82,-2.83 12.58,-1.81c4.76,1.02 8.51,3.61 11.23,7.75c4.61,7.01 4.19,14.8 -1.27,23.38c-5.46,8.58 -15.61,17.43 -30.44,26.55c-14.06,8.65 -26.22,12.92 -36.48,12.81c-10.26,-0.11 -19.17,-3.5 -26.73,-10.19c-7.56,-6.68 -15.79,-16.77 -24.66,-30.26l-54.94,-83.46l-5.93,3.65c-6.48,3.99 -12.4,5.54 -17.77,4.66c-5.36,-0.88 -9.55,-3.6 -12.55,-8.17c-3.01,-4.57 -3.68,-9.41 -2.04,-14.52c1.65,-5.12 5.88,-9.77 12.69,-13.96Z" style="fill-rule:nonzero;"/>
            <path d="M1192.25,775.18l-92.2,47.12c5.78,10.29 12.92,18.31 21.45,24.06c8.52,5.75 17.36,8.85 26.52,9.3c9.16,0.45 17.93,-1.48 26.34,-5.77c5.64,-2.88 10.44,-6.16 14.4,-9.82c3.96,-3.66 7.38,-7.97 10.27,-12.94c2.88,-4.96 5.31,-9.94 7.29,-14.94c1.98,-5 4.44,-11.67 7.39,-20.01c1.32,-3.24 4.23,-6 8.72,-8.3c4.83,-2.47 9.45,-3.19 13.84,-2.16c4.39,1.03 7.87,3.88 10.42,8.55c2.25,4.12 3.22,9.78 2.89,16.99c-0.33,7.21 -2.47,15.07 -6.43,23.58c-3.96,8.5 -10.13,17.03 -18.49,25.57c-8.36,8.54 -19.16,16.2 -32.4,22.96c-30.27,15.47 -58.38,19.16 -84.31,11.06c-25.94,-8.1 -46.72,-26.45 -62.37,-55.04c-7.36,-13.46 -12.12,-27.01 -14.28,-40.64c-2.16,-13.63 -1.51,-26.6 1.92,-38.89c3.44,-12.29 9.77,-23.61 18.99,-33.94c9.22,-10.34 20.91,-19.12 35.07,-26.36c18.42,-9.41 36.27,-13.73 53.56,-12.96c17.29,0.77 32.47,5.44 45.54,13.99c13.07,8.55 22.99,19 29.74,31.35c6.27,11.46 6.94,20.62 2,27.49c-4.93,6.86 -13.56,13.44 -25.88,19.74Zm-106.35,21.25l85.47,-43.68c-9.67,-14.99 -20.39,-24.42 -32.16,-28.3c-11.77,-3.88 -23.81,-2.67 -36.13,3.62c-11.74,6 -19.24,14.85 -22.48,26.55c-3.25,11.7 -1.48,25.63 5.31,41.81Z" style="fill-rule:nonzero;"/>
            <path d="M1334.84,731.24l17.36,39.64c4.21,9.62 5.04,17.79 2.47,24.51c-2.57,6.72 -7.45,11.56 -14.64,14.5c-7.07,2.9 -13.96,2.84 -20.64,-0.16c-6.69,-3 -12.11,-9.26 -16.28,-18.76l-57.88,-132.12c-9.34,-21.32 -6.04,-35.25 9.91,-41.78c8.15,-3.34 15.12,-3.25 20.9,0.26c5.78,3.51 10.98,10.06 15.61,19.65c1.61,-12.14 4.41,-21.96 8.4,-29.48c3.99,-7.51 11.14,-13.38 21.45,-17.6c10.31,-4.22 21.41,-5.83 33.31,-4.82c11.9,1.01 19.65,5.63 23.25,13.85c2.54,5.79 2.56,11.42 0.08,16.88c-2.49,5.46 -6.13,9.17 -10.92,11.13c-1.8,0.74 -6.61,1.44 -14.45,2.12c-7.83,0.68 -14.39,2.1 -19.66,4.26c-7.19,2.94 -12.27,7.17 -15.23,12.69c-2.96,5.52 -4.12,12.38 -3.49,20.6c0.63,8.22 2.64,17.47 6.02,27.78c3.38,10.3 8.2,22.58 14.44,36.83Z" style="fill-rule:nonzero;"/>
            <path d="M1585.39,687.41c-8.89,13.24 -18.19,24.06 -27.93,32.46c-9.73,8.4 -21.67,14.97 -35.81,19.72c-12.91,4.34 -25.15,5.68 -36.7,4.03c-11.55,-1.65 -21.49,-5.81 -29.81,-12.47c-8.32,-6.66 -14.26,-14.93 -17.81,-24.8c-4.79,-13.31 -4.5,-26.13 0.85,-38.46c5.36,-12.32 15.08,-22.65 29.18,-30.99c2.94,-1.79 10.3,-6.06 22.07,-12.81c11.77,-6.75 21.8,-12.69 30.09,-17.8c8.29,-5.12 17.19,-10.94 26.7,-17.46c-5.23,-12.63 -11.29,-21.16 -18.19,-25.57c-6.89,-4.41 -17.78,-4.12 -32.66,0.88c-12.79,4.3 -21.8,9.25 -27.01,14.87c-5.22,5.62 -8.89,12.65 -11.03,21.09c-2.13,8.44 -3.76,14.09 -4.87,16.93c-1.12,2.84 -4.81,5.31 -11.08,7.42c-5.66,1.9 -11.18,1.79 -16.56,-0.33c-5.38,-2.12 -9.05,-5.92 -11.02,-11.39c-3.08,-8.56 -2.93,-17.93 0.43,-28.13c3.37,-10.19 10.75,-20.13 22.15,-29.82c11.4,-9.69 27.01,-17.86 46.81,-24.52c22.14,-7.44 40.45,-10.76 54.94,-9.96c14.48,0.8 26.31,5.79 35.47,14.97c9.16,9.18 16.99,22.81 23.48,40.88c4.1,11.41 7.56,21.11 10.36,29.1c2.8,7.99 5.89,16.87 9.28,26.66c3.29,9.15 8.29,18.17 14.99,27.04c6.71,8.87 10.57,14.74 11.6,17.59c1.8,4.99 1,10.36 -2.38,16.09c-3.38,5.73 -8.15,9.63 -14.3,11.7c-5.17,1.74 -11.11,1.1 -17.85,-1.9c-6.73,-3 -14.53,-8.01 -23.39,-15.03Zm-28.64,-69.32c-6.44,5.09 -16.18,11.46 -29.21,19.11c-13.04,7.64 -22.01,13.06 -26.93,16.24c-4.92,3.18 -9.12,7.59 -12.61,13.23c-3.49,5.64 -3.95,12.02 -1.39,19.15c2.65,7.37 7.79,12.67 15.43,15.9c7.64,3.23 16.13,3.27 25.48,0.14c9.96,-3.35 18.4,-8.54 25.31,-15.59c6.91,-7.05 11.13,-14.56 12.68,-22.54c1.9,-8.9 -0.18,-21.79 -6.25,-38.67l-2.5,-6.95Z" style="fill-rule:nonzero;"/>
            <path d="M1861.81,576.26c1.67,6.21 1.52,13.33 -0.43,21.36c-1.95,8.03 -6.01,16.23 -12.17,24.6c-6.16,8.37 -14.71,16 -25.64,22.9c-10.93,6.9 -23.89,12.22 -38.89,15.98c-31.89,7.99 -59.19,5.23 -81.91,-8.26c-22.72,-13.49 -38.12,-35.34 -46.22,-65.56c-5.49,-20.47 -6.24,-39.59 -2.26,-57.35c3.98,-17.77 12.57,-32.89 25.77,-45.36c13.2,-12.47 30.58,-21.41 52.13,-26.8c13.36,-3.35 26.13,-4.53 38.29,-3.54c12.17,0.98 22.93,3.49 32.28,7.52c9.35,4.03 16.98,8.91 22.89,14.65c5.91,5.74 9.65,11.53 11.21,17.38c1.6,5.97 0.65,11.6 -2.84,16.9c-3.49,5.29 -8.51,8.76 -15.07,10.4c-4.29,1.07 -8.13,0.9 -11.54,-0.52c-3.41,-1.42 -7.51,-4.07 -12.32,-7.93c-8.78,-7.68 -17.23,-12.98 -25.34,-15.89c-8.11,-2.91 -17.46,-3.04 -28.05,-0.39c-15.25,3.82 -26,12.65 -32.24,26.5c-6.24,13.85 -6.69,30.76 -1.33,50.74c2.51,9.38 6.02,17.7 10.52,24.96c4.5,7.26 9.76,13.09 15.79,17.5c6.02,4.41 12.63,7.24 19.83,8.49c7.2,1.25 14.64,0.92 22.33,-1.01c10.34,-2.59 18.57,-7.12 24.7,-13.6c6.13,-6.48 10.76,-15.18 13.89,-26.1c1.65,-6.39 3.88,-11.63 6.68,-15.71c2.81,-4.08 6.86,-6.79 12.15,-8.11c6.3,-1.58 12.15,-0.57 17.55,3.02c5.4,3.59 8.8,8 10.21,13.24Z" style="fill-rule:nonzero;"/>
            <path d="M1886.73,427.94l5.76,-1.06l-6.01,-30.41c-1.61,-8.16 -2.65,-14.6 -3.12,-19.32c-0.47,-4.72 -0.01,-8.94 1.38,-12.65c1.36,-3.84 3.75,-7.19 7.16,-10.07c3.41,-2.87 7.48,-4.74 12.21,-5.62c6.65,-1.23 13.14,0.07 19.46,3.9c4.22,2.55 7.26,6.06 9.14,10.52c1.87,4.46 3.65,10.95 5.34,19.48l6.81,34.49l19.18,-3.54c7.42,-1.37 13.41,-0.71 17.99,1.97c4.57,2.68 7.38,6.68 8.43,11.99c1.34,6.8 -0.5,12.07 -5.53,15.82c-5.03,3.75 -12.72,6.57 -23.08,8.49l-9.78,1.81l18.38,93.09c1.56,7.91 3.05,13.95 4.47,18.11c1.42,4.16 3.64,7.34 6.65,9.53c3.02,2.2 7.34,2.78 12.97,1.74c3.07,-0.57 7.12,-1.86 12.16,-3.88c5.04,-2.02 9.03,-3.3 11.97,-3.84c4.22,-0.78 8.35,0.16 12.39,2.81c4.04,2.65 6.53,6.39 7.48,11.21c1.61,8.16 -1.76,15.25 -10.11,21.28c-8.35,6.03 -21.16,10.63 -38.43,13.82c-16.37,3.02 -29.3,2.65 -38.79,-1.11c-9.49,-3.76 -16.48,-10.09 -20.95,-19.01c-4.48,-8.91 -8.27,-21.22 -11.37,-36.92l-19.19,-97.17l-6.91,1.27c-7.55,1.39 -13.64,0.72 -18.29,-2.01c-4.65,-2.73 -7.5,-6.75 -8.55,-12.07c-1.05,-5.32 0.17,-10.06 3.65,-14.22c3.49,-4.17 9.19,-6.98 17.12,-8.44Z" style="fill-rule:nonzero;"/>
            <path d="M2088.02,419.38l23.02,147.28c1.6,10.2 0.29,18.29 -3.91,24.25c-4.2,5.96 -10.17,9.5 -17.89,10.63c-7.72,1.13 -14.42,-0.63 -20.08,-5.28c-5.66,-4.65 -9.27,-11.95 -10.83,-21.9l-22.79,-145.78c-1.58,-10.08 -0.35,-18.02 3.68,-23.83c4.03,-5.81 9.91,-9.27 17.63,-10.4c7.72,-1.13 14.5,0.49 20.32,4.86c5.82,4.37 9.44,11.1 10.86,20.18Zm-34.3,-48.83c-7.34,1.07 -13.96,-0.19 -19.85,-3.78c-5.9,-3.59 -9.47,-9.37 -10.71,-17.34c-1.13,-7.22 0.61,-13.55 5.23,-19c4.61,-5.45 10.46,-8.69 17.54,-9.72c6.82,-1 13.21,0.24 19.15,3.7c5.94,3.46 9.54,9.23 10.81,17.32c1.23,7.84 -0.39,14.34 -4.85,19.51c-4.46,5.17 -10.23,8.27 -17.31,9.31Z" style="fill-rule:nonzero;"/>
            <path d="M2189.78,409.6l54.68,112.46l34.04,-125.92c2.65,-10.11 5.51,-17.37 8.6,-21.77c3.09,-4.4 8.2,-6.93 15.33,-7.6c6.74,-0.63 12.69,1.02 17.87,4.96c5.17,3.94 8.05,8.79 8.63,14.55c0.23,2.25 0.07,4.92 -0.47,8.01c-0.54,3.09 -1.23,6 -2.07,8.73c-0.84,2.73 -1.8,5.86 -2.88,9.38l-38.64,126.92c-1.07,3.64 -2.47,8.26 -4.2,13.86c-1.73,5.6 -3.79,10.44 -6.19,14.52c-2.4,4.08 -5.54,7.38 -9.41,9.89c-3.87,2.51 -8.72,4.04 -14.55,4.59c-7.52,0.71 -13.68,-0.39 -18.48,-3.29c-4.81,-2.9 -8.48,-6.22 -11.01,-9.97c-2.54,-3.74 -6.92,-11.2 -13.14,-22.38l-62.7,-116.07c-1.47,-2.9 -2.97,-5.79 -4.5,-8.68c-1.53,-2.89 -2.88,-5.86 -4.04,-8.91c-1.16,-3.05 -1.85,-5.71 -2.08,-7.96c-0.35,-3.51 0.4,-7.09 2.26,-10.74c1.86,-3.65 4.62,-6.76 8.29,-9.31c3.67,-2.56 7.77,-4.05 12.3,-4.48c8.81,-0.83 15.12,1.04 18.91,5.62c3.8,4.57 8.28,12.44 13.46,23.58Z" style="fill-rule:nonzero;"/>
            <path d="M2526.59,475.88l-104.27,2.37c0.41,11.7 3.11,21.96 8.07,30.79c4.97,8.83 11.45,15.41 19.43,19.76c7.99,4.35 16.73,6.42 26.23,6.2c6.38,-0.14 12.19,-1 17.42,-2.57c5.24,-1.57 10.29,-3.95 15.16,-7.14c4.87,-3.19 9.35,-6.6 13.43,-10.22c4.08,-3.62 9.37,-8.52 15.86,-14.71c2.68,-2.33 6.56,-3.55 11.63,-3.66c5.47,-0.12 9.93,1.22 13.38,4.04c3.45,2.82 5.25,6.87 5.37,12.15c0.11,4.66 -1.64,10.14 -5.27,16.45c-3.62,6.31 -9.17,12.42 -16.65,18.32c-7.48,5.9 -16.93,10.86 -28.36,14.9c-11.43,4.04 -24.63,6.22 -39.6,6.56c-34.24,0.78 -61.08,-8.06 -80.55,-26.5c-19.46,-18.44 -29.59,-43.83 -30.37,-76.17c-0.37,-15.22 1.63,-29.4 6,-42.53c4.37,-13.13 10.93,-24.45 19.69,-33.97c8.76,-9.51 19.65,-16.91 32.67,-22.17c13.03,-5.27 27.55,-8.08 43.56,-8.45c20.83,-0.47 38.8,3.37 53.91,11.52c15.11,8.15 26.54,18.88 34.29,32.17c7.75,13.29 11.79,26.92 12.13,40.89c0.31,12.96 -3.32,21.45 -10.91,25.46c-7.59,4.01 -18.34,6.18 -32.27,6.49Zm-104.98,-26.89l96.65,-2.19c-1.73,-17.59 -6.96,-30.65 -15.7,-39.2c-8.74,-8.55 -20.07,-12.67 -34,-12.35c-13.28,0.3 -24.07,4.98 -32.38,14.05c-8.31,9.06 -13.17,22.3 -14.57,39.7Z" style="fill-rule:nonzero;"/>
            <path d="M2933.44,353.32l-129.99,-12.79l-7.12,67.61l119.69,11.77c8.81,0.87 15.18,3.42 19.12,7.67c3.94,4.25 5.58,9.5 4.92,15.76c-0.66,6.26 -3.33,11.15 -8.02,14.68c-4.69,3.52 -11.5,4.85 -20.44,3.97l-119.69,-11.77l-8.25,78.32l134.46,13.23c9.07,0.89 15.69,3.6 19.86,8.12c4.17,4.52 5.9,10.16 5.19,16.92c-0.69,6.51 -3.54,11.57 -8.57,15.19c-5.03,3.62 -12.07,4.98 -21.14,4.09l-156.81,-15.43c-12.57,-1.24 -21.32,-4.82 -26.26,-10.74c-4.94,-5.93 -6.77,-14.9 -5.51,-26.92l21.79,-206.97c0.84,-8.01 2.76,-14.43 5.76,-19.26c3,-4.83 7.24,-8.14 12.73,-9.94c5.49,-1.8 12.32,-2.3 20.48,-1.5l152.34,14.99c9.2,0.9 15.82,3.55 19.88,7.93c4.05,4.38 5.74,9.77 5.07,16.15c-0.69,6.51 -3.47,11.52 -8.35,15.02c-4.88,3.5 -11.93,4.8 -21.12,3.9Z" style="fill-rule:nonzero;"/>
            <path d="M2987.61,570.59l38.04,-220.47c1.76,-10.18 5.43,-17.5 11.02,-21.96c5.59,-4.46 12.36,-6.05 20.33,-4.76c7.96,1.28 13.94,4.89 17.93,10.83c3.99,5.94 5.1,14.06 3.32,24.36l-38.04,220.47c-1.78,10.3 -5.58,17.63 -11.42,21.99c-5.83,4.35 -12.67,5.9 -20.5,4.64c-7.71,-1.24 -13.51,-4.92 -17.4,-11.04c-3.9,-6.11 -4.99,-14.14 -3.27,-24.07Z" style="fill-rule:nonzero;"/>
            <path d="M3255.07,561.06l-101.6,-22.79c-2.61,11.43 -2.65,22.02 -0.11,31.76c2.54,9.74 7.12,17.68 13.73,23.82c6.61,6.13 14.55,10.24 23.81,12.32c6.22,1.39 12.06,1.96 17.54,1.7c5.48,-0.26 10.98,-1.35 16.52,-3.27c5.54,-1.92 10.75,-4.15 15.64,-6.67c4.88,-2.52 11.27,-6 19.15,-10.43c3.19,-1.61 7.26,-1.86 12.21,-0.75c5.33,1.19 9.3,3.57 11.92,7.13c2.62,3.56 3.31,7.91 2.08,13.06c-1.09,4.54 -4.2,9.43 -9.34,14.67c-5.14,5.24 -12.08,9.82 -20.84,13.74c-8.76,3.91 -19.19,6.45 -31.3,7.61c-12.11,1.16 -25.46,0.1 -40.04,-3.17c-33.36,-7.48 -57.09,-22.49 -71.19,-45.04c-14.1,-22.54 -17.37,-49.57 -9.81,-81.08c3.56,-14.83 9.15,-28.08 16.76,-39.75c7.61,-11.66 16.88,-21.05 27.81,-28.16c10.93,-7.11 23.38,-11.65 37.35,-13.62c13.97,-1.97 28.76,-1.2 44.36,2.29c20.29,4.55 36.71,12.59 49.25,24.13c12.54,11.53 20.84,24.67 24.93,39.41c4.08,14.74 4.49,28.91 1.22,42.52c-3.03,12.63 -8.74,19.97 -17.12,22.03c-8.38,2.06 -19.36,1.57 -32.93,-1.47Zm-94.75,-51.29l94.18,21.12c2.85,-17.45 1.15,-31.36 -5.12,-41.75c-6.26,-10.38 -16.18,-17.1 -29.75,-20.14c-12.94,-2.9 -24.6,-0.96 -34.98,5.82c-10.38,6.78 -18.49,18.43 -24.33,34.95Z" style="fill-rule:nonzero;"/>
            <path d="M3522.51,632.09l-23.72,64.58c-3.75,10.2 -8.95,17.03 -15.61,20.49c-6.66,3.46 -13.91,3.84 -21.77,1.14c-7.61,-2.61 -12.84,-7.28 -15.69,-14c-2.85,-6.72 -2.4,-15.18 1.34,-25.38l28.43,-77.39c4.49,-12.22 7.54,-21.85 9.17,-28.91c1.62,-7.06 1.33,-13.4 -0.88,-19.03c-2.21,-5.63 -7.43,-9.86 -15.65,-12.68c-16.44,-5.64 -29.27,-3.9 -38.5,5.22c-9.22,9.12 -17.58,23.88 -25.07,44.28l-24.11,65.65c-3.7,10.08 -8.86,16.89 -15.48,20.43c-6.62,3.54 -13.79,3.98 -21.52,1.33c-7.61,-2.61 -12.89,-7.33 -15.84,-14.15c-2.95,-6.82 -2.58,-15.27 1.13,-25.36l51.04,-138.94c3.35,-9.13 8.08,-15.32 14.18,-18.57c6.1,-3.25 12.71,-3.65 19.82,-1.21c6.87,2.36 11.79,6.55 14.76,12.58c2.97,6.03 3.01,12.95 0.14,20.78l-1.7,4.63c12.42,-7.09 24.46,-11.3 36.15,-12.64c11.68,-1.33 23.6,0.08 35.74,4.25c12.64,4.34 22.6,10.5 29.9,18.47c7.29,7.98 12.08,17.9 14.35,29.77c12.13,-7.06 23.92,-11.32 35.38,-12.8c11.46,-1.48 23.08,-0.19 34.86,3.85c13.74,4.72 24.63,11.39 32.65,20.02c8.02,8.63 12.7,18.65 14.04,30.06c1.07,10.25 -1.86,24.8 -8.78,43.66l-34.83,94.82c-3.75,10.2 -8.95,17.03 -15.61,20.49c-6.66,3.46 -13.91,3.84 -21.77,1.14c-7.61,-2.61 -12.89,-7.33 -15.84,-14.15c-2.95,-6.82 -2.58,-15.27 1.13,-25.36l30,-81.66c3.83,-10.44 6.45,-18.96 7.83,-25.56c1.39,-6.6 0.84,-12.73 -1.64,-18.39c-2.48,-5.66 -7.83,-9.9 -16.05,-12.72c-6.63,-2.27 -13.61,-2.53 -20.96,-0.78c-7.35,1.75 -13.85,5.26 -19.52,10.53c-6.69,6.92 -13.84,20.76 -21.47,41.51Z" style="fill-rule:nonzero;"/>
            <path d="M3826.48,772.27l-93.2,-45.24c-5.32,10.52 -7.93,20.8 -7.83,30.84c0.1,10.05 2.61,18.8 7.55,26.27c4.94,7.47 11.65,13.26 20.15,17.38c5.7,2.77 11.24,4.65 16.63,5.64c5.38,0.99 11,1.19 16.86,0.58c5.85,-0.61 11.46,-1.58 16.82,-2.93c5.36,-1.34 12.41,-3.27 21.15,-5.79c3.5,-0.84 7.51,-0.16 12.05,2.05c4.89,2.37 8.17,5.59 9.85,9.64c1.68,4.06 1.29,8.44 -1.16,13.17c-2.16,4.16 -6.38,8.21 -12.64,12.14c-6.27,3.93 -14.13,6.8 -23.6,8.61c-9.47,1.81 -20.22,1.91 -32.28,0.28c-12.05,-1.62 -24.77,-5.69 -38.15,-12.18c-30.6,-14.86 -50.01,-34.84 -58.24,-59.96c-8.22,-25.12 -4.82,-52.13 10.19,-81.03c7.07,-13.61 15.73,-25.22 25.96,-34.82c10.24,-9.61 21.53,-16.62 33.89,-21.05c12.35,-4.43 25.56,-6.01 39.62,-4.74c14.06,1.26 28.25,5.37 42.56,12.31c18.62,9.04 32.62,20.59 41.99,34.64c9.38,14.06 14.26,28.72 14.64,43.97c0.38,15.25 -2.67,29.12 -9.16,41.61c-6.02,11.58 -13.35,17.43 -22,17.52c-8.65,0.1 -19.2,-2.88 -31.65,-8.92Zm-79.62,-71.39l86.4,41.94c7.02,-16.31 8.75,-30.22 5.19,-41.74c-3.56,-11.52 -11.57,-20.3 -24.02,-26.34c-11.87,-5.76 -23.67,-6.53 -35.41,-2.3c-11.74,4.23 -22.46,13.71 -32.15,28.44Z" style="fill-rule:nonzero;"/>
            <path d="M4004.47,769.37l-3.53,5.21c14.62,-5.04 28.17,-6.96 40.66,-5.75c12.49,1.21 24.78,5.64 36.87,13.29c11.77,7.45 20.6,16.57 26.51,27.38c5.91,10.81 8.08,22.19 6.52,34.14c-0.62,7.13 -2.57,14.02 -5.83,20.68c-3.27,6.66 -8.11,14.73 -14.53,24.2l-54.35,80.24c-5.85,8.63 -12.31,13.87 -19.39,15.71c-7.08,1.84 -13.89,0.69 -20.43,-3.45c-6.65,-4.21 -10.5,-9.88 -11.58,-17.03c-1.07,-7.15 1.24,-14.93 6.95,-23.36l48.68,-71.86c9.63,-14.22 14.95,-26.38 15.96,-36.49c1.01,-10.11 -4.58,-19.03 -16.78,-26.75c-7.95,-5.03 -16.75,-7.33 -26.39,-6.88c-9.64,0.44 -18.69,3.7 -27.16,9.77c-6.53,5.04 -15.75,16.36 -27.66,33.94l-36.59,54.02c-5.92,8.74 -12.46,13.97 -19.61,15.68c-7.15,1.72 -14.05,0.47 -20.7,-3.73c-6.43,-4.07 -10.18,-9.67 -11.25,-16.82c-1.07,-7.15 1.24,-14.93 6.95,-23.36l84.41,-124.62c5.56,-8.21 11.57,-13.17 18.02,-14.88c6.45,-1.71 12.89,-0.53 19.32,3.54c3.92,2.48 6.86,5.62 8.8,9.41c1.95,3.79 2.66,8.08 2.14,12.86c-0.52,4.79 -2.53,9.76 -6.02,14.92Z" style="fill-rule:nonzero;"/>
            <path d="M4197.2,870.28l4.53,3.59l20.33,-23.92c5.45,-6.42 9.91,-11.31 13.36,-14.68c3.45,-3.37 7.1,-5.73 10.94,-7.07c3.92,-1.45 8.12,-1.82 12.58,-1.13c4.46,0.69 8.56,2.52 12.28,5.48c5.23,4.15 8.35,9.8 9.35,16.95c0.67,4.77 -0.17,9.27 -2.51,13.52c-2.34,4.25 -6.37,9.72 -12.07,16.44l-23.06,27.13l15.09,11.98c5.84,4.63 9.15,9.51 9.95,14.62c0.8,5.11 -0.58,9.76 -4.14,13.94c-4.55,5.35 -9.92,7.36 -16.11,6.02c-6.2,-1.34 -13.37,-5.24 -21.52,-11.71l-7.7,-6.11l-62.23,73.23c-5.29,6.22 -9.13,11.19 -11.53,14.91c-2.4,3.71 -3.51,7.4 -3.32,11.05c0.19,3.65 2.49,7.23 6.92,10.75c2.41,1.92 6.04,4.1 10.86,6.55c4.83,2.45 8.4,4.59 10.71,6.43c3.32,2.64 5.22,6.3 5.7,11c0.48,4.69 -0.9,8.94 -4.12,12.73c-5.45,6.42 -13.25,8.45 -23.39,6.11c-10.14,-2.35 -22,-8.91 -35.58,-19.7c-12.88,-10.22 -20.86,-20.06 -23.95,-29.52c-3.09,-9.45 -2.52,-18.7 1.7,-27.72c4.22,-9.03 11.58,-19.72 22.07,-32.07l64.96,-76.44l-5.43,-4.31c-5.94,-4.71 -9.31,-9.67 -10.11,-14.87c-0.81,-5.2 0.57,-9.89 4.12,-14.07c3.55,-4.18 8.1,-6.31 13.64,-6.39c5.54,-0.08 11.43,2.36 17.67,7.31Z" style="fill-rule:nonzero;"/>
            <path d="M4339.51,1185.27c-10.5,9.96 -22,16.02 -34.49,18.18c-12.5,2.16 -25.58,0.24 -39.24,-5.76c-13.66,-6 -27.52,-15.91 -41.57,-29.74c-13.41,-13.2 -22.81,-26.5 -28.21,-39.9c-5.4,-13.4 -7.24,-25.32 -5.53,-35.76c1.71,-10.44 5.72,-18.66 12.04,-24.66c4.18,-3.97 9.22,-5.93 15.11,-5.87c5.89,0.05 11.07,2.28 15.54,6.68c3.92,3.86 5.96,7.75 6.1,11.67c0.15,3.92 -0.59,8.49 -2.2,13.73c-2.95,10.21 -3.43,19.53 -1.44,27.95c1.99,8.43 7.59,17.18 16.81,26.25c7.48,7.36 15.31,11.79 23.49,13.29c8.18,1.5 14.45,0.17 18.82,-3.97c6.69,-6.35 9.08,-13.42 7.18,-21.23c-1.91,-7.8 -7.17,-18.64 -15.78,-32.51c-9.61,-15.75 -16.66,-29.29 -21.16,-40.64c-4.5,-11.34 -6.23,-22.17 -5.22,-32.49c1.02,-10.31 5.8,-19.53 14.35,-27.64c7.62,-7.23 17.05,-11.86 28.31,-13.9c11.25,-2.04 23.26,-0.68 36.01,4.06c12.75,4.74 25.29,13.17 37.6,25.3c9.67,9.52 17.34,19.04 23,28.57c5.66,9.53 9.35,18.46 11.07,26.8c1.72,8.34 1.83,15.81 0.34,22.43c-1.49,6.62 -4.23,11.82 -8.23,15.61c-4.37,4.14 -9.38,6.12 -15.04,5.94c-5.66,-0.18 -11.14,-2.88 -16.43,-8.09c-3.83,-3.77 -5.98,-8.04 -6.44,-12.81c-0.46,-4.77 -0.19,-10.97 0.8,-18.62c0.89,-6.31 0.53,-12.41 -1.07,-18.3c-1.6,-5.89 -5.69,-12.07 -12.25,-18.53c-6.75,-6.65 -13.82,-10.78 -21.22,-12.4c-7.4,-1.62 -13.28,-0.36 -17.65,3.78c-4,3.79 -5.63,8.52 -4.9,14.17c0.73,5.66 3.04,12.02 6.93,19.08c3.89,7.07 9.51,16.55 16.86,28.45c8.7,14.14 14.73,26.72 18.08,37.74c3.35,11.02 4.2,20.97 2.55,29.86c-1.65,8.89 -5.96,16.63 -12.93,23.25Z" style="fill-rule:nonzero;"/>
        </g>
    </g>
</svg>
