<?xml version="1.0" encoding="UTF-8" standalone="no"?>
<!DOCTYPE svg PUBLIC "-//W3C//DTD SVG 1.1//EN" "http://www.w3.org/Graphics/SVG/1.1/DTD/svg11.dtd">
<svg width="100%" height="100%" viewBox="0 0 5120 1593" version="1.1" xmlns="http://www.w3.org/2000/svg" xmlns:xlink="http://www.w3.org/1999/xlink" xml:space="preserve" xmlns:serif="http://www.serif.com/" style="fill-rule:evenodd;clip-rule:evenodd;stroke-linejoin:round;stroke-miterlimit:2;">
    <g id="SEO" transform="matrix(1,0,0,1,73.477957,79.406655)">
        <g transform="matrix(0.879174,0,0,1.034588,324.195142,336.80993)">
            <path d="M1212.72,591.19l-116.3,49.29l37.18,63.35l97.21,-41.2c9.01,-3.82 16.75,-4.95 23.2,-3.4c6.46,1.55 11.37,5.2 14.74,10.95c3.37,5.74 3.79,11.26 1.27,16.55c-2.52,5.29 -8.22,9.81 -17.1,13.58l-97.21,41.2l47.89,81.6c6.08,10.36 7.84,19.21 5.28,26.56c-2.56,7.34 -8.15,12.84 -16.76,16.49c-8.75,3.71 -17.36,4.19 -25.83,1.46c-8.47,-2.74 -15.72,-9.23 -21.73,-19.48l-111.84,-190.56c-4.23,-7.21 -6.42,-13.63 -6.58,-19.25c-0.16,-5.63 1.83,-10.62 5.98,-14.98c4.14,-4.36 10.39,-8.31 18.74,-11.85l139.16,-58.98c9.41,-3.99 17.44,-5.18 24.1,-3.57c6.65,1.61 11.67,5.29 15.04,11.03c3.44,5.86 3.91,11.53 1.42,17.01c-2.49,5.49 -8.44,10.22 -17.85,14.21Z" style="fill-rule:nonzero;"/>
            <path d="M1556.47,614.55c6.69,14.26 10.24,28.3 10.66,42.11c0.42,13.81 -2.29,26.72 -8.14,38.73c-5.85,12.01 -14.57,22.65 -26.16,31.93c-11.59,9.28 -25.99,16.83 -43.18,22.65c-17.06,5.78 -33.5,8.63 -49.31,8.57c-15.81,-0.06 -30.75,-2.76 -44.81,-8.09c-14.06,-5.33 -26.45,-13.06 -37.18,-23.18c-10.72,-10.12 -19.46,-22.37 -26.2,-36.75c-6.8,-14.5 -10.41,-28.65 -10.83,-42.46c-0.42,-13.81 2.25,-26.64 8.02,-38.48c5.77,-11.84 14.51,-22.43 26.24,-31.75c11.73,-9.32 25.99,-16.83 42.77,-22.51c17.06,-5.78 33.63,-8.68 49.72,-8.71c16.09,-0.03 31.11,2.6 45.08,7.9c13.96,5.3 26.32,13.03 37.07,23.21c10.75,10.18 19.5,22.46 26.24,36.84Zm-56.55,19.15c-9.16,-19.52 -21.34,-33.01 -36.55,-40.46c-15.21,-7.45 -31.35,-8.28 -48.41,-2.51c-11.01,3.73 -19.57,9.44 -25.68,17.13c-6.12,7.69 -9.22,17.04 -9.32,28.05c-0.1,11.01 2.81,22.82 8.73,35.45c5.87,12.51 13.23,22.68 22.09,30.52c8.86,7.84 18.61,12.83 29.27,14.98c10.65,2.15 21.62,1.31 32.9,-2.51c17.06,-5.78 28.08,-15.84 33.07,-30.2c4.99,-14.36 2.95,-31.18 -6.09,-50.47Z" style="fill-rule:nonzero;"/>
            <path d="M1787.95,632.87l-2.24,-6.33c-4.31,9.25 -9.4,17.38 -15.27,24.4c-5.87,7.02 -12.91,12.92 -21.11,17.71c-8.21,4.79 -18.12,8.66 -29.76,11.63c-14.04,3.58 -27.5,4.32 -40.39,2.22c-12.88,-2.1 -23.9,-6.71 -33.07,-13.84c-10.94,-8.64 -19.88,-22.79 -26.82,-42.43l-34.56,-97.82c-3.49,-9.88 -3.48,-17.94 0.05,-24.16c3.52,-6.22 9.61,-10.44 18.26,-12.64c8.79,-2.24 16.76,-1.58 23.9,1.98c7.14,3.57 12.43,10.23 15.88,20l27.92,79.01c4.05,11.45 8.58,20.77 13.59,27.97c5.02,7.2 11.25,12.24 18.69,15.14c7.44,2.9 16.2,3.06 26.27,0.49c9.79,-2.5 18.13,-7.32 25.04,-14.47c6.91,-7.15 10.94,-15.21 12.1,-24.18c0.79,-7.82 -2.99,-23.55 -11.33,-47.17l-21.21,-60.03c-3.45,-9.76 -3.35,-17.8 0.29,-24.12c3.64,-6.32 9.79,-10.58 18.45,-12.79c8.65,-2.21 16.47,-1.54 23.44,2c6.97,3.54 12.21,10.26 15.7,20.14l50.53,143.02c3.32,9.4 3.3,17.1 -0.08,23.08c-3.37,5.99 -9.03,9.99 -16.98,12.02c-7.94,2.03 -15.37,1.26 -22.27,-2.3c-6.9,-3.56 -11.91,-9.74 -15.02,-18.54Z" style="fill-rule:nonzero;"/>
            <path d="M1921.57,447.56l1.47,6.1c7.62,-13.53 16.96,-24.13 28.04,-31.78c11.08,-7.65 24.67,-12.88 40.77,-15.69c15.67,-2.73 30.37,-2.28 44.1,1.36c13.73,3.64 24.92,10.23 33.58,19.77c5.41,5.48 9.55,11.7 12.44,18.64c2.89,6.95 5.67,15.97 8.35,27.07l22.7,93.94c2.44,10.11 1.57,18.23 -2.62,24.35c-4.19,6.13 -10.64,9.95 -19.34,11.47c-8.85,1.54 -16.67,0.15 -23.47,-4.19c-6.79,-4.34 -11.38,-11.44 -13.76,-21.3l-20.33,-84.14c-4.02,-16.64 -9.82,-28.9 -17.39,-36.76c-7.57,-7.87 -19.48,-10.38 -35.73,-7.55c-10.59,1.85 -19.59,6.21 -27,13.09c-7.41,6.88 -12.01,15.36 -13.81,25.44c-1.08,8.03 0.86,22.33 5.83,42.92l15.28,63.24c2.47,10.23 1.53,18.39 -2.82,24.48c-4.35,6.09 -10.95,9.91 -19.8,11.45c-8.56,1.49 -16.24,0.07 -23.03,-4.27c-6.79,-4.34 -11.38,-11.44 -13.76,-21.3l-35.25,-145.91c-2.32,-9.62 -1.59,-17.23 2.19,-22.83c3.79,-5.61 9.96,-9.16 18.52,-10.65c5.22,-0.91 10.19,-0.69 14.9,0.68c4.71,1.36 8.85,3.92 12.4,7.67c3.55,3.75 6.06,8.64 7.52,14.68Z" style="fill-rule:nonzero;"/>
            <path d="M2341.59,545.56l-0.63,-5.07c-7.12,8.61 -14.31,15.75 -21.57,21.4c-7.26,5.65 -15.34,10.18 -24.22,13.57c-8.88,3.39 -18.78,5.58 -29.67,6.57c-14.43,1.3 -28.12,-0.09 -41.07,-4.18c-12.95,-4.09 -24.51,-10.54 -34.7,-19.37c-10.19,-8.83 -18.41,-19.54 -24.67,-32.14c-6.26,-12.6 -10.34,-26.47 -12.23,-41.61c-4,-32.04 2.09,-57.84 18.27,-77.39c16.18,-19.56 39.29,-30.69 69.33,-33.39c17.38,-1.57 32.35,-0.35 44.91,3.64c12.56,3.99 25.17,10.74 37.82,20.23l-9.44,-75.66c-1.31,-10.51 0.16,-18.68 4.43,-24.51c4.26,-5.83 10.96,-9.15 20.09,-9.97c9.13,-0.82 16.47,1.02 22.02,5.51c5.55,4.5 8.93,11.57 10.13,21.2l28.2,226.03c1.22,9.76 -0.52,17.32 -5.21,22.68c-4.69,5.36 -11.24,8.42 -19.63,9.17c-8.25,0.74 -15.38,-1.18 -21.38,-5.76c-6.01,-4.58 -9.6,-11.57 -10.77,-20.96Zm-128.02,-64.59c1.73,13.89 5.75,25.49 12.05,34.79c6.3,9.3 14.18,16.03 23.63,20.18c9.45,4.15 19.41,5.75 29.87,4.81c10.6,-0.96 19.99,-4.17 28.17,-9.66c8.18,-5.48 14.28,-13.31 18.29,-23.48c4.02,-10.17 5.12,-22.51 3.31,-37.03c-1.7,-13.64 -5.78,-25.14 -12.23,-34.49c-6.45,-9.35 -14.46,-16.23 -24.02,-20.62c-9.56,-4.39 -19.64,-6.11 -30.24,-5.15c-11.05,1 -20.58,4.54 -28.61,10.65c-8.03,6.1 -13.81,14.34 -17.36,24.72c-3.55,10.38 -4.5,22.14 -2.86,35.28Z" style="fill-rule:nonzero;"/>
            <path d="M2750.74,289.65c33.65,2.34 61.99,10.16 85,23.44c23.01,13.28 39.69,31.05 50.03,53.3c10.34,22.25 14.11,47.8 11.33,76.65c-2.06,21.32 -7.32,40.47 -15.79,57.43c-8.47,16.96 -20.12,31.37 -34.93,43.22c-14.81,11.85 -32.44,20.47 -52.87,25.87c-20.43,5.4 -43.42,7.2 -68.95,5.42c-25.39,-1.77 -47.78,-6.83 -67.19,-15.19c-19.4,-8.36 -35.21,-19.34 -47.42,-32.95c-12.21,-13.6 -20.89,-29.55 -26.03,-47.84c-5.15,-18.29 -6.72,-37.78 -4.72,-58.48c2.05,-21.2 7.5,-40.39 16.37,-57.58c8.87,-17.19 20.69,-31.52 35.46,-42.99c14.78,-11.47 32.23,-19.82 52.35,-25.05c20.12,-5.23 42.58,-6.98 67.38,-5.25Zm79.75,148.38c1.95,-20.19 -0.2,-37.96 -6.45,-53.3c-6.25,-15.34 -16.13,-27.29 -29.64,-35.88c-13.51,-8.58 -29.49,-13.51 -47.94,-14.8c-13.14,-0.92 -25.48,0.34 -37.03,3.77c-11.55,3.43 -21.73,8.87 -30.55,16.34c-8.82,7.47 -16.16,17.28 -22.01,29.44c-5.85,12.16 -9.53,26.01 -11.03,41.57c-1.51,15.68 -0.56,30.02 2.87,43.01c3.43,12.99 8.98,23.96 16.67,32.89c7.68,8.93 16.82,15.85 27.42,20.76c10.6,4.91 22.46,7.82 35.6,8.73c16.83,1.17 32.63,-1.33 47.42,-7.49c14.79,-6.17 27.07,-16.42 36.85,-30.77c9.78,-14.35 15.72,-32.43 17.83,-54.26Z" style="fill-rule:nonzero;"/>
            <path d="M3032.08,428.22l-1.52,6.09c13.36,-9.81 26.91,-16.34 40.67,-19.58c13.76,-3.24 28.67,-3.41 44.75,-0.51c15.65,2.83 28.9,8.24 39.77,16.25c10.87,8.01 18.02,17.86 21.46,29.54c2.37,6.86 3.25,13.97 2.62,21.32c-0.63,7.35 -2.33,16.56 -5.1,27.64l-23.46,93.81c-2.52,10.09 -7.15,17.24 -13.87,21.43c-6.73,4.19 -14.43,5.5 -23.13,3.93c-8.84,-1.6 -15.35,-5.54 -19.53,-11.83c-4.18,-6.29 -5.04,-14.36 -2.58,-24.2l21.01,-84.02c4.16,-16.62 4.62,-29.82 1.39,-39.6c-3.23,-9.78 -12.96,-16.14 -29.19,-19.07c-10.58,-1.91 -20.88,-0.97 -30.91,2.81c-10.03,3.79 -18.24,9.99 -24.64,18.61c-4.78,6.99 -9.73,20.76 -14.87,41.32l-15.79,63.15c-2.56,10.22 -7.26,17.38 -14.12,21.48c-6.85,4.1 -14.7,5.35 -23.54,3.76c-8.55,-1.54 -14.91,-5.46 -19.09,-11.75c-4.18,-6.29 -5.04,-14.36 -2.58,-24.2l36.43,-145.7c2.4,-9.6 6.66,-16.33 12.77,-20.18c6.11,-3.85 13.44,-5 21.99,-3.46c5.22,0.94 9.66,2.84 13.34,5.69c3.68,2.85 6.26,6.6 7.75,11.24c1.49,4.64 1.48,9.98 -0.03,16.01Z" style="fill-rule:nonzero;"/>
            <path d="M3211.79,618.32l73.69,-214.57c3.4,-9.91 8.57,-16.75 15.5,-20.54c6.93,-3.79 14.81,-4.59 23.62,-2.4c8.81,2.19 15.06,6.46 18.74,12.81c3.68,6.35 3.8,14.54 0.36,24.57l-73.69,214.57c-3.44,10.03 -8.76,16.87 -15.96,20.53c-7.2,3.66 -15.13,4.41 -23.8,2.26c-8.53,-2.12 -14.57,-6.43 -18.12,-12.95c-3.55,-6.52 -3.66,-14.61 -0.34,-24.27Z" style="fill-rule:nonzero;"/>
            <path d="M3445,524.86l-56.66,140.95c-3.93,9.77 -9.63,16.36 -17.1,19.77c-7.48,3.42 -15.42,3.9 -23.83,1.46c-8.41,-2.44 -14.21,-6.99 -17.41,-13.63c-3.2,-6.65 -2.88,-14.73 0.95,-24.26l56.09,-139.52c3.88,-9.65 9.43,-16.15 16.65,-19.51c7.22,-3.36 15.03,-3.82 23.44,-1.37c8.41,2.44 14.36,6.9 17.87,13.37c3.5,6.47 3.51,14.05 0.01,22.75Zm-8.13,-58.62c-7.99,-2.32 -13.98,-6.39 -17.98,-12.2c-4,-5.82 -4.47,-12.54 -1.4,-20.16c2.78,-6.91 7.97,-11.75 15.58,-14.53c7.61,-2.78 15.27,-3.05 22.98,-0.81c7.43,2.16 13.2,6.09 17.32,11.81c4.12,5.72 4.62,12.45 1.51,20.19c-3.02,7.5 -8.18,12.55 -15.48,15.16c-7.31,2.6 -14.81,2.78 -22.52,0.54Z" style="fill-rule:nonzero;"/>
            <path d="M3569.45,563.85l-2.87,5.73c15.32,-7.45 30.1,-11.64 44.33,-12.58c14.23,-0.94 28.91,1.33 44.04,6.8c14.72,5.32 26.5,12.8 35.36,22.44c8.86,9.63 13.65,20.46 14.38,32.49c0.78,7.12 0.03,14.24 -2.25,21.35c-2.28,7.11 -6.02,15.88 -11.25,26.3l-44.21,88.24c-4.76,9.5 -10.91,15.75 -18.46,18.76c-7.55,3.01 -15.41,3.04 -23.58,0.08c-8.31,-3.01 -13.81,-7.94 -16.49,-14.79c-2.68,-6.85 -1.7,-14.91 2.94,-24.17l39.6,-79.03c7.83,-15.63 11.27,-28.51 10.31,-38.64c-0.96,-10.13 -9.07,-17.95 -24.33,-23.48c-9.95,-3.6 -20.27,-4.36 -30.97,-2.28c-10.7,2.08 -20.16,6.83 -28.39,14.25c-6.26,6.08 -14.24,18.79 -23.93,38.12l-29.76,59.4c-4.82,9.61 -11.05,15.87 -18.7,18.78c-7.65,2.91 -15.64,2.86 -23.95,-0.15c-8.04,-2.91 -13.4,-7.79 -16.08,-14.64c-2.68,-6.85 -1.7,-14.91 2.94,-24.17l68.67,-137.04c4.53,-9.03 10.22,-14.94 17.09,-17.72c6.87,-2.78 14.32,-2.72 22.36,0.19c4.91,1.77 8.84,4.36 11.81,7.76c2.97,3.4 4.65,7.5 5.07,12.3c0.41,4.8 -0.8,10.04 -3.65,15.71Z" style="fill-rule:nonzero;"/>
            <path d="M3886.79,795.21l-103.66,-49.02c-6.57,10.29 -10.05,20.45 -10.44,30.5c-0.39,10.04 2.03,18.89 7.27,26.56c5.24,7.66 12.58,13.73 22.03,18.19c6.34,3 12.55,5.1 18.62,6.32c6.07,1.21 12.45,1.64 19.13,1.27c6.68,-0.37 13.1,-1.11 19.26,-2.23c6.16,-1.12 14.27,-2.76 24.32,-4.92c4.01,-0.69 8.54,0.15 13.59,2.54c5.44,2.57 9.01,5.92 10.72,10.04c1.71,4.12 1.05,8.49 -1.97,13.11c-2.66,4.07 -7.66,7.94 -14.97,11.61c-7.32,3.67 -16.4,6.22 -27.25,7.64c-10.85,1.42 -23.08,1.08 -36.69,-1.04c-13.61,-2.12 -27.86,-6.69 -42.74,-13.73c-34.04,-16.09 -55.1,-36.86 -63.19,-62.29c-8.09,-25.43 -2.88,-52.28 15.62,-80.54c8.71,-13.31 19.13,-24.55 31.24,-33.73c12.11,-9.18 25.3,-15.73 39.56,-19.64c14.26,-3.92 29.35,-4.95 45.26,-3.12c15.92,1.84 31.83,6.52 47.75,14.05c20.71,9.79 36.04,21.9 46,36.33c9.96,14.43 14.77,29.27 14.44,44.53c-0.33,15.26 -4.49,28.99 -12.48,41.19c-7.42,11.33 -16.04,16.86 -25.87,16.61c-9.83,-0.26 -21.67,-3.66 -35.52,-10.21Zm-86.92,-74.59l96.09,45.44c8.79,-16.01 11.45,-29.84 7.97,-41.49c-3.47,-11.65 -12.13,-20.75 -25.98,-27.3c-13.2,-6.24 -26.58,-7.49 -40.13,-3.75c-13.55,3.74 -26.21,12.78 -37.96,27.1Z" style="fill-rule:nonzero;"/>
        </g>
        <g transform="matrix(1,0,0,1.034588,-0,-87.340726)">
            <path d="M1499.27,619.73l20.68,49.14c2.75,6.53 4.28,12.01 4.6,16.43c0.32,4.43 -0.64,8.91 -2.87,13.46c-2.23,4.55 -5.51,9.37 -9.83,14.46c-12.51,14.7 -25.37,26.89 -38.59,36.57c-13.22,9.68 -28.57,17.96 -46.06,24.84c-20.38,8.02 -40.23,12.29 -59.55,12.82c-19.32,0.53 -37.31,-2.65 -53.99,-9.54c-16.68,-6.89 -31.64,-17.31 -44.89,-31.26c-13.25,-13.95 -24.15,-31.06 -32.68,-51.35c-8.39,-19.93 -12.99,-39.39 -13.81,-58.36c-0.82,-18.97 2.32,-36.58 9.4,-52.81c7.08,-16.24 17.9,-30.78 32.45,-43.64c14.55,-12.86 32.68,-23.55 54.39,-32.09c17.85,-7.02 34.62,-10.93 50.31,-11.73c15.69,-0.8 29.29,0.61 40.79,4.24c11.51,3.63 21.08,8.49 28.71,14.6c7.63,6.1 12.72,12.19 15.27,18.25c2.75,6.53 2.59,13.08 -0.48,19.65c-3.07,6.57 -8.1,11.24 -15.09,13.99c-3.86,1.52 -7.94,2.1 -12.23,1.75c-4.29,-0.35 -8.31,-1.62 -12.05,-3.82c-10.85,-7.42 -19.65,-12.79 -26.39,-16.12c-6.74,-3.33 -14.74,-5.21 -23.99,-5.65c-9.25,-0.44 -19.91,1.71 -31.97,6.46c-12.42,4.89 -22.65,11.32 -30.67,19.3c-8.03,7.98 -13.85,17.27 -17.48,27.86c-3.62,10.6 -4.87,22.33 -3.74,35.2c1.13,12.87 4.62,26.24 10.45,40.12c12.66,30.08 29.55,50.41 50.66,60.99c21.11,10.58 44.45,10.85 70.02,0.79c12.42,-4.89 23.43,-11.05 33.02,-18.49c9.59,-7.44 18.77,-16.28 27.53,-26.52l-17.52,-41.62l-41.61,16.36c-10.01,3.94 -18.19,5.46 -24.54,4.56c-6.35,-0.9 -11,-4.85 -13.95,-11.84c-2.4,-5.71 -2.25,-11.28 0.46,-16.69c2.71,-5.41 7.75,-9.57 15.1,-12.46l60.97,-23.98c7.48,-2.94 14.08,-4.79 19.81,-5.55c5.73,-0.76 11.12,0.45 16.18,3.62c5.06,3.17 9.46,9.19 13.19,18.05Z" style="fill-rule:nonzero;"/>
            <path d="M1709.59,584.97l-100,28.64c3.57,11.19 8.94,20.41 16.12,27.67c7.18,7.26 15.22,11.98 24.1,14.16c8.88,2.18 17.88,1.97 27,-0.64c6.12,-1.75 11.49,-4.05 16.12,-6.88c4.63,-2.84 8.86,-6.41 12.7,-10.73c3.84,-4.32 7.24,-8.73 10.19,-13.26c2.96,-4.52 6.73,-10.59 11.33,-18.21c1.96,-2.92 5.37,-5.08 10.24,-6.48c5.24,-1.5 9.91,-1.33 14.01,0.52c4.1,1.85 6.92,5.3 8.48,10.37c1.37,4.46 1.16,10.2 -0.63,17.21c-1.79,7.01 -5.49,14.31 -11.11,21.89c-5.62,7.58 -13.4,14.77 -23.34,21.55c-9.94,6.78 -22.09,12.23 -36.44,16.35c-32.83,9.4 -61.14,7.67 -84.91,-5.21c-23.78,-12.88 -40.42,-34.82 -49.93,-65.84c-4.48,-14.6 -6.38,-28.79 -5.72,-42.57c0.67,-13.78 3.94,-26.36 9.81,-37.76c5.88,-11.4 14.39,-21.28 25.54,-29.66c11.15,-8.38 24.4,-14.77 39.75,-19.16c19.97,-5.72 38.36,-6.56 55.15,-2.51c16.79,4.05 30.72,11.51 41.8,22.39c11.07,10.87 18.67,23.01 22.77,36.4c3.81,12.43 2.6,21.54 -3.64,27.33c-6.24,5.79 -16.03,10.6 -29.39,14.42Zm-108.6,0.59l92.69,-26.55c-6.43,-16.54 -15.02,-27.83 -25.76,-33.87c-10.75,-6.04 -22.8,-7.15 -36.16,-3.33c-12.73,3.65 -21.89,10.9 -27.45,21.75c-5.57,10.85 -6.67,24.85 -3.32,42Z" style="fill-rule:nonzero;"/>
            <path d="M1778.28,451.39l5.71,-1.25l-7.07,-30.2c-1.9,-8.1 -3.16,-14.5 -3.8,-19.2c-0.63,-4.7 -0.32,-8.93 0.93,-12.69c1.23,-3.88 3.49,-7.31 6.8,-10.3c3.31,-2.98 7.31,-4.99 12.01,-6.02c6.6,-1.45 13.13,-0.36 19.59,3.26c4.3,2.41 7.47,5.82 9.5,10.21c2.03,4.39 4.04,10.83 6.02,19.3l8.02,34.25l19.05,-4.17c7.37,-1.61 13.38,-1.15 18.04,1.37c4.66,2.53 7.61,6.43 8.85,11.71c1.58,6.75 -0.07,12.08 -4.96,15.99c-4.89,3.91 -12.48,6.99 -22.77,9.24l-9.71,2.13l21.65,92.43c1.84,7.86 3.54,13.84 5.11,17.95c1.56,4.11 3.89,7.21 6.99,9.31c3.09,2.1 7.44,2.53 13.02,1.31c3.05,-0.67 7.05,-2.09 12.02,-4.28c4.96,-2.18 8.9,-3.59 11.82,-4.23c4.19,-0.92 8.35,-0.12 12.48,2.4c4.13,2.52 6.75,6.17 7.87,10.96c1.9,8.1 -1.22,15.3 -9.36,21.6c-8.14,6.3 -20.78,11.32 -37.92,15.07c-16.26,3.56 -29.19,3.61 -38.81,0.17c-9.62,-3.44 -16.82,-9.55 -21.61,-18.3c-4.79,-8.76 -9.01,-20.93 -12.66,-36.52l-22.6,-96.48l-6.86,1.5c-7.49,1.64 -13.61,1.17 -18.35,-1.4c-4.74,-2.58 -7.73,-6.5 -8.97,-11.78c-1.24,-5.28 -0.19,-10.06 3.15,-14.34c3.34,-4.28 8.94,-7.28 16.82,-9Z" style="fill-rule:nonzero;"/>
            <path d="M2121.33,562.38l-11.62,-87.06l-83.22,-95.27c-7.32,-8.6 -12.59,-15.37 -15.81,-20.3c-3.22,-4.93 -5.09,-9.33 -5.6,-13.2c-0.85,-6.37 0.97,-12.18 5.45,-17.43c4.48,-5.25 10.47,-8.35 17.96,-9.28c7.88,-0.98 14.14,0.43 18.78,4.23c4.64,3.8 11.89,11.62 21.74,23.46l64.2,76.7l42.54,-90.01c2.55,-5.52 4.68,-10.16 6.41,-13.93c1.73,-3.77 3.71,-7.35 5.95,-10.74c2.24,-3.39 4.86,-6.09 7.88,-8.12c3.01,-2.03 6.84,-3.33 11.49,-3.91c7.23,-0.9 13.57,0.62 19.02,4.58c5.45,3.95 8.58,8.92 9.38,14.92c0.65,4.87 0.07,9.89 -1.73,15.06c-1.8,5.17 -5.1,12.44 -9.89,21.79l-57.02,114.28l11.62,87.06c1.52,11.36 -0.06,20.18 -4.74,26.48c-4.67,6.29 -11.21,9.96 -19.6,11.01c-8.52,1.06 -15.8,-0.85 -21.84,-5.75c-6.04,-4.89 -9.82,-13.08 -11.35,-24.57Z" style="fill-rule:nonzero;"/>
            <path d="M2474.9,462.65c0.89,15.33 -0.77,29.6 -4.96,42.81c-4.19,13.21 -10.7,24.72 -19.52,34.52c-8.82,9.8 -19.59,17.54 -32.31,23.2c-12.71,5.66 -27.2,8.94 -43.45,9.81c-16.12,0.87 -30.76,-0.86 -43.92,-5.19c-13.16,-4.33 -24.72,-10.92 -34.69,-19.78c-9.97,-8.85 -17.75,-19.53 -23.37,-32.02c-5.61,-12.49 -8.86,-26.47 -9.76,-41.92c-0.9,-15.58 0.75,-29.98 4.94,-43.19c4.19,-13.21 10.64,-24.65 19.34,-34.32c8.7,-9.67 19.47,-17.34 32.32,-23.01c12.84,-5.67 27.2,-8.94 43.06,-9.79c16.12,-0.87 30.89,0.85 44.31,5.17c13.42,4.32 25.08,10.87 34.98,19.67c9.9,8.79 17.65,19.47 23.27,32.02c5.62,12.55 8.87,26.56 9.76,42.02Zm-53.43,2.88c-1.21,-20.99 -6.93,-37.06 -17.16,-48.23c-10.23,-11.17 -23.41,-16.32 -39.53,-15.45c-10.4,0.56 -19.42,3.66 -27.04,9.31c-7.63,5.64 -13.3,13.67 -17,24.08c-3.7,10.41 -5.16,22.4 -4.38,35.97c0.78,13.45 3.57,25.08 8.37,34.91c4.81,9.82 11.3,17.2 19.47,22.11c8.17,4.92 17.59,7.09 28.25,6.51c16.12,-0.87 28.62,-7.44 37.5,-19.7c8.88,-12.26 12.72,-28.76 11.52,-49.5Z" style="fill-rule:nonzero;"/>
            <path d="M2661.41,541.5l0.18,-6.61c-6.59,7.64 -13.47,14.01 -20.64,19.12c-7.17,5.11 -14.96,8.85 -23.36,11.22c-8.4,2.37 -17.94,3.42 -28.61,3.15c-12.89,-0.32 -24.37,-3.19 -34.45,-8.61c-10.08,-5.42 -17.79,-12.72 -23.15,-21.92c-6.34,-11.11 -9.24,-26.92 -8.69,-47.43l2.75,-102.1c0.28,-10.32 2.89,-17.96 7.85,-22.94c4.95,-4.97 11.4,-7.36 19.34,-7.16c8.07,0.2 14.51,2.95 19.32,8.23c4.81,5.28 7.07,13.02 6.8,23.21l-2.22,82.47c-0.32,11.95 0.45,22.01 2.31,30.18c1.86,8.17 5.44,14.62 10.71,19.34c5.28,4.73 12.54,7.21 21.78,7.44c8.98,0.23 17.51,-2.14 25.59,-7.1c8.08,-4.96 14.05,-11.54 17.92,-19.76c3.19,-7.22 5.12,-23.16 5.78,-47.82l1.69,-62.65c0.27,-10.19 2.95,-17.8 8.04,-22.84c5.09,-5.03 11.6,-7.45 19.54,-7.25c7.94,0.2 14.25,2.91 18.93,8.12c4.68,5.22 6.88,12.98 6.6,23.3l-4.02,149.28c-0.26,9.81 -2.77,17.12 -7.53,21.91c-4.75,4.79 -10.77,7.09 -18.06,6.91c-7.29,-0.18 -13.24,-2.88 -17.85,-8.1c-4.61,-5.21 -6.8,-12.41 -6.55,-21.6Z" style="fill-rule:nonzero;"/>
            <path d="M2824.13,507.25l-4.59,42.81c-1.11,10.39 -4.48,17.93 -10.09,22.62c-5.61,4.69 -12.3,6.64 -20.07,5.86c-7.64,-0.77 -13.64,-4.02 -18,-9.78c-4.36,-5.75 -5.99,-13.76 -4.88,-24.02l15.31,-142.71c2.47,-23.03 12.32,-33.69 29.55,-31.96c8.81,0.88 14.86,4.21 18.17,9.98c3.31,5.77 4.59,13.94 3.85,24.49c7.47,-9.88 14.84,-17.18 22.08,-21.89c7.25,-4.71 16.44,-6.51 27.58,-5.4c11.14,1.12 21.66,4.89 31.58,11.33c9.91,6.43 14.39,14.1 13.44,22.98c-0.67,6.26 -3.46,11.2 -8.36,14.82c-4.9,3.62 -9.95,5.17 -15.13,4.65c-1.94,-0.19 -6.51,-1.82 -13.71,-4.89c-7.2,-3.06 -13.65,-4.88 -19.35,-5.45c-7.77,-0.78 -14.33,0.56 -19.67,4.01c-5.34,3.45 -9.79,8.92 -13.35,16.41c-3.55,7.49 -6.42,16.53 -8.61,27.13c-2.18,10.6 -4.1,23.6 -5.76,39Z" style="fill-rule:nonzero;"/>
            <path d="M3271.99,568.03c-3.68,16.36 -11.35,30.13 -23,41.34c-11.65,11.2 -26.71,18.72 -45.16,22.57c-18.46,3.84 -39.2,3.34 -62.23,-1.5c-27.61,-5.81 -49.25,-15.64 -64.91,-29.5c-11.09,-9.93 -19.24,-21.79 -24.47,-35.58c-5.22,-13.79 -6.55,-26.4 -3.97,-37.83c1.5,-6.64 5.16,-11.83 11,-15.56c5.84,-3.73 12.45,-4.82 19.83,-3.27c5.98,1.26 10.62,4.17 13.93,8.73c3.3,4.56 5.6,10.77 6.89,18.65c1.62,9.36 3.85,17.36 6.68,24.01c2.83,6.65 7.58,12.64 14.24,17.97c6.66,5.33 16.1,9.28 28.31,11.85c16.79,3.53 31.29,2.62 43.49,-2.73c12.2,-5.35 19.57,-13.69 22.12,-25c2.02,-8.98 0.83,-16.86 -3.57,-23.65c-4.4,-6.79 -10.75,-12.6 -19.06,-17.44c-8.3,-4.84 -19.59,-10.5 -33.85,-16.98c-19.08,-8.78 -34.7,-17.64 -46.88,-26.58c-12.18,-8.94 -21.06,-19.5 -26.64,-31.69c-5.58,-12.19 -6.62,-26.09 -3.1,-41.71c3.35,-14.88 10.53,-27.22 21.53,-37.01c11,-9.79 25.15,-16.12 42.45,-18.98c17.3,-2.86 36.7,-2.03 58.21,2.49c17.18,3.61 31.57,8.8 43.17,15.56c11.6,6.76 20.77,14.42 27.5,22.98c6.73,8.57 11.16,17 13.29,25.31c2.13,8.3 2.39,16.02 0.78,23.16c-1.47,6.52 -5.18,11.89 -11.12,16.11c-5.95,4.22 -12.48,5.58 -19.61,4.08c-6.49,-1.37 -11.07,-3.97 -13.73,-7.82c-2.67,-3.85 -5.17,-9.75 -7.5,-17.71c-2.79,-11.28 -7.1,-20.53 -12.94,-27.74c-5.84,-7.22 -16.64,-12.49 -32.42,-15.81c-14.63,-3.08 -27.13,-2.46 -37.5,1.87c-10.37,4.32 -16.54,10.85 -18.5,19.58c-1.22,5.41 -0.74,10.41 1.42,14.98c2.17,4.58 5.6,8.84 10.31,12.8c4.71,3.95 9.61,7.3 14.73,10.05c5.11,2.75 13.62,6.99 25.52,12.71c14.97,6.89 28.37,13.83 40.18,20.82c11.82,7 21.52,14.51 29.1,22.55c7.58,8.04 12.83,17.29 15.74,27.75c2.91,10.47 2.82,22.52 -0.25,36.17Z" style="fill-rule:nonzero;"/>
            <path d="M3398.84,508.63l-43.13,143c-2.99,9.91 -7.69,16.71 -14.09,20.41c-6.41,3.7 -13.36,4.49 -20.86,2.38c-7.5,-2.11 -12.81,-6.43 -15.93,-12.94c-3.12,-6.52 -3.22,-14.61 -0.31,-24.27l42.69,-141.55c2.95,-9.79 7.52,-16.5 13.7,-20.13c6.18,-3.63 13.02,-4.39 20.52,-2.28c7.5,2.11 12.94,6.33 16.32,12.66c3.38,6.33 3.74,13.9 1.08,22.72Zm-9.9,-58.24c-7.13,-2.01 -12.58,-5.84 -16.37,-11.49c-3.79,-5.66 -4.51,-12.35 -2.18,-20.08c2.11,-7.01 6.45,-12.05 13,-15.12c6.55,-3.07 13.27,-3.63 20.14,-1.7c6.63,1.87 11.88,5.58 15.77,11.13c3.89,5.55 4.64,12.26 2.28,20.11c-2.3,7.61 -6.59,12.86 -12.88,15.74c-6.29,2.88 -12.88,3.35 -19.75,1.41Z" style="fill-rule:nonzero;"/>
            <path d="M3471.5,504.56l5.53,1.86l10.53,-29.24c2.82,-7.85 5.25,-13.92 7.29,-18.24c2.04,-4.31 4.61,-7.74 7.74,-10.29c3.17,-2.67 6.97,-4.42 11.41,-5.26c4.44,-0.84 8.93,-0.49 13.48,1.04c6.39,2.15 11.34,6.41 14.84,12.79c2.33,4.25 3.16,8.76 2.47,13.52c-0.68,4.77 -2.5,11.25 -5.45,19.45l-11.94,33.16l18.45,6.2c7.13,2.4 11.99,5.86 14.56,10.39c2.57,4.53 2.94,9.35 1.1,14.46c-2.35,6.54 -6.68,10.21 -12.97,11.03c-6.29,0.82 -14.42,-0.45 -24.38,-3.8l-9.41,-3.16l-32.22,89.51c-2.74,7.61 -4.57,13.55 -5.49,17.84c-0.92,4.29 -0.65,8.11 0.83,11.47c1.48,3.36 4.92,5.95 10.33,7.77c2.95,0.99 7.13,1.83 12.54,2.52c5.41,0.69 9.52,1.5 12.35,2.46c4.06,1.36 7.15,4.17 9.27,8.42c2.12,4.25 2.35,8.69 0.68,13.32c-2.82,7.85 -9.41,12.36 -19.76,13.54c-10.35,1.18 -23.83,-1.02 -40.43,-6.6c-15.74,-5.29 -26.75,-11.86 -33.03,-19.7c-6.28,-7.84 -9.05,-16.7 -8.32,-26.58c0.73,-9.88 3.81,-22.37 9.25,-37.47l33.63,-93.43l-6.64,-2.23c-7.26,-2.44 -12.19,-5.97 -14.8,-10.58c-2.61,-4.61 -3,-9.47 -1.16,-14.58c1.84,-5.11 5.35,-8.63 10.52,-10.55c5.17,-1.92 11.57,-1.6 19.2,0.96Z" style="fill-rule:nonzero;"/>
            <path d="M3707.06,714.89l-95.67,-40.15c-4.7,10.79 -6.72,21.19 -6.04,31.22c0.68,10.03 3.7,18.63 9.05,25.82c5.36,7.19 12.4,12.61 21.12,16.27c5.85,2.46 11.5,4.04 16.93,4.74c5.43,0.7 11.05,0.59 16.86,-0.33c5.81,-0.92 11.35,-2.2 16.62,-3.83c5.27,-1.63 12.2,-3.93 20.78,-6.92c3.44,-1.03 7.49,-0.56 12.15,1.39c5.02,2.11 8.48,5.14 10.39,9.1c1.91,3.96 1.78,8.36 -0.4,13.21c-1.92,4.27 -5.89,8.54 -11.92,12.8c-6.03,4.26 -13.72,7.55 -23.07,9.87c-9.35,2.32 -20.08,2.99 -32.21,2.02c-12.13,-0.97 -25.06,-4.34 -38.79,-10.11c-31.41,-13.18 -51.95,-32.09 -61.61,-56.73c-9.66,-24.63 -7.82,-51.79 5.5,-81.46c6.27,-13.97 14.25,-26.02 23.91,-36.17c9.67,-10.14 20.54,-17.76 32.62,-22.84c12.08,-5.08 25.17,-7.37 39.29,-6.87c14.11,0.5 28.51,3.84 43.2,10c19.11,8.02 33.75,18.8 43.93,32.33c10.17,13.53 15.89,27.9 17.15,43.11c1.26,15.21 -0.99,29.22 -6.75,42.04c-5.34,11.89 -12.33,18.12 -20.95,18.68c-8.63,0.56 -19.33,-1.84 -32.11,-7.2Zm-83.61,-66.99l88.68,37.22c6.07,-16.66 6.99,-30.65 2.77,-41.95c-4.22,-11.31 -12.72,-19.64 -25.5,-25c-12.18,-5.11 -24.01,-5.24 -35.49,-0.39c-11.48,4.86 -21.63,14.9 -30.46,30.13Z" style="fill-rule:nonzero;"/>
        </g>
    </g>
</svg>
