<?xml version="1.0" encoding="UTF-8" standalone="no"?>
<!DOCTYPE svg PUBLIC "-//W3C//DTD SVG 1.1//EN" "http://www.w3.org/Graphics/SVG/1.1/DTD/svg11.dtd">
<svg width="100%" height="100%" viewBox="0 0 5120 1593" version="1.1" xmlns="http://www.w3.org/2000/svg" xmlns:xlink="http://www.w3.org/1999/xlink" xml:space="preserve" xmlns:serif="http://www.serif.com/" style="fill-rule:evenodd;clip-rule:evenodd;stroke-linejoin:round;stroke-miterlimit:2;">
    <g id="Websites">
        <g transform="matrix(0.879174,0,0,1.034588,324.195142,336.80993)">
            <path d="M1423.07,733.16l-30.97,-26.24l-120.71,46.22l2.98,37.79c1.16,14.74 0.95,25.07 -0.62,30.99c-1.57,5.92 -6.82,10.58 -15.73,13.99c-7.56,2.9 -15.49,3.1 -23.79,0.62c-8.3,-2.48 -14.03,-6.71 -17.2,-12.67c-1.83,-3.44 -3.04,-7.26 -3.63,-11.45c-0.6,-4.19 -1.08,-10.15 -1.44,-17.88l-10.93,-192.94c-0.33,-5.53 -0.73,-12.18 -1.19,-19.94c-0.46,-7.76 -0.13,-14.48 1.01,-20.16c1.13,-5.68 3.78,-10.94 7.96,-15.78c4.17,-4.84 10.38,-8.84 18.62,-11.99c8.37,-3.21 16.07,-4.53 23.11,-3.98c7.03,0.55 13.4,2.29 19.09,5.22c5.69,2.93 11.02,6.38 15.97,10.35c4.95,3.97 11.41,9.33 19.37,16.08l163.91,133.12c12.65,10.07 20.46,17.91 23.44,23.53c3.1,5.85 3.08,12.31 -0.07,19.39c-3.15,7.07 -8.78,12.16 -16.88,15.26c-4.73,1.81 -9.16,2.64 -13.29,2.5c-4.14,-0.14 -8.01,-1.01 -11.61,-2.59c-3.6,-1.59 -8.08,-4.43 -13.42,-8.53c-5.34,-4.1 -9.99,-7.74 -13.95,-10.91Zm-156.24,-24.45l88.71,-33.97l-99.98,-86.99l11.27,120.96Z" style="fill-rule:nonzero;"/>
            <path d="M1530.4,543.16l2.35,5.9c5.6,-14.23 13.35,-25.71 23.24,-34.46c9.89,-8.75 22.62,-15.36 38.2,-19.83c15.15,-4.35 29.81,-5.43 43.96,-3.25c14.15,2.18 26.21,7.56 36.18,16.12c6.16,4.88 11.17,10.61 15.04,17.2c3.87,6.59 7.94,15.26 12.2,25.99l36.1,90.86c3.88,9.78 4.19,17.93 0.92,24.44c-3.27,6.52 -9.12,10.98 -17.54,13.4c-8.56,2.46 -16.52,1.88 -23.89,-1.71c-7.37,-3.6 -12.95,-10.17 -16.74,-19.71l-32.33,-81.38c-6.4,-16.1 -13.92,-27.65 -22.57,-34.67c-8.65,-7.02 -20.83,-8.27 -36.55,-3.76c-10.24,2.94 -18.54,8.21 -24.9,15.81c-6.36,7.6 -9.7,16.5 -10.03,26.69c0.08,8.08 4.08,22.08 11.99,41.99l24.3,61.17c3.93,9.9 4.18,18.09 0.74,24.59c-3.44,6.5 -9.43,10.98 -17.99,13.43c-8.28,2.38 -16.1,1.76 -23.47,-1.83c-7.37,-3.6 -12.95,-10.17 -16.74,-19.71l-56.07,-141.12c-3.7,-9.3 -4.07,-16.93 -1.12,-22.89c2.95,-5.96 8.56,-10.13 16.84,-12.5c5.05,-1.45 10.01,-1.74 14.89,-0.88c4.87,0.86 9.35,2.96 13.41,6.31c4.07,3.35 7.26,7.95 9.58,13.79Z" style="fill-rule:nonzero;"/>
            <path d="M1960.42,595.34l-1.42,-4.95c-5.71,9.34 -11.73,17.22 -18.05,23.64c-6.32,6.42 -13.62,11.81 -21.9,16.18c-8.28,4.36 -17.74,7.64 -28.39,9.84c-14.1,2.91 -27.89,3.07 -41.36,0.47c-13.47,-2.59 -25.94,-7.69 -37.41,-15.3c-11.47,-7.6 -21.29,-17.3 -29.46,-29.08c-8.17,-11.78 -14.37,-25.07 -18.6,-39.87c-8.95,-31.31 -6.93,-57.56 6.06,-78.77c12.99,-21.2 34.17,-34.83 63.52,-40.89c16.98,-3.51 32.01,-3.98 45.08,-1.44c13.07,2.55 26.62,7.81 40.64,15.8l-21.13,-73.93c-2.94,-10.27 -2.75,-18.54 0.57,-24.79c3.32,-6.25 9.44,-10.3 18.36,-12.14c8.92,-1.84 16.49,-0.84 22.69,2.99c6.2,3.84 10.65,10.46 13.34,19.88l63.14,220.87c2.73,9.54 2.18,17.23 -1.64,23.07c-3.82,5.84 -9.83,9.61 -18.03,11.3c-8.06,1.66 -15.42,0.56 -22.09,-3.31c-6.67,-3.87 -11.31,-10.39 -13.94,-19.56Zm-136.95,-49.63c3.88,13.58 9.67,24.62 17.36,33.13c7.69,8.51 16.55,14.3 26.56,17.34c10.02,3.05 20.13,3.52 30.35,1.41c10.36,-2.14 19.17,-6.39 26.42,-12.74c7.25,-6.35 12.08,-14.8 14.48,-25.33c2.4,-10.53 1.57,-22.89 -2.48,-37.08c-3.81,-13.33 -9.64,-24.27 -17.5,-32.81c-7.85,-8.55 -16.86,-14.46 -27.02,-17.74c-10.16,-3.28 -20.42,-3.85 -30.78,-1.71c-10.79,2.23 -19.69,6.82 -26.7,13.77c-7.01,6.95 -11.46,15.77 -13.36,26.46c-1.9,10.69 -1.01,22.45 2.66,35.29Z" style="fill-rule:nonzero;"/>
            <path d="M2241.07,329.88l7.93,79l141.89,-10.29l-7.93,-79c-1.13,-11.29 1,-19.97 6.41,-26.04c5.41,-6.08 12.98,-9.47 22.72,-10.17c9.89,-0.72 18.17,1.49 24.86,6.63c6.68,5.14 10.6,13.41 11.75,24.82l21.82,217.25c1.15,11.41 -1.1,20.16 -6.73,26.26c-5.63,6.09 -13.32,9.49 -23.06,10.2c-9.89,0.72 -18.07,-1.56 -24.54,-6.84c-6.48,-5.28 -10.28,-13.56 -11.41,-24.85l-9.31,-92.73l-141.89,10.29l9.31,92.73c1.15,11.41 -1.1,20.16 -6.73,26.26c-5.63,6.09 -13.32,9.49 -23.06,10.2c-9.89,0.72 -18.07,-1.56 -24.54,-6.84c-6.48,-5.28 -10.28,-13.56 -11.41,-24.85l-21.82,-217.25c-1.13,-11.29 0.93,-19.96 6.19,-26.03c5.26,-6.07 12.91,-9.46 22.95,-10.19c9.89,-0.72 18.17,1.49 24.86,6.63c6.68,5.14 10.6,13.41 11.75,24.82Z" style="fill-rule:nonzero;"/>
            <path d="M2772.66,470.9c-0.86,15.34 -4.47,29.37 -10.82,42.08c-6.35,12.72 -15.11,23.51 -26.29,32.38c-11.17,8.87 -24.3,15.49 -39.37,19.85c-15.07,4.36 -31.86,6.17 -50.35,5.42c-18.34,-0.75 -34.7,-3.93 -49.06,-9.55c-14.36,-5.62 -26.64,-13.34 -36.84,-23.14c-10.2,-9.8 -17.71,-21.19 -22.54,-34.18c-4.83,-12.99 -6.81,-27.21 -5.94,-42.67c0.88,-15.59 4.49,-29.74 10.84,-42.46c6.35,-12.72 15.04,-23.45 26.06,-32.2c11.02,-8.75 24.14,-15.3 39.36,-19.66c15.22,-4.36 31.86,-6.17 49.9,-5.44c18.34,0.75 34.84,3.94 49.5,9.57c14.66,5.64 27.05,13.32 37.18,23.06c10.13,9.74 17.6,21.13 22.43,34.18c4.83,13.05 6.8,27.3 5.93,42.77Zm-60.8,-2.47c1.18,-20.99 -3.34,-37.56 -13.55,-49.69c-10.22,-12.13 -24.49,-18.57 -42.84,-19.32c-11.83,-0.48 -22.41,1.7 -31.73,6.55c-9.32,4.85 -16.7,12.27 -22.16,22.25c-5.45,9.98 -8.56,21.76 -9.33,35.34c-0.76,13.45 0.99,25.3 5.23,35.56c4.24,10.25 10.69,18.23 19.34,23.94c8.65,5.71 19.04,8.81 31.17,9.3c18.34,0.75 33.28,-4.54 44.82,-15.85c11.53,-11.31 17.89,-27.34 19.05,-48.08Z" style="fill-rule:nonzero;"/>
            <path d="M3018.76,540.43c-2.6,14.05 -8.86,25.54 -18.76,34.47c-9.9,8.93 -23.19,14.92 -39.88,17.98c-16.68,3.06 -36.29,3.08 -58.82,0.06c-21.51,-2.88 -39.42,-8.14 -53.75,-15.79c-14.32,-7.65 -24.37,-16.16 -30.13,-25.53c-5.76,-9.37 -7.86,-18.28 -6.29,-26.74c1.04,-5.59 4.26,-10.07 9.68,-13.42c5.42,-3.35 11.71,-4.55 18.88,-3.59c6.29,0.84 10.88,2.79 13.76,5.85c2.88,3.06 5.42,7.16 7.62,12.29c4.46,9.9 10.56,17.66 18.29,23.28c7.73,5.62 18.98,9.42 33.76,11.4c12,1.61 22.26,0.65 30.78,-2.86c8.52,-3.51 13.32,-8.19 14.41,-14.03c1.66,-8.95 -1.12,-16.01 -8.33,-21.18c-7.21,-5.17 -19.62,-10.84 -37.21,-17.02c-19.82,-7.11 -35.76,-13.93 -47.82,-20.45c-12.06,-6.52 -21.24,-14.21 -27.55,-23.08c-6.3,-8.87 -8.39,-19.02 -6.27,-30.46c1.89,-10.19 7.26,-19.35 16.11,-27.47c8.85,-8.12 20.76,-13.94 35.74,-17.48c14.97,-3.54 32.34,-3.99 52.09,-1.34c15.51,2.08 29.19,5.31 41.05,9.7c11.86,4.39 21.49,9.44 28.9,15.14c7.41,5.71 12.76,11.65 16.04,17.82c3.28,6.17 4.42,11.93 3.43,17.28c-1.08,5.84 -4.27,10.32 -9.57,13.43c-5.3,3.11 -12.19,4.1 -20.68,2.97c-6.14,-0.82 -11.1,-3.01 -14.86,-6.58c-3.76,-3.56 -7.87,-8.7 -12.33,-15.41c-3.61,-5.58 -8.22,-10.27 -13.81,-14.08c-5.59,-3.81 -13.65,-6.41 -24.19,-7.82c-10.83,-1.45 -20.19,-0.69 -28.08,2.26c-7.89,2.96 -12.38,7.36 -13.47,13.2c-0.99,5.35 0.83,10.08 5.46,14.2c4.63,4.12 11.2,7.9 19.71,11.33c8.51,3.43 20.29,7.81 35.35,13.14c17.87,6.34 32.19,12.97 42.98,19.89c10.79,6.92 18.54,14.43 23.27,22.51c4.72,8.09 6.22,16.79 4.49,26.11Z" style="fill-rule:nonzero;"/>
            <path d="M3116.06,418.56l6.48,1.34l8.59,-30.09c2.3,-8.07 4.36,-14.35 6.18,-18.83c1.81,-4.48 4.34,-8.14 7.59,-10.97c3.28,-2.95 7.38,-5.05 12.31,-6.3c4.93,-1.25 10.06,-1.33 15.38,-0.23c7.48,1.54 13.57,5.32 18.25,11.34c3.12,4.01 4.57,8.42 4.34,13.23c-0.23,4.81 -1.55,11.43 -3.96,19.87l-9.74,34.12l21.59,4.45c8.35,1.72 14.24,4.72 17.67,8.98c3.43,4.27 4.39,9.03 2.89,14.29c-1.92,6.73 -6.39,10.79 -13.42,12.19c-7.03,1.4 -16.37,0.9 -28.03,-1.5l-11.01,-2.27l-26.29,92.1c-2.23,7.83 -3.63,13.92 -4.19,18.27c-0.56,4.35 0.19,8.13 2.25,11.34c2.06,3.21 6.25,5.46 12.58,6.77c3.45,0.71 8.28,1.16 14.48,1.33c6.2,0.18 10.95,0.61 14.26,1.29c4.75,0.98 8.57,3.48 11.46,7.51c2.89,4.03 3.65,8.43 2.29,13.2c-2.3,8.07 -9.25,13.18 -20.83,15.33c-11.58,2.14 -27.09,1.21 -46.52,-2.79c-18.42,-3.8 -31.63,-9.3 -39.63,-16.52c-8,-7.22 -12.15,-15.78 -12.44,-25.68c-0.3,-9.9 1.77,-22.62 6.2,-38.16l27.44,-96.13l-7.77,-1.6c-8.49,-1.75 -14.48,-4.8 -17.96,-9.14c-3.48,-4.34 -4.48,-9.15 -2.97,-14.41c1.5,-5.26 5.07,-9.09 10.71,-11.49c5.64,-2.4 12.92,-2.68 21.84,-0.84Z" style="fill-rule:nonzero;"/>
            <path d="M3330.8,492.8l-49.81,142.81c-3.45,9.89 -8.83,16.68 -16.14,20.35c-7.31,3.67 -15.22,4.44 -23.74,2.29c-8.52,-2.15 -14.54,-6.48 -18.05,-13.01c-3.52,-6.53 -3.59,-14.62 -0.22,-24.27l49.3,-141.36c3.41,-9.77 8.64,-16.46 15.69,-20.07c7.05,-3.61 14.84,-4.34 23.36,-2.19c8.52,2.15 14.69,6.39 18.5,12.73c3.81,6.34 4.18,13.92 1.11,22.73Zm-10.95,-58.28c-8.09,-2.04 -14.28,-5.89 -18.56,-11.57c-4.28,-5.67 -5.07,-12.37 -2.38,-20.09c2.44,-7 7.4,-12.02 14.87,-15.06c7.47,-3.04 15.11,-3.58 22.92,-1.61c7.53,1.9 13.48,5.63 17.88,11.2c4.39,5.57 5.22,12.28 2.48,20.12c-2.65,7.6 -7.56,12.83 -14.74,15.68c-7.17,2.85 -14.67,3.3 -22.48,1.33Z" style="fill-rule:nonzero;"/>
            <path d="M3457.03,527.43l-2.59,5.83c14.95,-7.98 29.51,-12.69 43.68,-14.13c14.17,-1.44 28.95,0.31 44.33,5.25c14.96,4.8 27.1,11.86 36.42,21.18c9.32,9.31 14.63,19.97 15.95,31.96c1.12,7.09 0.72,14.22 -1.21,21.41c-1.93,7.18 -5.25,16.07 -9.96,26.67l-39.88,89.71c-4.29,9.65 -10.13,16.12 -17.53,19.4c-7.39,3.28 -15.25,3.58 -23.56,0.91c-8.45,-2.71 -14.18,-7.45 -17.2,-14.2c-3.01,-6.75 -2.43,-14.84 1.76,-24.26l35.72,-80.35c7.07,-15.89 9.87,-28.88 8.42,-38.97c-1.45,-10.09 -9.94,-17.62 -25.46,-22.6c-10.11,-3.25 -20.47,-3.64 -31.06,-1.19c-10.59,2.45 -19.81,7.53 -27.67,15.23c-5.96,6.29 -13.32,19.27 -22.06,38.93l-26.85,60.4c-4.34,9.77 -10.27,16.24 -17.78,19.42c-7.51,3.17 -15.48,3.4 -23.94,0.69c-8.17,-2.62 -13.77,-7.31 -16.78,-14.07c-3.01,-6.75 -2.43,-14.84 1.76,-24.26l61.94,-139.34c4.08,-9.18 9.49,-15.29 16.21,-18.31c6.73,-3.02 14.18,-3.22 22.35,-0.59c4.99,1.6 9.05,4.05 12.17,7.34c3.13,3.29 5.01,7.33 5.66,12.11c0.64,4.78 -0.31,10.06 -2.88,15.83Z" style="fill-rule:nonzero;"/>
            <path d="M3875.3,696.12l-78.8,133.89c-9.01,15.31 -18.68,27.66 -29.01,37.06c-10.33,9.4 -21.86,15.9 -34.58,19.5c-12.72,3.6 -26.96,4.23 -42.72,1.9c-15.76,-2.34 -33.84,-7.84 -54.24,-16.51c-18.68,-7.94 -34.06,-17.25 -46.14,-27.95c-12.09,-10.7 -20.03,-21.25 -23.84,-31.66c-3.81,-10.41 -3.52,-19.33 0.85,-26.76c3.31,-5.63 8.26,-9.26 14.85,-10.89c6.59,-1.63 13.06,-1.1 19.42,1.61c7.95,3.38 13.15,9.32 15.6,17.82c1.13,4.28 2.33,8.63 3.62,13.04c1.29,4.42 3.18,8.53 5.66,12.33c2.48,3.8 6.06,7.36 10.73,10.68c4.67,3.32 10.45,6.45 17.34,9.37c14.04,5.97 25.91,8.94 35.62,8.91c9.7,-0.03 17.87,-2.36 24.49,-7.01c6.62,-4.64 12.2,-10.26 16.74,-16.84c4.54,-6.58 11.38,-17.36 20.52,-32.33c-14.17,6.36 -28.25,9.8 -42.23,10.34c-13.98,0.53 -28.51,-2.41 -43.61,-8.83c-18.15,-7.71 -31.69,-18.39 -40.63,-32.04c-8.94,-13.65 -12.88,-29.11 -11.82,-46.39c1.06,-17.28 7.06,-35.21 17.99,-53.78c8.15,-13.85 17.72,-25.4 28.72,-34.65c11,-9.26 22.85,-15.97 35.57,-20.13c12.72,-4.16 25.58,-5.91 38.6,-5.23c13.01,0.68 25.95,3.75 38.8,9.21c15.37,6.53 27.2,14.69 35.51,24.49c8.31,9.79 14.15,22.09 17.53,36.9l3.68,-6.25c4.7,-7.99 10.67,-13.2 17.89,-15.62c7.22,-2.42 14.47,-2.08 21.76,1.02c10.46,4.45 15.71,10.3 15.74,17.56c0.03,7.26 -3.16,16.35 -9.59,27.27Zm-191.55,-8.38c-11,18.69 -14.51,34.85 -10.54,48.5c3.97,13.65 13.57,23.71 28.81,30.18c9.01,3.83 18.73,5.39 29.16,4.69c10.43,-0.7 20.6,-4.12 30.5,-10.26c9.9,-6.13 18.33,-15.11 25.29,-26.93c11.06,-18.8 14.81,-35.5 11.23,-50.11c-3.57,-14.61 -13.31,-25.29 -29.21,-32.04c-15.5,-6.59 -30.86,-6.86 -46.1,-0.81c-15.23,6.05 -28.28,18.3 -39.15,36.76Z" style="fill-rule:nonzero;"/>
        </g>
        <g transform="matrix(1,0,0,1.034588,-0,-87.340726)">
            <path d="M1112.45,865.73l-126.7,-120.59l46.3,166.09c3.43,12.64 5.65,21.85 6.66,27.62c1.01,5.77 0.34,11.84 -1.99,18.19c-2.34,6.35 -7.33,11.69 -14.97,16.02c-6.18,3.5 -11.94,5.26 -17.28,5.29c-5.34,0.03 -10.48,-1.29 -15.42,-3.96c-4.94,-2.67 -9.89,-6.36 -14.85,-11.06c-4.96,-4.7 -9.51,-9.09 -13.64,-13.17l-138.54,-137.51c-8.13,-7.94 -13.68,-14.35 -16.64,-19.24c-3.75,-6.19 -4.66,-12.68 -2.73,-19.45c1.93,-6.78 6.21,-12.05 12.84,-15.8c9.1,-5.15 16.94,-5.79 23.5,-1.93c6.57,3.87 14.29,10.51 23.16,19.92l116.84,121.13l-42.82,-151c-3.36,-11.52 -5.55,-20.49 -6.57,-26.91c-1.02,-6.42 -0.27,-12.9 2.26,-19.44c2.53,-6.54 7.95,-12.16 16.26,-16.86c8.43,-4.77 16.17,-6.49 23.24,-5.17c7.06,1.32 12.91,3.81 17.54,7.47c4.63,3.65 11.71,10 21.26,19.03l115.63,109.79l-52.12,-157.76c-2.84,-8.17 -4.8,-14.71 -5.9,-19.63c-1.1,-4.92 -0.92,-9.98 0.54,-15.18c1.45,-5.2 5.44,-9.64 11.95,-13.33c6.52,-3.69 13.32,-4.73 20.4,-3.12c7.08,1.61 12.53,5.56 16.35,11.86c2.7,4.45 5.77,12.27 9.22,23.44l56.29,184.07c3.77,12.45 6.26,21.73 7.46,27.82c1.21,6.1 0.74,12.31 -1.39,18.62c-2.14,6.31 -7.25,11.76 -15.34,16.34c-7.64,4.32 -14.88,5.94 -21.73,4.86c-6.84,-1.09 -12.56,-3.43 -17.16,-7.02c-4.59,-3.6 -11.91,-10.07 -21.94,-19.41Z" style="fill-rule:nonzero;"/>
            <path d="M1376.63,694.44l-95.68,40.12c4.94,10.69 11.43,19.22 19.47,25.59c8.04,6.37 16.6,10.12 25.7,11.24c9.09,1.13 18,-0.14 26.72,-3.79c5.85,-2.45 10.9,-5.36 15.14,-8.72c4.24,-3.36 8,-7.4 11.27,-12.13c3.27,-4.73 6.09,-9.52 8.46,-14.35c2.37,-4.84 5.36,-11.3 8.97,-19.4c1.58,-3.13 4.69,-5.67 9.35,-7.62c5.02,-2.1 9.67,-2.48 13.97,-1.13c4.3,1.35 7.53,4.45 9.71,9.3c1.92,4.27 2.43,9.99 1.53,17.16c-0.9,7.17 -3.66,14.84 -8.29,23.03c-4.63,8.18 -11.45,16.22 -20.47,24.12c-9.02,7.9 -20.39,14.72 -34.13,20.48c-31.42,13.17 -59.73,14.75 -84.94,4.75c-25.21,-10.01 -44.48,-29.85 -57.79,-59.52c-6.27,-13.97 -9.94,-27.83 -11,-41.59c-1.06,-13.75 0.61,-26.63 5.02,-38.63c4.41,-12 11.62,-22.81 21.64,-32.43c10.02,-9.62 22.37,-17.51 37.07,-23.67c19.11,-8.01 37.26,-10.99 54.43,-8.93c17.18,2.06 31.94,7.84 44.29,17.34c12.35,9.5 21.41,20.66 27.16,33.47c5.34,11.89 5.27,21.08 -0.2,27.55c-5.47,6.48 -14.59,12.39 -27.37,17.75Zm-107.73,13.27l88.69,-37.19c-8.45,-15.66 -18.39,-25.87 -29.81,-30.61c-11.43,-4.74 -23.53,-4.44 -36.31,0.92c-12.18,5.11 -20.36,13.37 -24.53,24.79c-4.17,11.42 -3.52,25.45 1.96,42.08Z" style="fill-rule:nonzero;"/>
            <path d="M1454.52,489.9l25.72,74.69c6.22,-12.61 13.4,-23.05 21.54,-31.3c8.14,-8.25 19.49,-14.73 34.07,-19.42c16.8,-5.4 32.86,-6.29 48.18,-2.66c15.32,3.63 28.98,11.63 41,24.02c12.02,12.38 21.48,28.61 28.39,48.67c5.1,14.81 7.83,29.02 8.19,42.63c0.36,13.61 -1.6,26.15 -5.89,37.61c-4.29,11.46 -10.86,21.37 -19.72,29.72c-8.86,8.35 -19.65,14.58 -32.37,18.67c-7.78,2.5 -15.41,3.96 -22.89,4.38c-7.47,0.41 -14.12,-0.07 -19.95,-1.44c-5.83,-1.38 -10.97,-3.07 -15.44,-5.08c-4.47,-2.01 -10.55,-5.23 -18.25,-9.65l1.67,4.84c3.17,9.19 3.28,16.89 0.33,23.07c-2.95,6.19 -7.94,10.41 -14.98,12.68c-7.17,2.31 -13.69,1.78 -19.58,-1.56c-5.89,-3.35 -10.41,-9.62 -13.58,-18.81l-73.52,-213.51c-3.41,-9.91 -3.92,-18.07 -1.53,-24.48c2.39,-6.41 7.29,-10.8 14.71,-13.19c7.78,-2.5 14.61,-2.01 20.47,1.47c5.87,3.49 10.34,9.71 13.42,18.66Zm52.43,144.49c6.7,19.46 16.45,32.94 29.26,40.43c12.8,7.49 26.68,8.83 41.63,4.02c12.73,-4.09 21.85,-12.96 27.37,-26.61c5.52,-13.65 4.85,-30.44 -2.01,-50.39c-4.44,-12.9 -10.18,-23.39 -17.22,-31.47c-7.04,-8.08 -14.95,-13.53 -23.74,-16.34c-8.79,-2.81 -17.88,-2.7 -27.27,0.32c-9.64,3.1 -17.35,8.4 -23.14,15.9c-5.79,7.5 -9.19,16.75 -10.2,27.76c-1.01,11 0.76,23.13 5.32,36.39Z" style="fill-rule:nonzero;"/>
            <path d="M1879.52,569.1c3.56,13.8 3.13,26.45 -1.28,37.96c-4.41,11.5 -12.76,21.43 -25.03,29.77c-12.28,8.34 -28.14,14.85 -47.6,19.54c-18.57,4.47 -35.2,5.56 -49.88,3.26c-14.68,-2.3 -26.25,-6.81 -34.69,-13.53c-8.44,-6.72 -13.73,-14.23 -15.88,-22.54c-1.42,-5.5 -0.61,-10.68 2.43,-15.57c3.04,-4.88 7.65,-8.07 13.84,-9.56c5.43,-1.31 9.93,-1.03 13.5,0.83c3.57,1.86 7.28,4.8 11.13,8.8c7.61,7.64 15.67,12.76 24.19,15.38c8.52,2.62 19.17,2.39 31.93,-0.69c10.36,-2.5 18.28,-6.77 23.77,-12.83c5.48,-6.06 7.49,-11.95 6.01,-17.69c-2.27,-8.79 -7.36,-14.37 -15.29,-16.75c-7.92,-2.37 -20.26,-3.49 -36.99,-3.35c-18.92,0.02 -34.57,-0.98 -46.97,-2.99c-12.39,-2.01 -22.93,-6.05 -31.61,-12.13c-8.68,-6.08 -14.47,-14.74 -17.37,-25.97c-2.58,-10.01 -1.93,-20.22 1.97,-30.63c3.89,-10.41 11.19,-19.72 21.88,-27.94c10.7,-8.22 24.57,-14.38 41.63,-18.49c13.39,-3.23 25.77,-4.78 37.14,-4.67c11.37,0.11 21.2,1.57 29.51,4.37c8.3,2.8 15.03,6.5 20.17,11.09c5.14,4.6 8.39,9.52 9.75,14.77c1.48,5.74 0.7,10.92 -2.33,15.54c-3.04,4.62 -8.22,7.82 -15.54,9.58c-5.31,1.28 -10.2,0.9 -14.68,-1.13c-4.48,-2.03 -9.88,-5.4 -16.19,-10.11c-5.18,-3.94 -10.8,-6.74 -16.86,-8.39c-6.06,-1.65 -13.64,-1.38 -22.74,0.81c-9.35,2.25 -16.62,6.05 -21.82,11.39c-5.2,5.34 -7.06,10.88 -5.58,16.62c1.35,5.25 4.74,9.01 10.15,11.27c5.41,2.26 12.26,3.56 20.53,3.91c8.27,0.34 19.58,0.47 33.92,0.39c17.02,-0.08 31.29,1.28 42.82,4.08c11.52,2.8 20.83,7.14 27.91,13.02c7.09,5.88 11.81,13.4 14.17,22.56Z" style="fill-rule:nonzero;"/>
            <path d="M1956.89,440.12l29.23,146.25c2.03,10.13 1.06,18.26 -2.88,24.38c-3.95,6.12 -9.76,9.9 -17.43,11.33c-7.67,1.43 -14.43,-0.06 -20.29,-4.48c-5.86,-4.42 -9.77,-11.57 -11.75,-21.46l-28.93,-144.76c-2,-10.01 -1.11,-17.99 2.67,-23.96c3.78,-5.96 9.51,-9.66 17.18,-11.09c7.67,-1.43 14.51,-0.08 20.5,4.05c6,4.14 9.9,10.71 11.7,19.73Zm-36.34,-47.44c-7.29,1.36 -13.95,0.36 -19.99,-3c-6.04,-3.36 -9.85,-8.99 -11.43,-16.9c-1.43,-7.17 0.04,-13.56 4.42,-19.19c4.38,-5.62 10.08,-9.09 17.12,-10.41c6.78,-1.27 13.2,-0.29 19.29,2.94c6.08,3.22 9.92,8.85 11.53,16.88c1.56,7.78 0.22,14.35 -4.02,19.69c-4.24,5.34 -9.87,8.67 -16.9,9.98Z" style="fill-rule:nonzero;"/>
            <path d="M2018.49,404.43l5.8,-0.83l-4.71,-30.62c-1.26,-8.22 -2.03,-14.69 -2.3,-19.42c-0.27,-4.73 0.37,-8.93 1.91,-12.59c1.52,-3.78 4.05,-7.04 7.58,-9.77c3.53,-2.73 7.68,-4.44 12.44,-5.13c6.7,-0.96 13.12,0.59 19.28,4.67c4.1,2.72 7,6.34 8.68,10.87c1.68,4.53 3.19,11.09 4.51,19.68l5.35,34.73l19.32,-2.78c7.47,-1.07 13.43,-0.18 17.89,2.68c4.46,2.86 7.09,6.96 7.92,12.32c1.05,6.85 -1.01,12.04 -6.19,15.59c-5.18,3.54 -12.99,6.07 -23.42,7.57l-9.85,1.42l14.43,93.74c1.23,7.97 2.46,14.06 3.7,18.27c1.24,4.21 3.32,7.47 6.25,9.79c2.92,2.32 7.22,3.07 12.89,2.25c3.09,-0.44 7.2,-1.58 12.31,-3.39c5.12,-1.82 9.16,-2.94 12.12,-3.37c4.25,-0.61 8.34,0.49 12.26,3.3c3.92,2.81 6.25,6.64 7,11.49c1.26,8.22 -2.4,15.17 -11.01,20.86c-8.6,5.69 -21.6,9.79 -38.98,12.29c-16.49,2.37 -29.39,1.49 -38.71,-2.64c-9.32,-4.13 -16.03,-10.74 -20.13,-19.82c-4.1,-9.08 -7.36,-21.53 -9.8,-37.34l-15.06,-97.85l-6.95,1c-7.6,1.09 -13.66,0.18 -18.19,-2.73c-4.53,-2.91 -7.21,-7.04 -8.03,-12.4c-0.82,-5.35 0.59,-10.04 4.25,-14.07c3.66,-4.03 9.48,-6.61 17.47,-7.76Z" style="fill-rule:nonzero;"/>
            <path d="M2326.37,483.11l-103.89,8.86c1.19,11.65 4.56,21.72 10.11,30.22c5.55,8.5 12.45,14.67 20.71,18.51c8.26,3.84 17.12,5.36 26.59,4.55c6.36,-0.54 12.09,-1.76 17.22,-3.65c5.12,-1.89 10.01,-4.58 14.65,-8.07c4.65,-3.49 8.89,-7.17 12.72,-11.03c3.83,-3.86 8.78,-9.09 14.84,-15.67c2.52,-2.49 6.31,-3.95 11.36,-4.38c5.45,-0.46 9.99,0.6 13.62,3.2c3.64,2.6 5.69,6.53 6.17,11.79c0.42,4.64 -0.96,10.22 -4.16,16.75c-3.19,6.53 -8.33,12.97 -15.39,19.32c-7.07,6.35 -16.17,11.9 -27.3,16.64c-11.14,4.74 -24.16,7.75 -39.08,9.02c-34.11,2.91 -61.5,-4.23 -82.15,-21.42c-20.65,-17.19 -32.45,-41.89 -35.39,-74.11c-1.38,-15.17 -0.33,-29.44 3.15,-42.82c3.48,-13.37 9.28,-25.08 17.38,-35.12c8.1,-10.04 18.48,-18.1 31.13,-24.16c12.65,-6.07 26.95,-9.78 42.9,-11.15c20.75,-1.77 38.94,0.94 54.56,8.14c15.62,7.2 27.74,17.19 36.36,29.97c8.62,12.78 13.56,26.13 14.83,40.05c1.18,12.91 -1.88,21.61 -9.19,26.08c-7.3,4.48 -17.89,7.31 -31.77,8.49Zm-106.55,-20.29l96.31,-8.21c-2.9,-17.44 -8.99,-30.16 -18.29,-38.14c-9.29,-7.99 -20.88,-11.39 -34.75,-10.21c-13.23,1.13 -23.69,6.47 -31.38,16.04c-7.69,9.56 -11.65,23.07 -11.89,40.53Z" style="fill-rule:nonzero;"/>
            <path d="M2773.7,482.55c-0.32,8.8 -2.92,18.25 -7.78,28.35c-4.87,10.1 -12.29,19.92 -22.29,29.46c-9.99,9.54 -22.58,17.14 -37.77,22.79c-15.19,5.65 -32.74,8.13 -52.65,7.45c-15.09,-0.52 -28.77,-2.37 -41.03,-5.56c-12.26,-3.19 -23.33,-7.88 -33.2,-14.08c-9.87,-6.19 -18.86,-14.22 -26.97,-24.07c-7.23,-8.94 -13.31,-18.87 -18.25,-29.81c-4.94,-10.94 -8.52,-22.55 -10.74,-34.84c-2.22,-12.29 -3.08,-25.29 -2.57,-39c0.82,-22.26 4.9,-42.08 12.25,-59.46c7.35,-17.38 17.5,-32.11 30.45,-44.2c12.95,-12.09 27.94,-21.11 44.97,-27.08c17.03,-5.96 35.04,-8.62 54.04,-7.97c23.16,0.79 43.62,5.97 61.38,15.52c17.76,9.55 31.21,21.06 40.36,34.54c9.15,13.47 13.5,26.06 13.08,37.76c-0.24,6.41 -2.79,11.99 -7.65,16.74c-4.86,4.74 -10.62,7 -17.25,6.78c-7.42,-0.25 -12.92,-2.14 -16.5,-5.67c-3.58,-3.52 -7.5,-9.51 -11.75,-17.97c-7.04,-13.97 -15.55,-24.52 -25.51,-31.67c-9.97,-7.14 -22.43,-10.97 -37.39,-11.48c-23.81,-0.82 -43.1,7.27 -57.86,24.27c-14.76,17 -22.73,41.6 -23.92,73.8c-0.79,21.51 1.68,39.51 7.4,54c5.72,14.49 14.18,25.45 25.37,32.89c11.19,7.44 24.47,11.42 39.82,11.95c16.66,0.57 30.89,-2.94 42.7,-10.53c11.81,-7.59 20.93,-19.02 27.35,-34.29c2.74,-7.21 6.02,-13.05 9.83,-17.51c3.81,-4.47 9.75,-6.56 17.82,-6.28c6.9,0.24 12.73,2.77 17.51,7.59c4.77,4.82 7.03,10.69 6.78,17.61Z" style="fill-rule:nonzero;"/>
            <path d="M2880.52,513.06l-5.46,42.72c-1.32,10.37 -4.84,17.84 -10.54,22.42c-5.7,4.58 -12.43,6.41 -20.18,5.49c-7.62,-0.91 -13.56,-4.28 -17.8,-10.11c-4.24,-5.83 -5.71,-13.87 -4.4,-24.11l18.19,-142.39c2.94,-22.98 13,-33.45 30.18,-31.4c8.79,1.05 14.78,4.49 17.97,10.32c3.19,5.83 4.31,14.02 3.36,24.56c7.67,-9.74 15.18,-16.89 22.52,-21.47c7.34,-4.58 16.57,-6.2 27.68,-4.88c11.11,1.33 21.56,5.3 31.34,11.92c9.78,6.62 14.11,14.36 12.97,23.23c-0.8,6.25 -3.69,11.13 -8.66,14.66c-4.98,3.53 -10.05,4.98 -15.22,4.37c-1.94,-0.23 -6.48,-1.95 -13.61,-5.14c-7.14,-3.2 -13.55,-5.14 -19.23,-5.81c-7.75,-0.93 -14.34,0.29 -19.75,3.63c-5.41,3.35 -9.97,8.73 -13.67,16.15c-3.7,7.42 -6.75,16.41 -9.15,26.96c-2.4,10.56 -4.58,23.52 -6.54,38.88Z" style="fill-rule:nonzero;"/>
            <path d="M3146.1,536.57l-102.45,-18.89c-2.14,11.52 -1.74,22.1 1.19,31.74c2.94,9.64 7.83,17.4 14.69,23.27c6.86,5.88 14.96,9.68 24.3,11.4c6.27,1.16 12.13,1.5 17.59,1.03c5.46,-0.47 10.92,-1.77 16.38,-3.9c5.46,-2.13 10.57,-4.55 15.35,-7.26c4.78,-2.71 11.01,-6.43 18.7,-11.16c3.13,-1.73 7.18,-2.14 12.17,-1.22c5.37,0.99 9.44,3.21 12.2,6.67c2.76,3.46 3.63,7.78 2.61,12.97c-0.9,4.57 -3.81,9.58 -8.73,15.01c-4.92,5.44 -11.67,10.28 -20.26,14.52c-8.59,4.25 -18.91,7.18 -30.97,8.8c-12.05,1.62 -25.43,1.08 -40.14,-1.63c-33.64,-6.2 -57.97,-20.29 -72.98,-42.28c-15.01,-21.99 -19.39,-48.87 -13.12,-80.64c2.95,-14.96 7.99,-28.41 15.12,-40.36c7.13,-11.95 16.01,-21.68 26.64,-29.2c10.63,-7.52 22.89,-12.53 36.77,-15.04c13.88,-2.5 28.69,-2.3 44.42,0.6c20.46,3.77 37.2,11.18 50.19,22.23c13,11.04 21.84,23.85 26.52,38.42c4.68,14.57 5.67,28.72 2.96,42.44c-2.51,12.73 -7.91,20.29 -16.2,22.67c-8.29,2.38 -19.28,2.31 -32.96,-0.22Zm-96.78,-47.63l94.97,17.51c2.14,-17.54 -0.14,-31.38 -6.82,-41.52c-6.68,-10.14 -16.87,-16.47 -30.55,-18.99c-13.05,-2.4 -24.62,-0.02 -34.72,7.15c-10.1,7.17 -17.72,19.12 -22.88,35.85Z" style="fill-rule:nonzero;"/>
            <path d="M3352.84,652.93c-15.14,5.92 -29.18,9.63 -42.14,11.12c-12.95,1.49 -26.64,0.26 -41.04,-3.69c-13.15,-3.6 -23.97,-9.28 -32.46,-17.04c-8.49,-7.75 -14.16,-16.67 -17.03,-26.74c-2.86,-10.07 -2.82,-20.13 0.12,-30.18c3.98,-13.56 11.82,-23.91 23.52,-31.03c11.7,-7.13 25.8,-10.2 42.29,-9.21c3.47,0.17 12.03,0.75 25.68,1.74c13.65,0.99 25.39,1.69 35.22,2.1c9.83,0.4 20.57,0.57 32.24,0.49c3.21,-13.25 3.3,-23.59 0.27,-31.03c-3.03,-7.44 -12.12,-13.23 -27.28,-17.39c-13.03,-3.57 -23.35,-4.5 -30.95,-2.79c-7.61,1.71 -14.79,5.43 -21.55,11.17c-6.76,5.74 -11.44,9.46 -14.03,11.17c-2.6,1.71 -7.09,1.69 -13.48,-0.06c-5.76,-1.58 -10.22,-4.73 -13.37,-9.45c-3.15,-4.72 -3.91,-9.87 -2.27,-15.44c2.56,-8.72 8.24,-16.32 17.04,-22.8c8.8,-6.48 20.75,-10.53 35.84,-12.15c15.09,-1.62 32.72,0.33 52.89,5.86c22.55,6.18 39.52,13.61 50.91,22.29c11.39,8.68 18.12,19.32 20.17,31.92c2.06,12.6 0.39,28.1 -5.01,46.5c-3.41,11.62 -6.34,21.48 -8.78,29.58c-2.44,8.1 -5.18,17.09 -8.22,26.98c-2.73,9.32 -3.99,19.48 -3.76,30.46c0.23,10.99 -0.08,17.93 -0.94,20.84c-1.49,5.09 -5.32,9.04 -11.5,11.86c-6.17,2.82 -12.39,3.37 -18.66,1.66c-5.26,-1.44 -9.76,-5.26 -13.49,-11.45c-3.73,-6.19 -7.15,-14.62 -10.25,-25.28Zm17.66,-72.67c-8.3,0.6 -20.05,0.42 -35.27,-0.54c-15.21,-0.96 -25.78,-1.51 -31.7,-1.62c-5.92,-0.12 -11.98,1.16 -18.18,3.85c-6.2,2.68 -10.37,7.66 -12.5,14.92c-2.2,7.51 -1.13,14.7 3.21,21.58c4.34,6.88 11.27,11.63 20.8,14.23c10.15,2.78 20.14,3.2 29.98,1.25c9.84,-1.95 17.76,-5.76 23.76,-11.44c6.84,-6.24 12.78,-17.95 17.82,-35.15l2.08,-7.08Z" style="fill-rule:nonzero;"/>
            <path d="M3508.02,516.44l5.51,1.94l10.95,-29.09c2.94,-7.81 5.46,-13.85 7.56,-18.13c2.1,-4.28 4.73,-7.68 7.89,-10.18c3.2,-2.62 7.03,-4.32 11.48,-5.1c4.45,-0.78 8.94,-0.37 13.47,1.22c6.36,2.24 11.25,6.57 14.65,12.99c2.27,4.28 3.03,8.8 2.27,13.56c-0.75,4.76 -2.66,11.22 -5.74,19.38l-12.42,33l18.35,6.46c7.1,2.5 11.9,6.03 14.41,10.59c2.51,4.57 2.8,9.39 0.89,14.48c-2.45,6.5 -6.82,10.12 -13.13,10.85c-6.3,0.73 -14.41,-0.65 -24.32,-4.14l-9.36,-3.29l-33.53,89.05c-2.85,7.57 -4.77,13.49 -5.75,17.76c-0.99,4.27 -0.76,8.1 0.66,11.48c1.43,3.38 4.83,6.02 10.22,7.91c2.94,1.03 7.1,1.93 12.5,2.69c5.4,0.76 9.5,1.63 12.31,2.62c4.04,1.42 7.09,4.27 9.15,8.54c2.06,4.27 2.23,8.72 0.49,13.33c-2.94,7.81 -9.59,12.23 -19.96,13.27c-10.37,1.04 -23.81,-1.34 -40.33,-7.16c-15.66,-5.51 -26.57,-12.23 -32.73,-20.15c-6.16,-7.93 -8.8,-16.82 -7.93,-26.7c0.88,-9.87 4.14,-22.32 9.8,-37.34l35,-92.96l-6.61,-2.32c-7.22,-2.54 -12.1,-6.13 -14.65,-10.78c-2.55,-4.65 -2.86,-9.51 -0.95,-14.6c1.91,-5.09 5.47,-8.55 10.67,-10.41c5.2,-1.85 11.59,-1.45 19.18,1.22Z" style="fill-rule:nonzero;"/>
            <path d="M3686.38,609.96l-59.63,137.34c-4.13,9.52 -9.6,15.76 -16.4,18.74c-6.8,2.97 -13.8,3 -21,0.08c-7.2,-2.92 -11.97,-7.79 -14.31,-14.61c-2.34,-6.82 -1.49,-14.87 2.54,-24.15l59.03,-135.95c4.08,-9.4 9.41,-15.57 15.97,-18.5c6.57,-2.93 13.45,-2.94 20.66,-0.01c7.2,2.92 12.11,7.71 14.73,14.37c2.62,6.66 2.09,14.22 -1.59,22.69Zm-3,-58.95c-6.84,-2.78 -11.81,-7.18 -14.91,-13.22c-3.1,-6.03 -3.04,-12.76 0.19,-20.19c2.92,-6.73 7.82,-11.26 14.69,-13.59c6.87,-2.33 13.61,-2.16 20.21,0.52c6.36,2.58 11.15,6.84 14.36,12.79c3.21,5.94 3.18,12.69 -0.1,20.23c-3.17,7.31 -8.06,12.05 -14.65,14.22c-6.59,2.17 -13.19,1.92 -19.79,-0.76Z" style="fill-rule:nonzero;"/>
            <path d="M3891.93,790.87c-7.24,13.67 -16.12,25.18 -26.64,34.54c-10.52,9.36 -22.14,16.12 -34.88,20.27c-12.74,4.16 -26.07,5.58 -40.01,4.27c-13.93,-1.31 -28.14,-5.55 -42.63,-12.73c-14.37,-7.11 -26.11,-15.75 -35.2,-25.91c-9.1,-10.16 -15.64,-21.49 -19.62,-34c-3.98,-12.5 -5.13,-25.52 -3.45,-39.04c1.68,-13.52 6.17,-27.17 13.47,-40.95c7.36,-13.89 16.3,-25.51 26.82,-34.87c10.52,-9.36 22.06,-16.09 34.62,-20.19c12.56,-4.1 25.87,-5.47 39.92,-4.1c14.05,1.37 28.14,5.55 42.28,12.55c14.37,7.11 26.22,15.81 35.55,26.08c9.33,10.28 15.97,21.62 19.92,34.04c3.95,12.42 5.07,25.42 3.37,39c-1.71,13.58 -6.21,27.26 -13.51,41.03Zm-47.63,-23.58c9.91,-18.71 13.37,-35.38 10.37,-50.01c-3,-14.63 -11.68,-25.51 -26.05,-32.62c-9.27,-4.59 -18.67,-6.31 -28.21,-5.16c-9.53,1.15 -18.62,5.31 -27.25,12.49c-8.63,7.18 -16.15,16.82 -22.56,28.92c-6.35,11.99 -10.02,23.39 -11,34.22c-0.98,10.83 0.77,20.35 5.26,28.59c4.49,8.23 11.48,14.7 20.99,19.4c14.37,7.11 28.59,7.54 42.66,1.29c14.07,-6.26 26,-18.63 35.79,-37.11Z" style="fill-rule:nonzero;"/>
            <path d="M4022.72,780.51l-3.58,5.18c14.67,-4.9 28.24,-6.68 40.72,-5.35c12.47,1.33 24.72,5.88 36.73,13.65c11.69,7.56 20.43,16.77 26.22,27.64c5.79,10.87 7.85,22.27 6.17,34.2c-0.7,7.12 -2.72,13.99 -6.05,20.62c-3.33,6.63 -8.26,14.65 -14.78,24.06l-55.18,79.7c-5.94,8.58 -12.46,13.75 -19.56,15.52c-7.1,1.77 -13.9,0.55 -20.39,-3.65c-6.6,-4.27 -10.4,-9.98 -11.4,-17.14c-1,-7.16 1.4,-14.92 7.19,-23.29l49.43,-71.38c9.78,-14.12 15.23,-26.23 16.35,-36.34c1.12,-10.1 -4.38,-19.07 -16.5,-26.91c-7.9,-5.11 -16.67,-7.49 -26.31,-7.14c-9.64,0.35 -18.73,3.52 -27.27,9.51c-6.58,4.98 -15.92,16.2 -28.01,33.67l-37.15,53.66c-6.01,8.68 -12.6,13.84 -19.77,15.49c-7.17,1.65 -14.06,0.33 -20.66,-3.94c-6.38,-4.13 -10.08,-9.77 -11.07,-16.93c-1,-7.16 1.4,-14.92 7.19,-23.29l85.71,-123.79c5.65,-8.16 11.71,-13.06 18.17,-14.71c6.47,-1.65 12.89,-0.41 19.28,3.72c3.9,2.52 6.8,5.68 8.7,9.49c1.91,3.81 2.58,8.1 2.01,12.88c-0.57,4.78 -2.63,9.73 -6.18,14.86Z" style="fill-rule:nonzero;"/>
        </g>
    </g>
</svg>
