<?xml version="1.0" encoding="UTF-8" standalone="no"?>
<!DOCTYPE svg PUBLIC "-//W3C//DTD SVG 1.1//EN" "http://www.w3.org/Graphics/SVG/1.1/DTD/svg11.dtd">
<svg width="100%" height="100%" viewBox="0 0 5120 1593" version="1.1" xmlns="http://www.w3.org/2000/svg" xmlns:xlink="http://www.w3.org/1999/xlink" xml:space="preserve" xmlns:serif="http://www.serif.com/" style="fill-rule:evenodd;clip-rule:evenodd;stroke-linecap:round;stroke-linejoin:round;stroke-miterlimit:1.5;">
    <g id="Automation">
        <path id="Period" d="M1308.497,731.622C1286.917,728.359 1288.188,761.952 1306.219,761.937C1328.453,761.919 1327.73,731.506 1306.219,731.503C1289.254,731.5 1291.06,757.794 1307.336,757.62C1326.848,757.413 1327.198,735.648 1307.508,735.497C1292.79,735.384 1293.981,753.851 1307.422,753.608C1325.631,753.279 1323.67,739.466 1307.851,739.814C1294.889,740.1 1292.36,751.345 1311.517,747.463" style="fill:none;stroke:#000;stroke-width:15px;"/>
        <path id="M" d="M1465.301,752.079C1315.179,480.895 1489.065,820.155 1453.348,827.317C1423.43,833.317 1318.564,573.773 1376.588,547.977C1397.631,538.622 1470.799,726.728 1492.057,720.262C1509.558,714.939 1441.016,517.023 1463.226,508.429C1515.069,488.369 1624.083,759.225 1596.924,769.043C1564.785,780.662 1459.211,449.392 1529.332,719.399C1545.982,783.511 1485.356,797.155 1459.528,741.679" style="fill:none;stroke:#000;stroke-width:15px;"/>
        <path id="A" d="M1752.94,627.133C1706.436,553.799 1681.738,492.999 1629.83,510.355C1579.036,527.338 1602.907,743.352 1646.54,730.879C1694.041,717.301 1627.459,649.764 1671.527,634.337C1717.232,618.337 1712.609,708.251 1751.152,696.285C1800.586,680.939 1709.797,517.866 1639.912,540.331C1627.253,544.4 1621.391,622.528 1652.258,611.78C1680.94,601.794 1712.201,596.553 1639.912,540.331" style="fill:none;stroke:#000;stroke-width:15px;"/>
        <path id="K" d="M1820.598,571.987C1821.432,574.862 1916.862,394.175 1878.846,430.804C1803.608,503.295 1821.137,599.543 1772.847,461.619C1764.42,437.548 1832.076,719.295 1826.341,671.263C1811.122,543.819 1846.825,598.921 1916.666,648.275C1959.341,678.432 1853.389,571.21 1808.223,577.125C1804.419,577.623 1894.267,428.333 1886.603,436.213C1816.742,508.038 1820.26,578.381 1784.328,516.3" style="fill:none;stroke:#000;stroke-width:15px;"/>
        <path id="I" d="M2038.552,413.188C2023.109,380.069 1939.778,411.371 1944.495,433.533C1950.486,461.676 1987.767,384.541 2004.741,596.742C2005.223,602.767 1965.997,589.886 1968.531,619.435C1971.855,658.206 2071.194,635.573 2066.595,608.196C2060.488,571.843 2028.85,603.07 2023.019,585.851C1973.392,439.311 2046.262,423.028 2038.552,413.188C2024.463,395.204 1973.861,491.334 2025.26,589.479" style="fill:none;stroke:#000;stroke-width:12px;"/>
        <path id="N" d="M2154.551,393.153C2077.417,361.068 2124.46,596.12 2153.577,592.914C2181.68,589.82 2132.308,461.232 2145.05,454.212C2157.298,447.464 2187.482,597.816 2218.866,590.46C2269.121,578.681 2242.117,382.774 2221.151,381.719C2177.134,379.503 2225.5,533.603 2211.404,534.893C2195.667,536.334 2178.188,376.448 2132.675,382.236C2072.648,389.868 2131.452,571.326 2145.156,587.447" style="fill:none;stroke:#000;stroke-width:15px;"/>
        <path id="Period1" serif:id="Period" d="M2293.42,514.382C2271.84,511.119 2273.11,544.712 2291.141,544.697C2313.375,544.679 2312.653,514.266 2291.141,514.263C2274.176,514.26 2275.982,540.554 2292.258,540.38C2311.77,540.173 2312.12,518.408 2292.43,518.257C2277.712,518.144 2278.903,536.611 2292.344,536.368C2310.553,536.039 2308.592,522.226 2292.773,522.574C2279.811,522.86 2277.282,534.105 2296.439,530.223" style="fill:none;stroke:#000;stroke-width:15px;"/>
        <path id="G" d="M2344.045,489.095C2307.243,404.778 2371.919,346.771 2425.4,383.722C2438.83,393.001 2465.402,355.403 2395.818,339.225C2304.684,318.037 2258.335,525.952 2386.037,562.334C2415.558,570.744 2451.651,543.17 2449.492,529.173C2442.142,481.533 2430.195,460.157 2409.12,471.642C2331.37,514.015 2441.495,495.065 2423.939,521.659C2407.09,547.182 2358.322,546.327 2335.453,464.618" style="fill:none;stroke:#000;stroke-width:15px;"/>
        <path id="Period2" serif:id="Period" d="M2595.591,434.579C2574.011,431.316 2575.282,464.909 2593.313,464.894C2615.547,464.876 2614.824,434.463 2593.313,434.46C2576.348,434.457 2578.154,460.751 2594.43,460.577C2613.942,460.37 2614.292,438.605 2594.602,438.454C2579.884,438.341 2581.075,456.808 2594.516,456.565C2612.725,456.236 2610.764,442.423 2594.945,442.771C2581.983,443.057 2579.454,454.302 2598.611,450.42" style="fill:none;stroke:#000;stroke-width:15px;"/>
        <path id="M1" serif:id="M" d="M2798.909,523.616C2783.799,214.021 2790.208,595.194 2754.995,585.867C2725.498,578.055 2745.869,298.869 2809.322,301.312C2832.333,302.198 2815.026,503.29 2836.956,506.864C2855.011,509.806 2880.797,301.951 2904.52,304.035C2959.896,308.9 2938.258,600.068 2909.553,596.899C2875.584,593.15 2926.958,249.281 2870.79,522.531C2857.453,587.414 2797.025,572.916 2798.316,511.736" style="fill:none;stroke:#000;stroke-width:15px;"/>
        <path id="E" d="M3130.606,448.881C3128.862,492.032 3041.453,454.069 3031.358,423.028C3030.114,419.203 2994.11,476.948 3018.155,496.529C3089.588,554.701 3105.489,481.702 3018.221,499.827C2998.652,503.891 2991.844,574.04 3001.236,568.343C3024.381,554.303 3108.961,533.458 3103.996,585.632C3100.148,626.07 2995.405,620.918 2990.673,559.768C2976.088,371.285 3137.607,377.287 3130.475,450.507" style="fill:none;stroke:#000;stroke-width:15px;"/>
        <path id="N1" serif:id="N" d="M3254.272,460.852C3197.582,399.489 3142.178,632.711 3169.974,641.957C3196.802,650.88 3205.633,513.423 3220.143,512.365C3234.09,511.347 3198.735,660.569 3230.323,666.99C3280.906,677.271 3338.172,487.985 3319.563,478.271C3280.492,457.878 3260.093,618.096 3246.746,613.383C3231.844,608.121 3282.725,455.543 3238.953,441.797C3181.223,423.667 3158.884,613.103 3164.605,633.473" style="fill:none;stroke:#000;stroke-width:15px;"/>
        <path id="I1" serif:id="I" d="M3482.095,534.484C3485.015,498.058 3397.094,484.14 3390.256,505.741C3381.572,533.173 3452.073,484.498 3362.073,677.417C3359.518,682.894 3331.765,652.327 3319.379,679.275C3303.129,714.632 3400.693,743.993 3410.209,717.915C3422.845,683.285 3379.915,694.822 3383.344,676.969C3412.533,525.032 3483.942,546.847 3482.095,534.484C3478.721,511.888 3387.257,570.504 3383.503,681.231" style="fill:none;stroke:#000;stroke-width:12px;"/>
        <path id="A1" serif:id="A" d="M3618.39,745.353C3634.68,660.059 3658.288,598.828 3608.566,575.953C3559.909,553.568 3429.461,727.394 3469.809,748.165C3513.735,770.778 3511.418,675.967 3554.105,694.882C3598.378,714.5 3533.466,776.889 3569.755,794.546C3616.299,817.192 3661.724,636.162 3595.398,604.708C3583.384,599.01 3525.635,651.957 3555.496,665.249C3583.242,677.599 3609.62,695.175 3595.398,604.708" style="fill:none;stroke:#000;stroke-width:15px;"/>
        <path id="L" d="M3839.541,603.447C3796.158,625.869 3719.927,724.733 3709.803,823.336C3707.511,845.661 3795.468,873.131 3798.143,866.256C3833.964,774.166 3790.874,801.267 3786.257,827.248C3781.236,855.505 3736.876,821.178 3739.32,812.246C3779.36,665.928 3824.007,660.001 3837.82,632.827C3871.931,565.722 3813.873,608.706 3810.249,612.592C3706.904,723.423 3717.401,828.529 3714.827,834.193" style="fill:none;stroke:#000;stroke-width:15px;"/>
        <path id="Period3" serif:id="Period" d="M4155.347,889.936C4133.767,886.672 4135.038,920.265 4153.068,920.251C4175.303,920.233 4174.58,889.82 4153.068,889.816C4136.104,889.813 4137.91,916.107 4154.185,915.934C4173.697,915.726 4174.048,893.961 4154.357,893.81C4139.64,893.697 4140.83,912.164 4154.271,911.922C4172.481,911.593 4170.52,897.779 4154.701,898.128C4141.739,898.413 4139.209,909.658 4158.366,905.776" style="fill:none;stroke:#000;stroke-width:15px;"/>
        <path id="T" d="M1465.55,1002.367C1529.267,1019.089 1637.157,967.896 1620.166,935.352C1605.219,906.722 1443.057,980.476 1458.159,1007.843C1473.49,1035.627 1538.798,1003.618 1546.652,1000.108C1551.404,997.985 1618.428,1234.105 1660.748,1211.126C1696.966,1191.46 1565.392,1012.625 1560.214,992.629C1559.709,990.677 1548.418,1032.356 1625.301,1165.69C1684.985,1269.199 1655.595,1151.173 1601.734,1061.965" style="fill:none;stroke:#000;stroke-width:15px;"/>
        <path id="A2" serif:id="A" d="M1815.899,1051.684C1762.397,984.518 1731.027,927.493 1684.72,949.466C1639.407,970.968 1690.989,1179.743 1730.199,1163.339C1772.886,1145.482 1701.347,1085.92 1740.566,1066.588C1781.241,1046.538 1789.066,1134.845 1823.574,1119.429C1867.833,1099.658 1760.688,949.081 1698.223,977.784C1686.908,982.983 1691.976,1059.893 1719.456,1046.408C1744.988,1033.879 1773.581,1025.738 1698.223,977.784" style="fill:none;stroke:#000;stroke-width:15px;"/>
        <path id="S" d="M1984.156,1001.663C2008.576,1070.667 1845.387,1114.441 1864.678,1060.245C1879.51,1018.576 1922.132,1069.736 1936.486,1030.51C1946.46,1003.254 1811.046,1014.306 1833.824,949.289C1857.354,882.125 1959.111,899.152 1952.404,933.347C1945.856,966.731 1900.347,923.153 1881.876,951.328C1855.49,991.573 1998.997,968.388 1991.57,1023.299C1982.235,1092.319 1881.599,1098.891 1865.556,1076.257" style="fill:none;stroke:#000;stroke-width:15px;"/>
        <path id="Period4" serif:id="Period" d="M2007.844,941.72C1986.264,938.457 1987.535,972.05 2005.566,972.035C2027.8,972.017 2027.077,941.604 2005.566,941.601C1988.601,941.598 1990.407,967.891 2006.683,967.718C2026.195,967.511 2026.545,945.746 2006.855,945.595C1992.137,945.482 1993.328,963.949 2006.769,963.706C2024.978,963.377 2023.017,949.564 2007.198,949.912C1994.236,950.198 1991.707,961.443 2010.864,957.56" style="fill:none;stroke:#000;stroke-width:15px;"/>
        <path id="K1" serif:id="K" d="M2069.868,934.331C2070.566,937.242 2174.353,761.223 2134.663,796.031C2056.113,864.919 2069.115,961.882 2027.338,821.848C2020.047,797.409 2074.434,1082.015 2070.954,1033.767C2061.721,905.75 2094.804,962.464 2162.257,1015.035C2203.473,1047.157 2102.658,935.09 2057.265,938.884C2053.442,939.203 2150.183,794.285 2142.159,801.797C2069.01,870.272 2069.23,940.702 2036.245,877.007" style="fill:none;stroke:#000;stroke-width:15px;"/>
        <path id="S1" serif:id="S" d="M2339.034,932.478C2341.988,1005.616 2173.149,999.247 2207.584,953.165C2234.06,917.733 2259.674,979.199 2284.971,945.961C2302.549,922.866 2169.911,893.436 2210.873,838.045C2253.188,780.825 2345.378,827.143 2328.873,857.832C2312.758,887.794 2282.148,832.72 2256.18,854.183C2219.086,884.842 2363.039,905.07 2339.728,955.339C2310.427,1018.524 2212.338,995.084 2203.695,968.722" style="fill:none;stroke:#000;stroke-width:15px;"/>
        <path id="S2" serif:id="S" d="M2801.658,918.48C2790.65,1023 2562.335,979.701 2618.634,921.209C2661.921,876.236 2684.128,968.766 2725.362,926.672C2754.012,897.423 2579.668,828.7 2646.757,758.306C2716.061,685.587 2831.926,770.1 2803.173,810.357C2775.102,849.66 2744.785,765.198 2705.059,790.427C2648.313,826.465 2839.936,884.407 2797.905,951.103C2745.074,1034.938 2616.488,981.735 2610.149,942.525" style="fill:none;stroke:#000;stroke-width:15px;"/>
        <path id="I2" serif:id="I" d="M2936.729,787.464C2930.538,751.449 2841.908,759.735 2840.632,782.357C2839.011,811.085 2895.264,746.469 2855.837,955.665C2854.717,961.605 2820.259,938.862 2814.933,968.037C2807.944,1006.318 2909.739,1010.605 2912.501,982.983C2916.169,946.303 2877.433,968.111 2876.335,949.965C2866.992,795.531 2941.579,798.985 2936.729,787.464C2927.864,766.408 2853.763,845.846 2877.543,954.054" style="fill:none;stroke:#000;stroke-width:12px;"/>
        <path id="M2" serif:id="M" d="M3024.137,983.353C3028.175,764.159 3009.359,1031.29 2970.022,1016.878C2937.071,1004.805 2979.307,814.779 3051.175,830.738C3077.238,836.526 3043.824,972.806 3068.476,980.224C3088.771,986.331 3132.273,847.242 3159.062,854.025C3221.594,869.857 3177.098,1067.95 3144.729,1059.293C3106.422,1049.047 3188.283,820.9 3105.813,998.746C3086.231,1040.975 3018.623,1017.293 3024.276,974.939" style="fill:none;stroke:#000;stroke-width:15px;"/>
        <path id="P" d="M3350.111,954.133C3289.283,895.457 3245.066,979.401 3265.194,1032.631C3277.197,1064.375 3346.343,1063.441 3362.973,1009.058C3383.388,942.3 3284.744,917.311 3282.584,924.583C3279.589,934.668 3167.496,1176.84 3194.849,1185.788C3223.066,1195.018 3261.797,1041.501 3260.702,1048.229C3259.704,1054.357 3305.176,1080.28 3346.454,1047.651C3404.305,1001.922 3384.675,919.858 3287.373,922.824" style="fill:none;stroke:#000;stroke-width:15px;"/>
        <path id="Period5" serif:id="Period" d="M3379.774,1072.884C3358.194,1069.621 3359.465,1103.214 3377.495,1103.199C3399.73,1103.181 3399.007,1072.768 3377.495,1072.765C3360.531,1072.762 3362.337,1099.055 3378.612,1098.882C3398.124,1098.675 3398.475,1076.91 3378.784,1076.759C3364.067,1076.646 3365.258,1095.113 3378.698,1094.87C3396.908,1094.541 3394.947,1080.728 3379.128,1081.076C3366.166,1081.362 3363.637,1092.607 3382.794,1088.724" style="fill:none;stroke:#000;stroke-width:15px;"/>
        <path id="L1" serif:id="L" d="M3567.266,930.56C3522.585,950.267 3440.408,1044.247 3424.23,1142.039C3420.567,1164.181 3506.665,1197.017 3509.758,1190.32C3551.184,1100.611 3506.507,1125.006 3500.298,1150.653C3493.545,1178.548 3451.384,1141.553 3454.374,1132.788C3503.351,989.215 3548.278,986.049 3563.739,959.778C3601.919,894.902 3541.323,934.227 3537.467,937.883C3427.491,1042.138 3431.493,1147.69 3428.575,1153.185" style="fill:none;stroke:#000;stroke-width:15px;"/>
        <path id="E1" serif:id="E" d="M3724.382,1130.272C3712.961,1171.921 3636.352,1115.241 3633.511,1082.722C3633.161,1078.716 3585.072,1126.865 3604.087,1151.359C3660.577,1224.13 3692.516,1156.59 3603.409,1154.587C3583.427,1154.138 3560.989,1220.95 3571.423,1217.515C3597.137,1209.051 3684.238,1207.798 3667.645,1257.512C3654.785,1296.043 3553.896,1267.424 3563.064,1206.78C3591.32,1019.858 3747.334,1062.096 3723.888,1131.827" style="fill:none;stroke:#000;stroke-width:15px;"/>
    </g>
</svg>
