<?xml version="1.0" encoding="UTF-8" standalone="no"?>
<!DOCTYPE svg PUBLIC "-//W3C//DTD SVG 1.1//EN" "http://www.w3.org/Graphics/SVG/1.1/DTD/svg11.dtd">
<svg width="100%" height="100%" viewBox="0 0 3984 1834" version="1.1" xmlns="http://www.w3.org/2000/svg" xmlns:xlink="http://www.w3.org/1999/xlink" xml:space="preserve" xmlns:serif="http://www.serif.com/" style="fill-rule:evenodd;clip-rule:evenodd;stroke-linecap:round;stroke-linejoin:round;stroke-miterlimit:1.5;">
    <g id="Transformed">
        <path id="Custom-Button" serif:id="Custom Button" d="M2565.216,1227.874l1.63,-484.202c913.342,171.479 443.018,-118.88 443.018,-118.88c0,0 1730.514,864.122 -444.648,603.083Z" style="fill:#00244d;stroke:#000;stroke-width:12.5px;"/>
        <path id="Automation-Button" serif:id="Automation Button" d="M1436.801,1225.723c542.813,776.7 840.478,340.275 1128.416,2.214l0,-484.265c-188.355,-54.53 -891.549,-69.091 -1126.922,0l-1.494,482.051Z" style="fill:#00244d;stroke:#000;stroke-width:12.5px;"/>
        <path id="SEO-Button" serif:id="SEO Button" d="M1438.295,1225.756l-1.63,-484.202c-1115.395,145.238 -1265.603,718.801 -1265.603,718.801c0,0 833.067,453.359 1267.233,-234.599Z" style="fill:#00244d;stroke:#000;stroke-width:12.5px;"/>
        <path id="Gamification-Button" serif:id="Gamification Button" d="M1998.316,316.85l2.099,379.053c557.439,1.894 1056.618,132.128 1272.925,236.893c0,0 1247.789,-623.208 -1275.024,-615.946Z" style="fill:#00244d;stroke:#000;stroke-width:12.5px;"/>
        <path id="Website-Button" serif:id="Website Button" d="M1996.773,316.85l-3.301,379.053c-557.439,1.894 -1056.618,132.128 -1272.925,236.893c0,0 -1219.169,-573.175 1276.226,-615.946Z" style="fill:#00244d;stroke:#000;stroke-width:12.5px;"/>
    </g>
</svg>
