<?xml version="1.0" encoding="UTF-8" standalone="no"?>
<!DOCTYPE svg PUBLIC "-//W3C//DTD SVG 1.1//EN" "http://www.w3.org/Graphics/SVG/1.1/DTD/svg11.dtd">
<svg width="100%" height="100%" viewBox="0 0 5120 1593" version="1.1" xmlns="http://www.w3.org/2000/svg" xmlns:xlink="http://www.w3.org/1999/xlink" xml:space="preserve" xmlns:serif="http://www.serif.com/" style="fill-rule:evenodd;clip-rule:evenodd;stroke-linecap:round;stroke-linejoin:round;stroke-miterlimit:1.5;">
    <g id="Custom">
        <path id="A" d="M1049.677,812.851C962.102,727.682 909.42,652.244 839.685,694.307C771.447,735.469 866.776,1025.734 925.991,993.3C990.456,957.991 875.647,887.826 934.653,851.157C995.851,813.127 1014.597,939.017 1066.637,909.057C1133.381,870.632 956.786,676.845 862.647,732.231C845.595,742.263 859.229,852.293 900.577,826.689C938.997,802.898 982.466,784.769 862.647,732.231" style="fill:none;stroke:#000;stroke-width:15px;"/>
        <path id="N" d="M1112.261,619.892C996.585,623.349 1138.812,857.352 1177.383,839.264C1214.61,821.805 1104.627,705.623 1119.637,691.551C1134.065,678.026 1225.169,827.662 1265.444,803.892C1329.939,765.827 1228.011,564.684 1199.119,574.023C1138.462,593.63 1255.562,738.27 1236.802,746.74C1215.859,756.197 1138.88,589.755 1078.849,618.88C999.673,657.293 1140.083,826.685 1164.101,837.489" style="fill:none;stroke:#000;stroke-width:15px;"/>
        <path id="Y" d="M1275.423,544.194C1272.834,529.719 1307.274,522.301 1315.204,530.034C1385.056,598.158 1395.626,594.504 1392.933,491.648C1392.711,483.145 1416.756,469.362 1422.475,477.561C1451.647,519.378 1398.936,585.279 1411.501,609.685C1414.541,615.589 1483.198,694.398 1447.763,712.386C1412.38,730.348 1385.299,632.733 1383.029,626.564C1368.988,588.417 1309.666,600.969 1275.806,544.822" style="fill:none;stroke:#000;stroke-width:15px;"/>
        <path id="T" d="M1445.501,462.298C1504.763,478.42 1616.833,437.21 1605.171,408.71C1594.912,383.638 1426.938,442.83 1437.533,466.818C1448.289,491.171 1516.278,465.345 1524.404,462.533C1529.32,460.831 1559.436,666.096 1603.823,647.433C1641.811,631.461 1540.713,473.823 1538.646,456.453C1538.444,454.757 1521.36,490.368 1576.182,607.328C1618.741,698.126 1607.671,595.634 1568.646,517.315" style="fill:none;stroke:#000;stroke-width:15px;"/>
        <path id="H" d="M1679.802,409.064C1639.093,440.385 1711.453,629.682 1745.94,615.793C1779.017,602.473 1742.382,517.041 1769.576,508.253C1798.466,498.916 1824.901,594.113 1857.746,582.735C1895.599,569.621 1832.266,363.729 1779.368,377.926C1744.283,387.343 1803.327,471.559 1763.2,486.72C1721.462,502.488 1726.059,392.04 1685.886,405.574C1642.54,420.178 1732.4,621.81 1756.346,607.155" style="fill:none;stroke:#000;stroke-width:15px;"/>
        <path id="I" d="M1961.93,302.301C1942.054,266.209 1841.577,306.848 1848.036,331.373C1856.24,362.518 1899.156,273.577 1926.67,510.29C1927.451,517.011 1879.264,505.188 1883.302,538.14C1888.6,581.374 2008.853,549.385 2002.369,519.006C1993.76,478.667 1956.235,515.776 1948.578,496.865C1883.415,335.924 1971.636,312.817 1961.93,302.301C1944.191,283.083 1885.663,394.202 1951.425,500.782" style="fill:none;stroke:#000;stroke-width:12px;"/>
        <path id="N1" serif:id="N" d="M2087.848,306.819C1979.943,264.996 2019.916,535.899 2062.485,534.243C2103.572,532.645 2047.459,382.825 2066.762,375.703C2085.315,368.857 2111.019,542.149 2157.37,535.922C2231.593,525.95 2215.958,300.998 2185.709,298.36C2122.203,292.821 2173.799,471.626 2153.222,472.13C2130.249,472.693 2124.096,289.415 2057.463,292.887C1969.581,297.468 2033.019,508.143 2050.94,527.441" style="fill:none;stroke:#000;stroke-width:15px;"/>
        <path id="G" d="M2289.87,435.119C2245.804,355.872 2323.245,301.352 2387.282,336.081C2403.363,344.802 2435.18,309.465 2351.862,294.26C2242.74,274.345 2187.242,469.76 2340.15,503.954C2375.498,511.859 2418.715,485.942 2416.13,472.787C2407.329,428.011 2393.024,407.92 2367.789,418.715C2274.694,458.541 2406.555,440.73 2385.534,465.725C2365.358,489.713 2306.964,488.909 2279.582,412.113" style="fill:none;stroke:#000;stroke-width:15px;"/>
        <path id="Period" d="M2515.692,402.334C2494.112,399.071 2495.382,432.664 2513.413,432.649C2535.647,432.631 2534.925,402.218 2513.413,402.215C2496.448,402.212 2498.255,428.505 2514.53,428.332C2534.042,428.125 2534.392,406.36 2514.702,406.209C2499.984,406.096 2501.175,424.563 2514.616,424.32C2532.825,423.991 2530.864,410.178 2515.046,410.526C2502.084,410.812 2499.554,422.057 2518.711,418.174" style="fill:none;stroke:#000;stroke-width:15px;"/>
        <path id="E" d="M2808.066,260.556C2816.837,319.917 2700.992,293.264 2680.885,253.824C2678.408,248.964 2649.213,338.083 2683.386,357.879C2784.909,416.692 2785.814,312.546 2684.299,362.359C2661.535,373.529 2670.963,471.173 2680.943,460.702C2705.537,434.896 2803.099,382.146 2810.231,454.742C2815.759,511.008 2687.124,534.093 2665.938,452.041C2600.636,199.134 2798.507,160.885 2808.316,262.812" style="fill:none;stroke:#000;stroke-width:15px;"/>
        <path id="L" d="M2954.164,219.687C2916.793,254.476 2864.454,377.255 2876.659,482.174C2879.423,505.928 2971.536,511.004 2972.609,503.165C2986.976,398.161 2950.941,437.723 2952.251,465.886C2953.677,496.518 2902.632,472.733 2903.019,462.822C2909.355,300.476 2951.658,282.451 2959.067,250.604C2977.362,171.958 2930.258,231.969 2927.588,236.962C2851.434,379.362 2885.248,485.535 2884.002,492.093" style="fill:none;stroke:#000;stroke-width:15px;"/>
        <path id="S" d="M3156.056,497.245C3138.013,584.53 2969.318,532.643 3017.345,487.182C3054.273,452.229 3062.471,531.66 3097.577,498.991C3121.97,476.292 2996.467,406.637 3053.764,351.88C3112.952,295.315 3192.747,374.32 3167.254,406.283C3142.364,437.489 3127.281,364.306 3094.884,382.871C3048.605,409.391 3188.181,471.132 3150.184,524.467C3102.425,591.507 3010.095,538.014 3008.945,504.562" style="fill:none;stroke:#000;stroke-width:15px;"/>
        <path id="E1" serif:id="E" d="M3401.742,452.483C3395.505,493.359 3311.853,445.387 3304.966,414.448C3304.117,410.636 3262.027,460.791 3284.088,482.694C3349.626,547.764 3373.155,480.361 3283.811,485.845C3263.777,487.075 3249.655,552.99 3259.661,548.831C3284.317,538.579 3371.251,530.141 3360.847,579.18C3352.784,617.188 3248.348,598.134 3249.967,539.234C3254.958,357.686 3416.206,385.216 3401.441,454.014" style="fill:none;stroke:#000;stroke-width:15px;"/>
        <path id="Y1" serif:id="Y" d="M3627.702,417.867C3640.021,404.048 3680.766,433.474 3680.486,447.539C3678.024,571.435 3691.939,579.404 3794.592,497.24C3803.077,490.449 3840.328,504.35 3837.444,516.518C3822.738,578.581 3704.564,575.66 3691.687,607.329C3688.572,614.99 3674.026,745.916 3621.509,723.636C3569.068,701.387 3642.881,598.379 3647.007,591.298C3672.524,547.515 3602.574,496.655 3627.428,418.743" style="fill:none;stroke:#000;stroke-width:15px;"/>
        <path id="O" d="M3924.819,650.107C3825.369,555.474 3718.734,717.649 3811.059,783.865C3924.909,865.518 4023.64,720.265 3913.56,641.169C3826.748,578.792 3732.46,717.497 3816.337,776.517C3916.894,847.273 4009.052,720.903 3908.79,647.81C3833.849,593.176 3751.853,721.116 3821.458,769.388C3915.757,834.786 3986.218,710.875 3904.088,654.355C3836.791,608.042 3745.616,733.636 3856.733,785.857" style="fill:none;stroke:#000;stroke-width:15px;"/>
        <path id="U" d="M4090.99,878.592C3972.433,858.998 4144.758,743.106 4112.386,709.588C4073.998,669.843 3899.186,854.014 3982.444,945.315C4069.082,1040.323 4255.22,846.039 4224.844,808.68C4190.135,765.991 4090.688,921.135 4049.368,878.177C3998.12,824.9 4138.698,746.193 4099.865,716.14C4058.721,684.3 3924.468,863.904 3990.762,936.971C4056.911,1009.879 4220.346,867.52 4216.819,802.556" style="fill:none;stroke:#000;stroke-width:15px;"/>
        <path id="Period1" serif:id="Period" d="M4214.032,940.89C4192.452,937.627 4193.722,971.22 4211.753,971.205C4233.987,971.187 4233.265,940.774 4211.753,940.771C4194.788,940.768 4196.594,967.062 4212.87,966.888C4232.382,966.681 4232.732,944.916 4213.042,944.765C4198.324,944.652 4199.515,963.119 4212.956,962.876C4231.165,962.547 4229.204,948.734 4213.385,949.082C4200.423,949.368 4197.894,960.613 4217.051,956.731" style="fill:none;stroke:#000;stroke-width:15px;"/>
        <path id="C" d="M1460.104,1087.501C1367.831,986.527 1529.135,996.235 1493.677,899.743C1473.532,844.922 1299.545,935.727 1356.407,1081.49C1413.249,1227.205 1609.868,1164.772 1584.304,1108.951C1552.219,1038.891 1471.755,1147.888 1433.611,1051.843C1399.588,966.173 1507.037,967.045 1484.497,904.978C1472.32,871.447 1323.826,947.136 1369.112,1076.611C1410.982,1196.318 1587.796,1154.119 1580.97,1103.059" style="fill:none;stroke:#000;stroke-width:15px;"/>
        <path id="Period2" serif:id="Period" d="M1558.998,987.037C1537.418,983.774 1538.689,1017.367 1556.719,1017.352C1578.954,1017.334 1578.231,986.921 1556.719,986.918C1539.755,986.915 1541.561,1013.209 1557.836,1013.035C1577.348,1012.828 1577.699,991.063 1558.008,990.912C1543.291,990.799 1544.481,1009.266 1557.922,1009.023C1576.132,1008.694 1574.171,994.881 1558.352,995.229C1545.39,995.515 1542.86,1006.76 1562.017,1002.877" style="fill:none;stroke:#000;stroke-width:15px;"/>
        <path id="A1" serif:id="A" d="M1835.998,974.176C1781.311,897.272 1753.761,832.476 1685.936,855.381C1619.565,877.794 1635.442,1112.783 1692.31,1095.849C1754.22,1077.413 1673.36,1008.364 1730.989,988.16C1790.758,967.205 1778.676,1066.105 1828.976,1050.108C1893.487,1029.591 1788.082,857.635 1696.829,887.484C1680.299,892.891 1667.431,978.965 1707.794,964.876C1745.298,951.785 1785.789,943.704 1696.829,887.484" style="fill:none;stroke:#000;stroke-width:15px;"/>
        <path id="Period3" serif:id="Period" d="M1816.758,853.285C1795.178,850.021 1796.449,883.614 1814.48,883.6C1836.714,883.582 1835.991,853.169 1814.48,853.165C1797.515,853.163 1799.321,879.456 1815.597,879.283C1835.109,879.075 1835.459,857.31 1815.768,857.159C1801.051,857.046 1802.242,875.513 1815.683,875.271C1833.892,874.942 1831.931,861.129 1816.112,861.477C1803.15,861.762 1800.621,873.007 1819.778,869.125" style="fill:none;stroke:#000;stroke-width:15px;"/>
        <path id="N2" serif:id="N" d="M1910.981,796.898C1805.651,780.417 1884.933,1003.448 1923.625,994.53C1960.968,985.923 1886.006,868.578 1902.546,859.123C1918.443,850.035 1969.281,992.681 2010.712,979.214C2077.056,957.648 2027.288,769.349 1999.193,772.446C1940.21,778.948 2015.609,921.707 1996.86,925.766C1975.928,930.297 1941.405,775.72 1880.981,790.427C1801.288,809.824 1892.547,977.562 1911.989,990.79" style="fill:none;stroke:#000;stroke-width:15px;"/>
        <path id="Period4" serif:id="Period" d="M2110.173,827.349C2088.593,824.086 2089.864,857.679 2107.895,857.664C2130.129,857.646 2129.406,827.233 2107.895,827.23C2090.93,827.227 2092.736,853.521 2109.012,853.347C2128.524,853.14 2128.874,831.375 2109.184,831.224C2094.466,831.111 2095.657,849.578 2109.098,849.335C2127.307,849.006 2125.346,835.193 2109.527,835.541C2096.565,835.827 2094.036,847.072 2113.193,843.19" style="fill:none;stroke:#000;stroke-width:15px;"/>
        <path id="I1" serif:id="I" d="M2310.088,667.33C2288.24,627.844 2153.797,668.117 2159.521,694.708C2166.79,728.476 2231.915,634.304 2242.067,889.769C2242.355,897.022 2181.247,882.667 2182.929,918.236C2185.136,964.905 2344.25,934.606 2339.125,901.721C2332.319,858.052 2279.75,896.675 2271.872,876.08C2204.83,700.806 2321.522,678.967 2310.088,667.33C2289.192,646.061 2201.471,763.547 2275.136,880.389" style="fill:none;stroke:#000;stroke-width:12px;"/>
        <path id="M" d="M2455.123,874.735C2390.299,666.271 2451.998,923.691 2398.421,919.579C2353.542,916.133 2345.579,726.025 2440.156,723.722C2474.455,722.887 2476.276,859.982 2509.337,861.032C2536.556,861.897 2546.401,719.698 2581.921,719.629C2664.832,719.468 2672.553,917.759 2629.486,917.405C2578.521,916.987 2607.751,681.195 2561.733,869.52C2550.806,914.237 2459.072,908.198 2452.615,866.737" style="fill:none;stroke:#000;stroke-width:15px;"/>
        <path id="A2" serif:id="A" d="M2906.497,880.173C2881.858,789.081 2878.477,718.752 2806.917,716.726C2736.892,714.743 2670.329,940.667 2729.542,944.495C2794.004,948.663 2742.091,855.866 2803.151,856.89C2866.478,857.952 2820.863,946.533 2873.589,948.963C2941.213,952.08 2901.949,754.248 2806.007,750.615C2788.628,749.957 2746.721,826.234 2789.465,827.01C2829.182,827.731 2869.964,834.186 2806.007,750.615" style="fill:none;stroke:#000;stroke-width:15px;"/>
        <path id="G1" serif:id="G" d="M2995.002,894.344C2963.516,806.574 3057.894,769.926 3119.856,818.241C3135.416,830.373 3176.799,802.572 3090.14,769.242C2976.643,725.591 2877.506,905.864 3035.278,973.227C3071.75,988.799 3123.511,972.788 3123.377,959.259C3122.922,913.214 3111.565,890.272 3082.215,895.348C2973.94,914.074 3119.525,925.572 3091.852,945.564C3065.293,964.751 3002.573,951.097 2988.558,869.417" style="fill:none;stroke:#000;stroke-width:15px;"/>
        <path id="I2" serif:id="I" d="M3334.841,825.14C3336.931,784.506 3231.894,766.706 3224.585,790.673C3215.303,821.108 3297.26,768.511 3197.596,981.813C3194.766,987.869 3160.618,952.999 3146.918,982.799C3128.943,1021.899 3246.027,1057.202 3256.349,1028.301C3270.056,989.923 3219.464,1001.72 3222.863,981.855C3251.796,812.8 3337.505,839.003 3334.841,825.14C3329.973,799.801 3223.477,862.974 3223.213,986.622" style="fill:none;stroke:#000;stroke-width:12px;"/>
        <path id="N3" serif:id="N" d="M3432.62,889.662C3357.434,814.076 3289.456,1040.809 3325.93,1056.501C3361.133,1071.647 3370.087,932.69 3389.017,934.848C3407.21,936.922 3363.839,1082.013 3405.212,1095.657C3471.464,1117.505 3542.698,936.235 3518.212,922.116C3466.806,892.474 3443.172,1052.182 3425.653,1044.366C3406.094,1035.64 3469.678,890.578 3412.257,866.701C3336.524,835.208 3310.906,1024.439 3318.759,1046.603" style="fill:none;stroke:#000;stroke-width:15px;"/>
        <path id="E2" serif:id="E" d="M3719.464,1052.142C3707.66,1091.771 3631.408,1032.741 3628.844,1001.149C3628.528,997.256 3579.936,1041.141 3598.771,1065.871C3654.73,1139.343 3687.312,1075.82 3598.064,1068.955C3578.051,1067.415 3554.991,1130.76 3565.474,1128.017C3591.307,1121.257 3678.574,1124.864 3661.52,1172.004C3648.302,1208.541 3547.482,1175.294 3557.193,1117.177C3587.125,938.044 3743.049,987.507 3718.955,1053.618" style="fill:none;stroke:#000;stroke-width:15px;"/>
        <path id="Period5" serif:id="Period" d="M3826.246,1220.149C3804.666,1216.885 3805.936,1250.478 3823.967,1250.464C3846.201,1250.446 3845.479,1220.033 3823.967,1220.029C3807.002,1220.027 3808.809,1246.32 3825.084,1246.147C3844.596,1245.939 3844.946,1224.174 3825.256,1224.023C3810.538,1223.911 3811.729,1242.378 3825.17,1242.135C3843.379,1241.806 3841.418,1227.993 3825.6,1228.341C3812.638,1228.626 3810.108,1239.871 3829.265,1235.989" style="fill:none;stroke:#000;stroke-width:15px;"/>
    </g>
</svg>
