<?xml version="1.0" encoding="UTF-8" standalone="no"?>
<!DOCTYPE svg PUBLIC "-//W3C//DTD SVG 1.1//EN" "http://www.w3.org/Graphics/SVG/1.1/DTD/svg11.dtd">
<svg width="100%" height="100%" viewBox="0 0 5120 1593" version="1.1" xmlns="http://www.w3.org/2000/svg" xmlns:xlink="http://www.w3.org/1999/xlink" xml:space="preserve" xmlns:serif="http://www.serif.com/" style="fill-rule:evenodd;clip-rule:evenodd;stroke-linecap:round;stroke-linejoin:round;stroke-miterlimit:1.5;">
    <g id="Gamification">
        <path id="I" d="M713.393,973.154C671.537,953.447 562.319,1074.981 581.793,1094.07C606.524,1118.312 620.326,995.438 763.963,1207.854C768.041,1213.885 701.293,1241.129 721.553,1270.53C748.134,1309.106 886.488,1180.156 864.297,1155.283C834.83,1122.255 804.105,1189.386 785.683,1176.83C628.904,1069.973 730.57,975.73 713.393,973.154C682,968.446 658.508,1125.929 791.103,1178.411" style="fill:none;stroke:#000;stroke-width:15px;"/>
        <path id="N" d="M832.269,964.116C723.97,994.714 891.013,1169.438 924.715,1144.141C957.243,1119.726 837.283,1042.34 849.399,1026.228C861.044,1010.742 968.007,1122.434 1002.504,1091.668C1057.746,1042.402 933.278,887.378 907.434,902.574C853.176,934.478 983.877,1035.534 967.439,1047.545C949.087,1060.956 853.018,930.925 800.702,971.162C731.703,1024.232 887.847,1141.803 911.972,1145.719" style="fill:none;stroke:#000;stroke-width:15px;"/>
        <path id="T" d="M953.31,847.404C1010.81,852.346 1099.394,792.781 1080.959,767.467C1064.741,745.197 931.245,831.999 947.459,853.167C963.919,874.658 1017.427,837.729 1023.9,833.579C1027.815,831.068 1112.437,1022.987 1146.864,997.146C1176.327,975.03 1041.65,841.526 1034.92,825.2C1034.263,823.606 1029.004,860.874 1110.884,963.523C1174.448,1043.21 1135.741,946.675 1078.844,878.352" style="fill:none;stroke:#000;stroke-width:15px;"/>
        <path id="E" d="M1254.222,724.62C1279.895,759.595 1184.055,785.506 1156.239,767.578C1152.812,765.369 1159.438,833.629 1191.542,833.673C1286.92,833.804 1254.154,766.384 1193.669,836.219C1180.106,851.879 1218.569,911.269 1222.725,900.813C1232.967,875.045 1289.53,804.788 1318.219,848.897C1340.455,883.084 1250.952,945.788 1208.638,900.814C1078.213,762.192 1215.009,663.973 1255.135,725.98" style="fill:none;stroke:#000;stroke-width:15px;"/>
        <path id="R" d="M1410.978,680.977C1406.655,600.148 1320.863,686.705 1390.57,706.877C1417.033,714.535 1450.725,678.382 1431.038,642.034C1406.871,597.414 1341.936,646.599 1339.198,651.807C1333.576,662.5 1383.816,847.791 1428.456,831.018C1465.896,816.95 1391.615,721.143 1394.699,725.073C1397.508,728.653 1493.658,795.388 1523.426,781.53C1561.242,763.927 1467.318,707.521 1408.452,706.296" style="fill:none;stroke:#000;stroke-width:15px;"/>
        <path id="A" d="M1687.506,638.327C1633.465,572.24 1602.38,515.774 1552.879,539.018C1504.439,561.763 1551.634,770.102 1593.474,752.632C1639.025,733.613 1565.735,675.622 1607.685,655.211C1651.192,634.042 1656.422,722.52 1693.279,706.162C1740.549,685.181 1632.873,536.698 1566.13,567.111C1554.04,572.62 1556.757,649.724 1586.147,635.483C1613.455,622.252 1643.836,613.349 1566.13,567.111" style="fill:none;stroke:#000;stroke-width:15px;"/>
        <path id="C" d="M1842.263,595.675C1775.383,522.378 1907.747,530.616 1887.39,460.984C1875.824,421.424 1723.672,485.331 1757.149,590.545C1790.614,695.723 1958.836,652.384 1942.886,612.063C1922.867,561.456 1846.296,639.17 1823.678,569.839C1803.504,507.997 1892.194,509.463 1879.321,464.675C1872.366,440.479 1742.675,493.721 1768.097,587.137C1791.602,673.504 1941.587,644.555 1940.677,607.802" style="fill:none;stroke:#000;stroke-width:15px;"/>
        <path id="T1" serif:id="T" d="M1918.512,428.646C1970.855,451.355 2082.679,431.341 2076.914,404.633C2071.841,381.136 1904.697,408.872 1910.276,431.465C1915.941,454.402 1983.928,441.536 1992.004,440.239C1996.891,439.454 1988.206,624.045 2032.915,614.062C2071.178,605.519 2005.183,452.506 2006.366,436.955C2006.481,435.437 1984.184,464.242 2014.335,574.857C2037.742,660.729 2045.776,569.132 2023.428,494.728" style="fill:none;stroke:#000;stroke-width:15px;"/>
        <path id="I1" serif:id="I" d="M2230.274,396.82C2210.883,365.63 2081.319,398.085 2085.813,419.125C2091.518,445.845 2156.978,370.979 2157.419,573.306C2157.432,579.051 2099.722,567.93 2100.039,596.099C2100.456,633.059 2253.166,608.405 2249.471,582.376C2244.565,547.811 2193.077,578.623 2186.315,562.341C2128.767,423.77 2240.748,405.992 2230.274,396.82C2211.131,380.057 2123.298,473.485 2189.269,565.74" style="fill:none;stroke:#000;stroke-width:15px;"/>
        <path id="V" d="M2347.387,511.581C2327.159,485.582 2296.289,391.247 2260.878,390.694C2217.322,390.015 2326.728,607.499 2352.177,603.608C2382.444,598.98 2458.101,371.554 2416.064,375.245C2384.412,378.024 2366.277,522.398 2348.1,525.285C2325.462,528.88 2287.317,401.493 2263.525,402.585C2243.126,403.521 2338.221,591.729 2351.512,590.827C2361.497,590.149 2448.338,405.969 2408.708,378.495" style="fill:none;stroke:#000;stroke-width:15px;"/>
        <path id="E1" serif:id="E" d="M2599.467,392.052C2604.583,435.135 2508.413,410.48 2493.036,381.177C2491.141,377.566 2463.286,440.236 2491.205,456.087C2574.147,503.179 2578.838,428.365 2491.801,459.351C2472.284,466.299 2476.507,536.93 2485.273,529.877C2506.879,512.496 2590.71,479.211 2593.952,531.73C2596.465,572.434 2487.688,582.922 2473.013,522.94C2427.782,338.059 2595.211,319.957 2599.592,393.685" style="fill:none;stroke:#000;stroke-width:15px;"/>
        <path id="E2" serif:id="E" d="M3031.864,350.464C3038.394,410.852 2911.374,376.802 2891.202,335.794C2888.716,330.741 2851.546,418.776 2888.373,440.852C2997.78,506.437 3004.391,401.498 2889.144,445.425C2863.301,455.275 2868.498,554.3 2880.128,544.361C2908.788,519.87 3019.81,472.737 3023.81,546.366C3026.911,603.433 2883.03,618.733 2863.955,534.7C2805.161,275.685 3026.631,249.388 3032.02,352.753" style="fill:none;stroke:#000;stroke-width:15px;"/>
        <path id="L" d="M3139.623,389.3C3104.473,416.573 3059.445,513.98 3077.525,598.04C3081.619,617.073 3173.414,622.463 3174.034,616.212C3182.348,532.467 3148.795,563.576 3151.695,586.112C3154.85,610.623 3102.791,590.868 3102.613,582.95C3099.694,453.244 3140.696,439.445 3146.248,414.089C3159.96,351.475 3116.571,398.773 3114.202,402.727C3046.631,515.476 3086.248,600.852 3085.382,606.077" style="fill:none;stroke:#000;stroke-width:15px;"/>
        <path id="E3" serif:id="E" d="M3374.246,495.617C3372.93,535.383 3281.124,496.121 3270.208,466.968C3268.863,463.376 3231.911,514.974 3257.272,534.213C3332.618,591.37 3348.379,524.719 3257.38,537.262C3236.975,540.074 3230.684,604.53 3240.433,599.721C3264.46,587.867 3352.617,572.683 3348.041,620.628C3344.494,657.788 3234.957,647.993 3229.292,591.293C3211.832,416.526 3380.721,429.835 3374.127,497.112" style="fill:none;stroke:#000;stroke-width:15px;"/>
        <path id="M" d="M3486.225,658.687C3499.168,495.882 3470.091,691.528 3433.026,672.946C3401.978,657.381 3450.285,523.945 3518.431,550.152C3543.145,559.657 3505.511,654.73 3528.805,665.171C3547.983,673.766 3595.393,578.602 3620.76,588.994C3679.972,613.249 3629.169,752.257 3598.536,739.356C3562.285,724.089 3650.108,570.082 3563.785,686.423C3543.288,714.048 3479.54,682.923 3486.707,652.434" style="fill:none;stroke:#000;stroke-width:15px;"/>
        <path id="E4" serif:id="E" d="M3889.58,695.783C3875.88,733.139 3800.982,667.107 3799.742,636.002C3799.59,632.17 3748.341,669.604 3766.404,695.816C3820.066,773.69 3855.902,715.324 3765.552,698.745C3745.292,695.028 3719.136,754.274 3729.901,752.758C3756.431,749.023 3844.91,762.204 3825.553,806.306C3810.55,840.487 3709.587,796.889 3721.959,741.266C3760.094,569.819 3916.326,635.336 3889,697.167" style="fill:none;stroke:#000;stroke-width:15px;"/>
        <path id="N1" serif:id="N" d="M4026.635,734.887C3940.762,644.82 3861.964,853.218 3903.704,876.308C3943.99,898.594 3954.798,763.99 3976.484,770.094C3997.328,775.96 3947.051,909.345 3994.414,931.454C4070.258,966.858 4152.611,803.801 4124.603,784.779C4065.803,744.844 4038.09,896.741 4018.042,885.377C3995.661,872.689 4069.103,743.587 4003.387,708.048C3916.715,661.176 3886.611,841.653 3895.524,865.077" style="fill:none;stroke:#000;stroke-width:15px;"/>
        <path id="T2" serif:id="T" d="M4224.692,784.757C4236.844,842.583 4321.347,910.471 4340.688,884.444C4357.702,861.547 4233.256,758.305 4217.319,780.85C4201.139,803.738 4253.112,844.446 4259.088,849.47C4262.704,852.509 4099.781,995.874 4135.258,1021.408C4165.62,1043.261 4256.553,869.347 4270.55,857.609C4271.917,856.464 4233.87,863.077 4157.55,975.591C4098.302,1062.936 4181.393,994.599 4231.482,917.363" style="fill:none;stroke:#000;stroke-width:15px;"/>
        <path id="S" d="M4364.892,1139.115C4301.652,1200.254 4197.731,1068.919 4261.138,1057.527C4309.889,1048.769 4271.756,1117.44 4317.788,1109.568C4349.772,1104.099 4289.895,981.241 4365.831,967.228C4444.275,952.753 4462.852,1058.984 4424.798,1071.374C4387.645,1083.47 4416.84,1016.214 4380.863,1014.098C4329.471,1011.074 4404.892,1134.974 4344.976,1158.054C4269.666,1187.063 4226.878,1094.858 4244.754,1067.156" style="fill:none;stroke:#000;stroke-width:15px;"/>
        <path id="F" d="M1412.074,1064.053C1565.684,1040.55 1539.226,978.596 1492.554,974.379C1458.268,971.281 1238.732,1040.251 1498.947,1264.67C1540.594,1300.588 1561.661,1225.509 1428.689,1140.939C1422.378,1136.926 1542.396,1135.752 1488.502,1080.471C1464.702,1056.058 1418.44,1138.785 1404.746,1113.327C1401.319,1106.955 1391.315,1063.604 1426.594,1058.24C1493.365,1048.088 1557.456,983.555 1478.689,975.457" style="fill:none;stroke:#000;stroke-width:15px;"/>
        <path id="O" d="M1712.852,978.522C1579.659,986.478 1634.155,1196.449 1741.613,1172.53C1874.124,1143.035 1827.335,952.373 1699.103,980.779C1597.975,1003.181 1642.65,1185.255 1739.424,1162.656C1855.442,1135.564 1818.664,964.633 1701.081,989.703C1613.193,1008.441 1657.52,1172.369 1737.3,1153.077C1845.384,1126.94 1796.838,975.4 1703.031,998.498C1626.164,1017.426 1662.979,1186.968 1771.749,1137.191" style="fill:none;stroke:#000;stroke-width:15px;"/>
        <path id="R1" serif:id="R" d="M1943.213,975.16C1952.376,884.962 1854.854,956.924 1919.137,998.127C1943.54,1013.769 1982.196,983.129 1969.106,937.734C1953.037,882.01 1881.922,918.494 1878.405,923.484C1871.186,933.729 1889.3,1151.483 1935.373,1145.169C1974.015,1139.873 1917.793,1014.123 1920.135,1019.292C1922.268,1024 2004.507,1123.687 2035.672,1116.533C2075.263,1107.445 1993.477,1019.74 1936.578,1002.358" style="fill:none;stroke:#000;stroke-width:15px;"/>
        <path id="Period" d="M2050.811,970.603C2029.231,967.339 2030.501,1000.932 2048.532,1000.917C2070.766,1000.899 2070.044,970.486 2048.532,970.483C2031.567,970.48 2033.374,996.774 2049.649,996.601C2069.161,996.393 2069.511,974.628 2049.821,974.477C2035.103,974.364 2036.294,992.831 2049.735,992.588C2067.944,992.259 2065.983,978.446 2050.165,978.794C2037.203,979.08 2034.673,990.325 2053.83,986.443" style="fill:none;stroke:#000;stroke-width:15px;"/>
        <path id="Y" d="M2131.906,779.324C2132.842,761.244 2171.09,764.383 2177.503,776.313C2233.992,881.397 2246.081,880.727 2269.314,757.706C2271.234,747.536 2300.119,739.515 2304.08,751.231C2324.283,810.983 2251.915,870.925 2258.995,904.252C2260.708,912.314 2313.227,1029.667 2271.25,1038.729C2229.332,1047.778 2225.484,922.521 2224.65,914.411C2219.495,864.264 2153.672,858.589 2132.151,780.202" style="fill:none;stroke:#000;stroke-width:15px;"/>
        <path id="O1" serif:id="O" d="M2484.553,805.699C2353.437,780.951 2355.112,997.872 2465.16,1000.866C2600.863,1004.558 2601.957,808.242 2470.668,804.537C2367.13,801.615 2366.079,989.086 2465.443,990.756C2584.566,992.758 2590.559,818.019 2470.411,813.673C2380.607,810.425 2383.642,980.213 2465.718,980.948C2576.913,981.944 2566.767,823.141 2470.159,822.679C2390.997,822.3 2385.378,995.703 2503,973.938" style="fill:none;stroke:#000;stroke-width:15px;"/>
        <path id="U" d="M2751.791,897.631C2649.082,948.378 2704.606,778.539 2658.267,773.651C2603.318,767.855 2590.251,984.469 2712.74,1000.434C2840.202,1017.046 2855.298,787.608 2807.979,779.089C2753.91,769.355 2779.192,926.104 2719.93,919.749C2646.432,911.866 2702.012,783.854 2653.019,784.748C2601.112,785.695 2615.863,977.448 2713.634,990.405C2811.192,1003.335 2842.779,820.666 2797.911,779.332" style="fill:none;stroke:#000;stroke-width:15px;"/>
        <path id="R2" serif:id="R" d="M2961.689,864.707C3002.727,783.863 2885.83,815.867 2930.956,877.459C2948.088,900.842 2995.185,886.182 2999.325,839.12C3004.407,781.348 2924.924,789.767 2919.846,793.155C2909.421,800.112 2847.883,1009.774 2893.138,1020.479C2931.094,1029.458 2923.941,891.897 2924.264,897.563C2924.558,902.724 2965.37,1025.341 2997.019,1029.893C3037.226,1035.676 2992.521,924.399 2945.703,887.689" style="fill:none;stroke:#000;stroke-width:15px;"/>
        <path id="S1" serif:id="S" d="M3346.252,1034.327C3296.956,1140.61 3110.147,1029.515 3182.352,984.476C3237.869,949.846 3222.661,1053.14 3275.263,1020.933C3311.812,998.554 3182.64,876.378 3268.945,821.982C3358.1,765.789 3429.265,887.659 3388.465,921.536C3348.63,954.61 3353.573,857.431 3308.687,872.41C3244.57,893.806 3393.193,1009.669 3330.584,1067.409C3251.887,1139.987 3157.568,1047.242 3166.746,1004.354" style="fill:none;stroke:#000;stroke-width:15px;"/>
        <path id="I2" serif:id="I" d="M3575.231,964.625C3574.333,928.058 3452.958,897.353 3446.548,918.078C3438.409,944.397 3527.742,908.051 3431.176,1087.707C3428.434,1092.808 3386.624,1056.446 3373.389,1081.576C3356.023,1114.549 3492.568,1162.801 3502.02,1138.018C3514.57,1105.108 3457.754,1108.795 3460.031,1091.248C3479.408,941.92 3579.392,977.569 3575.231,964.625C3567.625,940.968 3451.125,983.504 3460.816,1095.62" style="fill:none;stroke:#000;stroke-width:12px;"/>
        <path id="T3" serif:id="T" d="M3583.712,996.594C3614.547,1039.391 3712.919,1076.687 3721.001,1052.851C3728.111,1031.881 3582.108,974.413 3575.829,994.91C3569.454,1015.719 3629.594,1037.843 3636.628,1040.654C3640.884,1042.354 3546.448,1184.047 3586.718,1197.394C3621.181,1208.817 3641.286,1056.603 3649.6,1044.88C3650.412,1043.736 3619.03,1055.901 3590.541,1157.6C3568.425,1236.551 3618.246,1168.009 3635.766,1098.621" style="fill:none;stroke:#000;stroke-width:15px;"/>
        <path id="E5" serif:id="E" d="M3832.657,1145.006C3821.006,1182.539 3758.917,1133.06 3758.069,1103.959C3757.964,1100.373 3714.987,1144.371 3729.9,1165.998C3774.202,1230.251 3804.445,1169.151 3729.171,1168.904C3712.292,1168.849 3690.119,1229.131 3699.108,1225.871C3721.263,1217.836 3794.996,1215.2 3778.584,1260.054C3765.865,1294.818 3681.898,1270.915 3692.551,1216.393C3725.388,1048.337 3855.33,1083.491 3832.165,1146.408" style="fill:none;stroke:#000;stroke-width:15px;"/>
    </g>
</svg>
