<?xml version="1.0" encoding="UTF-8" standalone="no"?>
<!DOCTYPE svg PUBLIC "-//W3C//DTD SVG 1.1//EN" "http://www.w3.org/Graphics/SVG/1.1/DTD/svg11.dtd">
<svg width="100%" height="100%" viewBox="0 0 245 315" version="1.1" xmlns="http://www.w3.org/2000/svg" xmlns:xlink="http://www.w3.org/1999/xlink" xml:space="preserve" xmlns:serif="http://www.serif.com/" style="fill-rule:evenodd;clip-rule:evenodd;stroke-linecap:round;stroke-linejoin:round;stroke-miterlimit:1.5;">
    <g id="Better-Letters" serif:id="Better Letters">
        <path id="Z" d="M40.752,225.784c-40.858,87.342 188.824,59.082 189.082,23.94c0.249,-33.919 -122.787,6.662 -128.236,-9.514c-5.237,-15.548 133.048,-104.385 129.464,-142.817c-5.739,-61.541 -199.856,-26.364 -203.372,-1.536c-7.382,52.124 146.346,16.36 145.963,33.336c-0.428,18.952 -146.654,66.063 -146.289,121.104c0.482,72.594 178.489,22.723 196.065,8.683" style="fill:none;stroke:#000;stroke-width:15px;"/>
        <path id="Y" d="M12.818,50.639c4.403,-15.431 43.914,-6.778 48.38,4.498c39.34,99.323 52.143,100.625 99.79,-1.751c3.939,-8.463 35.744,-10.881 37.68,-0.171c9.873,54.622 -77.355,95.01 -76.239,124.824c0.27,7.212 33.124,116.488 -12.607,117.766c-45.665,1.276 -25.99,-107.238 -25.329,-114.355c4.087,-44.007 -63.858,-59.134 -71.585,-130.016" style="fill:none;stroke:#000;stroke-width:15px;"/>
        <path id="X" d="M76.17,187.27c-106.51,-132.753 -6.537,-101.501 -4.788,-97.509c49.935,113.974 42.498,117.065 105.401,-4.056c10.958,-21.1 46.323,-7.082 43.497,-0.356c-81.252,193.409 -81.097,18.564 11.834,195.205c8.041,15.285 -46.299,10.084 -51.644,1.332c-56.138,-91.91 -64.414,-98.942 -105.781,-4.031c-2.508,5.753 -96.746,31.418 -0,-88.602" style="fill:none;stroke:#000;stroke-width:15px;"/>
        <path id="W" d="M162.007,152.229c53.749,102.01 6.379,-113.347 48.299,-108.665c35.115,3.922 41.345,220.317 -32.655,222.938c-26.837,0.951 -19.765,-69.205 -55.221,-69.98c-42.537,-0.929 -27.909,74.56 -55.701,74.639c-64.873,0.184 -70.914,-225.526 -37.217,-225.123c39.877,0.476 11.763,193.349 49.984,116.594c25.736,-51.682 59.63,-53.501 85.378,-5.297" style="fill:none;stroke:#000;stroke-width:15px;"/>
        <path id="V" d="M122.43,190.305c-18.735,-31.397 -44.504,-142.752 -79.625,-145.532c-43.2,-3.42 54.163,255.611 79.625,252.631c30.283,-3.543 117.133,-262.931 75.215,-261.187c-31.562,1.313 -57.022,167.784 -75.215,170.036c-22.657,2.805 -53.939,-147.349 -77.612,-147.52c-20.297,-0.146 64.373,224.04 77.612,223.796c9.947,-0.183 105.664,-208.704 67.746,-242.985" style="fill:none;stroke:#000;stroke-width:15px;"/>
        <path id="U" d="M152.201,169.404c-97.799,64.573 -57.57,-123.849 -104.16,-124.666c-55.246,-0.969 -49.034,233.799 74.389,239.241c128.433,5.663 123.103,-243.123 75.215,-247.761c-54.72,-5.299 -15.623,161.249 -75.215,160.091c-73.908,-1.436 -29.91,-144.774 -78.631,-139.104c-51.618,6.007 -19.904,211.302 78.631,215.878c98.321,4.565 113.569,-195.388 65.208,-235.636" style="fill:none;stroke:#000;stroke-width:15px;"/>
        <path id="T" d="M49.089,56.471c49.247,36.415 168.624,39.067 168.204,8.513c-0.37,-26.88 -178.352,-33.234 -177.274,-7.233c1.095,26.396 73.819,27.244 82.41,27.598c5.198,0.214 -41.913,200.707 6.225,199.596c41.197,-0.951 4.82,-183.246 9.254,-200.037c0.433,-1.639 -28.5,25.04 -20.297,152.962c6.369,99.307 33.584,0.638 25.936,-85.861" style="fill:none;stroke:#000;stroke-width:15px;"/>
        <path id="S" d="M208.517,204.824c-1.061,107.264 -217.063,85.166 -169.869,20.329c36.286,-49.852 65.045,42.044 99.675,-4.687c24.062,-32.47 -144.008,-85.58 -87.83,-163.547c58.033,-80.542 173.137,-5.777 149.945,37.888c-22.642,42.631 -58.23,-40.288 -92.939,-10.841c-49.58,42.064 133.604,82.561 100.391,154.367c-41.747,90.257 -165.927,48.529 -175.259,9.293" style="fill:none;stroke:#000;stroke-width:15px;"/>
        <path id="R" d="M123.238,108.476c33.91,-90.919 -91.682,-40.999 -32.384,17.699c22.511,22.284 72.853,0.31 70.584,-49.885c-2.785,-61.617 -90.132,-41.742 -95.296,-37.467c-10.601,8.778 -48.517,238.358 3.482,243.383c43.612,4.215 15.523,-139.837 16.711,-133.908c1.083,5.4 64.496,129.04 100.433,129.46c45.653,0.534 -20.441,-110.609 -77.985,-142.838" style="fill:none;stroke:#000;stroke-width:15px;"/>
        <path id="Q" d="M143.582,50.817c-147.841,-64.795 -144.972,271.039 20.159,199.542c20.516,-8.883 25.938,34.437 43.169,14.644c12.463,-14.315 -17.569,-37.831 -11.291,-48.231c4.714,-7.81 49.853,-171.715 -83.848,-169.016c-95.494,1.928 -87.611,241.117 47.154,192.471c12.54,-4.527 -31.39,-64.987 23.919,-29.263c10.416,6.728 58.19,-168.542 -102.534,-151.969" style="fill:none;stroke:#000;stroke-width:15px;"/>
        <path id="P" d="M127.511,54.502c-76.797,-31.17 -90.8,51.721 -54.217,90.228c21.817,22.964 86.771,2.007 84.502,-48.188c-2.785,-61.617 -104.146,-53.666 -103.782,-46.972c0.504,9.283 -25.292,243.905 3.482,243.383c29.681,-0.538 15.523,-139.837 16.711,-133.908c1.083,5.4 52.565,13.744 80.747,-25.506c39.496,-55.009 -6.142,-117.702 -97.002,-86.834" style="fill:none;stroke:#000;stroke-width:15px;"/>
        <path id="O" d="M138.005,22.46c-147.503,-30.323 -138.818,281.808 -15.575,281.674c151.975,-0.166 147.036,-282.754 0,-282.786c-115.956,-0.025 -111.246,269.832 0,268.224c133.368,-1.928 134.588,-253.661 0,-255.064c-100.597,-1.049 -91.871,243.193 0,240.937c124.464,-3.057 108.124,-231.202 0,-227.966c-88.598,2.652 -89.442,252.445 41.5,216.371" style="fill:none;stroke:#000;stroke-width:15px;"/>
        <path id="N" d="M106.343,45.742c-100.487,-47.007 -74.362,227.116 -33.931,227.412c39.024,0.286 -7.665,-152.881 10.946,-159.15c17.888,-6.026 34.726,169.332 78.941,165.209c70.803,-6.603 65.757,-233.419 37.193,-237.465c-59.969,-8.493 -18.823,173.599 -38.353,173.157c-21.805,-0.493 -19.673,-184.987 -82.998,-184.566c-83.52,0.554 -32.531,215.225 -16.378,235.446" style="fill:none;stroke:#000;stroke-width:15px;"/>
        <path id="M" d="M80.011,219.95c-50.72,-237.29 -2.445,55.726 -44.366,51.044c-35.115,-3.922 -41.345,-220.317 32.655,-222.938c26.837,-0.951 28.262,155.101 54.13,156.296c21.297,0.984 29.001,-160.876 56.792,-160.955c64.873,-0.184 70.914,225.526 37.217,225.123c-39.877,-0.476 -17.007,-268.872 -53.013,-54.507c-8.55,50.901 -80.326,44.026 -85.378,-3.168" style="fill:none;stroke:#000;stroke-width:15px;"/>
        <path id="L" d="M105.875,17.681c-47.243,41.154 -91.796,171.546 -42.429,272.341c11.177,22.821 154.134,10.611 153.493,2.71c-8.58,-105.84 -52.38,-60.247 -42.147,-32.823c11.13,29.827 -74.211,15.989 -76.509,6.18c-37.65,-160.675 22.061,-186.28 24.145,-218.951c5.146,-80.679 -49.686,-12.93 -52.33,-7.525c-75.403,154.113 7.519,252.108 7.519,258.783" style="fill:none;stroke:#000;stroke-width:15px;"/>
        <path id="K" d="M60.111,172.515c0.074,3.91 204.224,-191.201 136.466,-158.045c-134.097,65.617 -146.283,192.972 -161.548,2.533c-2.664,-33.236 -15.251,345.17 -4.915,282.646c27.425,-165.895 56.702,-84.19 136.406,1.966c48.702,52.644 -59.796,-118.845 -125.862,-126.863c-5.564,-0.675 178.65,-158.113 164.801,-150.805c-126.248,66.62 -148.281,156.513 -175.203,65.931" style="fill:none;stroke:#000;stroke-width:15px;"/>
        <path id="J" d="M102.615,98.772c-99.678,-10.818 -111.88,-79.456 -68.449,-65.623c41.355,13.172 116.15,-19.389 177.155,-0.396c50.691,15.782 15.918,68.542 -19.739,53.295c-101.361,-43.342 25.23,130.478 -1.865,171.066c-48.582,72.777 -155.364,2.035 -152.701,-33.69c4.504,-60.412 161.89,146.254 65.6,-124.653c-4.725,-13.293 133.399,250.273 -55.77,117.558" style="fill:none;stroke:#000;stroke-width:15px;"/>
        <path id="I" d="M235.916,42.592c-22.635,-42.075 -213.115,-19.795 -210.12,7.356c3.803,34.48 109.565,-50.434 77.232,204.512c-0.918,7.239 -81.594,-15.058 -85.729,20.474c-5.426,46.62 216.868,37.49 215.827,4.169c-1.382,-44.248 -79.996,-12.826 -87.009,-34.309c-59.68,-182.827 103.277,-189.144 89.8,-202.203c-24.631,-23.866 -165.397,81.218 -86.131,206.91" style="fill:none;stroke:#000;stroke-width:15px;"/>
        <path id="H" d="M56.406,27.036c-54.632,22.349 -36.801,266.76 5.388,262.495c40.464,-4.091 28.069,-115.762 60.635,-116.617c34.597,-0.908 32.684,118.587 72.265,116.669c45.618,-2.211 43.024,-262.771 -19.388,-264.47c-41.395,-1.126 -4.113,116.832 -52.877,120.635c-50.723,3.956 -9.955,-122.572 -58.245,-120.67c-52.102,2.052 -19.137,266.781 11.779,258.006" style="fill:none;stroke:#000;stroke-width:15px;"/>
        <path id="G" d="M63.526,208.096c-56.185,-107.284 42.555,-181.092 124.203,-134.077c20.504,11.807 61.071,-36.033 -45.161,-56.618c-139.133,-26.96 -209.894,237.591 -14.933,283.884c45.069,10.701 100.172,-24.385 96.875,-42.194c-11.221,-60.617 -29.46,-87.816 -61.635,-73.202c-118.699,53.915 49.427,29.803 22.625,63.641c-25.724,32.476 -100.178,31.388 -135.091,-72.578" style="fill:none;stroke:#000;stroke-width:15px;"/>
        <path id="F" d="M86.706,81.708c150.329,32.577 150.621,-23.172 109.451,-41.697c-30.244,-13.609 -259.126,-33.291 -109.295,222.613c23.98,40.957 73.104,-9.159 -15.406,-117.055c-4.201,-5.121 106.434,33.389 78.894,-26.297c-12.162,-26.359 -87.447,21.296 -89.918,-2.538c-0.618,-5.966 7.397,-42.181 41.909,-34.673c65.32,14.209 149.753,-13.771 80.662,-45.783" style="fill:none;stroke:#000;stroke-width:15px;"/>
        <path id="E" d="M180.428,82.911c8.018,42.639 -89.599,24.542 -106.923,-3.654c-2.135,-3.474 -25.688,60.936 3.238,74.863c85.936,41.376 85.559,-33.584 0.816,3.215c-19.003,8.252 -10.015,78.436 -1.745,70.807c20.381,-18.802 101.77,-57.678 108.555,-5.499c5.259,40.441 -102.56,58.259 -121.256,-0.593c-57.627,-181.4 108.195,-210.78 117.55,-137.517" style="fill:none;stroke:#000;stroke-width:15px;"/>
        <path id="D" d="M40.564,12.148c286.864,1.88 151.218,308.394 6.559,289.019c-20.121,-2.695 -43.892,-298.613 -6.559,-289.019c304.482,78.25 85.036,281.68 9.823,271.085c-15.321,-2.158 305.326,-138.849 -0.186,-257.788c-6.167,-2.401 267.831,108.77 0.186,257.788c-16.45,9.159 -14.983,-256.665 -0.186,-257.788c6.452,-0.489 224.445,134.637 0.533,245.095" style="fill:none;stroke:#000;stroke-width:15px;"/>
        <path id="C" d="M99.121,200.12c-45.793,-127.341 89.087,-60.454 90.453,-163.244c0.776,-58.399 -177.998,-36 -177.239,120.459c0.759,156.407 189.581,168.607 186.047,107.332c-4.435,-76.905 -109.136,-3.997 -110.217,-107.332c-0.964,-92.173 90.723,-52.84 91.831,-118.863c0.598,-35.668 -151.387,-18.242 -155.181,118.863c-3.508,126.76 161.71,150.75 172.65,100.637" style="fill:none;stroke:#000;stroke-width:15px;"/>
        <path id="B" d="M82.048,99.286c113.982,92.917 67.441,-166.024 -42.11,58.049c-11.205,22.919 152.204,5.565 166.421,-54.021c17.009,-71.285 -81.034,-113.16 -140.625,-56.143c-41.353,39.566 -52.439,194.374 -10.423,232.308c51.199,46.223 148.253,-0.094 134.283,-63.031c-12.182,-54.88 -160,-54.841 -154.023,-39.576c79.755,203.676 160.166,-20.879 36.585,54.079" style="fill:none;stroke:#000;stroke-width:15px;"/>
        <path id="A" d="M240.664,212.36c-30.802,-116.928 -36.796,-207.746 -118.234,-207.88c-79.691,-0.131 -148.482,294.304 -81.03,297.196c73.433,3.149 11.563,-115.035 81.03,-115.832c72.047,-0.827 22.881,115.295 82.914,116.605c76.996,1.68 26.301,-252.755 -82.914,-254.119c-19.783,-0.247 -65.107,99.836 -16.476,99.355c45.187,-0.448 91.761,6.482 16.476,-99.355" style="fill:none;stroke:#000;stroke-width:15px;"/>
    </g>
</svg>
