<?xml version="1.0" encoding="UTF-8" standalone="no"?>
<!DOCTYPE svg PUBLIC "-//W3C//DTD SVG 1.1//EN" "http://www.w3.org/Graphics/SVG/1.1/DTD/svg11.dtd">
<svg width="100%" height="100%" viewBox="0 0 5120 1593" version="1.1" xmlns="http://www.w3.org/2000/svg" xmlns:xlink="http://www.w3.org/1999/xlink" xml:space="preserve" xmlns:serif="http://www.serif.com/" style="fill-rule:evenodd;clip-rule:evenodd;stroke-linecap:round;stroke-linejoin:round;stroke-miterlimit:1.5;">
    <g id="Solutions">
        <path id="W" d="M1025.577,682.856C1136.025,764.228 973.64,558.169 1020.959,541.448C1060.596,527.441 1179.464,755.942 1101.578,797.117C1073.332,812.049 1044.531,733.255 1006.16,750.809C960.127,771.867 1014.931,845.123 985.21,859.617C915.836,893.448 792.341,654.875 828.635,637.835C871.585,617.67 941.478,838.788 942.612,736.776C943.376,668.088 978.729,648.567 1031.295,686.837" style="fill:none;stroke:#000;stroke-width:15px;"/>
        <path id="H" d="M1132.173,503.42C1088.949,543.616 1191.913,765.996 1229.88,747.112C1266.294,729 1215.275,628.894 1245.443,616.598C1277.493,603.535 1317.887,716.011 1354.242,700.244C1396.143,682.072 1301.733,439.203 1242.74,459.646C1203.612,473.205 1280.135,570.408 1235.853,591.181C1189.793,612.789 1183.269,480.015 1138.76,498.842C1090.737,519.156 1215.034,755.203 1240.862,736.079" style="fill:none;stroke:#000;stroke-width:15px;"/>
        <path id="A" d="M1552.868,552.258C1499.792,480.913 1473.097,420.4 1407.067,443.472C1342.455,466.049 1357.503,687.328 1412.861,670.124C1473.128,651.396 1394.572,588.027 1450.676,567.722C1508.864,546.664 1496.941,640.201 1545.907,624.024C1608.708,603.275 1506.446,443.384 1417.611,473.513C1401.52,478.971 1388.854,560.428 1428.149,546.266C1464.66,533.107 1504.07,524.607 1417.611,473.513" style="fill:none;stroke:#000;stroke-width:15px;"/>
        <path id="T" d="M1487.975,409.666C1546.053,429.115 1660.428,394.816 1650.604,365.881C1641.961,340.426 1470.697,389.281 1479.743,413.681C1488.927,438.452 1558.365,416.827 1566.647,414.514C1571.658,413.115 1588.686,618.363 1634.134,602.458C1673.029,588.846 1582.197,426.66 1581.235,409.32C1581.141,407.627 1561.848,441.93 1609.11,561.084C1645.799,653.584 1641.253,551.332 1607.297,471.409" style="fill:none;stroke:#000;stroke-width:15px;"/>
        <path id="S" d="M1992.803,458.07C2008.374,564.204 1791.557,575.84 1828.135,504.473C1856.259,449.602 1898.909,535.931 1925.881,484.399C1944.621,448.593 1770.352,422.166 1813.771,336.436C1858.624,247.875 1983.922,303.902 1967.776,350.634C1952.013,396.259 1904.007,319.855 1874.28,354.324C1831.816,403.562 2019.063,415.187 1997.376,491.273C1970.118,586.908 1840.972,564.925 1825.674,527.608" style="fill:none;stroke:#000;stroke-width:15px;"/>
        <path id="O" d="M2132.566,275.914C1985.063,245.59 1993.748,557.722 2116.991,557.588C2268.966,557.422 2264.026,274.833 2116.991,274.802C2001.035,274.778 2005.745,544.635 2116.991,543.026C2250.358,541.098 2251.578,289.365 2116.991,287.962C2016.393,286.913 2025.12,531.155 2116.991,528.899C2241.455,525.842 2225.115,297.697 2116.991,300.933C2028.393,303.585 2027.548,553.378 2158.49,517.304" style="fill:none;stroke:#000;stroke-width:15px;"/>
        <path id="L" d="M2311.199,238.277C2273.775,279.431 2238.482,409.823 2277.589,510.618C2286.443,533.439 2399.688,521.229 2399.181,513.328C2392.384,407.488 2357.687,453.081 2365.794,480.505C2374.61,510.332 2307.007,496.494 2305.186,486.686C2275.361,326.011 2322.662,300.406 2324.313,267.735C2328.389,187.056 2284.954,254.805 2282.859,260.21C2223.128,414.323 2288.816,512.317 2288.816,518.992" style="fill:none;stroke:#000;stroke-width:15px;"/>
        <path id="U" d="M2503.877,412.889C2432.268,468.942 2461.724,305.382 2427.611,304.672C2387.16,303.83 2391.708,507.622 2482.078,512.346C2576.117,517.262 2572.215,301.302 2537.151,297.276C2497.085,292.676 2525.711,437.249 2482.078,436.244C2427.963,434.997 2460.178,310.572 2424.505,315.494C2386.71,320.709 2409.931,498.916 2482.078,502.888C2554.069,506.85 2565.233,333.28 2529.824,298.343" style="fill:none;stroke:#000;stroke-width:15px;"/>
        <path id="T1" serif:id="T" d="M2551.738,287.707C2602.247,322.35 2721.643,320.761 2720.138,290.241C2718.814,263.391 2540.718,263.363 2542.72,289.308C2544.752,315.649 2617.459,313.913 2626.058,313.962C2631.26,313.992 2591.3,516.031 2639.368,513.211C2680.505,510.798 2637.676,329.909 2641.511,312.971C2641.886,311.318 2613.918,339.008 2626.66,466.558C2636.552,565.576 2660.246,466.003 2649.531,379.83" style="fill:none;stroke:#000;stroke-width:15px;"/>
        <path id="I" d="M2821.659,323.165C2809.391,287.025 2671.593,289.917 2671.233,312.306C2670.776,340.739 2753.951,279.955 2707.492,485.34C2706.173,491.172 2650.724,466.51 2644.513,495.164C2636.364,532.761 2795.628,543.149 2797.947,515.883C2801.026,479.676 2742.113,499.001 2739.088,480.913C2713.346,326.977 2830.064,334.899 2821.659,323.165C2806.296,301.72 2696.323,376.15 2741.271,485.048" style="fill:none;stroke:#000;stroke-width:15px;"/>
        <path id="O1" serif:id="O" d="M2897.719,334.012C2783.943,280.272 2731.02,507.021 2830.976,533.572C2954.236,566.313 3004.521,361.659 2885.304,329.844C2791.286,304.753 2743.262,500.186 2833.774,523.081C2942.285,550.529 2991.636,369.436 2882.775,339.324C2801.408,316.817 2761.562,494.665 2836.488,512.904C2937.997,537.613 2968.577,369.717 2880.283,348.669C2807.935,331.423 2759.261,511.199 2872.365,513.523" style="fill:none;stroke:#000;stroke-width:15px;"/>
        <path id="N" d="M3063.245,347.21C2973.843,281.524 2946.057,555.484 2985.656,563.653C3023.876,571.537 3007.925,412.208 3027.401,409.685C3046.119,407.26 3028.469,582.538 3072.64,587.109C3143.373,594.428 3182.616,370.975 3155.387,361.442C3098.222,341.427 3103.102,528.046 3084.031,523.807C3062.74,519.076 3100.778,338.533 3038.584,326.607C2956.557,310.878 2964.743,531.369 2976.646,554.35" style="fill:none;stroke:#000;stroke-width:15px;"/>
        <path id="S1" serif:id="S" d="M3329.876,589.453C3290.27,689.144 3096.706,590.765 3164.078,547.265C3215.878,513.82 3209.626,609.907 3258.757,578.777C3292.896,557.146 3155.214,447.091 3235.695,394.576C3318.832,340.327 3399.302,451.517 3361.946,483.906C3325.474,515.527 3322.125,425.356 3279.142,440.333C3217.743,461.727 3374.065,565.457 3317.228,620.491C3245.787,689.667 3144.955,606.032 3150.374,566.067" style="fill:none;stroke:#000;stroke-width:15px;"/>
        <path id="C" d="M3611.586,647.157C3646.952,516.536 3719.239,648.601 3779.212,565.109C3813.285,517.674 3653.89,433.679 3564.93,562.389C3476,691.056 3623.822,809.171 3656.009,756.91C3696.405,691.319 3568.821,691.146 3627.1,605.806C3679.085,529.685 3731.735,614.429 3770.445,560.934C3791.358,532.034 3656.773,459.3 3575.162,569.534C3499.708,671.452 3621.428,785.717 3659.09,750.895" style="fill:none;stroke:#000;stroke-width:15px;"/>
        <path id="A1" serif:id="A" d="M3913.783,834.072C3944.946,717.239 3984.725,635.377 3914.046,594.92C3844.884,555.332 3639.278,777.031 3696.44,812.956C3758.671,852.066 3763.467,718.753 3824.208,752.471C3887.204,787.441 3786.974,863.961 3838.475,894.836C3904.529,934.436 3986.523,688.297 3892.325,633.013C3875.262,622.999 3786.313,687.49 3828.797,711.161C3868.272,733.155 3905.299,762.245 3892.325,633.013" style="fill:none;stroke:#000;stroke-width:15px;"/>
        <path id="N1" serif:id="N" d="M4093.552,724.175C4032.266,631.702 3911.761,879.299 3946.118,900.615C3979.279,921.189 4019.219,766.125 4038.371,770.469C4056.779,774.644 3979.799,933.099 4019.689,952.614C4083.565,983.863 4197.418,787.626 4175.143,769.293C4128.379,730.802 4068.64,907.668 4052.199,897.117C4033.843,885.337 4131.775,728.966 4077.503,696.336C4005.923,653.299 3937.614,863.102 3940.867,888.777" style="fill:none;stroke:#000;stroke-width:15px;"/>
        <path id="I1" serif:id="I" d="M4443.577,1016.015C4454.323,973.411 4315.403,881.258 4300.827,902.171C4282.317,928.73 4403.66,928.553 4227.017,1090.678C4222.002,1095.281 4182.501,1033.791 4158.126,1056.596C4126.145,1086.519 4277.986,1206.005 4297.608,1181.831C4323.663,1149.731 4252.784,1127.429 4261.261,1108.25C4333.406,945.036 4444.488,1032.894 4443.577,1016.015C4441.913,985.168 4285.245,979.789 4260.807,1113.661" style="fill:none;stroke:#000;stroke-width:15px;"/>
        <path id="A2" serif:id="A" d="M1286.621,1107.034C1202.828,1019.858 1153.41,943.427 1082.193,982.927C1012.503,1021.58 1095.634,1312.292 1155.974,1282.006C1221.664,1249.034 1110.116,1175.875 1170.421,1141.385C1232.966,1105.614 1246.5,1230.987 1299.588,1202.927C1367.676,1166.939 1199.609,969.302 1103.525,1021.239C1086.12,1030.647 1095.208,1140.139 1137.462,1116.06C1176.724,1093.687 1220.787,1077.084 1103.525,1021.239" style="fill:none;stroke:#000;stroke-width:15px;"/>
        <path id="S2" serif:id="S" d="M1453.501,1029.951C1492.125,1115.178 1305.711,1180.726 1320.787,1111.316C1332.378,1057.949 1389.954,1119.562 1401.327,1069.299C1409.23,1034.375 1250.957,1056.978 1268.612,973.733C1286.85,887.739 1409.382,902.619 1406.321,946.061C1403.332,988.474 1343.426,936.584 1325.622,973.21C1300.191,1025.528 1466.295,987.143 1465.325,1056.69C1464.105,1144.106 1346.248,1158.839 1324.098,1131.4" style="fill:none;stroke:#000;stroke-width:15px;"/>
        <path id="S3" serif:id="S" d="M1679.344,960.097C1703.375,1052.84 1461.641,1098.275 1498.095,1028.319C1526.124,974.532 1579.201,1045.131 1606.149,994.528C1624.874,959.367 1428.346,963.772 1471.554,879.822C1516.19,793.098 1659.8,823.163 1644.659,867.711C1629.876,911.203 1571.429,850.377 1540.335,886.111C1495.919,937.156 1706.036,917.371 1686.529,989.158C1662.01,1079.391 1516.22,1080.503 1496.785,1049.48" style="fill:none;stroke:#000;stroke-width:15px;"/>
        <path id="I2" serif:id="I" d="M1822.426,781.469C1800.806,748.355 1672.981,789.459 1678.944,812.18C1686.518,841.033 1747.062,756.573 1761.478,976.955C1761.887,983.213 1703.185,973.66 1705.449,1004.331C1708.42,1044.575 1860.021,1010.94 1854.514,982.749C1847.201,945.314 1797.641,981.164 1789.728,963.727C1722.386,815.333 1833.575,790.995 1822.426,781.469C1802.051,764.059 1720.33,869.731 1792.929,967.3" style="fill:none;stroke:#000;stroke-width:15px;"/>
        <path id="S4" serif:id="S" d="M2010.229,880.563C2034.609,973.136 1867.968,998.117 1888.028,932.676C1903.451,882.36 1946.514,955.624 1961.432,908.333C1971.798,875.473 1833.706,863.987 1857.399,785.411C1881.875,704.239 1985.458,745.162 1978.371,787.483C1971.452,828.802 1925.391,764.659 1906.358,797.085C1879.17,843.403 2025.599,840.95 2017.625,909.544C2007.603,995.762 1904.989,985.134 1888.806,953.252" style="fill:none;stroke:#000;stroke-width:15px;"/>
        <path id="T2" serif:id="T" d="M1977.325,725.194C2029.596,757.115 2148.741,749.208 2145.623,718.811C2142.879,692.069 1965.031,701.467 1968.403,727.27C1971.827,753.466 2044.341,747.885 2052.93,747.478C2058.126,747.233 2028.915,951.104 2076.767,945.744C2117.719,941.156 2065.376,762.788 2068.309,745.671C2068.595,744 2042.133,773.132 2061.608,899.828C2076.726,998.184 2095.117,897.496 2079.856,812.011" style="fill:none;stroke:#000;stroke-width:15px;"/>
        <path id="Y" d="M2290.92,658.509C2295.324,643.078 2334.835,651.731 2339.3,663.006C2378.641,762.329 2391.443,763.632 2439.091,661.255C2443.03,652.793 2474.835,650.375 2476.771,661.084C2486.643,715.707 2399.416,756.094 2400.532,785.909C2400.802,793.121 2433.656,902.397 2387.925,903.675C2342.26,904.951 2361.935,796.437 2362.596,789.32C2366.683,745.313 2298.738,730.186 2291.011,659.304" style="fill:none;stroke:#000;stroke-width:15px;"/>
        <path id="U1" serif:id="U" d="M2834.439,847.018C2726.775,893.309 2799.64,714.95 2753.927,705.92C2699.719,695.211 2664.382,927.388 2784.906,954.536C2910.321,982.787 2949.001,736.968 2902.684,723.948C2849.76,709.07 2858.836,879.905 2800.385,868.243C2727.891,853.78 2796.506,720.463 2747.55,717.442C2695.682,714.241 2690.651,921.91 2786.829,943.811C2882.8,965.664 2933.112,771.545 2892.618,723.391" style="fill:none;stroke:#000;stroke-width:15px;"/>
        <path id="O2" serif:id="O" d="M2589.093,678.706C2457.402,651.232 2465.157,934.041 2575.188,933.919C2710.871,933.769 2706.461,677.728 2575.188,677.699C2471.662,677.677 2475.867,922.183 2575.188,920.726C2694.258,918.978 2695.348,690.894 2575.188,689.623C2485.374,688.673 2493.165,909.97 2575.188,907.926C2686.309,905.156 2671.721,698.444 2575.188,701.376C2496.088,703.778 2495.334,930.105 2612.239,897.42" style="fill:none;stroke:#000;stroke-width:15px;"/>
        <path id="W1" serif:id="W" d="M3229.432,922.263C3248.746,1035.938 3270.786,816.537 3309.165,834.038C3341.313,848.699 3279.855,1056.277 3208.717,1035.726C3182.919,1028.274 3211.483,963.807 3178.03,952.031C3137.898,937.903 3128.293,1014.195 3101.858,1005.616C3040.153,985.592 3104.691,769.221 3136.588,780.096C3174.334,792.965 3087.563,967.496 3147.783,906.457C3188.332,865.358 3221.108,874.183 3230.567,928.008" style="fill:none;stroke:#000;stroke-width:15px;"/>
        <path id="T3" serif:id="T" d="M3487.079,962.583C3510.265,1009.661 3599.613,1055.871 3611.122,1031.481C3621.248,1010.024 3488.965,939.226 3479.718,960.247C3470.329,981.588 3525.056,1009.13 3531.423,1012.585C3535.275,1014.675 3421.999,1156.295 3458.872,1173.199C3490.429,1187.666 3533.455,1029.634 3543.312,1017.954C3544.274,1016.814 3512.043,1027.285 3468.735,1131.78C3435.115,1212.901 3493.913,1144.695 3521.607,1073.26" style="fill:none;stroke:#000;stroke-width:15px;"/>
        <path id="I3" serif:id="I" d="M3480.259,918.933C3484.995,878.847 3375.379,847.801 3366.18,870.67C3354.497,899.712 3444.173,857.914 3325.81,1057.046C3322.449,1062.7 3288.626,1023.726 3272.325,1051.575C3250.939,1088.114 3372.162,1138.076 3384.846,1110.69C3401.689,1074.323 3347.621,1079.598 3352.443,1060.305C3393.485,896.108 3482.202,933.039 3480.259,918.933C3476.707,893.151 3360.503,942.328 3352.515,1065.083" style="fill:none;stroke:#000;stroke-width:15px;"/>
        <path id="H1" serif:id="H" d="M3674.951,1012.92C3626.148,1001.724 3511.12,1184.829 3542.047,1202.738C3571.71,1219.914 3621.376,1134.145 3643.981,1149.707C3667.996,1166.24 3604.524,1250.483 3632.455,1268.771C3664.647,1289.847 3798.445,1102.796 3756.859,1070.592C3729.278,1049.233 3693.276,1151.843 3658.114,1130.34C3621.541,1107.973 3715.111,1038.01 3681.262,1015.386C3644.74,990.977 3529.44,1196.082 3555.043,1205.178" style="fill:none;stroke:#000;stroke-width:15px;"/>
        <path id="_-" serif:id="?" d="M3783.672,1317.785C3773.168,1194.066 3868.374,1229.136 3896.155,1228.447C3931.426,1227.572 3905.064,1172.758 3898.353,1164.878C3881.859,1145.509 3854.309,1163.291 3851.94,1164.006C3830.913,1170.355 3814.188,1138.271 3844.845,1124.43C3971.217,1067.375 4004.152,1300.761 3924.236,1272.677C3848.248,1245.974 3785.87,1281.447 3795.927,1328.152C3816.618,1424.252 3692.675,1330.1 3784.538,1321.914" style="fill:none;stroke:#000;stroke-width:15px;"/>
    </g>
</svg>
