<?xml version="1.0" encoding="UTF-8" standalone="no"?>
<!DOCTYPE svg PUBLIC "-//W3C//DTD SVG 1.1//EN" "http://www.w3.org/Graphics/SVG/1.1/DTD/svg11.dtd">
<svg width="100%" height="100%" viewBox="0 0 3438 1082" version="1.1" xmlns="http://www.w3.org/2000/svg" xmlns:xlink="http://www.w3.org/1999/xlink" xml:space="preserve" xmlns:serif="http://www.serif.com/" style="fill-rule:evenodd;clip-rule:evenodd;stroke-linejoin:round;stroke-miterlimit:2;">
    <g transform="matrix(1,0,0,1,-962.553217,-138.043977)">
        <g transform="matrix(0.854658,0,0,1.411212,391.58225,514.291433)">
            <path d="M1275.94,351.94l-30.89,-14.78l-102.3,37.02l7.27,23.89c2.83,9.32 3.9,15.92 3.22,19.79c-0.69,3.87 -4.8,7.17 -12.36,9.9c-6.41,2.32 -13.47,2.95 -21.2,1.89c-7.72,-1.06 -13.36,-3.39 -16.92,-7c-2.05,-2.08 -3.6,-4.43 -4.64,-7.07c-1.04,-2.63 -2.2,-6.4 -3.46,-11.3l-33.28,-122.26c-0.97,-3.5 -2.14,-7.71 -3.5,-12.63c-1.36,-4.92 -1.88,-9.22 -1.56,-12.91c0.32,-3.69 2.05,-7.21 5.19,-10.56c3.14,-3.35 8.2,-6.28 15.18,-8.81c7.09,-2.57 13.82,-3.9 20.18,-3.99c6.36,-0.09 12.26,0.62 17.71,2.13c5.45,1.51 10.63,3.37 15.54,5.59c4.91,2.22 11.34,5.23 19.28,9.03l162.78,74.55c12.53,5.62 20.48,10.13 23.83,13.53c3.49,3.53 4.25,7.65 2.3,12.36c-1.96,4.71 -6.37,8.3 -13.23,10.79c-4.01,1.45 -7.87,2.26 -11.58,2.43c-3.72,0.17 -7.28,-0.14 -10.7,-0.93c-3.42,-0.79 -7.76,-2.32 -13.04,-4.59c-5.27,-2.28 -9.88,-4.3 -13.8,-6.08Zm-142.68,-5.78l75.18,-27.21l-99.99,-49.16l24.81,76.37Z" style="fill-rule:nonzero;"/>
            <path d="M1517.95,260.37c6.1,8.34 7.98,16.38 5.62,24.12c-2.35,7.74 -8.96,14.9 -19.82,21.48c-10.86,6.58 -25.67,12.39 -44.44,17.43c-17.92,4.81 -34.49,7.27 -49.71,7.38c-15.23,0.11 -27.71,-1.5 -37.45,-4.85c-9.74,-3.35 -16.45,-7.53 -20.12,-12.55c-2.43,-3.32 -2.56,-6.69 -0.39,-10.1c2.17,-3.41 6.24,-5.91 12.21,-7.52c5.24,-1.41 9.83,-1.71 13.77,-0.91c3.94,0.8 8.21,2.26 12.82,4.37c9.06,4.01 18.13,6.39 27.2,7.14c9.07,0.74 19.77,-0.54 32.08,-3.84c9.99,-2.68 17.2,-6.23 21.63,-10.64c4.43,-4.41 5.37,-8.35 2.83,-11.82c-3.89,-5.31 -10.05,-8.3 -18.47,-8.95c-8.42,-0.65 -21.06,-0.04 -37.92,1.83c-19.07,2.03 -35.04,3.07 -47.91,3.12c-12.87,0.05 -24.23,-1.38 -34.09,-4.29c-9.86,-2.92 -17.28,-7.77 -22.25,-14.56c-4.43,-6.05 -5.63,-12.57 -3.6,-19.57c2.03,-6.99 7.69,-13.65 16.98,-19.99c9.29,-6.33 22.16,-11.71 38.61,-16.13c12.92,-3.47 25.12,-5.77 36.61,-6.91c11.49,-1.14 21.67,-1.27 30.56,-0.39c8.88,0.88 16.34,2.5 22.37,4.86c6.03,2.36 10.2,5.12 12.52,8.3c2.54,3.47 2.7,6.83 0.48,10.07c-2.22,3.24 -6.86,5.82 -13.93,7.71c-5.12,1.37 -10.12,1.66 -15.02,0.85c-4.89,-0.81 -10.95,-2.36 -18.17,-4.66c-5.94,-1.94 -12.12,-3.11 -18.53,-3.5c-6.42,-0.4 -14.01,0.58 -22.79,2.94c-9.02,2.42 -15.66,5.6 -19.93,9.52c-4.27,3.93 -5.14,7.63 -2.6,11.1c2.32,3.17 6.42,5.19 12.29,6.04c5.87,0.85 13.01,0.94 21.42,0.28c8.41,-0.67 19.83,-1.79 34.28,-3.37c17.15,-1.87 31.8,-2.53 43.93,-1.99c12.13,0.54 22.31,2.29 30.53,5.25c8.22,2.96 14.35,7.21 18.4,12.74Z" style="fill-rule:nonzero;"/>
            <path d="M1734.66,216.01c4.7,8.67 5.24,16.78 1.62,24.34c-3.62,7.56 -11.37,14.29 -23.26,20.18c-11.89,5.89 -27.59,10.78 -47.09,14.65c-18.62,3.7 -35.51,5.15 -50.68,4.34c-15.17,-0.81 -27.33,-3.17 -36.47,-7.09c-9.14,-3.92 -15.12,-8.49 -17.95,-13.7c-1.87,-3.45 -1.45,-6.81 1.28,-10.07c2.72,-3.26 7.19,-5.51 13.39,-6.74c5.45,-1.08 10.06,-1.11 13.85,-0.08c3.79,1.03 7.8,2.74 12.04,5.13c8.36,4.54 16.99,7.46 25.89,8.74c8.91,1.29 19.76,0.66 32.55,-1.88c10.39,-2.07 18.14,-5.16 23.28,-9.28c5.13,-4.12 6.72,-7.99 4.76,-11.59c-2.99,-5.52 -8.63,-8.86 -16.9,-10.02c-8.28,-1.16 -20.95,-1.31 -38.03,-0.47c-19.31,0.87 -35.38,0.94 -48.19,0.21c-12.81,-0.72 -23.88,-2.83 -33.21,-6.33c-9.33,-3.5 -15.91,-8.77 -19.74,-15.83c-3.41,-6.29 -3.53,-12.85 -0.36,-19.68c3.17,-6.83 9.9,-13.12 20.18,-18.86c10.29,-5.74 23.98,-10.31 41.08,-13.71c13.43,-2.67 25.95,-4.23 37.56,-4.67c11.62,-0.44 21.77,0.05 30.47,1.46c8.69,1.41 15.85,3.48 21.45,6.19c5.61,2.71 9.31,5.71 11.09,9.01c1.95,3.61 1.56,6.95 -1.18,10.05c-2.74,3.09 -7.79,5.37 -15.13,6.83c-5.32,1.06 -10.35,1.04 -15.08,-0.06c-4.73,-1.1 -10.51,-3.01 -17.32,-5.73c-5.59,-2.29 -11.54,-3.82 -17.86,-4.61c-6.32,-0.78 -14.04,-0.27 -23.16,1.55c-9.37,1.86 -16.51,4.62 -21.4,8.27c-4.9,3.65 -6.37,7.28 -4.41,10.88c1.79,3.3 5.53,5.55 11.24,6.75c5.7,1.2 12.79,1.73 21.27,1.57c8.47,-0.16 20.03,-0.58 34.66,-1.28c17.37,-0.82 32.05,-0.6 44.04,0.67c11.98,1.27 21.82,3.63 29.51,7.07c7.69,3.44 13.09,8.04 16.21,13.79Z" style="fill-rule:nonzero;"/>
            <path d="M1807.89,130.57l38.45,92.67c2.66,6.42 2.16,11.66 -1.52,15.71c-3.68,4.06 -9.4,6.67 -17.15,7.85c-7.76,1.18 -14.76,0.46 -21,-2.17c-6.25,-2.63 -10.67,-7.08 -13.27,-13.34l-38.06,-91.73c-2.63,-6.34 -2.19,-11.49 1.33,-15.44c3.52,-3.95 9.15,-6.51 16.91,-7.69c7.76,-1.18 14.82,-0.55 21.2,1.89c6.37,2.44 10.75,6.52 13.12,12.24Zm-39.92,-29.14c-7.37,1.12 -14.24,0.71 -20.61,-1.23c-6.37,-1.94 -10.6,-5.42 -12.68,-10.43c-1.88,-4.54 -0.75,-8.69 3.39,-12.44c4.15,-3.75 9.78,-6.17 16.89,-7.25c6.85,-1.04 13.48,-0.64 19.89,1.22c6.41,1.86 10.66,5.33 12.78,10.42c2.05,4.93 1.06,9.18 -2.96,12.75c-4.02,3.57 -9.58,5.89 -16.69,6.97Z" style="fill-rule:nonzero;"/>
            <path d="M2069.34,172.95c2.69,8.98 1.38,17.06 -3.92,24.25c-5.3,7.19 -14.51,13.2 -27.62,18.05c-13.11,4.85 -29.77,8.38 -49.97,10.6c-19.28,2.12 -36.34,2.15 -51.19,0.08c-14.84,-2.06 -26.35,-5.41 -34.51,-10.06c-8.16,-4.64 -13.05,-9.66 -14.67,-15.07c-1.07,-3.57 0.11,-6.86 3.55,-9.87c3.44,-3 8.37,-4.86 14.8,-5.56c5.64,-0.62 10.22,-0.26 13.73,1.08c3.52,1.34 7.1,3.36 10.76,6.08c7.25,5.19 15.13,8.8 23.66,10.82c8.53,2.02 19.42,2.3 32.67,0.84c10.76,-1.18 19.14,-3.6 25.16,-7.26c6.02,-3.66 8.47,-7.35 7.35,-11.08c-1.71,-5.72 -6.54,-9.5 -14.47,-11.33c-7.93,-1.84 -20.46,-3.05 -37.56,-3.63c-19.33,-0.75 -35.25,-2.02 -47.78,-3.8c-12.52,-1.78 -23.01,-4.8 -31.46,-9.04c-8.45,-4.24 -13.77,-10.02 -15.96,-17.32c-1.95,-6.51 -0.58,-13.02 4.11,-19.53c4.69,-6.5 12.78,-12.17 24.27,-17c11.49,-4.83 26.09,-8.22 43.8,-10.16c13.9,-1.53 26.66,-2.03 38.27,-1.49c11.61,0.53 21.56,1.86 29.85,3.98c8.29,2.13 14.91,4.76 19.85,7.91c4.94,3.15 7.92,6.43 8.94,9.85c1.12,3.73 -0.03,7.02 -3.45,9.86c-3.42,2.84 -8.93,4.67 -16.54,5.51c-5.51,0.6 -10.48,0.17 -14.92,-1.31c-4.44,-1.48 -9.72,-3.86 -15.85,-7.12c-5.02,-2.73 -10.57,-4.75 -16.65,-6.05c-6.08,-1.3 -13.84,-1.43 -23.29,-0.4c-9.71,1.07 -17.4,3.2 -23.08,6.41c-5.68,3.21 -7.96,6.68 -6.84,10.41c1.02,3.42 4.22,5.96 9.6,7.62c5.38,1.67 12.28,2.77 20.71,3.33c8.43,0.55 19.97,1.09 34.62,1.61c17.4,0.63 31.88,2.08 43.47,4.33c11.58,2.26 20.79,5.41 27.63,9.46c6.83,4.05 11.14,9.05 12.93,15.01Z" style="fill-rule:nonzero;"/>
            <path d="M2106.9,81.56l5.96,-0.39l-3.53,-19.75c-0.95,-5.3 -1.46,-9.47 -1.53,-12.51c-0.07,-3.04 0.75,-5.71 2.49,-8.02c1.72,-2.39 4.44,-4.41 8.17,-6.08c3.72,-1.67 8.04,-2.66 12.94,-2.98c6.89,-0.45 13.4,0.7 19.53,3.47c4.08,1.84 6.89,4.24 8.42,7.18c1.53,2.94 2.79,7.19 3.78,12.72l4,22.39l19.88,-1.3c7.69,-0.5 13.75,0.21 18.19,2.16c4.44,1.94 6.96,4.64 7.58,8.09c0.79,4.41 -1.54,7.69 -6.99,9.84c-5.45,2.14 -13.54,3.57 -24.28,4.27l-10.14,0.67l10.81,60.44c0.92,5.14 1.92,9.07 3.02,11.8c1.09,2.73 3.08,4.87 5.98,6.43c2.89,1.56 7.26,2.14 13.09,1.76c3.18,-0.21 7.43,-0.83 12.74,-1.87c5.31,-1.04 9.49,-1.66 12.54,-1.86c4.37,-0.29 8.51,0.52 12.4,2.41c3.89,1.9 6.12,4.41 6.68,7.54c0.95,5.3 -3.1,9.66 -12.14,13.1c-9.04,3.44 -22.51,5.74 -40.4,6.91c-16.96,1.11 -30.13,0.23 -39.49,-2.65c-9.36,-2.88 -15.95,-7.28 -19.76,-13.2c-3.81,-5.92 -6.62,-13.98 -8.45,-24.17l-11.28,-63.09l-7.16,0.47c-7.82,0.51 -13.98,-0.22 -18.49,-2.2c-4.51,-1.98 -7.07,-4.69 -7.69,-8.14c-0.62,-3.45 1.03,-6.42 4.94,-8.91c3.91,-2.49 9.98,-4 18.19,-4.54Z" style="fill-rule:nonzero;"/>
            <path d="M2442.55,177.23l-0.74,-56.31l-72.46,-66.87c-6.34,-6.02 -10.84,-10.73 -13.48,-14.1c-2.64,-3.38 -3.98,-6.32 -4.01,-8.82c-0.05,-4.12 2.53,-7.68 7.76,-10.69c5.23,-3.01 11.71,-4.54 19.44,-4.57c8.13,-0.04 14.32,1.32 18.55,4.09c4.24,2.77 10.61,8.29 19.11,16.56l55.49,53.63l54.68,-54.15c3.29,-3.33 6.05,-6.12 8.29,-8.4c2.24,-2.27 4.71,-4.4 7.42,-6.39c2.71,-1.99 5.72,-3.52 9.04,-4.58c3.32,-1.07 7.38,-1.61 12.18,-1.63c7.46,-0.04 13.72,1.41 18.75,4.33c5.04,2.92 7.58,6.32 7.63,10.2c0.04,3.15 -1.18,6.3 -3.68,9.46c-2.49,3.16 -6.77,7.54 -12.83,13.14l-72.49,68.53l0.74,56.31c0.1,7.35 -2.63,12.85 -8.18,16.51c-5.55,3.66 -12.66,5.51 -21.32,5.55c-8.8,0.04 -15.95,-1.72 -21.47,-5.29c-5.51,-3.57 -8.32,-9.06 -8.41,-16.49Z" style="fill-rule:nonzero;"/>
            <path d="M2813.89,139.41c-0.98,9.83 -4.41,18.81 -10.29,26.92c-5.88,8.12 -13.91,14.98 -24.08,20.59c-10.17,5.61 -22.07,9.77 -35.7,12.47c-13.62,2.7 -28.75,3.74 -45.38,3.14c-16.5,-0.6 -31.18,-2.76 -44.03,-6.46c-12.85,-3.7 -23.8,-8.73 -32.85,-15.09c-9.05,-6.36 -15.66,-13.71 -19.84,-22.08c-4.18,-8.36 -5.77,-17.5 -4.79,-27.41c0.99,-9.99 4.43,-19.05 10.31,-27.16c5.88,-8.12 13.84,-14.94 23.87,-20.48c10.03,-5.54 21.93,-9.65 35.68,-12.35c13.76,-2.69 28.75,-3.74 44.99,-3.15c16.5,0.6 31.31,2.76 44.43,6.47c13.12,3.71 24.17,8.73 33.16,15.04c8.99,6.31 15.57,13.67 19.74,22.07c4.17,8.4 5.77,17.56 4.78,27.47Zm-54.69,-2c1.34,-13.46 -2.51,-24.11 -11.54,-31.96c-9.03,-7.85 -21.8,-12.08 -38.3,-12.68c-10.65,-0.39 -20.19,0.94 -28.64,3.99c-8.45,3.05 -15.19,7.76 -20.24,14.12c-5.04,6.37 -7.99,13.9 -8.86,22.61c-0.86,8.62 0.56,16.24 4.24,22.84c3.68,6.6 9.38,11.77 17.09,15.49c7.71,3.72 17.02,5.78 27.93,6.18c16.5,0.6 30.02,-2.69 40.55,-9.86c10.53,-7.18 16.46,-17.42 17.78,-30.71Z" style="fill-rule:nonzero;"/>
            <path d="M2994.42,202.98l0.99,-4.2c-7.63,4.4 -15.41,7.97 -23.32,10.71c-7.92,2.74 -16.29,4.57 -25.12,5.48c-8.83,0.91 -18.66,0.9 -29.48,-0.04c-13.07,-1.13 -24.39,-3.78 -33.98,-7.95c-9.59,-4.17 -16.54,-9.38 -20.86,-15.62c-5.09,-7.53 -6.11,-17.82 -3.04,-30.84l15.26,-64.86c1.54,-6.55 5.14,-11.24 10.78,-14.05c5.64,-2.82 12.49,-3.88 20.54,-3.18c8.18,0.71 14.4,2.91 18.64,6.62c4.24,3.71 5.6,8.8 4.08,15.28l-12.33,52.39c-1.79,7.59 -2.23,14.06 -1.33,19.4c0.9,5.34 3.74,9.7 8.53,13.09c4.79,3.39 11.87,5.49 21.24,6.3c9.11,0.79 18.07,-0.11 26.89,-2.69c8.82,-2.58 15.7,-6.35 20.64,-11.31c4.13,-4.37 8.03,-14.39 11.72,-30.06l9.37,-39.8c1.52,-6.47 5.18,-11.13 10.96,-13.98c5.79,-2.84 12.7,-3.92 20.75,-3.22c8.05,0.69 14.14,2.87 18.26,6.53c4.12,3.66 5.41,8.76 3.87,15.32l-22.32,94.83c-1.47,6.23 -4.91,10.71 -10.33,13.42c-5.42,2.71 -11.82,3.75 -19.21,3.11c-7.39,-0.64 -13.11,-2.78 -17.17,-6.44c-4.06,-3.65 -5.4,-8.4 -4.02,-14.23Z" style="fill-rule:nonzero;"/>
            <path d="M3411.72,250.89l6.37,-110.18l-97.54,93.2c-7.49,7.05 -13.13,12.06 -16.94,15.03c-3.81,2.97 -9,5.29 -15.57,6.98c-6.58,1.69 -14.2,1.73 -22.86,0.11c-7.01,-1.31 -12.37,-3.17 -16.09,-5.59c-3.72,-2.42 -6.25,-5.34 -7.58,-8.76c-1.33,-3.42 -1.88,-7.28 -1.65,-11.58c0.23,-4.31 0.51,-8.29 0.84,-11.94l11.39,-122.93c0.57,-7.16 1.73,-12.47 3.5,-15.95c2.23,-4.4 6.66,-7.63 13.29,-9.69c6.63,-2.06 13.7,-2.39 21.21,-0.99c10.32,1.92 16.25,5.22 17.78,9.9c1.53,4.68 1.69,11.08 0.49,19.22l-13.62,105.92l88.18,-85.06c6.66,-6.53 12.15,-11.42 16.45,-14.67c4.3,-3.25 9.88,-5.72 16.73,-7.4c6.85,-1.68 14.99,-1.64 24.42,0.11c9.56,1.78 16.26,4.57 20.12,8.37c3.86,3.8 5.96,7.55 6.32,11.25c0.35,3.7 0.31,9.69 -0.13,17.97l-5.61,100.44l87.02,-92.25c4.41,-4.84 8.16,-8.57 11.24,-11.21c3.08,-2.64 7.15,-4.75 12.22,-6.34c5.06,-1.59 11.29,-1.7 18.68,-0.32c7.39,1.38 12.91,4.03 16.56,7.96c3.65,3.93 4.34,8.14 2.07,12.61c-1.61,3.16 -5.58,7.96 -11.91,14.38l-104.65,105.56c-7.1,7.12 -12.62,12.28 -16.54,15.48c-3.92,3.2 -9.09,5.68 -15.49,7.44c-6.4,1.76 -14.19,1.79 -23.37,0.08c-8.66,-1.61 -14.94,-4.22 -18.83,-7.82c-3.89,-3.6 -6.02,-7.22 -6.4,-10.88c-0.37,-3.66 -0.39,-9.81 -0.05,-18.44Z" style="fill-rule:nonzero;"/>
            <path d="M3683.44,223.5l-61.89,87.89c-4.29,6.09 -9.92,10.08 -16.9,11.96c-6.98,1.88 -14.15,1.88 -21.5,-0.02c-7.36,-1.9 -12.21,-5.04 -14.56,-9.42c-2.35,-4.38 -1.43,-9.54 2.75,-15.48l61.26,-87c4.24,-6.02 9.73,-9.95 16.47,-11.81c6.74,-1.86 13.79,-1.84 21.15,0.06c7.36,1.9 12.36,4.99 14.99,9.27c2.64,4.28 2.05,9.13 -1.77,14.55Zm-2.71,-37.83c-6.99,-1.81 -12.05,-4.65 -15.19,-8.53c-3.14,-3.88 -3.03,-8.2 0.32,-12.95c3.03,-4.31 8.07,-7.2 15.12,-8.67c7.05,-1.47 13.95,-1.33 20.69,0.41c6.5,1.68 11.37,4.43 14.62,8.25c3.25,3.82 3.17,8.15 -0.22,12.98c-3.29,4.68 -8.32,7.7 -15.08,9.07c-6.76,1.37 -13.51,1.18 -20.26,-0.56Z" style="fill-rule:nonzero;"/>
            <path d="M3759.9,227.02l5.37,1.62l14.67,-17.76c3.94,-4.77 7.23,-8.44 9.88,-11.02c2.65,-2.58 5.74,-4.56 9.26,-5.93c3.58,-1.44 7.68,-2.26 12.3,-2.44c4.62,-0.18 9.14,0.4 13.55,1.73c6.2,1.88 10.64,4.98 13.32,9.32c1.79,2.89 2.01,5.82 0.67,8.8c-1.34,2.98 -4.07,6.96 -8.18,11.94l-16.63,20.15l17.88,5.42c6.92,2.09 11.37,4.68 13.37,7.77c2,3.09 1.71,6.18 -0.85,9.29c-3.28,3.97 -8.17,5.97 -14.67,5.98c-6.5,0.02 -14.58,-1.44 -24.23,-4.36l-9.12,-2.76l-44.9,54.37c-3.82,4.62 -6.48,8.26 -8,10.91c-1.52,2.65 -1.76,5.11 -0.72,7.37c1.04,2.26 4.19,4.18 9.43,5.77c2.86,0.87 6.99,1.73 12.39,2.6c5.4,0.87 9.46,1.72 12.21,2.55c3.93,1.19 6.69,3.22 8.27,6.09c1.58,2.87 1.21,5.71 -1.12,8.53c-3.94,4.77 -11.24,7.11 -21.91,7.04c-10.67,-0.07 -24.06,-2.55 -40.15,-7.42c-15.26,-4.62 -25.55,-9.68 -30.85,-15.17c-5.31,-5.49 -6.91,-11.35 -4.83,-17.57c2.09,-6.23 6.92,-13.93 14.49,-23.1l46.86,-56.76l-6.44,-1.95c-7.03,-2.13 -11.57,-4.77 -13.59,-7.91c-2.03,-3.14 -1.76,-6.26 0.81,-9.37c2.56,-3.1 6.6,-5.06 12.12,-5.88c5.51,-0.81 11.97,-0.1 19.36,2.14Z" style="fill-rule:nonzero;"/>
            <path d="M3976.47,260.64l-42.48,41.76c10.1,-1.92 19.18,-3.04 27.24,-3.35c8.07,-0.31 16.11,0.2 24.15,1.54c8.03,1.34 15.97,3.47 23.8,6.39c11.8,4.4 20.74,9.82 26.8,16.26c6.06,6.43 8.76,13.51 8.11,21.23c-0.13,4.6 -1.75,9.19 -4.84,13.77c-3.1,4.58 -7.4,9.59 -12.93,15.02l-54.85,53.92c-5.73,5.64 -12.2,9.1 -19.39,10.4c-7.19,1.3 -14.31,0.64 -21.34,-1.99c-15.32,-5.72 -17.18,-14.28 -5.57,-25.69l48.35,-47.53c9.16,-9 13.99,-16.76 14.49,-23.25c0.5,-6.5 -5.43,-12.05 -17.8,-16.67c-8.29,-3.09 -17.2,-4.45 -26.74,-4.07c-9.54,0.38 -18.47,2.42 -26.8,6.14c-6.76,3.26 -15.6,10.25 -26.5,20.98l-37.86,37.22c-5.66,5.57 -12.05,9.04 -19.17,10.42c-7.11,1.38 -14.36,0.69 -21.74,-2.06c-15.32,-5.72 -17.18,-14.28 -5.57,-25.69l124.18,-122.08c5.8,-5.71 12.17,-9.23 19.1,-10.58c6.93,-1.35 14.03,-0.67 21.29,2.04c7.38,2.75 11.67,6.34 12.88,10.78c1.21,4.43 -1.06,9.47 -6.79,15.1Z" style="fill-rule:nonzero;"/>
            <path d="M4125.81,354.89c7.86,-6.02 19.01,-10.58 33.45,-13.7c14.44,-3.12 30.42,-3.77 47.95,-1.97c17.53,1.81 34.44,6.62 50.75,14.43c15.16,7.26 26.33,15.37 33.51,24.31c7.18,8.95 10.13,17.85 8.85,26.7c-1.28,8.86 -6.39,16.7 -15.32,23.54c-7.03,5.38 -14.99,9.24 -23.89,11.56c-8.9,2.32 -17.76,3.77 -26.57,4.33c-8.81,0.57 -24.2,1.25 -46.15,2.06c-6.12,0.26 -11.22,0.62 -15.31,1.08c-4.09,0.46 -7.46,1.06 -10.12,1.79c-2.66,0.73 -5.08,1.58 -7.27,2.54c-2.19,0.96 -5.88,2.71 -11.09,5.27c-10.59,5.63 -21.11,5.95 -31.56,0.94c-5.44,-2.6 -8.61,-5.87 -9.51,-9.8c-0.9,-3.93 1.42,-8.02 6.96,-12.26c6.95,-5.32 14.32,-9.27 22.13,-11.87c7.8,-2.59 15.88,-4.28 24.22,-5.07c8.34,-0.79 18.97,-1.38 31.9,-1.78c11.32,-0.34 19.65,-0.7 24.99,-1.08c5.34,-0.38 10.47,-1.19 15.41,-2.43c4.93,-1.24 9.1,-3.16 12.49,-5.75c6.62,-5.07 9.09,-10.83 7.42,-17.29c-1.67,-6.46 -7.42,-12.05 -17.25,-16.76c-11.5,-5.51 -22.26,-7.81 -32.29,-6.9c-10.03,0.91 -21.39,3.88 -34.08,8.92c-12.9,5.45 -24.32,5.8 -34.25,1.04c-5.86,-2.8 -9.16,-6.42 -9.92,-10.85c-0.76,-4.43 0.76,-8.1 4.57,-11.01Zm-59.43,140.76c-6.38,-3.06 -10.31,-6.97 -11.8,-11.75c-1.49,-4.78 0.7,-9.42 6.57,-13.91c5.21,-3.99 11.89,-6.24 20.05,-6.76c8.16,-0.52 15.58,0.82 22.27,4.03c6.59,3.16 10.35,7.17 11.29,12.05c0.94,4.88 -1.2,9.31 -6.41,13.3c-5.79,4.43 -12.69,6.79 -20.7,7.07c-8.01,0.28 -15.1,-1.06 -21.27,-4.01Z" style="fill-rule:nonzero;"/>
        </g>
        <g transform="matrix(1.133482,0,0,1.755712,-292.973544,-48.677209)">
            <path d="M1343.89,388.54l-92.86,-65.26l29.05,86.69c2.14,6.6 3.49,11.39 4.03,14.39c0.55,3 -0.21,6.1 -2.26,9.32c-2.06,3.21 -6.12,5.84 -12.18,7.88c-4.9,1.65 -9.42,2.41 -13.53,2.29c-4.12,-0.12 -8.03,-0.93 -11.73,-2.43c-3.7,-1.5 -7.37,-3.52 -11.01,-6.07c-3.64,-2.55 -6.97,-4.92 -9.99,-7.12l-101.31,-74.27c-5.95,-4.29 -9.97,-7.73 -12.06,-10.32c-2.64,-3.28 -3.09,-6.64 -1.33,-10.09c1.76,-3.44 5.27,-6.05 10.53,-7.81c7.22,-2.43 13.29,-2.56 18.2,-0.41c4.91,2.16 10.6,5.77 17.06,10.84l85.24,65.3l-26.97,-78.83c-2.13,-6.02 -3.46,-10.69 -3.99,-14.02c-0.53,-3.33 0.31,-6.65 2.52,-9.95c2.21,-3.3 6.62,-6.06 13.22,-8.28c6.69,-2.25 12.73,-2.94 18.12,-2.08c5.39,0.86 9.8,2.29 13.22,4.28c3.42,2 8.63,5.44 15.63,10.33l84.75,59.42l-33.87,-82.54c-1.86,-4.28 -3.11,-7.7 -3.76,-10.26c-0.65,-2.56 -0.31,-5.16 1.02,-7.8c1.33,-2.64 4.58,-4.83 9.75,-6.57c5.17,-1.74 10.46,-2.1 15.85,-1.1c5.4,1 9.44,3.18 12.13,6.51c1.9,2.36 3.96,6.46 6.17,12.3l36.03,96.19c2.41,6.51 3.96,11.34 4.64,14.52c0.69,3.17 0.08,6.36 -1.82,9.55c-1.9,3.2 -6.06,5.87 -12.48,8.03c-6.06,2.04 -11.71,2.69 -16.95,1.96c-5.23,-0.73 -9.55,-2.08 -12.95,-4.05c-3.4,-1.97 -8.78,-5.48 -16.14,-10.54Z" style="fill-rule:nonzero;"/>
            <path d="M1434.96,245.4l22.15,36.74c2.68,-4.85 5.71,-8.92 9.07,-12.2c3.36,-3.28 7.53,-6.16 12.51,-8.63c4.98,-2.47 10.7,-4.52 17.17,-6.14c9.74,-2.45 19.18,-3.29 28.33,-2.52c9.14,0.77 17.4,3.15 24.77,7.14c4.5,2.28 8.33,5.13 11.47,8.56c3.14,3.42 6.15,7.52 9.03,12.3l28.6,47.44c2.99,4.96 3.49,9.15 1.51,12.57c-1.98,3.42 -5.88,5.86 -11.68,7.32c-12.65,3.18 -21.99,-0.25 -28.05,-10.29l-25.21,-41.82c-4.78,-7.92 -10.28,-13.56 -16.5,-16.9c-6.22,-3.35 -14.44,-3.74 -24.65,-1.17c-6.84,1.72 -12.24,4.52 -16.21,8.41c-3.97,3.89 -6,8.35 -6.09,13.38c0.16,4.21 3.09,11.03 8.78,20.46l19.74,32.75c2.95,4.9 3.5,9.06 1.63,12.49c-1.87,3.43 -5.85,5.91 -11.94,7.44c-12.65,3.18 -21.99,-0.25 -28.05,-10.29l-64.75,-107.4c-3.03,-5.02 -3.63,-9.2 -1.82,-12.55c1.81,-3.35 5.72,-5.77 11.71,-7.28c6.09,-1.53 11.61,-1.45 16.56,0.23c4.95,1.68 8.92,5 11.91,9.96Z" style="fill-rule:nonzero;"/>
            <path d="M1731.89,302.47c-7.3,6.64 -14.84,12.02 -22.62,16.14c-7.79,4.12 -17.21,7.26 -28.28,9.41c-10.11,1.96 -19.59,2.4 -28.44,1.31c-8.85,-1.09 -16.38,-3.44 -22.58,-7.05c-6.2,-3.61 -10.5,-7.99 -12.9,-13.15c-3.25,-6.96 -2.6,-13.56 1.95,-19.79c4.54,-6.24 12.39,-11.36 23.54,-15.35c2.33,-0.86 8.14,-2.91 17.45,-6.14c9.3,-3.23 17.24,-6.08 23.81,-8.54c6.57,-2.46 13.63,-5.28 21.18,-8.44c-3.61,-6.62 -8,-11.13 -13.17,-13.55c-5.17,-2.42 -13.58,-2.49 -25.22,-0.23c-10.01,1.95 -17.12,4.31 -21.33,7.1c-4.21,2.78 -7.28,6.33 -9.21,10.64c-1.93,4.31 -3.37,7.18 -4.33,8.62c-0.96,1.44 -3.89,2.64 -8.8,3.59c-4.43,0.86 -8.68,0.69 -12.76,-0.52c-4.08,-1.21 -6.79,-3.24 -8.12,-6.1c-2.09,-4.47 -1.66,-9.3 1.28,-14.48c2.94,-5.18 8.97,-10.15 18.08,-14.9c9.12,-4.76 21.43,-8.64 36.92,-11.65c17.32,-3.37 31.56,-4.7 42.7,-3.98c11.15,0.71 20.1,3.53 26.85,8.45c6.76,4.92 12.34,12.1 16.74,21.55c2.78,5.96 5.12,11.03 7.02,15.21c1.89,4.17 3.98,8.82 6.26,13.93c2.23,4.78 5.79,9.53 10.66,14.24c4.87,4.71 7.66,7.81 8.36,9.3c1.22,2.61 0.43,5.36 -2.38,8.24c-2.8,2.88 -6.61,4.79 -11.42,5.73c-4.04,0.79 -8.61,0.34 -13.7,-1.35c-5.09,-1.69 -10.94,-4.43 -17.54,-8.23Zm-19.77,-36.31c-5.14,2.49 -12.86,5.57 -23.17,9.23c-10.31,3.67 -17.42,6.27 -21.32,7.8c-3.9,1.54 -7.29,3.72 -10.17,6.55c-2.88,2.83 -3.45,6.11 -1.71,9.84c1.8,3.85 5.59,6.69 11.37,8.51c5.78,1.82 12.33,2.02 19.65,0.6c7.8,-1.52 14.48,-4.02 20.04,-7.51c5.56,-3.49 9.07,-7.27 10.53,-11.35c1.76,-4.54 0.59,-11.23 -3.53,-20.05l-1.7,-3.63Z" style="fill-rule:nonzero;"/>
            <path d="M1767.2,202.38l4.4,-0.68l-5.74,-15.53c-1.54,-4.17 -2.57,-7.46 -3.11,-9.88c-0.53,-2.42 -0.33,-4.6 0.6,-6.55c0.91,-2.01 2.63,-3.79 5.15,-5.35c2.53,-1.56 5.6,-2.61 9.21,-3.17c5.08,-0.78 10.13,-0.26 15.15,1.57c3.34,1.22 5.82,2.96 7.43,5.21c1.61,2.25 3.22,5.56 4.82,9.91l6.51,17.61l14.67,-2.26c5.67,-0.87 10.32,-0.67 13.94,0.61c3.62,1.28 5.94,3.27 6.94,5.99c1.28,3.47 0.05,6.23 -3.69,8.27c-3.74,2.04 -9.57,3.67 -17.49,4.89l-7.48,1.15l17.56,47.53c1.49,4.04 2.86,7.11 4.11,9.22c1.24,2.11 3.07,3.7 5.48,4.76c2.41,1.06 5.76,1.26 10.06,0.6c2.35,-0.36 5.43,-1.12 9.24,-2.27c3.81,-1.15 6.84,-1.9 9.09,-2.25c3.23,-0.5 6.44,-0.11 9.65,1.17c3.21,1.27 5.27,3.14 6.18,5.6c1.54,4.17 -0.8,7.9 -7.03,11.19c-6.22,3.29 -15.94,5.96 -29.13,7.99c-12.51,1.93 -22.5,2.03 -29.96,0.31c-7.46,-1.72 -13.07,-4.83 -16.85,-9.31c-3.78,-4.49 -7.15,-10.74 -10.11,-18.76l-18.33,-49.61l-5.28,0.81c-5.77,0.89 -10.49,0.68 -14.18,-0.62c-3.68,-1.3 -6.03,-3.31 -7.03,-6.02c-1,-2.71 -0.24,-5.18 2.3,-7.41c2.54,-2.23 6.84,-3.8 12.9,-4.74Z" style="fill-rule:nonzero;"/>
            <path d="M2136.29,219.46c1.96,8.54 0.32,16.53 -4.93,23.99c-5.25,7.46 -13.99,13.74 -26.23,18.85c-12.24,5.11 -27.36,8.52 -45.35,10.25c-21.58,2.07 -39.98,1.14 -55.21,-2.78c-10.81,-2.84 -20.05,-7.12 -27.72,-12.84c-7.67,-5.73 -12.19,-11.58 -13.56,-17.55c-0.8,-3.47 0.39,-6.61 3.55,-9.44c3.16,-2.83 7.62,-4.52 13.39,-5.07c4.67,-0.45 8.85,0.14 12.52,1.75c3.67,1.62 7.09,4.21 10.25,7.78c3.82,4.23 7.69,7.69 11.61,10.4c3.92,2.71 9.04,4.76 15.36,6.16c6.32,1.4 14.25,1.64 23.79,0.72c13.12,-1.26 23.33,-4.25 30.63,-8.98c7.3,-4.73 10.27,-10.05 8.91,-15.96c-1.08,-4.69 -4.16,-8.28 -9.26,-10.77c-5.1,-2.5 -11.33,-4.18 -18.69,-5.05c-7.36,-0.87 -17.11,-1.61 -29.24,-2.22c-16.26,-0.87 -30.04,-2.39 -41.36,-4.55c-11.32,-2.16 -20.72,-5.69 -28.19,-10.58c-7.48,-4.89 -12.15,-11.42 -14.02,-19.57c-1.78,-7.77 -0.09,-14.98 5.09,-21.64c5.18,-6.66 13.61,-12.21 25.29,-16.64c11.68,-4.43 25.93,-7.45 42.73,-9.06c13.42,-1.29 25.28,-1.32 35.57,-0.11c10.29,1.21 19.07,3.29 26.35,6.23c7.28,2.94 12.86,6.23 16.75,9.86c3.88,3.63 6.25,7.31 7.11,11.03c0.78,3.4 -0.38,6.65 -3.48,9.73c-3.1,3.09 -7.44,4.89 -13,5.43c-5.07,0.49 -9.11,0.04 -12.12,-1.35c-3.01,-1.38 -6.49,-3.79 -10.42,-7.22c-5.2,-4.95 -10.93,-8.65 -17.18,-11.1c-6.25,-2.45 -15.55,-3.09 -27.87,-1.91c-11.43,1.09 -20.28,3.6 -26.55,7.51c-6.26,3.91 -8.87,8.15 -7.83,12.71c0.65,2.82 2.4,5.15 5.26,6.97c2.86,1.83 6.54,3.28 11.06,4.35c4.52,1.08 9.01,1.83 13.47,2.25c4.47,0.43 11.81,0.97 22.02,1.63c12.76,0.68 24.39,1.67 34.9,2.96c10.51,1.29 19.64,3.2 27.38,5.74c7.75,2.54 14.15,6.07 19.2,10.61c5.06,4.53 8.4,10.36 10.04,17.49Z" style="fill-rule:nonzero;"/>
            <path d="M2323.09,200.66c0.98,7.89 -0.02,15.27 -3,22.13c-2.98,6.86 -7.78,12.87 -14.4,18.03c-6.62,5.16 -14.78,9.28 -24.48,12.35c-9.7,3.07 -20.82,4.93 -33.34,5.58c-12.42,0.64 -23.76,-0.07 -34,-2.15c-10.24,-2.07 -19.29,-5.33 -27.15,-9.78c-7.86,-4.44 -14.08,-9.85 -18.65,-16.22c-4.57,-6.37 -7.35,-13.53 -8.34,-21.49c-1,-8.02 -0,-15.46 2.98,-22.32c2.98,-6.86 7.73,-12.83 14.26,-17.92c6.53,-5.09 14.69,-9.17 24.49,-12.25c9.8,-3.08 20.82,-4.93 33.04,-5.57c12.42,-0.64 23.86,0.07 34.3,2.13c10.44,2.06 19.57,5.3 27.37,9.72c7.81,4.41 14,9.82 18.58,16.22c4.58,6.4 7.36,13.58 8.35,21.54Zm-41.18,2.13c-1.34,-10.8 -6.07,-19.02 -14.18,-24.66c-8.11,-5.63 -18.38,-8.13 -30.8,-7.49c-8.02,0.41 -14.91,2.12 -20.69,5.12c-5.78,3 -10,7.21 -12.65,12.62c-2.66,5.41 -3.55,11.61 -2.68,18.59c0.86,6.92 3.24,12.89 7.14,17.89c3.9,5.01 9.05,8.73 15.45,11.16c6.4,2.44 13.71,3.44 21.93,3.02c12.42,-0.64 21.94,-4.18 28.56,-10.61c6.61,-6.43 9.26,-14.98 7.93,-25.65Z" style="fill-rule:nonzero;"/>
            <path d="M2357.03,238.17l-6.62,-115.17c-0.31,-5.32 1.3,-9.38 4.81,-12.19c3.51,-2.81 8.38,-4.29 14.61,-4.44c6.23,-0.15 11.33,1.08 15.3,3.68c3.97,2.6 6.11,6.59 6.42,11.97l6.62,115.17c0.31,5.38 -1.39,9.47 -5.1,12.25c-3.71,2.78 -8.63,4.25 -14.76,4.4c-6.03,0.14 -11,-1.13 -14.93,-3.83c-3.93,-2.7 -6.04,-6.64 -6.34,-11.83Z" style="fill-rule:nonzero;"/>
            <path d="M2545.22,237.5l0.02,-3.41c-4.95,4.01 -10.14,7.38 -15.58,10.09c-5.44,2.71 -11.38,4.73 -17.82,6.05c-6.44,1.32 -13.78,1.97 -22.02,1.95c-9.95,-0.02 -18.86,-1.37 -26.74,-4.05c-7.88,-2.68 -13.96,-6.36 -18.26,-11.04c-5.1,-5.66 -7.62,-13.77 -7.56,-24.35l0.27,-52.66c0.03,-5.32 1.91,-9.29 5.64,-11.91c3.73,-2.62 8.66,-3.92 14.8,-3.91c6.23,0.01 11.25,1.35 15.06,4.02c3.81,2.67 5.7,6.63 5.67,11.89l-0.22,42.54c-0.03,6.16 0.75,11.34 2.33,15.53c1.59,4.19 4.46,7.47 8.62,9.85c4.16,2.38 9.81,3.57 16.94,3.59c6.94,0.01 13.48,-1.3 19.62,-3.95c6.14,-2.65 10.64,-6.11 13.47,-10.39c2.33,-3.76 3.53,-12 3.59,-24.72l0.17,-32.32c0.03,-5.26 1.96,-9.21 5.79,-11.86c3.83,-2.65 8.82,-3.97 14.95,-3.96c6.13,0.01 11.05,1.34 14.76,3.97c3.71,2.64 5.54,6.61 5.52,11.94l-0.39,76.99c-0.03,5.06 -1.83,8.85 -5.41,11.38c-3.58,2.52 -8.19,3.78 -13.82,3.77c-5.63,-0.01 -10.27,-1.34 -13.93,-3.97c-3.66,-2.64 -5.47,-6.32 -5.45,-11.06Z" style="fill-rule:nonzero;"/>
            <path d="M2630.84,148.09l4.52,0.13l1.14,-15.95c0.31,-4.28 0.72,-7.63 1.25,-10.05c0.53,-2.42 1.65,-4.48 3.39,-6.18c1.74,-1.77 4.15,-3.17 7.24,-4.22c3.09,-1.04 6.5,-1.51 10.21,-1.4c5.22,0.16 9.85,1.56 13.89,4.21c2.69,1.77 4.33,3.88 4.91,6.33c0.58,2.45 0.71,5.92 0.39,10.39l-1.29,18.09l15.06,0.45c5.82,0.17 10.2,1.2 13.14,3.07c2.93,1.87 4.3,4.2 4.1,6.99c-0.26,3.57 -2.62,6 -7.09,7.29c-4.47,1.3 -10.77,1.82 -18.9,1.58l-7.68,-0.23l-3.49,48.81c-0.3,4.15 -0.3,7.35 -0.01,9.6c0.29,2.25 1.37,4.1 3.23,5.55c1.86,1.45 5,2.24 9.41,2.38c2.41,0.07 5.69,-0.11 9.85,-0.53c4.16,-0.43 7.39,-0.61 9.7,-0.54c3.31,0.1 6.24,1.05 8.78,2.84c2.54,1.8 3.72,3.96 3.54,6.49c-0.31,4.28 -4.15,7.44 -11.55,9.5c-7.39,2.05 -17.87,2.88 -31.42,2.47c-12.85,-0.38 -22.49,-2.07 -28.92,-5.05c-6.43,-2.98 -10.49,-6.97 -12.2,-11.96c-1.71,-4.99 -2.26,-11.6 -1.68,-19.83l3.64,-50.95l-5.42,-0.16c-5.92,-0.18 -10.38,-1.22 -13.36,-3.13c-2.98,-1.91 -4.37,-4.26 -4.18,-7.04c0.2,-2.79 1.99,-5.02 5.39,-6.71c3.39,-1.69 8.2,-2.44 14.42,-2.25Z" style="fill-rule:nonzero;"/>
            <path d="M2779.42,166.44l-8.68,76.6c-0.6,5.31 -3.01,9.23 -7.23,11.76c-4.22,2.53 -9.33,3.66 -15.35,3.37c-6.01,-0.28 -10.74,-1.91 -14.19,-4.87c-3.44,-2.96 -4.87,-7.03 -4.29,-12.21l8.59,-75.82c0.59,-5.24 2.92,-9.1 6.98,-11.58c4.06,-2.48 9.1,-3.57 15.11,-3.29c6.01,0.28 10.83,1.85 14.44,4.68c3.61,2.84 5.15,6.62 4.61,11.34Zm-17.2,-28.34c-5.71,-0.27 -10.47,-1.63 -14.28,-4.09c-3.8,-2.46 -5.47,-5.76 -5,-9.9c0.43,-3.75 2.86,-6.75 7.29,-8.98c4.44,-2.23 9.41,-3.22 14.92,-2.96c5.31,0.25 9.9,1.57 13.76,3.97c3.86,2.39 5.55,5.7 5.08,9.9c-0.46,4.08 -2.83,7.17 -7.1,9.28c-4.27,2.11 -9.16,3.03 -14.68,2.77Z" style="fill-rule:nonzero;"/>
            <path d="M2970.26,218.52c-1.4,7.86 -4.6,14.98 -9.58,21.33c-4.98,6.36 -11.49,11.65 -19.53,15.89c-8.04,4.24 -17.28,7.25 -27.72,9.06c-10.44,1.8 -21.9,2.24 -34.38,1.31c-12.38,-0.92 -23.29,-3.04 -32.71,-6.35c-9.42,-3.31 -17.33,-7.64 -23.71,-12.98c-6.38,-5.34 -10.86,-11.42 -13.44,-18.25c-2.58,-6.82 -3.16,-14.2 -1.74,-22.13c1.43,-7.99 4.63,-15.17 9.61,-21.53c4.98,-6.36 11.44,-11.63 19.37,-15.8c7.93,-4.18 17.17,-7.17 27.71,-8.96c10.54,-1.8 21.9,-2.24 34.08,-1.33c12.38,0.92 23.39,3.05 33.01,6.38c9.62,3.33 17.61,7.65 23.94,12.95c6.34,5.31 10.79,11.39 13.36,18.24c2.57,6.85 3.15,14.25 1.73,22.18Zm-41.04,-3.06c1.92,-10.77 -0.25,-19.42 -6.52,-25.96c-6.27,-6.54 -15.59,-10.27 -27.98,-11.19c-7.99,-0.59 -15.27,0.22 -21.84,2.44c-6.57,2.22 -11.97,5.82 -16.19,10.8c-4.23,4.98 -6.96,10.95 -8.21,17.91c-1.23,6.9 -0.69,13.05 1.64,18.44c2.32,5.4 6.26,9.69 11.81,12.88c5.55,3.19 12.42,5.09 20.61,5.7c12.38,0.92 22.78,-1.36 31.2,-6.84c8.42,-5.48 13.57,-13.54 15.47,-24.18Z" style="fill-rule:nonzero;"/>
            <path d="M3049.61,187.21l-0.87,3.16c8.8,-5.25 17.82,-8.81 27.07,-10.68c9.25,-1.87 19.36,-2.17 30.34,-0.91c10.69,1.23 19.82,3.83 27.4,7.8c7.58,3.97 12.69,8.94 15.33,14.92c1.79,3.5 2.57,7.15 2.34,10.95c-0.23,3.8 -1.14,8.57 -2.73,14.32l-13.45,48.68c-1.45,5.24 -4.4,8.99 -8.85,11.24c-4.45,2.26 -9.65,3.04 -15.58,2.36c-6.04,-0.69 -10.55,-2.63 -13.56,-5.81c-3,-3.18 -3.8,-7.33 -2.38,-12.44l12.04,-43.6c2.38,-8.62 2.35,-15.43 -0.1,-20.43c-2.45,-4.99 -9.21,-8.13 -20.3,-9.41c-7.22,-0.83 -14.19,-0.2 -20.89,1.9c-6.7,2.1 -12.11,5.41 -16.23,9.95c-3.06,3.67 -6.06,10.84 -9,21.51l-9.05,32.77c-1.46,5.3 -4.47,9.06 -9.01,11.27c-4.54,2.21 -9.83,2.97 -15.87,2.28c-5.84,-0.67 -10.26,-2.6 -13.26,-5.78c-3,-3.18 -3.8,-7.33 -2.38,-12.44l20.89,-75.61c1.38,-4.98 4.09,-8.51 8.13,-10.58c4.04,-2.07 8.98,-2.77 14.82,-2.1c3.56,0.41 6.63,1.32 9.2,2.74c2.57,1.42 4.42,3.31 5.55,5.68c1.13,2.37 1.27,5.12 0.4,8.25Z" style="fill-rule:nonzero;"/>
            <path d="M3307,282.83c-2.69,7.12 -7.68,12.8 -14.97,17.03c-7.29,4.23 -16.68,6.82 -28.16,7.79c-11.49,0.96 -24.75,0.26 -39.79,-2.11c-14.35,-2.26 -26.12,-5.62 -35.3,-10.07c-9.18,-4.45 -15.41,-9.19 -18.68,-14.22c-3.27,-5.02 -4.1,-9.68 -2.48,-13.97c1.07,-2.84 3.55,-5.02 7.44,-6.54c3.89,-1.52 8.22,-1.91 13.01,-1.16c4.2,0.66 7.17,1.83 8.92,3.51c1.75,1.68 3.19,3.88 4.34,6.59c2.36,5.25 5.97,9.46 10.82,12.63c4.85,3.17 12.21,5.53 22.08,7.09c8.01,1.26 15.01,1.15 21.01,-0.35c6,-1.49 9.55,-3.72 10.68,-6.68c1.72,-4.54 0.31,-8.27 -4.23,-11.19c-4.54,-2.92 -12.55,-6.29 -24.04,-10.1c-12.93,-4.38 -23.26,-8.46 -30.99,-12.25c-7.72,-3.79 -13.42,-8.08 -17.1,-12.86c-3.67,-4.79 -4.41,-10.08 -2.22,-15.88c1.95,-5.17 6.19,-9.68 12.72,-13.53c6.52,-3.85 14.97,-6.41 25.33,-7.68c10.36,-1.27 22.13,-0.87 35.32,1.21c10.35,1.63 19.39,3.79 27.12,6.48c7.73,2.69 13.91,5.63 18.54,8.83c4.64,3.2 7.86,6.45 9.67,9.74c1.81,3.29 2.2,6.29 1.17,9c-1.12,2.96 -3.58,5.15 -7.37,6.55c-3.79,1.41 -8.52,1.66 -14.18,0.77c-4.1,-0.65 -7.31,-1.95 -9.61,-3.92c-2.31,-1.97 -4.75,-4.76 -7.31,-8.37c-2.07,-3 -4.88,-5.58 -8.4,-7.74c-3.53,-2.16 -8.81,-3.79 -15.84,-4.9c-7.23,-1.14 -13.61,-1.09 -19.14,0.14c-5.54,1.23 -8.86,3.33 -9.98,6.29c-1.02,2.71 -0.11,5.21 2.75,7.5c2.86,2.29 7.05,4.47 12.58,6.54c5.53,2.07 13.21,4.75 23.03,8.04c11.66,3.91 20.91,7.84 27.75,11.79c6.84,3.95 11.58,8.09 14.24,12.41c2.66,4.33 3.09,8.85 1.31,13.58Z" style="fill-rule:nonzero;"/>
            <path d="M3597.52,332.06c-2.39,4.27 -6.61,8.51 -12.65,12.73c-6.05,4.21 -13.91,7.9 -23.58,11.06c-9.68,3.16 -20.79,4.97 -33.33,5.42c-12.55,0.45 -26.05,-1 -40.51,-4.38c-10.97,-2.56 -20.56,-5.56 -28.79,-8.99c-8.23,-3.44 -15.21,-7.43 -20.95,-11.98c-5.74,-4.55 -10.38,-9.86 -13.93,-15.93c-3.13,-5.49 -5.17,-11.3 -6.12,-17.42c-0.96,-6.12 -0.75,-12.37 0.63,-18.74c1.38,-6.37 3.92,-12.88 7.65,-19.54c6.05,-10.8 13.89,-19.91 23.54,-27.32c9.65,-7.41 20.71,-13.09 33.19,-17.05c12.47,-3.96 25.7,-6.1 39.67,-6.43c13.97,-0.33 27.86,1.12 41.66,4.34c16.83,3.93 30.6,9.59 41.31,16.98c10.72,7.4 17.79,15.1 21.21,23.11c3.43,8.01 3.55,14.85 0.37,20.53c-1.74,3.11 -4.98,5.46 -9.72,7.05c-4.74,1.59 -9.51,1.82 -14.33,0.69c-5.39,-1.26 -8.97,-3.02 -10.74,-5.3c-1.77,-2.28 -3.19,-5.81 -4.24,-10.61c-1.76,-7.93 -5.43,-14.41 -11,-19.44c-5.58,-5.03 -13.8,-8.81 -24.67,-11.34c-17.3,-4.04 -33.45,-3.01 -48.46,3.08c-15,6.09 -26.88,16.95 -35.62,32.57c-5.84,10.44 -8.43,19.65 -7.77,27.63c0.66,7.99 4.19,14.66 10.6,20.02c6.41,5.36 15.19,9.34 26.34,11.94c12.1,2.82 23.42,3.27 33.95,1.35c10.54,-1.92 20.03,-6.14 28.49,-12.66c3.78,-3.12 7.61,-5.49 11.51,-7.1c3.89,-1.61 8.77,-1.73 14.63,-0.36c5.01,1.17 8.68,3.3 11.01,6.4c2.33,3.1 2.55,6.32 0.67,9.68Z" style="fill-rule:nonzero;"/>
            <path d="M3704.11,399.53c-12.29,1.83 -23.46,2.61 -33.52,2.34c-10.06,-0.26 -20.34,-1.97 -30.82,-5.11c-9.57,-2.87 -17.1,-6.61 -22.59,-11.23c-5.49,-4.62 -8.69,-9.6 -9.61,-14.95c-0.91,-5.35 0.39,-10.47 3.9,-15.36c4.74,-6.59 12.02,-11.24 21.84,-13.95c9.82,-2.71 20.95,-3.16 33.4,-1.36c2.62,0.36 9.08,1.33 19.35,2.91c10.28,1.58 19.14,2.86 26.58,3.84c7.44,0.98 15.61,1.91 24.51,2.79c4.12,-6.49 5.49,-11.75 4.12,-15.78c-1.37,-4.02 -7.57,-7.69 -18.6,-11c-9.48,-2.84 -17.23,-4.13 -23.24,-3.86c-6.01,0.27 -11.96,1.6 -17.83,3.99c-5.87,2.39 -9.91,3.92 -12.11,4.58c-2.2,0.67 -5.62,0.3 -10.27,-1.09c-4.19,-1.26 -7.19,-3.21 -9,-5.86c-1.8,-2.65 -1.73,-5.33 0.21,-8.04c3.05,-4.24 8.34,-7.66 15.87,-10.27c7.53,-2.61 17.15,-3.73 28.86,-3.37c11.71,0.36 24.9,2.74 39.58,7.15c16.41,4.92 28.41,10.04 36,15.36c7.59,5.32 11.37,11.26 11.35,17.84c-0.02,6.58 -3.25,14.34 -9.69,23.28c-4.06,5.65 -7.54,10.44 -10.42,14.37c-2.88,3.93 -6.11,8.29 -9.67,13.09c-3.26,4.53 -5.5,9.6 -6.71,15.21c-1.21,5.61 -2.32,9.12 -3.34,10.54c-1.78,2.47 -5.2,4.18 -10.26,5.13c-5.06,0.95 -9.87,0.74 -14.43,-0.62c-3.83,-1.15 -6.78,-3.44 -8.84,-6.89c-2.07,-3.45 -3.61,-8 -4.62,-13.68Zm22.63,-35.61c-6.4,-0.35 -15.34,-1.36 -26.82,-3.05c-11.48,-1.69 -19.46,-2.79 -23.96,-3.32c-4.5,-0.53 -9.28,-0.35 -14.34,0.53c-5.06,0.88 -8.87,3.08 -11.41,6.61c-2.63,3.65 -2.72,7.4 -0.27,11.24c2.44,3.84 7.13,6.81 14.06,8.88c7.38,2.21 14.95,3.21 22.7,3c7.75,-0.22 14.27,-1.54 19.55,-3.96c6,-2.64 12,-8.13 18.02,-16.49l2.48,-3.44Z" style="fill-rule:nonzero;"/>
            <path d="M3863.58,364.54l-2.47,2.79c11.02,-3.03 21.37,-4.43 31.05,-4.18c9.68,0.25 19.36,2.16 29.05,5.73c9.42,3.48 16.67,7.91 21.74,13.3c5.07,5.39 7.29,11.18 6.67,17.37c-0.14,3.69 -1.31,7.29 -3.5,10.82c-2.2,3.53 -5.54,7.82 -10.03,12.89l-38.02,42.93c-4.09,4.62 -8.82,7.51 -14.19,8.67c-5.37,1.16 -10.67,0.77 -15.9,-1.16c-5.32,-1.96 -8.57,-4.77 -9.74,-8.42c-1.17,-3.65 0.24,-7.72 4.23,-12.23l34.05,-38.45c6.74,-7.61 10.25,-14.03 10.55,-19.26c0.3,-5.24 -4.44,-9.66 -14.22,-13.27c-6.37,-2.35 -13.26,-3.27 -20.66,-2.75c-7.41,0.52 -14.23,2.47 -20.46,5.85c-4.79,2.79 -11.35,8.89 -19.68,18.3l-25.6,28.9c-4.14,4.68 -8.93,7.56 -14.36,8.66c-5.43,1.1 -10.81,0.66 -16.13,-1.3c-5.15,-1.9 -8.31,-4.67 -9.48,-8.32c-1.17,-3.65 0.24,-7.72 4.23,-12.23l59.05,-66.67c3.89,-4.39 8.28,-7.13 13.17,-8.2c4.89,-1.07 9.91,-0.66 15.05,1.24c3.14,1.16 5.55,2.69 7.24,4.58c1.68,1.89 2.44,4.08 2.27,6.56c-0.17,2.48 -1.48,5.1 -3.92,7.86Z" style="fill-rule:nonzero;"/>
            <path d="M3995.41,506.89l101.84,-91.2c5.29,-4.74 10.93,-7.51 16.92,-8.33c5.99,-0.81 11.63,0.01 16.93,2.48c5.46,2.54 8.58,5.77 9.35,9.69c0.77,3.92 -1.52,8.27 -6.87,13.06l-101.84,91.2c-5.35,4.79 -11.04,7.58 -17.07,8.38c-6.03,0.79 -11.77,-0.08 -17.24,-2.62c-5.22,-2.43 -8.18,-5.63 -8.89,-9.6c-0.71,-3.97 1.58,-8.32 6.87,-13.06Z" style="fill-rule:nonzero;"/>
        </g>
    </g>
</svg>
