<?xml version="1.0" encoding="UTF-8" standalone="no"?>
<!DOCTYPE svg PUBLIC "-//W3C//DTD SVG 1.1//EN" "http://www.w3.org/Graphics/SVG/1.1/DTD/svg11.dtd">
<svg width="100%" height="100%" viewBox="0 0 5120 1593" version="1.1" xmlns="http://www.w3.org/2000/svg" xmlns:xlink="http://www.w3.org/1999/xlink" xml:space="preserve" xmlns:serif="http://www.serif.com/" style="fill-rule:evenodd;clip-rule:evenodd;stroke-linecap:round;stroke-linejoin:round;stroke-miterlimit:1.5;">
    <g id="Websites">
        <path id="W" d="M1068.76,743.403C1165.757,805.745 1018.522,641.597 1057.317,625.039C1089.814,611.169 1201.749,796.47 1138.624,835.175C1115.731,849.212 1087.355,784.662 1056.11,801.44C1018.625,821.567 1068.515,880.079 1044.361,893.827C987.982,925.918 871.627,732.416 901.158,716.181C936.104,696.968 1006.564,878.697 1002.056,793.071C999.02,735.416 1027.629,717.149 1073.769,746.436" style="fill:none;stroke:#000;stroke-width:15px;"/>
        <path id="E" d="M1319.015,559.138C1342.383,595.693 1245.075,615.381 1218.47,595.7C1215.192,593.275 1217.411,661.82 1249.446,663.931C1344.618,670.2 1316.259,600.811 1251.404,666.608C1236.861,681.363 1271.422,743.105 1276.242,732.939C1288.121,707.883 1349.09,641.412 1374.88,687.276C1394.869,722.824 1301.516,779.637 1262.184,732.033C1140.952,585.303 1283.787,496.093 1319.839,560.554" style="fill:none;stroke:#000;stroke-width:15px;"/>
        <path id="B" d="M1479.32,496.352C1617.372,547.018 1488.932,317.411 1458.442,564.96C1455.323,590.28 1604.14,520.586 1598.149,459.621C1590.981,386.686 1484.643,379.073 1446.903,452.406C1420.713,503.294 1460.717,653.255 1512.807,675.413C1576.28,702.413 1652.925,626.978 1619.194,572.037C1589.782,524.13 1450.057,572.372 1460.685,584.853C1602.5,751.385 1605.286,512.883 1512.906,624.044" style="fill:none;stroke:#000;stroke-width:15px;"/>
        <path id="S" d="M1883.354,484.438C1901.434,569.747 1686.748,599.572 1721.24,537.801C1747.76,490.306 1792.195,556.888 1817.655,512.233C1835.346,481.204 1661.899,475.925 1702.817,401.77C1745.085,325.167 1870.713,359.233 1855.867,398.95C1841.372,437.727 1791.874,379.761 1763.257,410.726C1722.379,454.957 1908.324,446.92 1888.715,511.154C1864.068,591.893 1735.472,586.019 1719.375,556.945" style="fill:none;stroke:#000;stroke-width:15px;"/>
        <path id="I" d="M1971.201,313.673C1951.079,277.665 1853.917,319.309 1860.718,343.84C1869.355,374.992 1909.393,285.435 1941.064,522.521C1941.963,529.252 1894.725,517.829 1899.337,550.83C1905.387,594.13 2022.013,560.982 2015.069,530.582C2005.848,490.214 1970.01,527.756 1962.156,508.864C1895.315,348.085 1980.882,324.129 1971.201,313.673C1953.508,294.563 1898.698,406.496 1965.013,512.766" style="fill:none;stroke:#000;stroke-width:15px;"/>
        <path id="T" d="M1995.914,327.751C2051.878,352.635 2168.996,329.369 2161.969,299.631C2155.786,273.47 1980.652,305.815 1987.336,330.965C1994.123,356.497 2065.303,341.574 2073.768,340.059C2078.889,339.142 2076.32,545.08 2123.075,533.569C2163.088,523.718 2088.091,353.628 2088.783,336.275C2088.851,334.581 2066.383,366.894 2102.098,490.003C2129.824,585.573 2135.024,483.352 2108.822,400.562" style="fill:none;stroke:#000;stroke-width:15px;"/>
        <path id="E1" serif:id="E" d="M2325.901,332.925C2336.031,375.113 2237.634,361.896 2218.929,334.596C2216.624,331.233 2196.305,396.735 2225.888,409.205C2313.777,446.253 2309.67,371.405 2226.863,412.376C2208.295,421.563 2220.764,491.213 2228.644,483.182C2248.064,463.389 2327.417,420.511 2336.791,472.287C2344.056,512.417 2237.257,535.578 2215.655,477.729C2149.073,299.421 2313.227,261.826 2326.217,334.533" style="fill:none;stroke:#000;stroke-width:15px;"/>
        <path id="C" d="M2645.681,395.897C2603.233,267.402 2736.318,337.792 2740.37,235.072C2742.672,176.714 2563.374,194.432 2560.044,350.858C2556.715,507.231 2745.152,524.363 2743.221,463.016C2740.798,386.022 2634.227,456.168 2635.847,352.84C2637.293,260.673 2727.92,302.389 2730.753,236.418C2732.284,200.778 2579.895,214.226 2572.519,351.184C2565.699,477.809 2730.233,506.109 2742.479,456.299" style="fill:none;stroke:#000;stroke-width:15px;"/>
        <path id="Period" d="M2773.082,350.057C2751.502,346.793 2752.772,380.386 2770.803,380.372C2793.037,380.354 2792.315,349.941 2770.803,349.937C2753.838,349.935 2755.645,376.228 2771.92,376.055C2791.432,375.847 2791.782,354.082 2772.092,353.931C2757.374,353.819 2758.565,372.286 2772.006,372.043C2790.215,371.714 2788.254,357.901 2772.436,358.249C2759.474,358.534 2756.944,369.779 2776.101,365.897" style="fill:none;stroke:#000;stroke-width:15px;"/>
        <path id="R" d="M2919.745,351.91C2972.244,270.302 2838.902,292.322 2884.334,362.304C2901.581,388.872 2955.449,378.127 2963.925,328.6C2974.329,267.804 2884.753,268.616 2878.798,271.693C2866.57,278.011 2780.619,494.245 2830.354,510.232C2872.066,523.64 2875.309,376.911 2875.207,382.958C2875.114,388.465 2910.734,522.775 2945.757,530.841C2990.248,541.088 2949.347,418.416 2899.989,374.668" style="fill:none;stroke:#000;stroke-width:15px;"/>
        <path id="E2" serif:id="E" d="M3166.306,382.047C3164.798,425.407 3073.508,386.386 3062.775,355.082C3061.452,351.225 3024.374,408.919 3049.551,428.839C3124.35,488.018 3140.385,414.793 3049.643,432.155C3029.296,436.048 3022.706,506.498 3032.445,500.864C3056.447,486.978 3144.371,466.855 3139.573,519.254C3135.855,559.866 3026.749,553.657 3021.386,492.139C3004.853,302.525 3173.085,310.146 3166.181,383.681" style="fill:none;stroke:#000;stroke-width:15px;"/>
        <path id="A" d="M3382.844,553.402C3394.232,451.316 3416.84,377.199 3354.368,353.595C3293.236,330.498 3152.219,545.33 3203.128,567.098C3258.552,590.796 3246.469,478.745 3300.031,498.153C3355.582,518.282 3283.052,596.652 3328.741,615.017C3387.34,638.572 3424.655,421.146 3341.23,388.547C3326.119,382.642 3261.343,449.337 3298.816,462.984C3333.636,475.665 3367.31,494.626 3341.23,388.547" style="fill:none;stroke:#000;stroke-width:15px;"/>
        <path id="T1" serif:id="T" d="M3451.656,414.457C3489.43,462.669 3603.792,497.009 3611.522,467.446C3618.322,441.438 3448.455,387.926 3442.573,413.275C3436.6,439.011 3506.473,459.19 3514.66,461.819C3519.613,463.409 3420.822,644.122 3467.519,655.868C3507.482,665.92 3520.953,480.519 3529.698,465.514C3530.551,464.05 3495.559,482.063 3469.409,607.551C3449.107,704.97 3501.611,617.108 3517.269,531.695" style="fill:none;stroke:#000;stroke-width:15px;"/>
        <path id="I1" serif:id="I" d="M3763.983,500.689C3762.626,458.304 3622.023,424.14 3614.793,448.244C3605.612,478.855 3708.582,435.659 3598.501,645.093C3595.375,651.039 3546.717,609.376 3531.633,638.669C3511.843,677.103 3670.139,731.431 3680.85,702.586C3695.074,664.281 3629.415,669.228 3631.894,648.858C3652.994,475.499 3768.908,515.647 3763.983,500.689C3754.983,473.351 3620.657,524.045 3632.84,653.918" style="fill:none;stroke:#000;stroke-width:15px;"/>
        <path id="O" d="M3866.732,582.642C3767.348,489.306 3632.908,716.018 3727.461,775.847C3844.057,849.625 3968.014,645.793 3855.293,574.277C3766.399,517.877 3648.022,712.522 3734.043,765.467C3837.17,828.941 3951.901,650.098 3849.344,583.657C3772.689,533.995 3668.971,712.335 3740.43,755.397C3837.24,813.738 3927.844,643.17 3843.481,592.903C3774.353,551.713 3660.787,729.356 3777.489,767.311" style="fill:none;stroke:#000;stroke-width:15px;"/>
        <path id="N" d="M4064.558,718.689C4010.2,621.981 3871.908,860.1 3904.614,883.873C3936.181,906.817 3987.356,755.089 4006.139,760.823C4024.192,766.333 3935.828,918.733 3974.184,941.113C4035.603,976.951 4163.505,789.567 4142.631,769.653C4098.807,727.846 4026.292,899.869 4010.666,888.143C3993.221,875.052 4102.329,726.263 4050.588,689.75C3982.348,641.593 3898.876,845.837 3900.242,871.682" style="fill:none;stroke:#000;stroke-width:15px;"/>
        <path id="Period1" serif:id="Period" d="M4146.017,884.318C4124.437,881.054 4125.707,914.647 4143.738,914.633C4165.972,914.615 4165.25,884.202 4143.738,884.198C4126.773,884.196 4128.58,910.489 4144.855,910.316C4164.367,910.108 4164.717,888.343 4145.027,888.192C4130.309,888.079 4131.5,906.546 4144.941,906.304C4163.15,905.975 4161.189,892.162 4145.371,892.51C4132.409,892.795 4129.879,904.04 4149.036,900.158" style="fill:none;stroke:#000;stroke-width:15px;"/>
        <path id="A1" serif:id="A" d="M1579.171,1034.195C1517.115,952.34 1482.458,883.034 1420.909,908.949C1360.68,934.308 1406.409,1187.187 1458.311,1167.905C1514.815,1146.912 1428.88,1073.998 1481.079,1051.178C1535.217,1027.511 1536.61,1134.283 1582.384,1116.13C1641.091,1092.847 1518.392,909.513 1435.457,943.337C1420.434,949.464 1419.408,1042.433 1455.976,1026.517C1489.954,1011.729 1527.427,1002.282 1435.457,943.337" style="fill:none;stroke:#000;stroke-width:15px;"/>
        <path id="Period2" serif:id="Period" d="M1608.292,970.663C1586.712,967.399 1587.982,1000.992 1606.013,1000.978C1628.247,1000.96 1627.525,970.547 1606.013,970.543C1589.048,970.541 1590.854,996.834 1607.13,996.661C1626.642,996.453 1626.992,974.688 1607.302,974.537C1592.584,974.425 1593.775,992.892 1607.216,992.649C1625.425,992.32 1623.464,978.507 1607.646,978.855C1594.683,979.14 1592.154,990.386 1611.311,986.503" style="fill:none;stroke:#000;stroke-width:15px;"/>
        <path id="N1" serif:id="N" d="M1682.819,846.456C1573.22,829.271 1674.601,1085.294 1713.518,1074.327C1751.079,1063.742 1663.609,929.619 1679.74,918.418C1695.244,907.652 1760.219,1071.397 1801.54,1055.131C1867.709,1029.085 1799.739,812.633 1771.177,816.697C1711.214,825.229 1801.411,988.676 1782.528,993.687C1761.448,999.282 1712.151,821.483 1651.444,839.51C1571.378,863.286 1680.096,1055.286 1701.238,1070.213" style="fill:none;stroke:#000;stroke-width:15px;"/>
        <path id="D" d="M1879.981,757.514C2157.565,693.317 2088.243,984.63 1944.551,1001.36C1924.564,1003.687 1841.972,757.932 1879.981,757.514C2189.977,754.108 2018.907,977.131 1944.092,985.388C1928.852,987.069 2211.162,797.491 1891.972,766.592C1885.529,765.969 2172.701,797.5 1944.092,985.388C1930.041,996.935 1877.9,770.939 1891.972,766.592C1898.109,764.697 2135.987,829.41 1941.869,974.533" style="fill:none;stroke:#000;stroke-width:15px;"/>
        <path id="Period3" serif:id="Period" d="M2104.776,816.864C2083.196,813.6 2084.467,847.193 2102.498,847.178C2124.732,847.161 2124.009,816.747 2102.498,816.744C2085.533,816.741 2087.339,843.035 2103.615,842.862C2123.127,842.654 2123.477,820.889 2103.787,820.738C2089.069,820.625 2090.26,839.092 2103.701,838.849C2121.91,838.52 2119.949,824.707 2104.13,825.056C2091.168,825.341 2088.639,836.586 2107.796,832.704" style="fill:none;stroke:#000;stroke-width:15px;"/>
        <path id="Period4" serif:id="Period" d="M2172.234,801.595C2150.654,798.331 2151.924,831.924 2169.955,831.909C2192.189,831.892 2191.467,801.478 2169.955,801.475C2152.99,801.472 2154.796,827.766 2171.072,827.593C2190.584,827.385 2190.934,805.62 2171.244,805.469C2156.526,805.356 2157.717,823.823 2171.158,823.58C2189.367,823.251 2187.406,809.438 2171.587,809.787C2158.625,810.072 2156.096,821.317 2175.253,817.435" style="fill:none;stroke:#000;stroke-width:15px;"/>
        <path id="H" d="M2307.141,666.205C2252.51,688.554 2270.34,932.965 2312.529,928.7C2352.993,924.609 2340.598,812.937 2373.165,812.083C2407.762,811.174 2405.849,930.669 2445.43,928.751C2491.048,926.541 2488.454,665.98 2426.042,664.282C2384.647,663.155 2421.929,781.113 2373.165,784.917C2322.442,788.873 2363.209,662.345 2314.92,664.247C2262.818,666.299 2295.783,931.028 2326.699,922.253" style="fill:none;stroke:#000;stroke-width:15px;"/>
        <path id="O1" serif:id="O" d="M2664.631,693.116C2543.058,654.836 2523.32,917.656 2627.104,928.254C2755.085,941.324 2775.417,703.635 2651.613,690.829C2553.977,680.729 2534.556,907.71 2628.366,916.029C2740.832,926.002 2763.676,714.753 2650.472,701.878C2565.858,692.254 2552.038,898.077 2629.591,904.168C2734.657,912.419 2740.671,719.449 2649.348,712.768C2574.517,707.294 2552.157,916.946 2665.539,898.039" style="fill:none;stroke:#000;stroke-width:15px;"/>
        <path id="S1" serif:id="S" d="M2966.979,895.396C2951.668,979.847 2756.61,928.86 2808.541,885.044C2848.47,851.355 2862.548,928.315 2900.541,896.831C2926.94,874.955 2779.968,806.95 2841.889,754.172C2905.856,699.651 3001.378,776.511 2974.281,807.354C2947.826,837.466 2926.287,766.527 2890.532,784.364C2839.459,809.844 3001.972,870.248 2961.926,921.733C2911.591,986.447 2803.332,934.24 2800.022,901.838" style="fill:none;stroke:#000;stroke-width:15px;"/>
        <path id="T2" serif:id="T" d="M3019.005,753.906C3057.766,801.328 3172.813,833.3 3179.931,803.584C3186.193,777.441 3015.257,727.448 3009.899,752.913C3004.46,778.766 3074.734,797.498 3082.974,799.958C3087.959,801.446 2992.92,984.16 3039.849,994.939C3080.011,1004.163 3089.652,818.524 3098.085,803.342C3098.908,801.86 3064.295,820.592 3040.741,946.594C3022.455,1044.41 3073.133,955.484 3087.024,869.765" style="fill:none;stroke:#000;stroke-width:15px;"/>
        <path id="I2" serif:id="I" d="M3302.26,849.15C3300.186,813.182 3193.742,799.061 3188.912,820.369C3182.779,847.428 3259.035,799.649 3181.576,989.823C3179.377,995.223 3141.797,964.912 3131.198,991.477C3117.292,1026.333 3237.525,1055.748 3244.852,1030.03C3254.58,995.878 3205.393,1007.091 3206.748,989.471C3218.28,839.518 3306.331,861.369 3302.26,849.15C3294.82,826.817 3195.202,884.327 3207.584,993.682" style="fill:none;stroke:#000;stroke-width:15px;"/>
        <path id="N2" serif:id="N" d="M3408.205,861.765C3335.034,778.379 3248.941,1039.939 3285.854,1056.439C3321.482,1072.363 3340.193,913.335 3359.755,915.062C3378.557,916.722 3323.599,1084.095 3365.752,1098.064C3433.253,1120.434 3519.664,910.662 3495.125,895.492C3443.607,863.645 3408.211,1046.941 3390.499,1038.698C3370.726,1029.495 3446.726,861.368 3388.556,836.338C3311.836,803.324 3272.379,1020.41 3279.058,1045.415" style="fill:none;stroke:#000;stroke-width:15px;"/>
        <path id="G" d="M3536.387,1072.103C3537.735,983.619 3631.5,978.21 3669.444,1040.008C3678.972,1055.526 3723.914,1042.561 3659.674,987.05C3575.538,914.347 3430.784,1048.043 3545.559,1155.141C3572.092,1179.899 3622.183,1180.624 3626.481,1168.369C3641.111,1126.66 3638.753,1102.615 3611.656,1098.589C3511.693,1083.74 3634.134,1136.822 3603.624,1146.757C3574.342,1156.291 3524.431,1125.567 3538.936,1047.706" style="fill:none;stroke:#000;stroke-width:15px;"/>
        <path id="Period5" serif:id="Period" d="M3702.162,1113.672C3680.582,1110.409 3681.853,1144.002 3699.884,1143.987C3722.118,1143.969 3721.395,1113.556 3699.884,1113.553C3682.919,1113.55 3684.725,1139.843 3701.001,1139.67C3720.513,1139.463 3720.863,1117.698 3701.173,1117.547C3686.455,1117.434 3687.646,1135.901 3701.087,1135.658C3719.296,1135.329 3717.335,1121.516 3701.516,1121.864C3688.554,1122.15 3686.025,1133.395 3705.182,1129.512" style="fill:none;stroke:#000;stroke-width:15px;"/>
    </g>
</svg>
