<?xml version="1.0" encoding="UTF-8" standalone="no"?>
<!DOCTYPE svg PUBLIC "-//W3C//DTD SVG 1.1//EN" "http://www.w3.org/Graphics/SVG/1.1/DTD/svg11.dtd">
<svg width="100%" height="100%" viewBox="0 0 5120 1593" version="1.1" xmlns="http://www.w3.org/2000/svg" xmlns:xlink="http://www.w3.org/1999/xlink" xml:space="preserve" xmlns:serif="http://www.serif.com/" style="fill-rule:evenodd;clip-rule:evenodd;stroke-linecap:round;stroke-linejoin:round;stroke-miterlimit:1.5;">
    <g id="Learn-More" serif:id="Learn More">
        <path d="M2554.226,1092.185C3145.918,1086.976 3349.605,1302.898 3309.966,1461.281C3250.424,1699.189 3005.825,1391.756 2565.214,1388.41C2163.972,1385.363 1922.756,1720.206 1813.138,1458.839C1754.745,1319.612 2023.176,1096.859 2554.226,1092.185Z" style="fill:#2f3552;stroke:#000;stroke-width:25px;"/>
        <g transform="matrix(1,0,0,1,0.303095,30.522593)">
            <g transform="matrix(0.934639,-0.355599,0.355599,0.934639,-343.761227,841.840132)">
                <text x="2118.136px" y="1356.037px" style="font-family:'ArialRoundedMTBold', 'Arial Rounded MT Bold', sans-serif;font-size:175px;fill:#fff;">L</text>
            </g>
            <g transform="matrix(0.95871,-0.284386,0.284386,0.95871,-283.971572,683.68485)">
                <text x="2212.455px" y="1319.77px" style="font-family:'ArialRoundedMTBold', 'Arial Rounded MT Bold', sans-serif;font-size:175px;fill:#fff;">e</text>
            </g>
            <g transform="matrix(0.97866,-0.205488,0.205488,0.97866,-216.124387,501.693962)">
                <text x="2307.357px" y="1291.384px" style="font-family:'ArialRoundedMTBold', 'Arial Rounded MT Bold', sans-serif;font-size:175px;fill:#fff;">a</text>
            </g>
            <g transform="matrix(0.991786,-0.127908,0.127908,0.991786,-142.835814,317.98652)">
                <text x="2404.43px" y="1271.115px" style="font-family:'ArialRoundedMTBold', 'Arial Rounded MT Bold', sans-serif;font-size:175px;fill:#fff;">r</text>
            </g>
            <g transform="matrix(0.998465,-0.05539,0.05539,0.998465,-66.043135,139.090224)">
                <text x="2476.144px" y="1260.953px" style="font-family:'ArialRoundedMTBold', 'Arial Rounded MT Bold', sans-serif;font-size:175px;fill:#fff;">n</text>
            </g>
            <g transform="matrix(0.995637,0.093314,-0.093314,0.995637,128.451101,-238.693762)">
                <text x="2616.598px" y="1254.191px" style="font-family:'ArialRoundedMTBold', 'Arial Rounded MT Bold', sans-serif;font-size:175px;fill:#fff;">M</text>
            </g>
            <g transform="matrix(0.979075,0.203498,-0.203498,0.979075,315.653503,-534.063613)">
                <text x="2754.785px" y="1267.877px" style="font-family:'ArialRoundedMTBold', 'Arial Rounded MT Bold', sans-serif;font-size:175px;fill:#fff;">o</text>
            </g>
            <g transform="matrix(0.958453,0.285251,-0.285251,0.958453,486.089255,-760.339521)">
                <text x="2853.179px" y="1288.504px" style="font-family:'ArialRoundedMTBold', 'Arial Rounded MT Bold', sans-serif;font-size:175px;fill:#fff;">r</text>
            </g>
            <g transform="matrix(0.936737,0.350035,-0.350035,0.936737,642.209586,-939.066188)">
                <text x="2919.023px" y="1307.134px" style="font-family:'ArialRoundedMTBold', 'Arial Rounded MT Bold', sans-serif;font-size:175px;fill:#fff;">e</text>
            </g>
        </g>
    </g>
    <g id="Copy-Font" serif:id="Copy Font">
        <g id="Automation">
            <path id="Period" d="M1103.575,770.323C1101.745,772.47 1099.845,776.085 1098.548,779.088C1097.155,782.313 1095.71,788.003 1095.71,790.914C1095.71,793.87 1096.035,798.982 1096.44,800.806C1096.767,802.275 1098.249,805.928 1099.547,808.252C1101.464,811.685 1102.425,813.037 1103.575,814.192C1105.478,816.106 1106.324,817.597 1108.348,818.733C1111.909,820.73 1118.882,824.387 1125.806,824.813C1133.044,825.259 1139.13,823.111 1142.468,821.976C1146.335,820.661 1150.497,816.292 1152.578,814.192C1154.266,812.489 1155.313,811.466 1156.702,808.984C1158.008,806.649 1159.262,803.872 1159.632,802.291C1160.361,799.17 1160.686,795.074 1160.686,791.491C1160.686,788.477 1160.474,784.977 1159.27,781.646C1157.743,777.417 1155.673,774.026 1152.578,770.323C1151.039,768.482 1144.91,764.107 1141.528,762.899C1138.433,761.794 1131.817,760.295 1128.145,760.269C1122.678,760.232 1118.159,760.795 1114.123,762.812C1110.219,764.763 1106.207,767.235 1103.575,770.323Z" style="stroke:#000;stroke-width:1px;"/>
            <path id="M" d="M1161.947,594.467C1137.637,606.379 1120.117,616.375 1136.402,649.609C1149.364,676.06 1237.658,857.214 1238.395,858.717C1250.428,883.273 1269.285,883.116 1280.615,877.564C1291.945,872.012 1304.511,857.559 1291.768,831.554C1277.275,801.979 1208.579,663.758 1209.237,663.436C1209.895,663.113 1312.095,787.277 1331.762,808.011C1347.541,824.646 1361.084,838.014 1384.691,826.446C1405.146,816.422 1408.186,801.714 1402.374,773.3C1396.231,743.269 1362.803,588.157 1363.47,587.83C1364.138,587.503 1435.261,734.63 1445.75,756.034C1458.824,782.715 1478.353,781.025 1490.579,775.034C1500.451,770.196 1512.417,757.006 1499.199,730.031C1488.078,707.336 1409.055,545.345 1395.988,518.68C1382.922,492.014 1367.699,494.018 1336.133,509.486C1304.567,524.954 1296.539,527.512 1304.261,567.041C1308.99,591.256 1336.99,728.079 1336.586,728.277C1336.182,728.475 1225.61,600.26 1225.341,599.899C1202.35,568.989 1180.782,585.238 1161.947,594.467Z" style="stroke:#000;stroke-width:1px;"/>
            <path id="a" d="M1516.214,620.579C1527.683,620.949 1539.048,616.644 1541.548,604.524C1549.251,567.173 1566.377,562.313 1581.909,556.916C1617.117,544.683 1620.014,555.809 1634.012,581.207C1634.294,581.719 1645.168,616.58 1645.32,616.993C1694.86,751.97 1459.241,704.068 1645.32,616.993C1645.382,616.964 1634.04,581.198 1634.012,581.207C1633.957,581.224 1569.883,619.911 1552.536,630.274C1517.103,651.442 1510.135,683.036 1522.519,713.364C1534.106,741.742 1575.063,753.875 1611.255,741.671C1653.065,727.571 1663.61,705.301 1674.378,691.716C1674.527,691.528 1688.441,704.101 1700.486,708.648C1712.725,713.268 1720.77,711.059 1730.651,700.361C1739.828,690.426 1737.197,678.404 1734.895,674.835C1720.136,651.946 1722.523,656.535 1713.686,639.235C1712.802,637.504 1688.604,562.271 1682.111,548.911C1659.845,503.091 1629.669,496.362 1575.982,514.431C1530.105,529.872 1500.662,552.198 1495.462,580.445C1490.996,604.708 1501.959,620.117 1516.214,620.579Z" style="stroke:#000;stroke-width:1px;"/>
            <path id="k" d="M1716.172,429.583C1721.754,451.582 1720.585,447.819 1727.614,475.518C1734.858,504.069 1754.646,582.899 1760.649,606.56C1766.745,630.582 1766.841,630.963 1774.616,661.603C1777.719,673.832 1787.175,694.256 1810.525,688.331C1837.225,681.556 1833.9,653.886 1832.231,647.305C1826.947,626.48 1821.283,604.732 1821.535,604.307C1821.788,603.882 1840.862,572.959 1841.287,573.212C1841.712,573.465 1914.906,643.914 1915.835,644.964C1930.995,662.089 1952.136,653.831 1959.983,644.635C1966.028,637.549 1970.323,621.465 1958.437,607.847C1939.265,585.882 1871.13,524.752 1870.942,524.012C1870.754,523.271 1896.36,483.949 1897.877,481.578C1913.241,457.564 1903.21,442.632 1893.259,437.605C1880.31,431.064 1861.424,437.925 1855.366,450.339C1854.879,451.336 1804.676,538.588 1804.376,538.664C1804.076,538.74 1780.379,442.091 1773.6,415.374C1771.024,405.222 1762.451,380.39 1736.069,386.296C1707.922,392.597 1714.014,421.079 1716.172,429.583Z" style="stroke:#000;stroke-width:1px;"/>
            <path id="i" d="M1973.669,404.549C1973.674,404.548 1978.667,425.53 1978.651,425.534C1962.81,429.64 1951.81,443.813 1957.434,465.093C1957.534,465.471 1956.52,461.779 1963.821,492.535C1966.735,504.811 1971.732,525.58 1973.737,533.263C1975.802,541.177 1984.12,577.896 1985.555,584.158C1985.713,584.849 1994.738,622.731 1994.967,623.528C1998.364,635.404 2009.21,653.648 2031.59,648.548C2052.673,643.743 2056.079,623.598 2052.943,609.12C2052.7,607.997 2044.883,574.906 2044.726,574.539C2044.651,574.364 2035.707,537.099 2035.636,536.561C2035.54,535.832 2022.272,479.582 2022.097,479.057C2021.764,478.052 2014.506,447.532 2014.459,447.399C2007.763,428.388 1993.641,422.809 1978.651,425.534C1978.642,425.536 1973.583,404.567 1973.669,404.549C1988.899,401.412 1999.754,387.839 1996.13,369.781C1993.589,357.122 1982.128,343.354 1961.634,347.468C1937.484,352.317 1936.144,375.085 1937.971,382.756C1941.298,396.723 1952.75,409.3 1973.669,404.549Z" style="stroke:#000;stroke-width:1px;"/>
            <path id="n" d="M2092.35,396.595C2080.479,398.278 2066.223,405.669 2069.794,434.022C2073.476,463.247 2081.208,521.536 2083.853,545.802C2086.538,570.443 2087.128,572.377 2090.385,595.438C2093.912,620.419 2112.832,625.534 2125.696,623.36C2140.033,620.937 2153.04,606.718 2148.989,585.387C2148.939,585.126 2137.648,508.974 2137.772,489.246C2137.983,455.552 2152.043,437.206 2177.226,433.37C2198.73,430.094 2211.377,438.352 2218.196,476.44C2223.597,506.613 2231.106,577.071 2231.122,577.263C2232.561,594.396 2248.971,607.644 2262.015,606.169C2286.555,603.395 2291.819,583.568 2290.117,570.06C2290.087,569.821 2286.669,544.972 2286.21,540.191C2285.24,530.079 2286.53,544.676 2283.202,515.168C2281.972,504.266 2276.598,462.354 2276.517,461.875C2276.428,461.355 2273.53,441.049 2271.59,435.297C2255.424,387.367 2217.343,380.234 2190.055,384.114C2145.863,390.395 2132.688,416.638 2125.591,425.395C2125.413,425.615 2121.965,392.395 2092.35,396.595Z" style="stroke:#000;stroke-width:1px;"/>
            <path id="Period1" serif:id="Period" d="M2281.924,462.075C2280.094,464.223 2278.194,467.838 2276.897,470.84C2275.504,474.065 2274.059,479.755 2274.059,482.666C2274.059,485.622 2274.383,490.734 2274.789,492.558C2275.115,494.027 2276.598,497.68 2277.896,500.005C2279.813,503.437 2280.774,504.789 2281.924,505.944C2283.827,507.858 2284.673,509.35 2286.696,510.485C2290.258,512.483 2297.23,516.139 2304.155,516.565C2311.392,517.011 2317.479,514.863 2320.817,513.728C2324.683,512.413 2328.845,508.044 2330.927,505.944C2332.615,504.241 2333.662,503.219 2335.05,500.737C2336.357,498.401 2337.611,495.624 2337.98,494.043C2338.71,490.922 2339.034,486.826 2339.034,483.243C2339.034,480.229 2338.822,476.729 2337.619,473.398C2336.091,469.169 2334.022,465.778 2330.927,462.075C2329.388,460.234 2323.259,455.86 2319.877,454.652C2316.782,453.546 2310.166,452.047 2306.494,452.022C2301.027,451.984 2296.507,452.547 2292.472,454.564C2288.567,456.516 2284.555,458.987 2281.924,462.075Z" style="stroke:#000;stroke-width:1px;"/>
            <path id="g" d="M2335.004,408.432C2314.966,442.328 2320.943,523.748 2347.319,550.205C2418.75,621.855 2482.998,550.746 2483.003,551.004C2484.397,627.616 2459.373,623.703 2434.069,627.187C2376.409,635.128 2383.902,571.961 2341.138,591.651C2318.845,601.916 2332.29,635.519 2349.632,647.11C2363.745,656.544 2393.557,672.409 2451.331,669.152C2532.682,664.567 2542.521,603.305 2542.263,567.363C2542.181,555.905 2540.892,427.489 2541.989,398.908C2542.026,397.96 2474.947,428.512 2475.02,428.645C2489.519,455.025 2486.225,498.997 2472.006,518.128C2463.365,529.755 2429.18,552.175 2396.69,521.971C2373.539,500.448 2374.527,425.414 2411.147,408.785C2426.284,401.911 2453.645,398.965 2475.02,428.645C2475.205,428.901 2541.997,399.223 2541.989,398.908C2541.837,392.797 2545.572,358.278 2512.939,359.37C2483.585,360.352 2486.639,392.825 2486.536,392.727C2469.543,376.629 2454.13,360.805 2420.304,359.136C2358.429,356.083 2338.423,402.649 2335.004,408.432Z" style="stroke:#000;stroke-width:1px;"/>
            <path id="Period2" serif:id="Period" d="M2587.46,442.647C2585.63,444.794 2583.731,448.409 2582.433,451.412C2581.04,454.637 2579.596,460.327 2579.596,463.238C2579.596,466.194 2579.92,471.306 2580.325,473.13C2580.652,474.599 2582.135,478.252 2583.433,480.576C2585.349,484.009 2586.311,485.36 2587.46,486.516C2589.364,488.43 2590.21,489.921 2592.233,491.056C2595.795,493.054 2602.767,496.71 2609.692,497.137C2616.929,497.583 2623.016,495.434 2626.354,494.299C2630.22,492.985 2634.382,488.615 2636.463,486.516C2638.152,484.813 2639.198,483.79 2640.587,481.308C2641.893,478.972 2643.147,476.196 2643.517,474.615C2644.247,471.493 2644.571,467.397 2644.571,463.815C2644.571,460.801 2644.359,457.3 2643.156,453.97C2641.628,449.741 2639.558,446.35 2636.463,442.647C2634.924,440.805 2628.796,436.431 2625.414,435.223C2622.319,434.118 2615.702,432.619 2612.03,432.593C2606.563,432.555 2602.044,433.119 2598.009,435.136C2594.104,437.087 2590.092,439.558 2587.46,442.647Z" style="stroke:#000;stroke-width:1px;"/>
            <path id="M1" serif:id="M" d="M2760.838,276.673C2733.93,273.697 2713.782,272.742 2709.713,309.528C2706.475,338.804 2683.897,539.062 2683.713,540.726C2680.707,567.906 2696.71,577.882 2709.251,579.269C2721.791,580.656 2740.147,575.192 2743.33,546.408C2746.951,513.672 2763.058,360.164 2763.786,360.245C2764.514,360.325 2784.226,519.928 2789.713,547.973C2794.116,570.476 2798.382,589.02 2824.512,591.91C2847.153,594.414 2857.604,583.628 2867.929,556.526C2878.843,527.881 2933.776,379.021 2934.515,379.102C2935.254,379.184 2916.422,541.512 2913.802,565.203C2910.535,594.736 2927.927,603.777 2941.459,605.274C2952.387,606.482 2969.559,601.763 2972.862,571.905C2975.64,546.785 2995.772,367.675 2999.036,338.16C3002.3,308.645 2988.376,302.177 2953.437,298.312C2918.498,294.448 2910.349,292.304 2895.677,329.812C2886.688,352.789 2836.976,483.3 2836.529,483.251C2836.082,483.202 2811.474,315.691 2811.441,315.242C2808.602,276.824 2781.685,278.978 2760.838,276.673Z" style="stroke:#000;stroke-width:1px;"/>
            <path id="e" d="M3035.983,458.007C3030.304,467.632 3020.228,496.847 3018.626,516.081C3017.182,533.412 3021.777,563.052 3029.993,582.187C3035.972,596.113 3067.586,630.308 3112.257,638.441C3166.319,648.284 3183.284,636.748 3202.498,626.865C3218.91,618.424 3242.242,591.649 3223.165,572.621C3192.817,542.351 3166.481,601.286 3123.32,589.729C3079.91,578.104 3086.975,533.815 3087.307,533.876C3109.709,538.002 3175.104,551.612 3203.082,554.217C3231.206,556.835 3240.619,538.573 3244.722,522.926C3244.821,522.546 3187.123,511.862 3186.832,511.484C3186.411,510.936 3088.973,494.57 3089.016,494.338C3094.742,463.25 3118.07,443.653 3147.683,448.694C3171.605,452.766 3189.418,474.029 3186.832,511.484C3186.825,511.578 3244.706,523.002 3244.722,522.926C3247.21,510.561 3249.298,483.813 3232.969,454.356C3221.006,432.778 3189.222,409.885 3162.155,404.683C3121.854,396.937 3095.062,405.167 3080.32,413.169C3043.845,432.969 3038.965,452.954 3035.983,458.007Z" style="stroke:#000;stroke-width:1px;"/>
            <path id="n1" serif:id="n" d="M3332.228,441.802C3320.723,438.428 3304.686,439.265 3296.218,466.558C3287.489,494.691 3270.434,550.962 3262.811,574.152C3255.07,597.7 3254.808,599.704 3248.241,622.048C3241.126,646.253 3256.239,658.732 3268.851,662.07C3282.908,665.79 3300.629,658.22 3305.758,637.122C3305.82,636.864 3327.019,562.856 3335.287,544.944C3349.407,514.35 3369.794,503.457 3394.31,510.374C3415.245,516.281 3423.348,529.028 3413.811,566.528C3406.257,596.235 3383.968,663.496 3383.903,663.677C3378.131,679.872 3387.597,698.719 3400.084,702.768C3423.576,710.386 3436.565,694.509 3440.599,681.505C3440.671,681.275 3447.83,657.236 3449.389,652.693C3452.686,643.084 3447.827,656.909 3456.994,628.664C3460.381,618.229 3472.813,577.845 3472.937,577.374C3473.071,576.865 3478.826,557.177 3479.437,551.137C3484.531,500.811 3452.804,478.575 3426.353,470.826C3383.517,458.279 3360.672,476.728 3350.59,481.768C3350.337,481.894 3360.929,450.221 3332.228,441.802Z" style="stroke:#000;stroke-width:1px;"/>
            <path id="i1" serif:id="i" d="M3586.701,494.856C3586.706,494.858 3578.969,514.99 3578.953,514.984C3563.564,509.42 3546.48,514.899 3539.096,535.633C3538.965,536.002 3540.214,532.383 3528.859,561.883C3524.327,573.658 3516.714,593.618 3514.027,601.089C3511.259,608.786 3497.373,643.782 3495.018,649.758C3494.758,650.418 3480.799,686.772 3480.537,687.559C3476.63,699.277 3475.269,720.458 3496.615,728.896C3516.725,736.845 3530.918,722.149 3536.512,708.431C3536.946,707.368 3549.195,675.648 3549.273,675.257C3549.31,675.07 3562.988,639.271 3563.233,638.787C3563.565,638.132 3584.403,584.224 3584.556,583.693C3584.848,582.675 3596.106,553.393 3596.142,553.258C3601.36,533.789 3592.861,521.206 3578.953,514.984C3578.945,514.981 3586.62,494.822 3586.701,494.856C3601.039,500.873 3617.665,495.808 3624.879,478.861C3629.935,466.982 3628.259,449.146 3609.026,440.961C3586.361,431.315 3572.39,449.342 3569.563,456.704C3564.416,470.107 3566.757,486.954 3586.701,494.856Z" style="stroke:#000;stroke-width:1px;"/>
            <path id="a1" serif:id="a" d="M3652.533,619.252C3660.549,627.463 3671.728,632.228 3681.926,625.216C3713.35,603.607 3729.07,611.963 3744.012,618.827C3777.882,634.386 3772.266,644.418 3764.774,672.433C3764.623,672.998 3748.323,705.676 3748.147,706.079C3690.403,837.755 3553.613,640.02 3748.147,706.079C3748.212,706.101 3764.8,672.446 3764.774,672.433C3764.722,672.408 3691.709,655.939 3672.018,651.401C3631.799,642.13 3604.892,660.096 3592.821,690.55C3581.526,719.045 3602.667,756.163 3637.227,772.424C3677.152,791.209 3700.181,782.448 3717.357,780.106C3717.595,780.073 3718.925,798.779 3724.465,810.402C3730.093,822.21 3737.426,826.189 3751.963,825.315C3765.464,824.504 3771.892,814.009 3772.704,809.84C3777.909,783.108 3776.452,788.071 3782.059,769.472C3782.62,767.611 3817.269,696.582 3821.838,682.449C3837.509,633.975 3820.402,608.222 3769.16,584.075C3725.373,563.441 3688.672,559.154 3665.358,575.929C3645.333,590.339 3642.569,609.046 3652.533,619.252Z" style="stroke:#000;stroke-width:1px;"/>
            <path id="l" d="M3938.208,617.071C3937.498,618.119 3924.53,639.19 3924.164,639.931C3923.86,640.545 3890.791,693.703 3890.314,694.624C3889.989,695.249 3859.711,744.077 3859.428,744.423C3859.06,744.875 3839.81,776.29 3839.559,776.756C3839.271,777.292 3823.347,802.426 3823.087,802.8C3822.809,803.2 3811.652,821.736 3810.876,823.588C3806.416,834.244 3802.054,852.054 3820.63,863.702C3836.314,873.535 3852.043,867.564 3862.944,852.2C3864.962,849.355 3867.313,845.114 3867.818,844.317C3868.176,843.751 3878.27,827.435 3878.729,826.671C3879.062,826.118 3912.282,772.203 3912.889,770.985C3913.389,769.982 3945.37,719.235 3945.82,718.322C3946.246,717.46 3974.048,672.177 3974.448,671.653C3974.636,671.408 3989.864,646.929 3989.67,647.222C3989.452,647.549 3995.06,638.167 3996.869,633.742C3999.534,627.221 4001.51,608.958 3984.602,598.524C3970.653,589.916 3955.441,594.114 3947.413,603.785C3943.506,608.49 3938.768,616.243 3938.208,617.071Z" style="stroke:#000;stroke-width:1px;"/>
            <path id="Period3" serif:id="Period" d="M3974.011,774.253C3972.181,776.4 3970.281,780.015 3968.984,783.018C3967.591,786.243 3966.146,791.933 3966.146,794.844C3966.146,797.8 3966.47,802.911 3966.876,804.736C3967.202,806.205 3968.685,809.857 3969.983,812.182C3971.9,815.614 3972.861,816.966 3974.011,818.122C3975.914,820.035 3976.76,821.527 3978.784,822.662C3982.345,824.66 3989.317,828.316 3996.242,828.743C4003.479,829.189 4009.566,827.04 4012.904,825.905C4016.77,824.59 4020.932,820.221 4023.014,818.122C4024.702,816.419 4025.749,815.396 4027.137,812.914C4028.444,810.578 4029.698,807.802 4030.068,806.22C4030.797,803.099 4031.122,799.003 4031.122,795.421C4031.122,792.406 4030.909,788.906 4029.706,785.575C4028.178,781.347 4026.109,777.956 4023.014,774.253C4021.475,772.411 4015.346,768.037 4011.964,766.829C4008.869,765.723 4002.253,764.224 3998.581,764.199C3993.114,764.161 3988.595,764.725 3984.559,766.741C3980.654,768.693 3976.642,771.164 3974.011,774.253Z" style="stroke:#000;stroke-width:1px;"/>
            <path id="T" d="M1253.534,1081.875C1258.302,1091.394 1268.883,1105.432 1297.842,1090.925C1324.178,1077.732 1351.513,1063.676 1351.851,1064.349C1362.951,1086.508 1380.658,1121.798 1381.111,1122.701C1381.563,1123.604 1405.923,1171.772 1407.947,1175.812C1409.971,1179.853 1431.248,1222.918 1431.997,1224.415C1432.747,1225.911 1447.057,1254.214 1447.807,1255.711C1459.145,1278.344 1476.295,1283.762 1493.474,1275.156C1508.306,1267.726 1517.192,1250.764 1504.607,1225.641C1503.729,1223.888 1490.639,1197.67 1489.761,1195.917C1488.883,1194.164 1469.31,1155.251 1468.431,1153.498C1467.553,1151.744 1435.407,1088.155 1434.529,1086.402C1433.65,1084.648 1410.553,1037.213 1409.674,1035.459C1409.248,1034.607 1439.303,1020.495 1465.853,1007.195C1484.928,997.639 1490.681,982.406 1483.185,967.442C1475.688,952.477 1461.28,948.878 1440.784,959.146C1418.725,970.196 1381.244,989.582 1356.505,1001.736C1319.672,1019.832 1308.623,1026.672 1277.879,1040.876C1244.121,1056.473 1249.236,1073.295 1253.534,1081.875Z" style="stroke:#000;stroke-width:1px;"/>
            <path id="a2" serif:id="a" d="M1561.022,1092.616C1572.446,1091.542 1583.179,1085.841 1584.134,1073.502C1587.077,1035.479 1603.456,1028.503 1618.186,1021.195C1651.574,1004.63 1655.849,1015.303 1672.93,1038.738C1673.275,1039.21 1688.448,1072.426 1688.65,1072.817C1754.778,1200.489 1515.005,1182.61 1688.65,1072.817C1688.708,1072.781 1672.957,1038.725 1672.93,1038.738C1672.878,1038.762 1614.18,1085.203 1598.274,1097.666C1565.786,1123.122 1562.849,1155.342 1578.949,1183.871C1594.015,1210.566 1636.173,1217.451 1670.542,1200.79C1710.246,1181.542 1717.905,1158.123 1726.878,1143.291C1727.002,1143.085 1742.387,1153.808 1754.91,1156.803C1767.632,1159.847 1775.335,1156.644 1783.792,1144.788C1791.646,1133.777 1787.523,1122.181 1784.791,1118.93C1767.27,1098.08 1770.215,1102.332 1759.271,1086.282C1758.176,1084.676 1724.706,1013.085 1716.585,1000.647C1688.73,957.993 1657.948,955.114 1606.961,979.793C1563.391,1000.883 1536.99,1026.736 1535.386,1055.412C1534.008,1080.045 1546.821,1093.952 1561.022,1092.616Z" style="stroke:#000;stroke-width:1px;"/>
            <path id="s" d="M1794.975,1023.539C1835.287,1042.191 1871.677,1028.389 1897.423,1032.554C1930.749,1037.944 1924.125,1050.071 1917.085,1058.605C1898.756,1080.826 1864.847,1077.128 1853.43,1069.06C1837.252,1057.629 1824.765,1040.24 1803.648,1055.101C1790.511,1064.346 1790.369,1082.027 1794.75,1093.174C1797.703,1100.687 1802.637,1112.675 1823.499,1121.895C1846.129,1131.897 1881.832,1129.618 1908.883,1121.184C1923.219,1116.714 1958.96,1102.616 1977.285,1075.198C1991.71,1053.616 1988.298,1036.531 1982.116,1017.547C1979.613,1009.862 1973.735,996.425 1959.279,984.973C1941.105,970.576 1909.227,972.71 1881.668,973.252C1860.219,973.675 1828.824,980.101 1824.992,963.32C1821.992,950.184 1841.315,942.893 1848.666,941.396C1855.674,939.968 1871.686,936.332 1885.401,948.318C1893.996,955.83 1917.022,967.631 1938.192,947.608C1958.654,928.254 1924.23,867.682 1837.101,893.011C1773.204,911.587 1760.274,950.935 1761.989,967.462C1763.933,986.208 1771.072,1012.478 1794.975,1023.539Z" style="stroke:#000;stroke-width:1px;"/>
            <path id="Period4" serif:id="Period" d="M1962.814,953.157C1960.984,955.304 1959.085,958.919 1957.787,961.922C1956.394,965.147 1954.95,970.837 1954.95,973.748C1954.95,976.704 1955.274,981.816 1955.679,983.64C1956.006,985.109 1957.489,988.762 1958.787,991.086C1960.703,994.519 1961.665,995.87 1962.814,997.026C1964.718,998.939 1965.564,1000.431 1967.587,1001.566C1971.148,1003.564 1978.121,1007.22 1985.045,1007.647C1992.283,1008.093 1998.37,1005.944 2001.708,1004.809C2005.574,1003.495 2009.736,999.125 2011.817,997.026C2013.506,995.323 2014.552,994.3 2015.941,991.818C2017.247,989.482 2018.501,986.706 2018.871,985.125C2019.601,982.003 2019.925,977.907 2019.925,974.325C2019.925,971.311 2019.713,967.81 2018.509,964.479C2016.982,960.251 2014.912,956.86 2011.817,953.157C2010.278,951.315 2004.15,946.941 2000.768,945.733C1997.673,944.627 1991.056,943.128 1987.384,943.103C1981.917,943.065 1977.398,943.629 1973.363,945.645C1969.458,947.597 1965.446,950.068 1962.814,953.157Z" style="stroke:#000;stroke-width:1px;"/>
            <path id="k1" serif:id="k" d="M1979.017,811.591C1983.795,833.778 1982.764,829.975 1988.779,857.912C1994.979,886.708 2011.885,966.206 2017.023,990.069C2022.24,1014.298 2022.322,1014.682 2028.976,1045.584C2031.632,1057.919 2040.339,1078.673 2063.888,1073.602C2090.817,1067.804 2088.502,1040.031 2087.073,1033.394C2082.551,1012.39 2077.682,990.45 2077.95,990.035C2078.218,989.62 2098.405,959.411 2098.821,959.679C2099.236,959.948 2169.817,1033.015 2170.707,1034.097C2185.234,1051.763 2206.661,1044.28 2214.838,1035.376C2221.137,1028.515 2226.015,1012.598 2214.632,998.556C2196.272,975.907 2130.408,912.338 2130.247,911.591C2130.087,910.844 2157.106,872.481 2158.709,870.166C2174.937,846.727 2165.456,831.44 2155.695,826.054C2142.992,819.046 2123.869,825.215 2117.363,837.4C2116.84,838.379 2063.495,923.745 2063.192,923.81C2062.889,923.876 2042.726,826.428 2036.924,799.482C2034.72,789.243 2027.057,764.115 2000.477,769.056C1972.119,774.329 1977.17,803.013 1979.017,811.591Z" style="stroke:#000;stroke-width:1px;"/>
            <path id="s1" serif:id="s" d="M2242.061,914.139C2276.977,941.595 2315.57,936.568 2339.659,946.565C2370.839,959.506 2361.594,969.775 2352.774,976.453C2329.81,993.841 2297.671,982.414 2288.425,971.927C2275.324,957.069 2267.19,937.268 2243.212,946.85C2228.295,952.812 2224.075,969.982 2225.763,981.84C2226.901,989.832 2228.934,1002.635 2247.103,1016.423C2266.812,1031.38 2302.077,1037.407 2330.344,1035.447C2345.325,1034.408 2383.355,1028.944 2407.516,1006.498C2426.534,988.829 2427.16,971.419 2425.528,951.521C2424.868,943.465 2422.251,929.034 2410.83,914.554C2396.472,896.349 2364.962,891.065 2338.023,885.229C2317.056,880.687 2285.025,879.69 2285.171,862.478C2285.286,849.005 2305.77,846.372 2313.269,846.613C2320.417,846.842 2336.836,847.002 2347.412,861.831C2354.04,871.124 2373.719,887.923 2398.94,873.329C2423.319,859.223 2403.811,792.339 2313.188,796.865C2246.729,800.185 2225.063,835.484 2222.914,851.961C2220.478,870.649 2221.358,897.858 2242.061,914.139Z" style="stroke:#000;stroke-width:1px;"/>
            <path id="S" d="M2583.17,828.006C2615.485,865.514 2670.893,870.28 2698.399,885.411C2743.802,910.388 2724.58,945.778 2697.377,955.745C2664.76,967.695 2623.984,956.26 2613.156,926.562C2604.08,901.669 2600.588,876.574 2570.526,883.423C2549.361,888.245 2546.157,910.872 2549.965,926.235C2552.711,937.313 2553.818,948.144 2572.327,969.918C2592.405,993.536 2627.644,1005.386 2661,1008.205C2678.679,1009.699 2723.891,1010.553 2756.448,985.41C2782.076,965.617 2784.746,944.593 2788.906,924.309C2791.08,913.708 2789.464,893.852 2778.962,872.455C2765.759,845.553 2721.262,829.565 2690.298,818.779C2666.384,810.448 2623.602,799.593 2626.815,771.534C2628.871,753.58 2649.833,741.305 2685.363,744.646C2703.266,746.33 2719.189,754.859 2729.26,780.775C2731.219,785.816 2740.266,819.992 2772.53,805.467C2803.716,791.428 2794.582,708.991 2687.985,697.624C2609.811,689.288 2576.399,728.527 2569.312,757.331C2563.293,781.795 2565.038,806.961 2583.17,828.006Z" style="stroke:#000;stroke-width:1px;"/>
            <path id="i2" serif:id="i" d="M2887.264,762.78C2887.269,762.78 2885.007,784.229 2884.99,784.228C2868.685,782.837 2853.601,792.551 2851.836,814.49C2851.805,814.88 2852.075,811.06 2848.743,842.495C2847.413,855.042 2845.225,876.291 2844.564,884.204C2843.883,892.355 2839.528,929.752 2838.801,936.134C2838.721,936.839 2834.647,975.568 2834.597,976.395C2833.857,988.725 2838.025,1009.537 2860.828,1012.161C2882.31,1014.634 2892.216,996.766 2894.068,982.067C2894.211,980.928 2897.832,947.119 2897.807,946.721C2897.794,946.531 2901.74,908.411 2901.851,907.88C2902.003,907.161 2908.177,849.697 2908.187,849.144C2908.206,848.085 2911.5,816.888 2911.5,816.747C2911.501,796.591 2900.034,786.637 2884.99,784.228C2884.981,784.226 2887.177,762.768 2887.264,762.78C2902.671,764.881 2917.419,755.685 2920,737.448C2921.81,724.665 2915.574,707.871 2894.877,704.943C2870.488,701.492 2861.66,722.522 2860.834,730.364C2859.332,744.643 2865.954,760.31 2887.264,762.78Z" style="stroke:#000;stroke-width:1px;"/>
            <path id="m" d="M3022.157,850.137C3022.095,850.183 3026.819,821.149 3000.724,815.724C2979.258,811.261 2969.587,823.409 2965.148,847.412C2960.64,871.783 2942.591,969.241 2936.842,1000.325C2933.552,1018.114 2938.283,1037.126 2959.529,1041.056C2985.41,1045.842 2994.451,1024.945 2996.757,1012.178C3014.14,915.933 3019.585,865.269 3062.951,874.494C3100.807,882.546 3083.664,917.356 3065.931,1017.588C3063.679,1030.317 3059.28,1059.199 3087.874,1064.487C3114.64,1069.437 3122.768,1049.277 3125.882,1028.805C3140.517,932.571 3147.464,901.199 3182.016,898.44C3226.968,894.85 3213.842,935.056 3192.088,1048.413C3186.67,1076.647 3204.132,1086.577 3216.39,1088.374C3226.223,1089.816 3246.601,1089.056 3252.001,1059.856C3257.082,1032.383 3270.189,958.918 3273.646,940.963C3280.93,903.135 3267.505,864.307 3216.566,856.228C3192.15,852.355 3170.539,854.212 3145.677,875.202C3145.645,875.229 3137.929,843.114 3093.007,833.275C3052.6,824.425 3026.011,847.287 3022.157,850.137Z" style="stroke:#000;stroke-width:1px;"/>
            <path id="p" d="M3358.183,877.343C3344.252,873.655 3327.903,877.15 3320.423,904.732C3312.714,933.16 3296.229,996.785 3289.841,1020.344C3283.354,1044.264 3267.928,1101.911 3259.654,1132.42C3256.352,1144.597 3246.69,1170.035 3275.988,1177.98C3301.217,1184.822 3309.567,1161.253 3313.465,1146.88C3319.088,1126.144 3333.719,1073.474 3333.837,1073.73C3346.912,1102.218 3366.314,1118.155 3391.805,1124.584C3424.556,1132.845 3447.936,1123.181 3471.011,1107.148C3504.022,1084.212 3517.351,1026.541 3518.935,1005.895C3522.063,965.097 3503,931.473 3479.502,916.141C3444.675,893.419 3407.262,895.659 3376.046,917.365C3375.863,917.492 3383.095,951.918 3383.281,951.796C3435.207,917.905 3462.812,970.854 3459.97,997.219C3457.582,1019.373 3446.536,1070.268 3409.415,1076.02C3366.342,1082.694 3346.181,1036.985 3355.321,1004.748C3359.74,989.162 3364.286,967.014 3383.281,951.796C3383.534,951.594 3375.962,917.677 3376.046,917.365C3382.085,895.096 3372.113,881.032 3358.183,877.343Z" style="stroke:#000;stroke-width:1px;"/>
            <path id="Period5" serif:id="Period" d="M3522.61,1034.24C3520.78,1036.387 3518.881,1040.002 3517.584,1043.005C3516.19,1046.23 3514.746,1051.92 3514.746,1054.831C3514.746,1057.787 3515.07,1062.899 3515.476,1064.723C3515.802,1066.192 3517.285,1069.845 3518.583,1072.169C3520.5,1075.602 3521.461,1076.953 3522.61,1078.109C3524.514,1080.023 3525.36,1081.514 3527.383,1082.649C3530.945,1084.647 3537.917,1088.304 3544.842,1088.73C3552.079,1089.176 3558.166,1087.028 3561.504,1085.892C3565.37,1084.578 3569.532,1080.208 3571.614,1078.109C3573.302,1076.406 3574.349,1075.383 3575.737,1072.901C3577.044,1070.565 3578.298,1067.789 3578.667,1066.208C3579.397,1063.086 3579.721,1058.991 3579.721,1055.408C3579.721,1052.394 3579.509,1048.893 3578.306,1045.563C3576.778,1041.334 3574.709,1037.943 3571.614,1034.24C3570.075,1032.398 3563.946,1028.024 3560.564,1026.816C3557.469,1025.711 3550.852,1024.212 3547.181,1024.186C3541.714,1024.148 3537.194,1024.712 3533.159,1026.729C3529.254,1028.68 3525.242,1031.152 3522.61,1034.24Z" style="stroke:#000;stroke-width:1px;"/>
            <path id="l1" serif:id="l" d="M3622.601,957.618C3622.001,958.734 3611.255,981.02 3610.967,981.795C3610.728,982.436 3583.264,1038.696 3582.884,1039.66C3582.625,1040.315 3557.495,1091.983 3557.25,1092.356C3556.929,1092.843 3540.991,1126.061 3540.789,1126.55C3540.557,1127.113 3527.286,1153.742 3527.065,1154.141C3526.829,1154.567 3517.625,1174.147 3517.043,1176.068C3513.695,1187.124 3511.176,1205.287 3530.846,1214.975C3547.452,1223.154 3562.488,1215.606 3571.762,1199.209C3573.479,1196.173 3575.384,1191.714 3575.805,1190.869C3576.104,1190.269 3584.477,1173.007 3584.856,1172.2C3585.13,1171.616 3612.665,1114.588 3613.145,1113.314C3613.539,1112.265 3640.166,1058.515 3640.521,1057.562C3640.857,1056.66 3663.886,1008.773 3664.23,1008.212C3664.391,1007.948 3677.038,982.041 3676.875,982.352C3676.692,982.7 3681.312,972.794 3682.658,968.207C3684.643,961.448 3684.742,943.079 3666.856,934.427C3652.101,927.29 3637.398,933.021 3630.399,943.462C3626.994,948.542 3623.074,956.738 3622.601,957.618Z" style="stroke:#000;stroke-width:1px;"/>
            <path id="e1" serif:id="e" d="M3683.181,1084.485C3674.133,1091.045 3653.239,1113.815 3644.096,1130.814C3635.859,1146.129 3628.249,1175.142 3628.149,1195.966C3628.076,1211.121 3643.425,1255.089 3681.143,1280.367C3726.79,1310.96 3746.949,1307.149 3768.51,1305.752C3786.928,1304.558 3819.004,1289.314 3809.101,1264.255C3793.348,1224.391 3745.688,1267.928 3710.72,1240.112C3675.551,1212.135 3699.698,1174.341 3699.978,1174.529C3718.874,1187.25 3773.411,1225.818 3798.027,1239.367C3822.772,1252.987 3838.689,1239.996 3848.693,1227.284C3848.936,1226.976 3800.289,1194.162 3800.173,1193.699C3800.005,1193.029 3717.186,1139.151 3717.317,1138.955C3734.969,1112.733 3764.178,1104.069 3789.323,1120.505C3809.634,1133.782 3817.486,1160.385 3800.173,1193.699C3800.129,1193.783 3848.648,1227.348 3848.693,1227.284C3855.907,1216.939 3868.493,1193.244 3865.269,1159.719C3862.908,1135.16 3842.895,1101.488 3820.15,1085.92C3786.285,1062.74 3758.434,1059.599 3741.724,1061.056C3700.378,1064.661 3687.931,1081.04 3683.181,1084.485Z" style="stroke:#000;stroke-width:1px;"/>
        </g>
    </g>
</svg>
