<?xml version="1.0" encoding="UTF-8" standalone="no"?>
<!DOCTYPE svg PUBLIC "-//W3C//DTD SVG 1.1//EN" "http://www.w3.org/Graphics/SVG/1.1/DTD/svg11.dtd">
<svg width="100%" height="100%" viewBox="0 0 5120 1593" version="1.1" xmlns="http://www.w3.org/2000/svg" xmlns:xlink="http://www.w3.org/1999/xlink" xml:space="preserve" xmlns:serif="http://www.serif.com/" style="fill-rule:evenodd;clip-rule:evenodd;stroke-linecap:round;stroke-linejoin:round;stroke-miterlimit:1.5;">
    <g id="Learn-More" serif:id="Learn More">
        <path d="M2554.226,1092.185C3145.918,1086.976 3349.605,1302.898 3309.966,1461.281C3250.424,1699.189 3005.825,1391.756 2565.214,1388.41C2163.972,1385.363 1922.756,1720.206 1813.138,1458.839C1754.745,1319.612 2023.176,1096.859 2554.226,1092.185Z" style="fill:#2f3552;stroke:#000;stroke-width:25px;"/>
        <g transform="matrix(1,0,0,1,0.303095,30.522593)">
            <g transform="matrix(0.934639,-0.355599,0.355599,0.934639,-343.761227,841.840132)">
                <text x="2118.136px" y="1356.037px" style="font-family:'ArialRoundedMTBold', 'Arial Rounded MT Bold', sans-serif;font-size:175px;fill:#fff;">L</text>
            </g>
            <g transform="matrix(0.95871,-0.284386,0.284386,0.95871,-283.971572,683.68485)">
                <text x="2212.455px" y="1319.77px" style="font-family:'ArialRoundedMTBold', 'Arial Rounded MT Bold', sans-serif;font-size:175px;fill:#fff;">e</text>
            </g>
            <g transform="matrix(0.97866,-0.205488,0.205488,0.97866,-216.124387,501.693962)">
                <text x="2307.357px" y="1291.384px" style="font-family:'ArialRoundedMTBold', 'Arial Rounded MT Bold', sans-serif;font-size:175px;fill:#fff;">a</text>
            </g>
            <g transform="matrix(0.991786,-0.127908,0.127908,0.991786,-142.835814,317.98652)">
                <text x="2404.43px" y="1271.115px" style="font-family:'ArialRoundedMTBold', 'Arial Rounded MT Bold', sans-serif;font-size:175px;fill:#fff;">r</text>
            </g>
            <g transform="matrix(0.998465,-0.05539,0.05539,0.998465,-66.043135,139.090224)">
                <text x="2476.144px" y="1260.953px" style="font-family:'ArialRoundedMTBold', 'Arial Rounded MT Bold', sans-serif;font-size:175px;fill:#fff;">n</text>
            </g>
            <g transform="matrix(0.995637,0.093314,-0.093314,0.995637,128.451101,-238.693762)">
                <text x="2616.598px" y="1254.191px" style="font-family:'ArialRoundedMTBold', 'Arial Rounded MT Bold', sans-serif;font-size:175px;fill:#fff;">M</text>
            </g>
            <g transform="matrix(0.979075,0.203498,-0.203498,0.979075,315.653503,-534.063613)">
                <text x="2754.785px" y="1267.877px" style="font-family:'ArialRoundedMTBold', 'Arial Rounded MT Bold', sans-serif;font-size:175px;fill:#fff;">o</text>
            </g>
            <g transform="matrix(0.958453,0.285251,-0.285251,0.958453,486.089255,-760.339521)">
                <text x="2853.179px" y="1288.504px" style="font-family:'ArialRoundedMTBold', 'Arial Rounded MT Bold', sans-serif;font-size:175px;fill:#fff;">r</text>
            </g>
            <g transform="matrix(0.936737,0.350035,-0.350035,0.936737,642.209586,-939.066188)">
                <text x="2919.023px" y="1307.134px" style="font-family:'ArialRoundedMTBold', 'Arial Rounded MT Bold', sans-serif;font-size:175px;fill:#fff;">e</text>
            </g>
        </g>
    </g>
    <g id="Copy-Font" serif:id="Copy Font">
        <g id="Custom">
            <path id="A" d="M866.635,983.507C872.556,1005.416 891.799,1013.883 907.979,1007.465C927.448,999.743 928.39,985.197 925.988,970.857C925.842,969.989 912.264,913.961 912.257,913.708C912.248,913.428 1011.458,848.499 1011.445,848.48C1011.427,848.453 969.813,816.768 969.812,816.767C969.802,816.757 871.079,743.689 870.682,744.025C870.059,744.55 899.592,863.601 899.767,863.844C899.946,864.093 969.813,816.755 969.812,816.767C969.812,816.768 1011.41,848.445 1011.445,848.48C1011.468,848.503 1024.034,857.581 1024.182,857.702C1024.325,857.819 1040.918,869.713 1041.152,869.876C1041.308,869.984 1062.205,883.601 1062.377,883.715C1078.109,894.149 1093.358,888.637 1103.5,876.324C1112.434,865.478 1114.837,842.858 1090.429,827.854C1090.415,827.845 887.563,688.557 887.515,688.526C871.768,678.485 854.184,670.727 831.155,685.873C813.522,697.469 808.846,717.058 813.647,738.581C813.856,739.521 866.592,983.349 866.635,983.507Z"/>
            <path id="n" d="M1057.309,640.617C1046.702,646.207 1035.775,657.975 1048.704,683.46C1062.03,709.729 1088.975,761.991 1099.652,783.942C1110.495,806.232 1111.702,807.853 1122.548,828.463C1134.298,850.789 1153.834,849.221 1165.21,842.834C1177.889,835.716 1185.336,817.942 1174.325,799.229C1174.19,799 1137.868,731.123 1131.328,712.51C1120.158,680.721 1127.203,658.706 1149.616,646.598C1168.754,636.259 1183.445,639.765 1202.715,673.32C1217.98,699.901 1248.821,763.694 1248.901,763.869C1256.036,779.513 1275.954,786.446 1287.735,780.657C1309.9,769.766 1308.166,749.326 1302.006,737.184C1301.897,736.969 1290.296,714.73 1288.251,710.384C1283.926,701.193 1290.065,714.498 1276.976,687.844C1272.14,677.996 1252.94,640.355 1252.702,639.931C1252.443,639.472 1242.864,621.335 1239.097,616.575C1207.707,576.909 1169.453,583.043 1145.073,595.902C1105.592,616.726 1102.044,645.875 1098.318,656.512C1098.224,656.78 1083.77,626.672 1057.309,640.617Z" style="stroke:#000;stroke-width:1px;"/>
            <path id="y" d="M1266.461,537.137C1250.824,551.543 1256.875,571.929 1270.181,584.034C1291.967,603.858 1399.127,720.448 1399.137,720.89C1399.729,744.984 1398.181,761.251 1392.165,767.75C1383.594,777.01 1368.829,778.077 1363.273,779.111C1356.75,780.324 1339.287,791.059 1346.894,807.974C1353.683,823.071 1366.816,828.869 1394.058,818.808C1427.518,806.45 1435.106,797.704 1441.816,789.716C1456.467,772.274 1456.283,739.889 1456.37,732.583C1456.471,724.022 1456.218,709.019 1456.239,705.156C1456.249,703.337 1456.208,687.204 1455.817,675.06C1455.565,667.247 1454.741,636.82 1454.83,630.532C1454.917,624.453 1454.599,581.319 1454.497,574.005C1454.337,562.489 1453.443,537.194 1453.294,507.5C1453.191,487.049 1443.139,474.084 1426.917,473.47C1410.438,472.846 1400.321,483.666 1399.963,499.171C1399.392,523.836 1406.096,651.921 1404.862,652.411C1403.627,652.901 1312.367,545.102 1312.271,544.978C1296.402,524.275 1277.718,526.768 1266.461,537.137Z" style="stroke:#000;stroke-width:1px;"/>
            <path id="t" d="M1495.985,456.649C1492.418,457.247 1465.024,465.773 1472.785,487.845C1480.968,511.121 1507.098,499.7 1509.677,498.952C1509.79,498.92 1523.744,541.146 1523.828,541.352C1523.938,541.618 1540.767,592.893 1541.01,593.519C1541.285,594.227 1547.481,613.42 1549.125,616.515C1550.608,619.31 1558.639,637.908 1566.281,644.253C1576.421,652.671 1592.853,661.836 1623.757,651.174C1645.291,643.744 1683.392,628.637 1671.244,600.969C1664.57,585.769 1648.247,586.096 1633.373,597.083C1633.162,597.239 1610.035,613.985 1602.461,588.477C1602.381,588.21 1583.267,531.458 1583.233,531.394C1583.2,531.333 1565.956,480.454 1566.665,480.232C1584.574,474.634 1609.372,466.497 1602.052,445.81C1594.12,423.397 1576.955,430.036 1552.668,438.096C1552.282,438.224 1538.029,393.521 1537.967,393.342C1534.52,383.326 1522.83,364.441 1499.883,371.35C1474.058,379.125 1479.403,404.996 1481.574,412.186C1482.326,414.678 1496.107,456.629 1495.985,456.649Z" style="stroke:#000;stroke-width:1px;"/>
            <path id="h" d="M1625.225,358.336C1623.259,347.878 1622.52,327.607 1647.126,322.292C1669.112,317.542 1678.039,332.37 1682.275,343.965C1682.516,344.627 1702.442,425.941 1702.538,425.729C1716.185,395.587 1739.813,384.046 1760.312,378.847C1804.739,367.578 1835.312,393.719 1845.467,419.562C1855.302,444.592 1867.793,501.196 1867.895,501.474C1868.154,502.178 1880.096,550.509 1880.131,550.734C1883.766,573.576 1875.737,585.769 1858.921,589.97C1838.832,594.989 1827.087,581.063 1823.621,566.715C1823.509,566.25 1797.552,463.276 1797.409,462.877C1788.798,438.935 1780.34,420.996 1750.805,429.196C1722.897,436.944 1712.11,466.948 1720.079,495.004C1720.345,495.943 1742.72,585.813 1742.77,586.154C1745.314,603.306 1742.217,618.67 1721.301,624.347C1700.039,630.118 1688.239,613.128 1685.548,600.356C1685.447,599.878 1670.354,538.612 1670.042,537.592C1669.891,537.098 1655.824,482.281 1648.642,454.543C1640.915,424.702 1625.342,358.955 1625.225,358.336Z" style="stroke:#000;stroke-width:1px;"/>
            <path id="i" d="M1915.988,321.742C1915.992,321.741 1920.011,342.931 1919.995,342.934C1903.982,346.304 1892.34,359.955 1896.975,381.471C1897.058,381.854 1896.215,378.118 1902.089,409.179C1904.433,421.576 1908.467,442.554 1910.115,450.321C1911.813,458.322 1918.427,495.386 1919.571,501.707C1919.697,502.406 1926.964,540.664 1927.156,541.47C1930.002,553.49 1939.994,572.216 1962.585,568.154C1983.868,564.327 1988.2,544.361 1985.735,529.753C1985.544,528.62 1979.262,495.203 1979.123,494.83C1979.056,494.651 1971.842,457.013 1971.796,456.472C1971.734,455.74 1961.075,398.937 1960.925,398.405C1960.638,397.385 1954.797,366.563 1954.756,366.428C1948.944,347.128 1935.095,340.903 1919.995,342.934C1919.986,342.935 1915.901,321.756 1915.988,321.742C1931.346,319.311 1942.816,306.253 1940.029,288.047C1938.075,275.285 1927.262,261.002 1906.6,264.166C1882.252,267.895 1879.862,290.577 1881.333,298.324C1884.012,312.43 1894.871,325.521 1915.988,321.742Z" style="stroke:#000;stroke-width:1px;"/>
            <path id="n1" serif:id="n" d="M2019.407,323.609C2007.529,325.242 1993.242,332.573 1996.694,360.941C2000.253,390.181 2007.74,448.502 2010.283,472.779C2012.865,497.432 2013.447,499.367 2016.606,522.442C2020.029,547.438 2038.927,552.633 2051.8,550.512C2066.147,548.15 2079.214,533.986 2075.252,512.638C2075.204,512.377 2064.233,436.177 2064.439,416.451C2064.792,382.758 2078.929,364.47 2104.128,360.74C2125.646,357.555 2138.258,365.866 2144.916,403.982C2150.191,434.178 2157.404,504.667 2157.419,504.859C2158.786,521.998 2175.14,535.314 2188.19,533.894C2212.741,531.223 2218.088,511.419 2216.443,497.903C2216.414,497.664 2213.101,472.801 2212.662,468.018C2211.735,457.903 2212.963,472.505 2209.759,442.983C2208.575,432.076 2203.378,390.142 2203.298,389.662C2203.212,389.142 2200.399,368.824 2198.483,363.064C2182.519,315.066 2144.468,307.774 2117.163,311.538C2072.946,317.635 2059.661,343.822 2052.527,352.548C2052.348,352.768 2049.039,319.534 2019.407,323.609Z" style="stroke:#000;stroke-width:1px;"/>
            <path id="g" d="M2262.18,330.931C2242.573,365.077 2249.579,446.415 2276.287,472.536C2348.619,543.277 2411.962,471.361 2411.97,471.619C2414.333,548.206 2389.262,544.61 2364.005,548.415C2306.449,557.084 2313.143,493.827 2270.632,514.057C2248.47,524.603 2262.339,558.033 2279.826,569.404C2294.057,578.659 2324.068,594.145 2381.796,590.158C2463.083,584.544 2472.145,523.162 2471.433,487.226C2471.206,475.77 2468.292,347.381 2469.028,318.788C2469.053,317.84 2402.366,349.239 2402.441,349.37C2417.272,375.565 2414.534,419.575 2400.559,438.884C2392.066,450.62 2358.166,473.471 2325.298,443.68C2301.876,422.452 2301.915,347.41 2338.321,330.32C2353.37,323.255 2380.692,319.963 2402.441,349.37C2402.628,349.624 2469.04,319.103 2469.028,318.788C2468.798,312.679 2472.096,278.116 2439.48,279.621C2410.141,280.975 2413.605,313.406 2413.501,313.309C2396.306,297.428 2380.694,281.8 2346.85,280.559C2284.941,278.289 2265.526,325.104 2262.18,330.931Z" style="stroke:#000;stroke-width:1px;"/>
            <path id="Period" d="M2535.377,362.83C2533.547,364.977 2531.647,368.592 2530.35,371.595C2528.957,374.82 2527.512,380.51 2527.512,383.421C2527.512,386.377 2527.837,391.489 2528.242,393.313C2528.568,394.782 2530.051,398.435 2531.349,400.759C2533.266,404.192 2534.227,405.543 2535.377,406.699C2537.28,408.612 2538.126,410.104 2540.15,411.239C2543.711,413.237 2550.683,416.893 2557.608,417.32C2564.846,417.766 2570.932,415.617 2574.27,414.482C2578.136,413.168 2582.299,408.798 2584.38,406.699C2586.068,404.996 2587.115,403.973 2588.504,401.491C2589.81,399.155 2591.064,396.379 2591.434,394.798C2592.163,391.676 2592.488,387.58 2592.488,383.998C2592.488,380.984 2592.276,377.483 2591.072,374.153C2589.545,369.924 2587.475,366.533 2584.38,362.83C2582.841,360.988 2576.712,356.614 2573.33,355.406C2570.235,354.3 2563.619,352.802 2559.947,352.776C2554.48,352.738 2549.961,353.302 2545.925,355.319C2542.021,357.27 2538.009,359.741 2535.377,362.83Z" style="stroke:#000;stroke-width:1px;"/>
            <path id="E" d="M2648.456,211.486C2639.262,218.827 2638.731,230.036 2637.463,244.819C2635.01,273.432 2623.943,446.878 2623.277,455.245C2622.084,470.226 2621.755,481.296 2626.879,489.487C2632.703,498.798 2641.07,504.004 2657.905,505.263C2658.458,505.304 2820.13,515.623 2821.823,515.682C2846.416,516.539 2853.501,502.665 2854.541,493.153C2855.542,484.006 2851.695,466.117 2826.867,464.063C2825.248,463.929 2687.603,455.12 2687.57,454.837C2687.538,454.573 2693.041,374.982 2693.076,374.624C2693.093,374.444 2814.966,382.681 2815.261,382.698C2857.011,385.179 2855.022,333.846 2820.532,333.694C2816.19,333.675 2695.983,325.548 2696.009,325.166C2696.027,324.89 2700.846,256.966 2700.761,256.763C2700.724,256.676 2813.584,263.846 2831.82,265.181C2858.984,267.17 2865.075,252.929 2865.898,242.171C2866.829,229.993 2861.622,216.933 2836.705,214.988C2795.792,211.793 2692.625,205.651 2686.9,205.302C2669,204.211 2660.238,202.079 2648.456,211.486Z" style="stroke:#000;stroke-width:1px;"/>
            <path id="l" d="M2927.442,266.178C2927.197,267.421 2923.476,291.881 2923.428,292.706C2923.388,293.39 2913.675,355.237 2913.594,356.27C2913.54,356.972 2904.707,413.744 2904.582,414.173C2904.419,414.732 2898.949,451.168 2898.9,451.694C2898.843,452.301 2893.986,481.655 2893.892,482.101C2893.792,482.578 2890.75,503.998 2890.758,506.005C2890.808,517.557 2893.739,535.658 2915.387,539.136C2933.664,542.073 2945.818,530.438 2949.862,512.04C2950.611,508.633 2951.121,503.811 2951.275,502.88C2951.384,502.219 2954.313,483.258 2954.438,482.375C2954.529,481.737 2964.085,419.134 2964.169,417.776C2964.238,416.657 2973.889,357.455 2973.948,356.439C2974.004,355.479 2981.939,302.938 2982.103,302.3C2982.18,302.001 2986.653,273.521 2986.588,273.866C2986.516,274.252 2988.019,263.426 2987.958,258.646C2987.869,251.602 2982.564,234.015 2962.925,231.003C2946.724,228.519 2934.355,238.318 2930.734,250.354C2928.973,256.211 2927.635,265.198 2927.442,266.178Z" style="stroke:#000;stroke-width:1px;"/>
            <path id="s" d="M3020.996,413.562C3048.021,448.813 3086.657,453.503 3107.518,469.156C3134.521,489.417 3123.02,497.076 3112.82,501.361C3086.265,512.518 3057.958,493.485 3051.598,481.035C3042.587,463.395 3039.611,442.195 3014.007,445.54C2998.078,447.62 2989.736,463.21 2988.434,475.116C2987.557,483.14 2986.354,496.048 3000.541,513.908C3015.931,533.281 3048.604,547.856 3076.475,552.959C3091.246,555.665 3129.445,559.792 3158.413,544.031C3181.216,531.624 3186.135,514.911 3189.483,495.229C3190.839,487.261 3191.879,472.632 3184.401,455.774C3175,434.579 3145.782,421.654 3121.128,409.326C3101.94,399.732 3071.154,390.831 3075.56,374.191C3079.009,361.167 3099.507,363.691 3106.712,365.781C3113.581,367.774 3129.448,371.997 3136.021,388.983C3140.14,399.629 3155.044,420.78 3183.094,412.888C3210.208,405.261 3207.877,335.629 3118.958,317.565C3053.748,304.317 3024.012,333.149 3017.849,348.579C3010.859,366.081 3004.971,392.66 3020.996,413.562Z" style="stroke:#000;stroke-width:1px;"/>
            <path id="e" d="M3235.882,426.302C3229.274,435.314 3216.343,463.382 3212.836,482.362C3209.677,499.463 3211.302,529.413 3217.575,549.271C3222.139,563.722 3250.197,600.891 3293.838,613.425C3346.653,628.594 3364.682,618.802 3384.783,610.879C3401.953,604.111 3427.832,579.789 3410.741,558.958C3383.553,525.82 3351.488,581.845 3309.69,566.054C3267.651,550.171 3279.084,506.803 3279.408,506.897C3301.289,513.23 3365.007,533.275 3392.587,538.648C3420.312,544.049 3431.493,526.813 3437.132,511.652C3437.268,511.284 3380.918,494.917 3380.666,494.511C3380.302,493.925 3284.974,467.951 3285.04,467.725C3293.828,437.361 3318.989,420.18 3347.955,428.14C3371.353,434.571 3386.963,457.499 3380.666,494.511C3380.65,494.605 3437.109,511.727 3437.132,511.652C3440.837,499.596 3445.574,473.188 3432.254,442.254C3422.497,419.593 3393.146,393.654 3366.73,385.786C3327.399,374.072 3299.921,379.597 3284.457,386.094C3246.194,402.169 3239.352,421.57 3235.882,426.302Z" style="stroke:#000;stroke-width:1px;"/>
            <path id="Y" d="M3648.147,392.252C3627.783,391.294 3618,408.718 3619.759,428.264C3622.399,457.601 3630.603,501.31 3631.72,505.946C3633.439,513.082 3644.762,580.733 3643.808,582.62C3641.47,587.245 3640.137,592.683 3630.953,612.24C3626.208,622.344 3622.839,629.772 3617.856,641.751C3613.747,651.627 3604.017,671.613 3603.338,673.776C3598.438,689.376 3599.61,708.306 3620.57,717.197C3641.541,726.092 3654.241,713.262 3663.025,697.804C3663.377,697.184 3671.444,678.945 3673.637,673.772C3675.89,668.46 3684.204,648.128 3685.764,645.07C3686.885,642.872 3702.509,608.853 3702.597,608.453C3702.706,607.958 3777.259,559.444 3778.55,558.369C3789.569,549.197 3835.645,522.894 3842.912,512.411C3850.874,500.924 3851.157,491.274 3845.101,481.272C3840.466,473.619 3822.973,459.199 3803.08,472.214C3802.193,472.794 3696.864,545.447 3696.589,545.368C3696.207,545.258 3678.5,423.547 3678.417,422.735C3676.416,403.152 3667.167,393.147 3648.147,392.252Z" style="stroke:#000;stroke-width:1px;"/>
            <path id="o" d="M3796.683,635.997C3792.585,639.752 3782.098,654.257 3777.684,661.56C3774.456,666.904 3769.303,678.69 3767.035,684.43C3765.85,687.429 3761.504,704.716 3760.705,708.132C3760.022,711.054 3759.152,731.841 3760.043,738.214C3762.385,754.968 3763.284,758.629 3768.109,769.134C3777.076,788.658 3794.532,809.462 3826.592,824.547C3877.486,848.495 3913.531,830.356 3920.419,826.882C3934.644,819.707 3964.615,793.876 3976.406,766.713C3976.425,766.67 3921.904,741.861 3921.818,741.97C3921.752,742.053 3895.5,804.945 3846.301,784.113C3797.323,763.374 3820.83,708.826 3826.915,696.646C3846.286,657.873 3875.019,644.077 3902.438,657.217C3953.109,681.499 3921.788,742.102 3921.818,741.97C3921.88,741.692 3976.332,766.521 3976.406,766.713C3976.41,766.724 3999.586,725.924 3982.511,677.258C3972.564,648.91 3946.582,626.573 3921.217,615.788C3884.455,600.158 3860.501,603.021 3839.64,608.586C3816.453,614.772 3800.977,632.062 3796.683,635.997Z" style="stroke:#000;stroke-width:1px;"/>
            <path id="u" d="M4096.043,768.607C4099.896,763.541 4110.651,740.987 4091.844,727.073C4070.188,711.05 4053.451,726.784 4047.958,733.804C4032.684,753.322 3975.558,830.151 3974.576,831.578C3967.106,842.431 3958.454,857.435 3957.112,871.963C3956.7,876.426 3956.942,889.706 3959.727,897.883C3962.483,905.977 3968.455,917.502 3977.954,926.967C3986.84,935.819 3999.209,943.56 4004.42,945.761C4016.363,950.805 4022.999,953.413 4032.245,954.104C4042.95,954.904 4057.089,953.357 4065.615,951.554C4065.919,951.489 4043.006,977.604 4068.386,996.762C4086.558,1010.478 4104.667,993.966 4108.533,988.056C4108.784,987.672 4207.471,856.983 4208.136,856.103C4213.905,848.474 4224.268,827.848 4204.858,812.703C4188.141,799.66 4172.894,806.168 4160.477,820.652C4159.876,821.353 4099.541,899.877 4099.216,900.337C4086.592,918.184 4058.206,927.244 4036.472,912.985C4008.198,894.435 4022.572,868.639 4032.473,853.559C4032.703,853.209 4092.491,773.277 4096.043,768.607Z" style="stroke:#000;stroke-width:1px;"/>
            <path id="Period1" serif:id="Period" d="M4191.492,922.633C4189.662,924.78 4187.763,928.395 4186.465,931.398C4185.072,934.623 4183.628,940.313 4183.628,943.224C4183.628,946.18 4183.952,951.292 4184.357,953.116C4184.684,954.585 4186.167,958.238 4187.465,960.562C4189.382,963.995 4190.343,965.347 4191.492,966.502C4193.396,968.416 4194.242,969.907 4196.265,971.042C4199.827,973.04 4206.799,976.697 4213.724,977.123C4220.961,977.569 4227.048,975.421 4230.386,974.285C4234.252,972.971 4238.414,968.601 4240.495,966.502C4242.184,964.799 4243.231,963.776 4244.619,961.294C4245.925,958.958 4247.179,956.182 4247.549,954.601C4248.279,951.479 4248.603,947.384 4248.603,943.801C4248.603,940.787 4248.391,937.287 4247.188,933.956C4245.66,929.727 4243.59,926.336 4240.495,922.633C4238.956,920.792 4232.828,916.417 4229.446,915.209C4226.351,914.104 4219.734,912.605 4216.062,912.579C4210.595,912.541 4206.076,913.105 4202.041,915.122C4198.136,917.073 4194.124,919.545 4191.492,922.633Z" style="stroke:#000;stroke-width:1px;"/>
            <path id="C" d="M1309.095,1038.067C1309.909,1058.478 1320.54,1085.637 1326.199,1100.738C1328.642,1107.254 1336.15,1121.21 1340.877,1128.198C1348.545,1139.533 1359.578,1152.747 1371.986,1164.122C1381.54,1172.88 1390.089,1178.535 1398.605,1182.457C1418.781,1191.748 1434.167,1195.986 1444.239,1196.308C1468.703,1197.089 1484.076,1195.704 1507.67,1187.174C1543.775,1174.122 1566.633,1158.991 1584.425,1129.929C1595.322,1112.13 1597.622,1103.165 1600.946,1082.54C1605.49,1054.341 1591.61,1021.544 1569.207,1023.223C1522.731,1026.707 1547.115,1065.16 1530.719,1099.85C1517.616,1127.572 1428.496,1191.868 1383.618,1059.981C1343.393,941.766 1452.79,913.112 1493.659,957.445C1511.147,976.415 1535.294,980.65 1548.443,963.937C1561.444,947.412 1555.643,924.723 1537.838,909.581C1524.804,898.496 1508.387,886.978 1482.289,881.58C1457.124,876.375 1417.565,878.454 1387.484,895.419C1358.184,911.944 1344.243,923.983 1329.728,946.02C1303.536,985.785 1308.477,1022.589 1309.095,1038.067Z" style="stroke:#000;stroke-width:1px;"/>
            <path id="Period2" serif:id="Period" d="M1569.048,954.936C1567.218,957.083 1565.319,960.698 1564.021,963.701C1562.628,966.926 1561.184,972.616 1561.184,975.527C1561.184,978.483 1561.508,983.595 1561.913,985.419C1562.24,986.888 1563.723,990.541 1565.021,992.865C1566.938,996.298 1567.899,997.649 1569.048,998.805C1570.952,1000.718 1571.798,1002.21 1573.821,1003.345C1577.383,1005.343 1584.355,1008.999 1591.28,1009.426C1598.517,1009.872 1604.604,1007.723 1607.942,1006.588C1611.808,1005.274 1615.97,1000.904 1618.051,998.805C1619.74,997.102 1620.787,996.079 1622.175,993.597C1623.481,991.261 1624.735,988.485 1625.105,986.904C1625.835,983.782 1626.159,979.686 1626.159,976.104C1626.159,973.09 1625.947,969.589 1624.744,966.259C1623.216,962.03 1621.146,958.639 1618.051,954.936C1616.512,953.094 1610.384,948.72 1607.002,947.512C1603.907,946.406 1597.29,944.908 1593.618,944.882C1588.151,944.844 1583.632,945.408 1579.597,947.425C1575.692,949.376 1571.68,951.847 1569.048,954.936Z" style="stroke:#000;stroke-width:1px;"/>
            <path id="a" d="M1639.618,965.221C1651.092,965.08 1662.253,960.272 1664.209,948.051C1670.236,910.394 1687.129,904.775 1702.404,898.689C1737.031,884.896 1740.422,895.882 1755.54,920.629C1755.844,921.128 1768.264,955.469 1768.434,955.875C1823.951,1088.505 1586.429,1051.171 1768.434,955.875C1768.495,955.843 1755.567,920.619 1755.54,920.629C1755.485,920.649 1693.202,962.159 1676.335,973.286C1641.883,996.014 1636.333,1027.888 1650.059,1057.633C1662.902,1085.465 1704.36,1095.758 1739.97,1081.949C1781.109,1065.997 1790.649,1043.278 1800.799,1029.226C1800.94,1029.031 1815.401,1040.97 1827.638,1044.975C1840.07,1049.044 1848.009,1046.478 1857.403,1035.35C1866.127,1025.015 1862.961,1013.122 1860.503,1009.659C1844.737,987.452 1847.326,991.93 1837.725,975.042C1836.764,973.353 1809.232,899.275 1802.149,886.218C1777.859,841.438 1747.413,836.063 1694.586,856.511C1649.444,873.985 1621.027,897.603 1617.094,926.054C1613.716,950.493 1625.355,965.397 1639.618,965.221Z" style="stroke:#000;stroke-width:1px;"/>
            <path id="Period3" serif:id="Period" d="M1818.86,893.655C1817.03,895.803 1815.131,899.418 1813.834,902.42C1812.44,905.645 1810.996,911.335 1810.996,914.246C1810.996,917.202 1811.32,922.314 1811.726,924.138C1812.052,925.607 1813.535,929.26 1814.833,931.584C1816.75,935.017 1817.711,936.369 1818.86,937.524C1820.764,939.438 1821.61,940.929 1823.633,942.065C1827.195,944.062 1834.167,947.719 1841.092,948.145C1848.329,948.591 1854.416,946.443 1857.754,945.308C1861.62,943.993 1865.782,939.624 1867.863,937.524C1869.552,935.821 1870.599,934.799 1871.987,932.316C1873.294,929.981 1874.548,927.204 1874.917,925.623C1875.647,922.502 1875.971,918.406 1875.971,914.823C1875.971,911.809 1875.759,908.309 1874.556,904.978C1873.028,900.749 1870.959,897.358 1867.863,893.655C1866.324,891.814 1860.196,887.439 1856.814,886.231C1853.719,885.126 1847.102,883.627 1843.43,883.601C1837.963,883.564 1833.444,884.127 1829.409,886.144C1825.504,888.095 1821.492,890.567 1818.86,893.655Z" style="stroke:#000;stroke-width:1px;"/>
            <path id="n2" serif:id="n" d="M1863.687,805.264C1852.06,808.19 1838.663,817.043 1845.205,844.862C1851.948,873.535 1865.785,930.683 1870.974,954.535C1876.244,978.756 1877.034,980.616 1882.705,1003.205C1888.847,1027.675 1908.201,1030.767 1920.764,1027.248C1934.765,1023.326 1946.2,1007.815 1939.922,987.03C1939.845,986.776 1920.585,912.239 1918.628,892.608C1915.284,859.08 1927.33,839.353 1951.968,832.882C1973.008,827.357 1986.455,834.234 1997.252,871.391C2005.806,900.827 2020.704,970.1 2020.74,970.289C2023.978,987.175 2041.694,998.617 2054.509,995.775C2078.62,990.428 2081.763,970.157 2078.646,956.904C2078.591,956.669 2072.572,932.32 2071.611,927.613C2069.58,917.66 2072.402,932.04 2065.98,903.047C2063.608,892.336 2053.844,851.225 2053.712,850.757C2053.569,850.249 2048.545,830.362 2046.01,824.847C2024.879,778.889 1986.258,775.812 1959.531,782.548C1916.248,793.456 1905.914,820.942 1899.781,830.397C1899.626,830.635 1892.694,797.965 1863.687,805.264Z" style="stroke:#000;stroke-width:1px;"/>
            <path id="Period4" serif:id="Period" d="M2087.512,829.049C2085.682,831.197 2083.782,834.812 2082.485,837.815C2081.092,841.04 2079.647,846.729 2079.647,849.641C2079.647,852.596 2079.972,857.708 2080.377,859.532C2080.704,861.001 2082.186,864.654 2083.485,866.979C2085.401,870.411 2086.363,871.763 2087.512,872.919C2089.416,874.832 2090.262,876.324 2092.285,877.459C2095.846,879.457 2102.819,883.113 2109.743,883.54C2116.981,883.986 2123.068,881.837 2126.405,880.702C2130.272,879.387 2134.434,875.018 2136.515,872.919C2138.203,871.216 2139.25,870.193 2140.639,867.711C2141.945,865.375 2143.199,862.598 2143.569,861.017C2144.299,857.896 2144.623,853.8 2144.623,850.217C2144.623,847.203 2144.411,843.703 2143.207,840.372C2141.68,836.143 2139.61,832.753 2136.515,829.049C2134.976,827.208 2128.847,822.834 2125.466,821.626C2122.371,820.52 2115.754,819.021 2112.082,818.996C2106.615,818.958 2102.096,819.521 2098.061,821.538C2094.156,823.49 2090.144,825.961 2087.512,829.049Z" style="stroke:#000;stroke-width:1px;"/>
            <path id="I" d="M2201.953,687.323C2202.056,688.585 2205.137,713.134 2205.315,713.941C2205.463,714.61 2212.957,776.765 2213.162,777.781C2213.3,778.472 2220.26,835.503 2220.257,835.95C2220.252,836.532 2224.91,873.081 2225.006,873.601C2225.117,874.199 2228.436,903.767 2228.468,904.222C2228.502,904.708 2231.406,926.147 2231.961,928.076C2235.155,939.178 2242.904,955.797 2264.681,953.249C2283.067,951.097 2291.594,936.593 2290.475,917.789C2290.268,914.307 2289.446,909.528 2289.34,908.59C2289.265,907.924 2286.92,888.882 2286.801,887.999C2286.714,887.36 2278.862,824.52 2278.573,823.191C2278.335,822.096 2271.5,762.502 2271.28,761.509C2271.073,760.57 2264.401,707.854 2264.385,707.195C2264.378,706.886 2260.926,678.264 2260.958,678.614C2260.994,679.006 2259.493,668.179 2258.132,663.596C2256.128,656.843 2246.234,641.365 2226.518,643.815C2210.252,645.836 2201.019,658.633 2200.813,671.2C2200.713,677.315 2201.872,686.327 2201.953,687.323Z" style="stroke:#000;stroke-width:1px;"/>
            <path id="m" d="M2391.101,733.5C2391.049,733.556 2390.414,704.147 2363.768,703.558C2341.848,703.074 2334.547,716.778 2334.547,741.188C2334.547,765.972 2334.523,865.088 2334.523,896.699C2334.523,914.789 2342.633,932.624 2364.24,932.624C2390.558,932.624 2395.649,910.431 2395.594,897.458C2395.184,799.657 2391.325,748.847 2435.645,750.031C2474.334,751.065 2463.807,788.412 2464.598,890.197C2464.699,903.123 2465.626,932.324 2494.705,932.324C2521.925,932.324 2526.251,911.021 2525.59,890.325C2522.479,793.034 2523.605,760.921 2557.079,751.924C2600.629,740.22 2595.034,782.142 2594.258,897.565C2594.065,926.314 2613.041,932.902 2625.422,932.44C2635.353,932.07 2655.253,927.616 2655.253,897.921C2655.253,869.983 2654.781,795.359 2654.915,777.075C2655.198,738.552 2634.935,702.814 2583.377,704.133C2558.664,704.765 2537.75,710.522 2517.12,735.683C2517.094,735.715 2503.666,705.539 2457.704,704.034C2416.361,702.68 2394.373,729.996 2391.101,733.5Z" style="stroke:#000;stroke-width:1px;"/>
            <path id="a1" serif:id="a" d="M2735.696,790.201C2745.989,795.274 2758.117,796.044 2765.398,786.037C2787.833,755.197 2805.438,757.842 2821.813,759.338C2858.931,762.731 2856.976,774.061 2859.241,802.972C2859.286,803.554 2854.798,839.795 2854.766,840.234C2844.165,983.624 2649.337,842.723 2854.766,840.234C2854.834,840.234 2859.27,802.975 2859.241,802.972C2859.183,802.965 2784.853,811.749 2764.775,814.027C2723.764,818.678 2704.375,844.578 2703.133,877.313C2701.972,907.944 2734.267,935.904 2772.269,939.729C2816.17,944.147 2834.969,928.217 2850.384,920.289C2850.598,920.179 2858.08,937.374 2867.174,946.489C2876.414,955.749 2884.653,957.059 2898.07,951.394C2910.529,946.134 2913.096,934.097 2912.473,929.897C2908.48,902.956 2908.759,908.121 2907.852,888.716C2907.761,886.775 2916.781,808.262 2916.383,793.414C2915.018,742.488 2890.311,723.902 2833.954,718.196C2785.794,713.32 2749.76,721.499 2733.363,745.08C2719.279,765.336 2722.902,783.896 2735.696,790.201Z" style="stroke:#000;stroke-width:1px;"/>
            <path id="g1" serif:id="g" d="M2977.358,787.469C2950.267,816.044 2937.941,896.747 2957.754,928.418C3011.413,1014.191 3089.898,959.195 3089.845,959.448C3074.123,1034.442 3050.602,1025.049 3025.158,1022.804C2967.179,1017.69 2988.566,957.783 2942.489,967.444C2918.468,972.48 2924.084,1008.235 2938.404,1023.401C2950.059,1035.743 2975.584,1057.855 3032.63,1067.562C3112.955,1081.229 3136.204,1023.702 3143.966,988.607C3146.441,977.419 3173.814,851.948 3181.257,824.331C3181.503,823.416 3109.302,838.244 3109.343,838.389C3117.595,867.338 3104.58,909.469 3086.455,924.948C3075.439,934.356 3037.115,948.59 3012.178,911.903C2994.407,885.76 3012.1,812.834 3051.505,804.788C3067.794,801.462 3095.123,804.691 3109.343,838.389C3109.466,838.68 3181.194,824.64 3181.257,824.331C3182.47,818.34 3193.807,785.523 3161.752,779.312C3132.918,773.725 3128.655,806.061 3128.576,805.943C3115.601,786.461 3104.103,767.6 3071.501,758.431C3011.864,741.66 2981.98,782.594 2977.358,787.469Z" style="stroke:#000;stroke-width:1px;"/>
            <path id="i1" serif:id="i" d="M3278.064,795.512C3278.069,795.513 3271.451,816.041 3271.435,816.036C3255.763,811.327 3239.006,817.737 3232.774,838.846C3232.663,839.221 3233.712,835.538 3223.996,865.619C3220.118,877.625 3213.614,897.973 3211.342,905.581C3209.001,913.418 3197.061,949.124 3195.038,955.221C3194.815,955.895 3182.876,992.962 3182.657,993.761C3179.401,1005.676 3179.206,1026.9 3200.984,1034.151C3221.501,1040.983 3234.865,1025.529 3239.695,1011.524C3240.07,1010.438 3250.556,978.093 3250.613,977.698C3250.64,977.51 3262.328,941.013 3262.547,940.516C3262.842,939.843 3280.684,884.872 3280.808,884.332C3281.044,883.3 3290.674,853.444 3290.703,853.306C3294.842,833.58 3285.664,821.483 3271.435,816.036C3271.427,816.033 3277.982,795.482 3278.064,795.512C3292.711,800.732 3309.034,794.76 3315.305,777.442C3319.7,765.303 3317.046,747.586 3297.392,740.471C3274.231,732.086 3261.272,750.854 3258.854,758.36C3254.452,772.026 3257.716,788.719 3278.064,795.512Z" style="stroke:#000;stroke-width:1px;"/>
            <path id="n3" serif:id="n" d="M3388.349,850.327C3377.275,845.732 3361.241,844.834 3349.88,871.056C3338.169,898.084 3315.146,952.189 3305.068,974.421C3294.833,996.997 3294.357,998.961 3285.418,1020.467C3275.736,1043.764 3289.415,1057.8 3301.594,1062.478C3315.167,1067.692 3333.601,1062.076 3340.975,1041.655C3341.065,1041.405 3370.12,970.113 3380.27,953.197C3397.607,924.304 3419.049,915.672 3442.676,925.192C3462.853,933.322 3469.534,946.868 3456.01,983.122C3445.296,1011.841 3415.886,1076.306 3415.802,1076.48C3408.317,1091.958 3415.697,1111.715 3427.674,1117.087C3450.208,1127.194 3464.833,1112.809 3470.246,1100.316C3470.341,1100.096 3480.051,1076.968 3482.091,1072.62C3486.404,1063.423 3480.082,1076.643 3492.241,1049.551C3496.734,1039.542 3513.448,1000.733 3513.621,1000.279C3513.81,999.787 3521.654,980.834 3522.913,974.896C3533.402,925.412 3504.258,899.885 3478.796,889.33C3437.563,872.237 3412.862,888.116 3402.296,892.039C3402.03,892.138 3415.976,861.791 3388.349,850.327Z" style="stroke:#000;stroke-width:1px;"/>
            <path id="e1" serif:id="e" d="M3560.314,999.065C3552.049,1006.587 3533.806,1031.532 3526.602,1049.438C3520.112,1065.572 3515.763,1095.249 3517.97,1115.956C3519.576,1131.026 3539.701,1173.023 3579.987,1193.968C3628.742,1219.316 3648.354,1213.296 3669.628,1209.519C3687.8,1206.292 3717.99,1187.589 3705.373,1163.781C3685.301,1125.908 3642.756,1174.456 3604.923,1150.684C3566.871,1126.775 3586.683,1086.539 3586.982,1086.695C3607.171,1097.244 3665.645,1129.534 3691.61,1140.273C3717.711,1151.068 3732.091,1136.394 3740.626,1122.653C3740.833,1122.319 3688.851,1095.096 3688.684,1094.648C3688.443,1094.001 3600.165,1049.628 3600.274,1049.419C3614.913,1021.403 3642.983,1009.557 3669.793,1023.106C3691.451,1034.052 3702.2,1059.622 3688.684,1094.648C3688.65,1094.737 3740.588,1122.721 3740.626,1122.653C3746.649,1111.572 3756.533,1086.629 3749.616,1053.667C3744.549,1029.521 3720.93,998.273 3696.6,985.319C3660.376,966.034 3632.348,965.997 3615.902,969.296C3575.21,977.459 3564.654,995.116 3560.314,999.065Z" style="stroke:#000;stroke-width:1px;"/>
            <path id="Period5" serif:id="Period" d="M3759.843,1130.553C3758.013,1132.7 3756.114,1136.315 3754.817,1139.318C3753.423,1142.543 3751.979,1148.233 3751.979,1151.144C3751.979,1154.1 3752.303,1159.211 3752.708,1161.036C3753.035,1162.505 3754.518,1166.157 3755.816,1168.482C3757.733,1171.914 3758.694,1173.266 3759.843,1174.422C3761.747,1176.335 3762.593,1177.827 3764.616,1178.962C3768.178,1180.96 3775.15,1184.616 3782.075,1185.043C3789.312,1185.489 3795.399,1183.34 3798.737,1182.205C3802.603,1180.89 3806.765,1176.521 3808.846,1174.422C3810.535,1172.719 3811.582,1171.696 3812.97,1169.214C3814.277,1166.878 3815.531,1164.102 3815.9,1162.52C3816.63,1159.399 3816.954,1155.303 3816.954,1151.721C3816.954,1148.706 3816.742,1145.206 3815.539,1141.875C3814.011,1137.647 3811.941,1134.256 3808.846,1130.553C3807.307,1128.711 3801.179,1124.337 3797.797,1123.129C3794.702,1122.023 3788.085,1120.524 3784.413,1120.499C3778.946,1120.461 3774.427,1121.025 3770.392,1123.041C3766.487,1124.993 3762.475,1127.464 3759.843,1130.553Z" style="stroke:#000;stroke-width:1px;"/>
        </g>
    </g>
</svg>
