<?xml version="1.0" encoding="UTF-8" standalone="no"?>
<!DOCTYPE svg PUBLIC "-//W3C//DTD SVG 1.1//EN" "http://www.w3.org/Graphics/SVG/1.1/DTD/svg11.dtd">
<svg width="100%" height="100%" viewBox="0 0 5120 1593" version="1.1" xmlns="http://www.w3.org/2000/svg" xmlns:xlink="http://www.w3.org/1999/xlink" xml:space="preserve" xmlns:serif="http://www.serif.com/" style="fill-rule:evenodd;clip-rule:evenodd;stroke-linecap:round;stroke-linejoin:round;stroke-miterlimit:1.5;">
    <g id="Learn-More" serif:id="Learn More">
        <path d="M2554.226,1092.185C3145.918,1086.976 3349.605,1302.898 3309.966,1461.281C3250.424,1699.189 3005.825,1391.756 2565.214,1388.41C2163.972,1385.363 1922.756,1720.206 1813.138,1458.839C1754.745,1319.612 2023.176,1096.859 2554.226,1092.185Z" style="fill:#2f3552;stroke:#000;stroke-width:25px;"/>
        <g transform="matrix(1,0,0,1,0.303095,30.522593)">
            <g transform="matrix(0.934639,-0.355599,0.355599,0.934639,-343.761227,841.840132)">
                <text x="2118.136px" y="1356.037px" style="font-family:'ArialRoundedMTBold', 'Arial Rounded MT Bold', sans-serif;font-size:175px;fill:#fff;">L</text>
            </g>
            <g transform="matrix(0.95871,-0.284386,0.284386,0.95871,-283.971572,683.68485)">
                <text x="2212.455px" y="1319.77px" style="font-family:'ArialRoundedMTBold', 'Arial Rounded MT Bold', sans-serif;font-size:175px;fill:#fff;">e</text>
            </g>
            <g transform="matrix(0.97866,-0.205488,0.205488,0.97866,-216.124387,501.693962)">
                <text x="2307.357px" y="1291.384px" style="font-family:'ArialRoundedMTBold', 'Arial Rounded MT Bold', sans-serif;font-size:175px;fill:#fff;">a</text>
            </g>
            <g transform="matrix(0.991786,-0.127908,0.127908,0.991786,-142.835814,317.98652)">
                <text x="2404.43px" y="1271.115px" style="font-family:'ArialRoundedMTBold', 'Arial Rounded MT Bold', sans-serif;font-size:175px;fill:#fff;">r</text>
            </g>
            <g transform="matrix(0.998465,-0.05539,0.05539,0.998465,-66.043135,139.090224)">
                <text x="2476.144px" y="1260.953px" style="font-family:'ArialRoundedMTBold', 'Arial Rounded MT Bold', sans-serif;font-size:175px;fill:#fff;">n</text>
            </g>
            <g transform="matrix(0.995637,0.093314,-0.093314,0.995637,128.451101,-238.693762)">
                <text x="2616.598px" y="1254.191px" style="font-family:'ArialRoundedMTBold', 'Arial Rounded MT Bold', sans-serif;font-size:175px;fill:#fff;">M</text>
            </g>
            <g transform="matrix(0.979075,0.203498,-0.203498,0.979075,315.653503,-534.063613)">
                <text x="2754.785px" y="1267.877px" style="font-family:'ArialRoundedMTBold', 'Arial Rounded MT Bold', sans-serif;font-size:175px;fill:#fff;">o</text>
            </g>
            <g transform="matrix(0.958453,0.285251,-0.285251,0.958453,486.089255,-760.339521)">
                <text x="2853.179px" y="1288.504px" style="font-family:'ArialRoundedMTBold', 'Arial Rounded MT Bold', sans-serif;font-size:175px;fill:#fff;">r</text>
            </g>
            <g transform="matrix(0.936737,0.350035,-0.350035,0.936737,642.209586,-939.066188)">
                <text x="2919.023px" y="1307.134px" style="font-family:'ArialRoundedMTBold', 'Arial Rounded MT Bold', sans-serif;font-size:175px;fill:#fff;">e</text>
            </g>
        </g>
    </g>
    <g id="Copy-Font" serif:id="Copy Font">
        <g id="Gamification">
            <path id="I" d="M620.354,1063.401C621.21,1064.334 638.719,1081.815 639.355,1082.343C639.882,1082.78 683.971,1127.228 684.756,1127.904C685.289,1128.364 725.809,1169.097 726.081,1169.452C726.435,1169.914 752.558,1195.897 752.953,1196.248C753.408,1196.652 774.187,1217.948 774.491,1218.287C774.816,1218.65 790.276,1233.785 791.899,1234.967C801.238,1241.767 817.56,1250.123 833.181,1234.737C846.369,1221.747 844.19,1205.064 831.758,1190.911C829.456,1188.291 825.872,1185.024 825.213,1184.349C824.745,1183.869 811.199,1170.282 810.563,1169.658C810.102,1169.207 765.311,1124.438 764.266,1123.567C763.405,1122.849 721.411,1080.017 720.628,1079.368C719.887,1078.754 682.245,1041.25 681.828,1040.739C681.633,1040.501 661.33,1020.033 661.57,1020.289C661.839,1020.576 654.005,1012.954 650.116,1010.173C644.387,1006.075 627.073,999.936 613.018,1013.979C601.423,1025.563 601.996,1041.333 609.552,1051.378C613.228,1056.265 619.678,1062.664 620.354,1063.401Z" style="stroke:#000;stroke-width:1px;"/>
            <path id="n" d="M768.151,981.061C758.909,988.698 750.615,1002.45 768.476,1024.758C786.885,1047.752 823.934,1093.411 838.869,1112.719C854.035,1132.326 855.548,1133.666 870.374,1151.627C886.435,1171.083 905.239,1165.559 915.071,1156.983C926.029,1147.426 929.69,1128.506 915.09,1112.436C914.911,1112.239 865.493,1053.209 855.291,1036.324C837.865,1007.486 840.266,984.496 859.734,968.067C876.358,954.037 891.456,954.47 917.171,983.382C937.542,1006.287 980.76,1062.438 980.874,1062.593C991.053,1076.449 1011.967,1079.17 1022.318,1071.097C1041.792,1055.909 1035.92,1036.254 1027.411,1025.625C1027.26,1025.437 1011.362,1006.036 1008.473,1002.199C1002.362,994.085 1011.089,1005.856 992.833,982.436C986.088,973.783 959.607,940.856 959.287,940.49C958.94,940.093 945.858,924.294 941.199,920.404C902.371,887.984 866.175,901.8 844.935,919.367C810.538,947.814 813.017,977.073 811.542,988.247C811.504,988.528 791.207,962.006 768.151,981.061Z" style="stroke:#000;stroke-width:1px;"/>
            <path id="t" d="M970.901,830.289C967.595,831.757 943.191,846.842 956.208,866.283C969.935,886.785 992.394,869.21 994.705,867.844C994.806,867.784 1018.845,905.2 1018.978,905.378C1019.15,905.608 1048.229,951.07 1048.621,951.616C1049.063,952.233 1059.848,969.275 1062.211,971.863C1064.345,974.2 1076.758,990.21 1085.74,994.449C1097.658,1000.074 1115.856,1004.854 1143.127,986.825C1162.129,974.262 1195.263,950.135 1176.601,926.369C1166.349,913.311 1150.623,917.697 1138.957,932.045C1138.792,932.248 1120.568,954.231 1106.875,931.416C1106.732,931.177 1074.074,880.981 1074.025,880.927C1073.978,880.876 1044.596,835.901 1045.228,835.51C1061.177,825.624 1083.164,811.563 1070.917,793.353C1057.65,773.625 1042.682,784.333 1021.17,798.192C1020.828,798.412 995.882,758.673 995.778,758.515C989.942,749.675 973.915,734.299 953.414,746.71C930.342,760.677 941.967,784.399 945.861,790.821C947.211,793.047 971.014,830.238 970.901,830.289Z" style="stroke:#000;stroke-width:1px;"/>
            <path id="e" d="M1119.029,818.802C1120.609,829.865 1130.999,858.97 1141.767,874.988C1151.469,889.42 1173.579,909.689 1191.95,919.494C1205.321,926.63 1251.37,933.571 1291.328,912.006C1339.685,885.908 1345.722,866.3 1354.546,846.578C1362.084,829.732 1363.569,794.249 1336.785,791.314C1294.176,786.646 1310.443,849.115 1269.525,867.062C1228.37,885.113 1206.21,846.121 1206.507,845.962C1226.575,835.184 1286.135,804.945 1309.605,789.495C1333.198,773.965 1329.134,753.825 1322.56,739.046C1322.4,738.687 1270.678,766.401 1270.215,766.288C1269.544,766.124 1183.246,814.234 1183.134,814.026C1168.178,786.177 1174.145,756.3 1200.414,741.731C1221.635,729.961 1248.829,735.431 1270.215,766.288C1270.269,766.366 1322.596,739.115 1322.56,739.046C1316.776,727.838 1301.692,705.65 1270.536,692.857C1247.713,683.486 1208.593,685.474 1184.21,698.327C1147.907,717.463 1132.133,740.631 1125.624,756.09C1109.52,794.341 1118.199,812.993 1119.029,818.802Z" style="stroke:#000;stroke-width:1px;"/>
            <path id="r" d="M1350.158,625.192C1340.973,629.274 1328.343,641.846 1335.531,662.235C1338.039,669.35 1360.91,721.158 1363.413,727.562C1366.182,734.65 1377.772,761.203 1378.89,763.707C1380.881,768.162 1385.622,780.394 1394.414,800.112C1394.694,800.739 1402.543,818.064 1406.814,825.164C1410.312,830.98 1423.334,842.518 1441.39,834.996C1457.911,828.113 1462.423,813.132 1457.341,795.797C1456.49,792.894 1456.841,795.033 1445.909,769.149C1443.391,763.187 1436.71,748.373 1435.291,745.403C1428.382,730.941 1419.588,705.488 1418.088,699.102C1411.724,672.008 1416.753,659.97 1422.599,652.564C1432.187,640.417 1459.723,641.961 1466.624,639.412C1476.111,635.907 1482.216,628.151 1483.056,616.522C1483.537,609.869 1481.155,602.518 1473.471,596.17C1464.988,589.162 1443.977,585.277 1419.008,595.459C1394.154,605.594 1390.351,628.538 1388.5,642.46C1388.489,642.54 1381.147,629.336 1376.352,626.345C1371.081,623.058 1362.166,619.855 1350.158,625.192Z" style="stroke:#000;stroke-width:1px;"/>
            <path id="a" d="M1525.364,644.706C1536.836,644.429 1547.939,639.489 1549.751,627.247C1555.333,589.521 1572.158,583.702 1587.361,577.437C1621.821,563.235 1625.342,574.181 1640.751,598.747C1641.062,599.242 1653.886,633.434 1654.061,633.838C1711.141,765.803 1473.194,731.278 1654.061,633.838C1654.121,633.806 1640.779,598.737 1640.751,598.747C1640.697,598.768 1578.909,641.01 1562.175,652.336C1527.993,675.47 1522.821,707.407 1536.896,736.987C1550.067,764.666 1591.644,774.468 1627.089,760.24C1668.036,743.803 1677.307,720.973 1687.291,706.802C1687.429,706.606 1702.03,718.373 1714.314,722.233C1726.793,726.154 1734.701,723.495 1743.963,712.257C1752.564,701.819 1749.258,689.965 1746.759,686.531C1730.731,664.512 1733.373,668.959 1723.574,652.186C1722.593,650.507 1694.187,576.76 1686.951,563.788C1662.133,519.298 1631.626,514.283 1579.044,535.354C1534.112,553.36 1505.976,577.312 1502.379,605.808C1499.29,630.285 1511.105,645.05 1525.364,644.706Z" style="stroke:#000;stroke-width:1px;"/>
            <path id="c" d="M1726.978,560.965C1725.834,576.442 1732.007,599.67 1735.159,611.435C1736.519,616.512 1740.792,625.762 1743.18,631.408C1747.211,640.937 1755.843,652.877 1764.879,662.051C1773.733,671.04 1776.552,672.3 1783.475,676.233C1798.463,684.748 1811.045,688.181 1818.95,689.241C1837.859,691.777 1851.883,691.793 1871.138,686.527C1900.705,678.442 1919.763,668.193 1938.03,648.615C1948.918,636.944 1952.433,628.533 1958.108,613.496C1965.795,593.127 1956.247,564.336 1934.722,561.988C1907.986,559.071 1901.701,575.873 1896.472,599.128C1888.597,634.147 1820.158,656.988 1801.131,587.933C1775.875,496.272 1856.288,495.132 1879.57,525.768C1892.403,542.653 1917.187,533.561 1926.466,523.047C1937.383,510.677 1930.681,488.186 1923.178,480.248C1914.196,470.745 1898.106,457.83 1877.945,452.129C1858.504,446.631 1827.377,448.668 1801.449,458.022C1775.701,467.31 1763.475,475.885 1750.817,491.978C1725.159,524.599 1727.845,549.228 1726.978,560.965Z" style="stroke:#000;stroke-width:1px;"/>
            <path id="t1" serif:id="t" d="M1983.756,429.294C1980.144,429.498 1951.982,434.971 1957.277,457.761C1962.862,481.793 1990.085,473.303 1992.731,472.843C1992.846,472.823 2002.09,516.324 2002.152,516.538C2002.231,516.814 2013.342,569.624 2013.515,570.273C2013.711,571.007 2017.767,590.763 2019.062,594.02C2020.23,596.96 2026.175,616.327 2033.076,623.47C2042.232,632.948 2057.562,643.858 2089.448,636.646C2111.666,631.62 2151.193,620.778 2142.149,591.946C2137.18,576.106 2120.92,574.643 2104.932,583.934C2104.705,584.066 2079.882,598.178 2075.148,571.994C2075.099,571.72 2062.316,513.215 2062.289,513.148C2062.264,513.083 2050.697,460.621 2051.426,460.479C2069.841,456.877 2095.382,451.505 2090.371,430.14C2084.943,406.993 2067.154,411.713 2042.13,417.062C2041.733,417.147 2032.462,371.152 2032.421,370.967C2030.091,360.634 2020.541,340.582 1996.975,344.936C1970.454,349.835 1972.932,376.135 1974.302,383.52C1974.777,386.08 1983.88,429.287 1983.756,429.294Z" style="stroke:#000;stroke-width:1px;"/>
            <path id="i" d="M2150.567,374.291C2150.572,374.29 2153.879,395.603 2153.862,395.606C2137.745,398.437 2125.652,411.69 2129.564,433.349C2129.633,433.735 2128.916,429.973 2133.745,461.213C2135.673,473.682 2139.001,494.783 2140.388,502.601C2141.816,510.654 2147.185,547.92 2148.116,554.275C2148.219,554.977 2154.199,593.458 2154.363,594.27C2156.805,606.379 2166.164,625.429 2188.878,622.126C2210.278,619.015 2215.277,599.205 2213.303,584.523C2213.15,583.385 2207.992,549.776 2207.865,549.398C2207.804,549.217 2201.856,511.358 2201.828,510.816C2201.79,510.083 2193.042,452.954 2192.91,452.417C2192.657,451.389 2187.852,420.388 2187.816,420.252C2182.655,400.768 2169.022,394.082 2153.862,395.606C2153.853,395.607 2150.48,374.302 2150.567,374.291C2165.998,372.376 2177.9,359.71 2175.725,341.421C2174.2,328.6 2163.871,313.963 2143.115,316.433C2118.656,319.343 2115.507,341.933 2116.718,349.725C2118.922,363.912 2129.336,377.36 2150.567,374.291Z" style="stroke:#000;stroke-width:1px;"/>
            <path id="v" d="M2242.258,379.73C2227.929,385.785 2222.233,402.01 2230.697,419.27C2235.357,428.774 2238.456,435.251 2242.388,443.85C2246.135,452.044 2254.059,467.432 2258.586,475.785C2260.64,479.575 2272.127,502.863 2274.467,507.275C2276.687,511.459 2287.596,534.312 2290.888,540.311C2293.29,544.687 2304.696,566.765 2310.929,578.557C2314.871,586.013 2323.696,602.023 2347.193,599.032C2368.534,596.317 2372.078,586.254 2380.533,562.215C2381.874,558.401 2392.799,523.155 2393.301,520.92C2393.942,518.062 2405.587,481.524 2406.439,479.304C2407.815,475.718 2416.162,448.451 2416.465,446.821C2416.625,445.961 2423.563,424.021 2423.836,422.689C2423.876,422.496 2428.867,406.446 2430.297,402.028C2437.331,380.296 2424.725,367.822 2412.437,365.359C2394.725,361.808 2385.074,366.037 2376.963,394.531C2376.893,394.777 2340.012,526.432 2339.819,526.448C2339.503,526.473 2295.064,431.403 2282.479,399.961C2272.174,374.216 2257.739,373.187 2242.258,379.73Z" style="stroke:#000;stroke-width:1px;"/>
            <path id="e1" serif:id="e" d="M2461.799,425.868C2457.845,436.321 2452.901,466.826 2454.604,486.052C2456.138,503.375 2465.723,531.796 2477.083,549.25C2485.35,561.951 2522.335,590.251 2567.739,590.643C2622.687,591.118 2637.436,576.857 2654.681,563.841C2669.413,552.723 2687.835,522.36 2665.791,506.866C2630.723,482.217 2614.829,544.782 2570.329,540.757C2525.572,536.71 2524.977,491.864 2525.314,491.868C2548.092,492.111 2614.85,494.365 2642.862,492.158C2671.02,489.939 2677.179,470.339 2678.553,454.221C2678.586,453.83 2619.911,453.147 2619.559,452.824C2619.051,452.356 2520.25,452.854 2520.252,452.618C2520.59,421.009 2540.233,397.72 2570.272,397.634C2594.538,397.565 2615.717,415.477 2619.559,452.824C2619.569,452.918 2678.55,454.299 2678.553,454.221C2678.895,441.614 2676.389,414.901 2655.273,388.662C2639.805,369.441 2604.581,352.307 2577.022,351.799C2535.991,351.042 2510.996,363.723 2497.836,374.123C2465.273,399.856 2463.875,420.38 2461.799,425.868Z" style="stroke:#000;stroke-width:1px;"/>
            <path id="E" d="M2850.894,294.901C2841.445,301.911 2840.518,313.095 2838.727,327.823C2835.261,356.332 2818.055,529.277 2817.093,537.615C2815.37,552.543 2814.649,563.595 2819.479,571.962C2824.97,581.474 2833.147,586.974 2849.927,588.828C2850.478,588.889 3011.683,604.93 3013.373,605.049C3037.92,606.777 3045.492,593.163 3046.869,583.694C3048.193,574.588 3044.982,556.573 3020.243,553.641C3018.63,553.45 2881.383,539.77 2881.36,539.485C2881.338,539.22 2889.657,459.874 2889.705,459.517C2889.729,459.338 3011.232,471.888 3011.527,471.916C3053.163,475.875 3052.994,424.503 3018.531,423.13C3014.192,422.957 2894.349,410.575 2894.388,410.195C2894.416,409.919 2901.639,342.209 2901.561,342.003C2901.528,341.915 3014.063,353.08 3032.24,355.06C3059.316,358.009 3065.908,343.994 3067.112,333.271C3068.474,321.134 3063.732,307.898 3038.901,305.071C2998.126,300.429 2895.242,290.635 2889.532,290.083C2871.682,288.359 2863.002,285.917 2850.894,294.901Z" style="stroke:#000;stroke-width:1px;"/>
            <path id="l" d="M3123.543,352.052C3123.271,353.289 3119.012,377.662 3118.946,378.486C3118.891,379.168 3107.816,440.786 3107.712,441.817C3107.642,442.518 3097.56,499.081 3097.425,499.507C3097.25,500.063 3090.977,536.369 3090.917,536.894C3090.847,537.499 3085.343,566.739 3085.24,567.183C3085.13,567.657 3081.615,589.005 3081.579,591.012C3081.374,602.562 3083.905,620.723 3105.472,624.678C3123.68,628.017 3136.087,616.654 3140.536,598.349C3141.359,594.959 3141.976,590.149 3142.15,589.222C3142.274,588.564 3145.62,569.672 3145.765,568.792C3145.87,568.156 3156.804,505.779 3156.918,504.423C3157.012,503.306 3167.966,444.331 3168.048,443.317C3168.124,442.358 3177.217,390.005 3177.395,389.371C3177.478,389.074 3182.578,360.699 3182.506,361.042C3182.425,361.427 3184.167,350.637 3184.212,345.856C3184.277,338.813 3179.361,321.113 3159.794,317.668C3143.652,314.827 3131.069,324.351 3127.184,336.305C3125.294,342.121 3123.758,351.076 3123.543,352.052Z" style="stroke:#000;stroke-width:1px;"/>
            <path id="e2" serif:id="e" d="M3211.236,472.389C3204.581,481.366 3191.502,509.366 3187.895,528.327C3184.645,545.411 3186.113,575.369 3192.281,595.26C3196.769,609.735 3224.631,647.051 3268.205,659.815C3320.94,675.262 3339.02,665.565 3359.162,657.748C3376.368,651.07 3402.374,626.885 3385.393,605.964C3358.381,572.684 3326.021,628.539 3284.307,612.528C3242.352,596.424 3254.013,553.117 3254.337,553.212C3276.184,559.661 3339.796,580.041 3367.347,585.559C3395.043,591.106 3406.315,573.93 3412.033,558.798C3412.172,558.431 3355.909,541.767 3355.659,541.36C3355.297,540.772 3260.108,514.297 3260.175,514.071C3269.123,483.753 3294.374,466.705 3323.297,474.818C3346.662,481.371 3362.151,504.382 3355.659,541.36C3355.642,541.453 3412.01,558.873 3412.033,558.798C3415.802,546.762 3420.678,520.379 3407.522,489.375C3397.884,466.664 3368.67,440.57 3342.296,432.563C3303.027,420.641 3275.521,426.022 3260.023,432.437C3221.675,448.311 3214.73,467.675 3211.236,472.389Z" style="stroke:#000;stroke-width:1px;"/>
            <path id="m" d="M3530.344,515.561C3530.274,515.594 3540.411,487.979 3515.816,477.711C3495.583,469.265 3483.786,479.361 3474.882,502.089C3465.841,525.166 3429.664,617.443 3418.133,646.876C3411.535,663.72 3412.58,683.284 3432.698,691.166C3457.203,700.766 3470.038,681.959 3474.72,669.86C3510.013,578.648 3524.953,529.932 3565.788,547.201C3601.434,562.276 3578.01,593.21 3541.618,688.27C3536.996,700.343 3527.208,727.869 3554.284,738.476C3579.628,748.405 3591.426,730.149 3598.36,710.637C3630.953,618.915 3643.715,589.426 3678.164,593.26C3722.983,598.247 3702.481,635.24 3659.656,742.427C3648.989,769.124 3664.255,782.181 3675.951,786.267C3685.332,789.544 3705.486,792.657 3716.318,765.008C3726.509,738.994 3753.29,669.34 3760.085,652.365C3774.4,616.6 3768.569,575.933 3720.083,558.354C3696.842,549.928 3675.269,547.659 3646.883,563.561C3646.847,563.582 3645.351,530.586 3603.105,512.419C3565.105,496.079 3534.668,513.492 3530.344,515.561Z" style="stroke:#000;stroke-width:1px;"/>
            <path id="e3" serif:id="e" d="M3807.32,659.171C3798.623,666.19 3778.932,690.008 3770.679,707.456C3763.243,723.176 3757.14,752.543 3758.115,773.344C3758.825,788.483 3776.423,831.6 3815.395,854.898C3862.56,883.094 3882.496,878.248 3903.956,875.739C3922.287,873.596 3953.534,856.717 3942.351,832.203C3924.561,793.205 3879.211,839.144 3842.855,813.17C3806.289,787.046 3828.453,748.055 3828.742,748.229C3848.27,759.957 3904.725,795.659 3930.007,807.919C3955.422,820.244 3970.647,806.449 3979.982,793.238C3980.208,792.918 3929.933,762.658 3929.793,762.202C3929.591,761.541 3844.101,712.01 3844.222,711.808C3860.498,684.709 3889.221,674.549 3915.18,689.665C3936.15,701.876 3945.364,728.039 3929.793,762.202C3929.754,762.288 3979.94,793.305 3979.982,793.238C3986.652,782.535 3997.998,758.221 3993.049,724.907C3989.423,700.503 3967.699,667.909 3944.181,653.535C3909.165,632.134 3881.188,630.435 3864.576,632.752C3823.471,638.487 3811.886,655.486 3807.32,659.171Z" style="stroke:#000;stroke-width:1px;"/>
            <path id="n1" serif:id="n" d="M4098.087,741.619C4087.945,735.225 4072.292,731.641 4056.677,755.575C4040.582,780.244 4008.777,829.699 3995.099,849.917C3981.209,870.447 3980.408,872.303 3967.976,891.997C3954.508,913.331 3965.629,929.469 3976.846,936.132C3989.347,943.557 4008.464,941.126 4019.171,922.237C4019.302,922.006 4059.947,856.625 4072.801,841.66C4094.755,816.099 4117.345,811.201 4139.032,824.564C4157.551,835.975 4161.856,850.453 4142.42,883.912C4127.023,910.417 4087.177,969.009 4087.065,969.166C4077.081,983.163 4081.028,1003.88 4091.929,1011.192C4112.439,1024.949 4129.278,1013.233 4136.717,1001.83C4136.848,1001.629 4150.314,980.467 4153.057,976.524C4158.858,968.185 4150.4,980.151 4166.947,955.494C4173.061,946.384 4196.072,910.944 4196.319,910.526C4196.588,910.072 4207.512,892.711 4209.752,887.07C4228.425,840.059 4203.996,809.989 4180.675,795.296C4142.909,771.504 4115.887,782.997 4104.811,785.084C4104.533,785.137 4123.389,757.572 4098.087,741.619Z" style="stroke:#000;stroke-width:1px;"/>
            <path id="t2" serif:id="t" d="M4297.81,888.898C4295.32,886.275 4272.935,868.33 4258.974,887.106C4244.252,906.905 4268.332,922.183 4270.393,923.903C4270.483,923.978 4243.277,959.158 4243.153,959.343C4242.994,959.582 4209.893,1002.205 4209.51,1002.757C4209.077,1003.38 4196.629,1019.249 4194.982,1022.342C4193.495,1025.135 4182.566,1042.192 4181.578,1052.075C4180.269,1065.188 4181.858,1083.937 4207.978,1103.597C4226.178,1117.296 4260.007,1140.438 4276.153,1114.896C4285.023,1100.863 4275.625,1087.513 4258.2,1081.325C4257.952,1081.237 4231.137,1071.427 4248.05,1050.885C4248.227,1050.669 4284.59,1003.09 4284.625,1003.025C4284.657,1002.964 4317.198,960.219 4317.778,960.682C4332.433,972.401 4353.045,988.41 4366.103,970.774C4380.25,951.666 4365.148,941.148 4344.886,925.518C4344.564,925.27 4373.656,888.458 4373.771,888.306C4380.147,879.848 4389.268,859.597 4370.709,844.435C4349.823,827.372 4331.363,846.268 4326.615,852.089C4324.969,854.106 4297.896,888.988 4297.81,888.898Z" style="stroke:#000;stroke-width:1px;"/>
            <path id="s" d="M4363.133,1063.18C4364.351,1107.581 4392.895,1134.037 4400.613,1158.95C4410.604,1191.197 4396.797,1190.656 4386.022,1188.146C4357.969,1181.609 4346.202,1149.593 4348.352,1135.779C4351.398,1116.205 4361.42,1097.289 4338.719,1084.982C4324.597,1077.326 4308.697,1085.062 4300.661,1093.942C4295.244,1099.928 4286.701,1109.678 4287.719,1132.464C4288.823,1157.182 4306.741,1188.147 4326.324,1208.626C4336.702,1219.479 4365.223,1245.223 4397.929,1249.445C4423.675,1252.768 4437.461,1242.114 4451.715,1228.136C4457.486,1222.477 4466.907,1211.237 4470.737,1193.196C4475.551,1170.516 4459.464,1142.912 4446.723,1118.469C4436.808,1099.445 4417.091,1074.181 4430.418,1063.287C4440.849,1054.76 4455.972,1068.825 4460.582,1074.743C4464.977,1080.386 4475.354,1093.111 4470.716,1110.725C4467.81,1121.763 4467.479,1147.636 4494.827,1157.693C4521.262,1167.415 4560.208,1109.647 4498.778,1042.87C4453.727,993.897 4412.733,999.813 4398.692,1008.698C4382.766,1018.775 4362.41,1036.851 4363.133,1063.18Z" style="stroke:#000;stroke-width:1px;"/>
            <path id="F" d="M1356.032,1045.95C1352.031,1055.874 1357.18,1065.838 1361.911,1076.164C1374.18,1102.942 1401.297,1158.19 1411.784,1180.233C1422.431,1202.613 1418.426,1194.575 1432.006,1223.12C1437.426,1234.514 1450.842,1263.286 1460.124,1282.797C1470.066,1303.694 1489.262,1309.486 1503.718,1302.609C1527.21,1291.432 1524.179,1267.583 1518.42,1255.477C1517.363,1253.255 1475.139,1166.856 1475.903,1166.492C1482.747,1163.236 1493.811,1157.973 1519.184,1145.902C1546.864,1132.733 1541.905,1135.079 1560.603,1126.183C1570.532,1121.46 1589.375,1111.327 1579.135,1089.803C1569.839,1070.262 1551.608,1076.222 1544.573,1079.569C1516.028,1093.149 1455.504,1122.001 1454.8,1121.751C1454.096,1121.501 1424.865,1057.77 1424.544,1057.096C1424.519,1057.044 1506.606,1017.675 1523.117,1009.82C1540.759,1001.426 1555.092,990.782 1545.759,971.164C1541.543,962.302 1532.396,949.69 1507.506,961.532C1470.375,979.196 1408.267,1008.61 1380.112,1021.957C1363.523,1029.82 1360.672,1034.44 1356.032,1045.95Z" style="stroke:#000;stroke-width:1px;"/>
            <path id="o" d="M1614.121,1069.331C1613.951,1074.886 1617.024,1092.519 1619.176,1100.777C1620.751,1106.818 1625.599,1118.733 1628.128,1124.363C1629.449,1127.304 1638.8,1142.48 1640.69,1145.436C1642.306,1147.964 1656.59,1163.091 1661.777,1166.9C1675.412,1176.913 1678.662,1178.823 1689.553,1182.697C1709.796,1189.896 1736.879,1191.908 1770.055,1179.468C1822.721,1159.721 1834.879,1121.244 1837.196,1113.886C1841.982,1098.689 1844.391,1059.196 1833.16,1031.797C1833.142,1031.753 1777.329,1053.498 1777.347,1053.635C1777.361,1053.741 1804.094,1116.429 1754.843,1137.136C1705.812,1157.75 1683.14,1102.85 1678.661,1089.993C1664.402,1049.063 1674.569,1018.853 1703.113,1008.381C1755.863,989.027 1777.421,1053.749 1777.347,1053.635C1777.191,1053.397 1832.972,1031.716 1833.16,1031.797C1833.171,1031.802 1820.116,986.732 1773.34,965.006C1746.094,952.351 1711.964,955.377 1686.539,966.022C1649.692,981.45 1635.029,1000.606 1624.459,1019.433C1612.711,1040.359 1614.299,1063.509 1614.121,1069.331Z" style="stroke:#000;stroke-width:1px;"/>
            <path id="r1" serif:id="r" d="M1860.955,910.868C1851.362,913.87 1837.374,924.91 1842.176,945.989C1843.851,953.344 1860.631,1007.433 1862.383,1014.082C1864.321,1021.44 1872.789,1049.148 1873.613,1051.763C1875.08,1056.418 1878.388,1069.112 1884.86,1089.708C1885.066,1090.363 1890.877,1108.474 1894.306,1116.017C1897.113,1122.196 1908.726,1135.151 1927.526,1129.749C1944.727,1124.806 1950.928,1110.441 1947.867,1092.638C1947.354,1089.656 1947.458,1091.822 1939.566,1064.854C1937.749,1058.644 1932.81,1043.161 1931.741,1040.048C1926.536,1024.889 1920.719,998.596 1919.961,992.079C1916.746,964.434 1923.122,953.052 1929.779,946.366C1940.696,935.398 1967.874,940.09 1975.021,938.349C1984.848,935.955 1991.802,928.95 1993.97,917.494C1995.21,910.941 1993.688,903.365 1986.782,896.178C1979.158,888.243 1958.731,881.974 1932.759,889.226C1906.908,896.444 1900.499,918.8 1897.064,932.418C1897.044,932.497 1891.264,918.538 1886.843,915.016C1881.984,911.146 1873.495,906.943 1860.955,910.868Z" style="stroke:#000;stroke-width:1px;"/>
            <path id="Period" d="M2027.294,949.353C2025.464,951.5 2023.565,955.115 2022.267,958.118C2020.874,961.343 2019.43,967.033 2019.43,969.944C2019.43,972.9 2019.754,978.011 2020.159,979.836C2020.486,981.305 2021.969,984.957 2023.267,987.282C2025.183,990.714 2026.145,992.066 2027.294,993.222C2029.198,995.135 2030.044,996.627 2032.067,997.762C2035.629,999.76 2042.601,1003.416 2049.526,1003.843C2056.763,1004.289 2062.85,1002.14 2066.188,1001.005C2070.054,999.69 2074.216,995.321 2076.297,993.222C2077.986,991.519 2079.032,990.496 2080.421,988.014C2081.727,985.678 2082.981,982.902 2083.351,981.32C2084.081,978.199 2084.405,974.103 2084.405,970.521C2084.405,967.506 2084.193,964.006 2082.99,960.675C2081.462,956.447 2079.392,953.056 2076.297,949.353C2074.758,947.511 2068.63,943.137 2065.248,941.929C2062.153,940.823 2055.536,939.324 2051.864,939.299C2046.397,939.261 2041.878,939.825 2037.843,941.841C2033.938,943.793 2029.926,946.264 2027.294,949.353Z" style="stroke:#000;stroke-width:1px;"/>
            <path id="Y" d="M2111.932,760.4C2094.445,770.879 2095.947,790.804 2108.236,806.107C2126.679,829.073 2157.715,860.926 2161.212,864.167C2166.595,869.157 2213.486,919.218 2213.737,921.318C2214.35,926.463 2216.252,931.73 2219.435,953.101C2221.079,964.142 2222.387,972.192 2224.871,984.926C2226.919,995.425 2229.884,1017.455 2230.516,1019.632C2235.075,1035.335 2246.533,1050.449 2268.909,1046.245C2291.297,1042.039 2294.768,1024.324 2293.522,1006.587C2293.472,1005.876 2290.089,986.222 2289.051,980.7C2287.985,975.03 2283.649,953.495 2283.254,950.085C2282.971,947.634 2277.142,910.656 2276.994,910.274C2276.811,909.801 2312.024,828.121 2312.504,826.51C2316.6,812.771 2340.402,765.354 2340.647,752.601C2340.916,738.627 2335.808,730.434 2325.226,725.461C2317.129,721.655 2294.578,719.334 2285.221,741.187C2284.803,742.162 2237.33,860.984 2237.057,861.071C2236.678,861.191 2154.536,769.65 2154.017,769.02C2141.507,753.821 2128.265,750.613 2111.932,760.4Z" style="stroke:#000;stroke-width:1px;"/>
            <path id="o1" serif:id="o" d="M2368.62,857.107C2366.529,862.256 2363.278,879.857 2362.424,888.348C2361.8,894.56 2362.202,907.417 2362.615,913.575C2362.831,916.792 2366.321,934.272 2367.065,937.701C2367.7,940.633 2375.832,959.783 2379.371,965.158C2388.673,979.288 2391.056,982.21 2399.92,989.629C2416.396,1003.419 2441.088,1014.723 2476.52,1014.597C2532.766,1014.398 2557.546,982.55 2562.277,976.458C2572.05,963.874 2588.042,927.683 2587.041,898.089C2587.039,898.042 2527.147,899.019 2527.116,899.154C2527.093,899.258 2530.357,967.33 2476.978,969.617C2423.84,971.894 2421.674,912.536 2421.946,898.923C2422.812,855.589 2442.849,830.801 2473.254,830.909C2529.442,831.108 2527.146,899.287 2527.116,899.154C2527.054,898.877 2586.892,897.947 2587.041,898.089C2587.049,898.097 2590.482,851.3 2554.181,814.663C2533.037,793.323 2499.985,784.291 2472.445,785.43C2432.532,787.081 2412.123,799.942 2395.665,813.919C2377.374,829.453 2370.811,851.71 2368.62,857.107Z" style="stroke:#000;stroke-width:1px;"/>
            <path id="u" d="M2692.034,810.381C2692.326,804.023 2688.362,779.352 2664.981,778.587C2638.055,777.706 2633.222,800.163 2632.69,809.061C2631.211,833.801 2627.852,929.482 2627.855,931.214C2627.874,944.389 2629.278,961.652 2636.429,974.369C2638.625,978.276 2646.37,989.067 2653.308,994.214C2660.174,999.308 2671.636,1005.4 2684.831,1007.791C2697.173,1010.028 2711.75,1009.37 2717.288,1008.221C2729.982,1005.586 2736.925,1003.962 2744.927,999.277C2754.19,993.853 2764.946,984.547 2770.938,978.219C2771.152,977.993 2767.133,1012.502 2798.904,1013.847C2821.651,1014.81 2827.171,990.933 2826.995,983.873C2826.984,983.414 2833.942,819.797 2833.989,818.696C2834.402,809.14 2831.211,786.279 2806.633,784.844C2785.466,783.608 2776.617,797.626 2774.628,816.601C2774.532,817.519 2769.495,916.418 2769.489,916.981C2769.241,938.84 2751.029,962.424 2725.042,963.038C2691.236,963.837 2688.408,934.443 2687.988,916.407C2687.979,915.989 2691.764,816.242 2692.034,810.381Z" style="stroke:#000;stroke-width:1px;"/>
            <path id="r2" serif:id="r" d="M2931.048,802.92C2921.072,801.694 2903.773,805.973 2899.443,827.155C2897.933,834.546 2890.883,890.737 2889.733,897.516C2888.46,905.018 2884.733,933.75 2884.403,936.472C2883.817,941.317 2881.589,954.245 2878.98,975.676C2878.897,976.357 2876.712,995.251 2876.72,1003.537C2876.726,1010.324 2881.954,1026.918 2901.306,1029.76C2919.014,1032.36 2930.593,1021.837 2935.155,1004.358C2935.92,1001.431 2935.12,1003.446 2939.067,975.626C2939.976,969.219 2941.87,953.079 2942.182,949.802C2943.701,933.847 2949.258,907.498 2951.259,901.25C2959.744,874.743 2970.252,867.01 2979.075,863.668C2993.547,858.187 3016.362,873.681 3023.591,875.047C3033.53,876.924 3042.756,873.415 3049.46,863.876C3053.296,858.419 3055.037,850.891 3051.715,841.494C3048.047,831.119 3032.031,816.976 3005.382,812.857C2978.857,808.757 2963.789,826.473 2955.037,837.457C2954.987,837.521 2955.486,822.42 2952.914,817.388C2950.086,811.857 2944.09,804.524 2931.048,802.92Z" style="stroke:#000;stroke-width:1px;"/>
            <path id="S" d="M3205.67,901.007C3227.948,945.22 3280.555,963.254 3303.581,984.592C3341.591,1019.814 3314.376,1049.5 3285.569,1052.587C3251.029,1056.289 3214.233,1035.326 3210.913,1003.89C3208.131,977.541 3210.816,952.347 3179.991,951.717C3158.287,951.274 3149.703,972.453 3149.68,988.28C3149.664,999.694 3148.116,1010.471 3160.806,1036.076C3174.571,1063.852 3205.895,1083.878 3237.578,1094.685C3254.369,1100.413 3298.031,1112.183 3335.704,1095.666C3365.361,1082.664 3373.04,1062.911 3381.985,1044.236C3386.66,1034.477 3389.896,1014.82 3384.885,991.517C3378.585,962.22 3339.28,935.938 3311.847,917.98C3290.659,904.109 3251.776,883.224 3261.684,856.776C3268.024,839.853 3291.334,833.016 3324.999,844.856C3341.962,850.823 3355.348,862.951 3358.847,890.534C3359.528,895.9 3360.035,931.249 3394.856,924.964C3428.513,918.89 3439.6,836.693 3338.923,799.867C3265.089,772.86 3223.175,802.846 3209.328,829.079C3197.567,851.359 3193.17,876.2 3205.67,901.007Z" style="stroke:#000;stroke-width:1px;"/>
            <path id="i1" serif:id="i" d="M3506.11,917.015C3506.114,917.016 3498.54,937.21 3498.524,937.205C3483.091,931.765 3466.051,937.38 3458.834,958.173C3458.706,958.543 3459.926,954.914 3448.809,984.505C3444.371,996.316 3436.919,1016.336 3434.292,1023.829C3431.586,1031.547 3417.982,1066.654 3415.675,1072.649C3415.421,1073.311 3401.754,1109.776 3401.498,1110.565C3397.686,1122.314 3396.495,1143.505 3417.908,1151.771C3438.082,1159.558 3452.156,1144.749 3457.639,1130.987C3458.065,1129.919 3470.058,1098.103 3470.133,1097.711C3470.169,1097.524 3483.558,1061.616 3483.8,1061.13C3484.127,1060.472 3504.531,1006.399 3504.679,1005.866C3504.963,1004.846 3515.985,975.475 3516.02,975.339C3521.081,955.828 3512.481,943.314 3498.524,937.205C3498.516,937.201 3506.029,916.981 3506.11,917.015C3520.496,922.916 3537.081,917.718 3544.158,900.714C3549.119,888.794 3547.299,870.972 3528,862.942C3505.259,853.478 3491.433,871.618 3488.665,879.002C3483.626,892.446 3486.103,909.273 3506.11,917.015Z" style="stroke:#000;stroke-width:1px;"/>
            <path id="t3" serif:id="t" d="M3592.235,979.034C3589.187,977.086 3563.147,965.044 3554.106,986.623C3544.571,1009.38 3571.616,1018.425 3574.03,1019.6C3574.136,1019.651 3556.176,1060.336 3556.101,1060.546C3556.004,1060.816 3534.111,1110.142 3533.872,1110.77C3533.601,1111.479 3525.33,1129.873 3524.474,1133.272C3523.701,1136.34 3517.189,1155.523 3518.605,1165.354C3520.484,1178.398 3526.53,1196.216 3556.608,1209.025C3577.565,1217.951 3615.963,1232.289 3625.501,1203.617C3630.741,1187.864 3618.411,1177.163 3600.009,1175.342C3599.748,1175.316 3571.361,1172.234 3582.844,1148.231C3582.964,1147.979 3606.833,1093.057 3606.851,1092.987C3606.868,1092.919 3628.188,1043.609 3628.862,1043.92C3645.903,1051.775 3669.758,1062.364 3678.196,1042.107C3687.339,1020.161 3670.153,1013.578 3646.73,1003.273C3646.357,1003.109 3665.755,960.387 3665.829,960.212C3669.987,950.47 3673.976,928.621 3652.318,918.361C3627.945,906.815 3614.565,929.593 3611.354,936.383C3610.241,938.736 3592.34,979.101 3592.235,979.034Z" style="stroke:#000;stroke-width:1px;"/>
            <path id="e4" serif:id="e" d="M3691.989,1088.798C3683.477,1096.04 3664.41,1120.36 3656.612,1138.016C3649.586,1153.924 3644.247,1183.439 3645.761,1204.209C3646.862,1219.324 3665.572,1261.97 3705.135,1284.249C3753.016,1311.213 3772.819,1305.852 3794.207,1302.788C3812.476,1300.17 3843.275,1282.487 3831.46,1258.271C3812.666,1219.747 3768.522,1266.846 3731.505,1241.824C3694.273,1216.656 3715.419,1177.104 3715.712,1177.27C3735.538,1188.488 3792.899,1222.714 3818.491,1234.315C3844.217,1245.977 3859.079,1231.792 3868.068,1218.344C3868.286,1218.017 3817.244,1189.071 3817.092,1188.619C3816.873,1187.964 3730.127,1140.665 3730.243,1140.46C3745.811,1112.948 3774.26,1102.047 3800.603,1116.485C3821.882,1128.148 3831.771,1154.063 3817.092,1188.619C3817.055,1188.706 3868.029,1218.411 3868.068,1218.344C3874.459,1207.47 3885.171,1182.871 3879.36,1149.697C3875.103,1125.395 3852.541,1093.375 3828.657,1079.615C3793.098,1059.13 3765.087,1058.156 3748.54,1060.904C3707.598,1067.702 3696.457,1084.996 3691.989,1088.798Z" style="stroke:#000;stroke-width:1px;"/>
        </g>
    </g>
</svg>
