<?xml version="1.0" encoding="UTF-8" standalone="no"?>
<!DOCTYPE svg PUBLIC "-//W3C//DTD SVG 1.1//EN" "http://www.w3.org/Graphics/SVG/1.1/DTD/svg11.dtd">
<svg width="100%" height="100%" viewBox="0 0 5120 1593" version="1.1" xmlns="http://www.w3.org/2000/svg" xmlns:xlink="http://www.w3.org/1999/xlink" xml:space="preserve" xmlns:serif="http://www.serif.com/" style="fill-rule:evenodd;clip-rule:evenodd;stroke-linecap:round;stroke-linejoin:round;stroke-miterlimit:1.5;">
    <g id="Copy-Font" serif:id="Copy Font">
        <g id="Init-2" serif:id="Init 2">
            <path id="Letter-Template" serif:id="Letter Template" d="M836.577,629.394c-2.343,16.539 20.573,38.246 30.775,56.182c10.516,18.487 23.378,41.399 32.092,56.72c8.848,15.555 12.204,19.656 23.489,39.496c4.504,7.919 13.615,16.287 20.097,30.485c9.881,21.642 20.217,42.318 29.386,45.151c15.184,4.692 35.054,-20.66 53.965,-31.417c20.285,-11.538 47.578,-27.854 64.975,-37.75c15.075,-8.575 36.002,-23.527 54.597,-34.104c20.285,-11.538 66.08,-17.946 72.651,-31.962c2.955,-6.304 -10.017,-19.834 -19.462,-34.227c-11.552,-17.605 -27.889,-34.523 -32.75,-43.068c-11.285,-19.84 -8.732,-19.332 -19.456,-38.186c-9.023,-15.862 -20.71,-42.56 -31.312,-61.198c-9.974,-17.535 -17.549,-49.047 -31.11,-50.646c-5.217,-0.615 -31.713,12.77 -65.321,33.072c-16.077,9.712 -37.677,24.352 -55.993,34.593c-27.27,15.248 -49.287,25 -72.07,37.07c-27.92,14.791 -53.949,25.511 -54.555,29.787Z" style="stroke:#000;stroke-width:1px;"/>
            <path id="Letter-Template1" serif:id="Letter Template" d="M1147.768,500.261c-0.968,14.872 7.249,24.986 14.782,41.098c9.009,19.267 24.937,43.205 32.047,59.333c7.22,16.375 5.648,15.82 14.857,36.705c3.676,8.336 16.936,24.428 22.353,39.03c8.258,22.258 14.298,41.541 21.173,46.156c11.385,7.642 20.909,-5.902 34.33,-11.819c14.396,-6.347 30.996,-17.657 43.343,-23.1c10.698,-4.717 22.208,-11.186 35.404,-17.004c14.396,-6.347 31.629,-4.813 35.822,-16.426c1.886,-5.224 -10.635,-17.346 -18.24,-32.769c-9.303,-18.864 -15.378,-38.52 -19.344,-47.515c-9.209,-20.885 -2.587,-23.203 -11.338,-43.05c-7.362,-16.698 -13.539,-28.739 -22.189,-48.358c-8.139,-18.459 -10.016,-48.192 -20.065,-52.608c-3.866,-1.699 -21.644,5.379 -45.441,16.998c-11.384,5.558 -22.86,9.283 -35.867,14.849c-19.365,8.288 -33.526,13.392 -49.735,19.694c-19.864,7.723 -31.643,14.94 -31.893,18.785Z" style="stroke:#000;stroke-width:1px;"/>
            <path id="Letter-Template2" serif:id="Letter Template" d="M1369.904,490.157c-3.257,11.325 9.674,21.614 14.709,35.668c5.19,14.486 13.158,32.517 17.458,44.521c4.367,12.188 4.218,14.333 9.787,29.878c2.223,6.205 6.388,16.036 9.302,26.939c4.442,16.62 8.07,30.726 13.946,33.998c9.731,5.417 23.661,-9.103 37.47,-14.05c14.811,-5.306 34.344,-12.842 47.047,-17.393c11.007,-3.943 27.154,-6.959 40.731,-11.824c14.811,-5.306 38.734,-6.309 44.577,-15.268c2.628,-4.03 -1.915,-13.901 -6.801,-25.353c-5.976,-14.008 -14.24,-26.899 -16.639,-33.595c-5.569,-15.545 -11.409,-14.409 -16.702,-29.182c-4.453,-12.429 -16.139,-30.215 -21.371,-44.819c-4.923,-13.74 -2.253,-27.487 -11.207,-30.5c-3.445,-1.159 -9.71,-4.482 -34.369,5.144c-11.796,4.605 -26.111,13.682 -39.467,18.348c-19.885,6.948 -39.76,8.028 -56.304,13.361c-20.275,6.536 -31.326,11.198 -32.168,14.126Z" style="stroke:#000;stroke-width:1px;"/>
            <path id="Letter-Template3" serif:id="Letter Template" d="M1568.164,373.975c-1.1,13.078 7.889,29.405 12.822,48.063c5.085,19.232 10.704,43.082 14.918,59.019c4.279,16.182 4.341,19.165 9.799,39.804c2.178,8.238 3.493,21.618 6.632,35.827c4.785,21.66 7.401,39.187 11.813,44.788c7.307,9.276 16.961,-3.612 26.034,-6.011c9.733,-2.573 24.014,-4.849 32.362,-7.056c7.233,-1.912 16.029,-4.169 24.787,-7.077c8.941,-2.969 22.957,5.41 26.093,-4.062c1.411,-4.261 -0.413,-17.263 -4.976,-32.677c-5.582,-18.854 -12.104,-40.854 -14.454,-49.743c-5.457,-20.639 -6.544,-21.75 -11.729,-41.363c-4.363,-16.501 -9.975,-41.434 -15.102,-60.822c-4.823,-18.241 -4.388,-42.674 -10.909,-48.781c-2.509,-2.349 -14.444,0.602 -30.567,5.863c-7.713,2.516 -18.645,5.425 -27.433,7.6c-13.085,3.238 -24.615,4.552 -35.548,6.695c-13.398,2.626 -14.257,6.551 -14.541,9.932Z" style="stroke:#000;stroke-width:1px;"/>
            <path id="Letter-Template4" serif:id="Letter Template" d="M1801.771,305.403c-7.152,12.555 0.936,32.198 1.443,51.491c0.523,19.886 1.857,44.618 2.291,61.098c0.44,16.732 -0.524,18.59 0.038,39.931c0.224,8.518 3.057,23.275 2.425,37.837c-0.963,22.197 -7.811,40.876 -2.83,47.291c8.248,10.623 30.887,-0.919 46.812,-1.338c17.083,-0.449 39.392,0.385 54.042,0c12.695,-0.334 30.643,0.412 46.302,0c17.083,-0.449 40.493,3.752 49.527,-4.845c4.063,-3.867 10.435,-13.38 9.213,-29.422c-1.495,-19.621 -4.885,-41.908 -5.126,-51.099c-0.561,-21.341 -2.186,-83.101 -2.698,-102.596c-0.035,-1.316 2.249,1.445 -0.102,-3.879c-7.622,-17.26 2.014,-44.877 -6.235,-52.234c-3.173,-2.83 -20.589,-5.367 -49.295,-3.647c-13.732,0.823 -33.089,1.732 -48.453,1.992c-22.875,0.387 -41.915,-0.306 -60.799,-0.533c-23.141,-0.278 -34.705,6.707 -36.554,9.953Z" style="stroke:#000;stroke-width:1px;"/>
            <path id="Letter-Template5" serif:id="Letter Template" d="M2035.921,326.591c-8.913,8.988 -9.565,33.363 -9.12,50.265c0.458,17.422 10.211,47.112 10.59,61.549c0.386,14.659 -16.955,9.043 -16.464,27.74c0.196,7.463 12.946,17.386 12.392,30.143c-0.844,19.446 1.982,33.539 6.346,39.159c7.226,9.306 25.706,12.451 39.659,12.084c14.966,-0.394 34.137,-7.779 46.972,-8.117c11.122,-0.293 28.886,-9.896 42.605,-10.257c14.966,-0.394 32.058,10.085 39.58,2.162c3.56,-3.75 4.689,-11.307 5.791,-23.912c1.501,-17.175 -3.41,-36.426 -3.622,-44.478c-0.492,-18.696 3.538,-19.419 3.071,-37.186c-0.393,-14.948 -17.517,-37.851 -17.692,-55.42c-0.145,-14.497 17.612,-38.846 10.386,-45.292c-2.78,-2.48 -15.827,-0.633 -40.976,0.873c-12.031,0.721 -32.369,-9.589 -45.83,-9.361c-20.041,0.339 -31.893,16.15 -48.437,15.951c-20.274,-0.243 -27.547,-13.673 -35.251,-5.904Z" style="stroke:#000;stroke-width:1px;"/>
            <path id="Letter-Template6" serif:id="Letter Template" d="M2233,259.967c-2.62,14.859 -8.275,33.501 -7.668,56.574c0.625,23.782 5.76,55.335 6.278,75.043c0.526,20.011 5.413,22.233 6.085,47.755c0.268,10.187 -4.622,27.003 -4.573,44.396c0.075,26.514 0.405,40.13 2.546,47.902c3.545,12.87 12.815,13.904 19.223,13.735c6.873,-0.181 15.155,-4.287 21.049,-4.442c5.108,-0.134 13.566,3.532 19.867,3.366c6.873,-0.181 16.108,0.798 19.568,-9.29c1.556,-4.538 4.045,-12.881 3.218,-32.082c-1.012,-23.487 1.504,-49.716 1.215,-60.708c-0.671,-25.522 -10.848,-27.387 -11.486,-51.641c-0.537,-20.405 4.422,-52.205 3.791,-76.18c-0.593,-22.558 1.697,-52.377 -1.78,-61.344c-1.338,-3.45 -10.229,-8.072 -21.758,-6.615c-5.515,0.697 -13.295,1.38 -19.48,1.37c-9.208,-0.014 -16.894,-1.24 -24.506,-1.905c-9.329,-0.815 -10.912,10.224 -11.589,14.066Z" style="stroke:#000;stroke-width:1px;"/>
            <path id="Letter-Template7" serif:id="Letter Template" d="M2351.923,330.64c-6.423,11.264 -11.213,25.52 -10.758,42.829c0.469,17.841 6.855,40.333 7.244,55.118c0.395,15.011 6.716,17.161 7.22,36.308c0.201,7.642 -6.867,19.794 -7.435,32.858c-0.866,19.914 1.16,34.894 5.633,40.649c7.407,9.53 26.232,5.181 40.535,4.805c15.341,-0.403 37.432,4.671 50.589,4.325c11.401,-0.3 26.677,-6.357 40.74,-6.727c15.341,-0.403 32.649,-2.301 40.761,-10.014c3.649,-3.469 12.786,-7.561 11.689,-21.953c-1.343,-17.604 -9.697,-37.116 -9.914,-45.362c-0.504,-19.146 4.781,-20.666 4.302,-38.86c-0.403,-15.308 3.799,-39.163 3.326,-57.149c-0.445,-16.922 -5.481,-36.65 -12.889,-43.251c-2.85,-2.539 -16.029,-8.426 -41.809,-6.883c-12.332,0.738 -28.268,6.383 -42.066,6.617c-20.544,0.348 -39.092,-5.102 -56.05,-5.305c-20.782,-0.249 -29.457,9.083 -31.118,11.996Z" style="stroke:#000;stroke-width:1px;"/>
            <path id="Letter-Template8" serif:id="Letter Template" d="M2547.274,273.529c-4.192,13.246 -5.821,28.113 -5.282,48.606c0.556,21.123 -4.22,47.753 -3.759,65.258c0.467,17.773 5.995,19.747 6.591,42.415c0.238,9.048 6.632,23.509 6.423,38.964c-0.319,23.559 -5.453,41.275 -2.352,48.147c5.134,11.379 17.745,7.008 27.408,6.753c10.365,-0.273 24.795,-5.468 33.684,-5.702c7.703,-0.203 18.52,4.329 28.022,4.079c10.365,-0.273 20.79,1.805 26.171,-7.215c2.421,-4.058 2.276,-13.266 1.342,-30.316c-1.143,-20.854 3.287,-42.706 3.03,-52.47c-0.596,-22.669 0.133,-25.355 -0.433,-46.897c-0.477,-18.124 -7.014,-46.78 -7.574,-68.074c-0.527,-20.035 4.563,-45.454 -0.533,-53.365c-1.96,-3.044 -10.647,-7.711 -28.053,-6.229c-8.327,0.709 -18.136,-4.834 -27.46,-4.742c-13.883,0.137 -27.382,5.451 -38.848,4.984c-14.052,-0.572 -17.292,12.378 -18.376,15.803Z" style="stroke:#000;stroke-width:1px;"/>
            <path id="Letter-Template9" serif:id="Letter Template" d="M2689.183,260.774c-3.534,12.923 -6.713,38.139 -8.091,58.593c-1.421,21.083 5.48,47.179 4.302,64.65c-1.195,17.739 -10.02,20.192 -11.545,42.817c-0.609,9.031 -2.056,23.896 -3.454,39.281c-2.131,23.453 -2.31,37.434 -1.073,44.484c2.05,11.674 9.457,11.442 15.104,11.822c6.058,0.408 15.174,-4.837 20.369,-4.487c4.502,0.303 10.14,6.543 15.693,6.917c6.058,0.408 14.623,-0.323 18.501,-8.958c1.744,-3.884 4.097,-8.696 4.961,-25.745c1.057,-20.853 -2.685,-44.143 -2.028,-53.888c1.525,-22.625 5.953,-24.333 7.402,-45.834c1.219,-18.089 5.533,-45.313 6.966,-66.567c1.348,-19.997 -1.596,-49.971 -3.909,-58.188c-0.89,-3.161 -3.311,-5.155 -13.568,-4.82c-4.907,0.16 -11.803,0.121 -17.24,-0.398c-8.095,-0.774 -14.75,-2.493 -21.388,-3.71c-8.135,-1.491 -10.089,0.689 -11.003,4.03Z" style="stroke:#000;stroke-width:1px;"/>
            <path id="Letter-Template10" serif:id="Letter Template" d="M2787.09,320.432c-7.951,9.269 -8.547,31.195 -10.648,47.033c-2.165,16.325 -0.549,37.39 -2.344,50.919c-1.822,13.736 3.287,14.296 0.964,31.816c-0.928,6.993 -8.873,19.346 -11.352,31.16c-3.778,18.008 -7.196,37.007 -3.66,42.94c5.855,9.826 28.138,3.732 42.207,5.598c15.091,2.002 37.81,-1.1 50.752,0.617c11.215,1.487 25.252,9.464 39.086,11.299c15.091,2.002 39.962,12.279 49.045,6.505c4.086,-2.597 6.007,-14.246 7.049,-27.527c1.275,-16.244 1.235,-34.929 2.236,-42.475c2.324,-17.52 -2.379,-18.468 -0.171,-35.118c1.858,-14.007 9.582,-35.836 11.765,-52.294c2.054,-15.485 12.449,-39.297 6.162,-46.454c-2.419,-2.753 -22.16,-4.343 -47.647,-6.919c-12.192,-1.232 -29.345,3.104 -42.899,1.186c-20.18,-2.856 -36.842,-12.34 -53.429,-15.144c-20.326,-3.436 -35.061,-5.54 -37.117,-3.143Z" style="stroke:#000;stroke-width:1px;"/>
            <path id="Letter-Template11" serif:id="Letter Template" d="M3002.246,347.542c-8.709,8.561 -6.875,31.206 -10.313,46.81c-3.543,16.083 -8.01,36.358 -10.947,49.686c-2.981,13.532 2.965,16.483 -0.837,33.743c-1.518,6.889 -11.386,16.563 -14.858,28.124c-5.293,17.622 -10.311,36.262 -7.292,42.474c5,10.287 27.72,6.107 41.58,9.161c14.867,3.275 36.318,3.336 49.068,6.145c11.048,2.434 25.807,10.351 39.434,13.353c14.867,3.275 38.775,15.626 48.316,10.645c4.292,-2.241 7.194,-13.685 9.36,-26.829c2.649,-16.077 4.196,-34.699 5.833,-42.132c3.802,-17.259 -2.752,-21.091 0.862,-37.493c3.04,-13.799 14.538,-32.406 18.11,-48.62c3.361,-15.255 15.739,-38.099 10.082,-45.764c-2.176,-2.949 -21.712,-6.209 -46.887,-10.938c-12.043,-2.262 -31.867,-1.306 -45.209,-4.368c-19.865,-4.558 -33.298,-13.514 -49.586,-17.715c-19.961,-5.149 -34.464,-8.496 -36.716,-6.283Z" style="stroke:#000;stroke-width:1px;"/>
            <path id="Letter-Template12" serif:id="Letter Template" d="M3211.974,391.05c-9.21,8.02 -8.747,30.734 -13.121,46.101c-4.508,15.839 -5.363,37.257 -9.099,50.383c-3.793,13.327 -9.043,13.359 -13.881,30.357c-1.931,6.785 -9.084,20.838 -13.249,32.168c-6.348,17.271 -9.585,32.406 -6.947,38.789c4.369,10.57 27.3,7.77 40.951,11.655c14.642,4.167 36.273,0.599 48.83,4.173c10.881,3.097 24.911,16.814 38.333,20.634c14.642,4.167 37.761,17.939 47.585,13.543c4.419,-1.977 8.008,-13.225 10.963,-26.215c3.615,-15.888 0.972,-36.728 3.056,-44.05c4.838,-16.998 10.411,-15.572 15.009,-31.725c3.868,-13.59 12.793,-30.423 17.338,-46.391c4.276,-15.024 15.114,-41.425 9.931,-49.417c-1.994,-3.075 -21.297,-7.509 -46.141,-13.75c-11.885,-2.986 -31.956,-0.631 -45.088,-4.493c-19.553,-5.75 -32.195,-18.097 -48.2,-23.275c-19.614,-6.345 -33.888,-10.562 -36.269,-8.489Z" style="stroke:#000;stroke-width:1px;"/>
            <path id="Letter-Template13" serif:id="Letter Template" d="M3494.657,407.372c-11.776,10.565 -11.44,40.196 -17.161,60.295c-5.896,20.716 -13.329,46.833 -18.215,64c-4.961,17.43 0.283,21.297 -6.045,43.529c-2.526,8.874 -13.841,21.192 -19.251,36.021c-8.246,22.604 -16.233,46.551 -12.956,54.85c5.427,13.743 34.556,9.835 51.834,14.752c18.533,5.275 47.331,5.128 63.225,9.652c13.772,3.92 30.114,16.913 47.102,21.748c18.533,5.275 47.716,22.987 60.231,17.143c5.629,-2.629 5.962,-18.793 9.856,-35.773c4.763,-20.77 12.7,-43.479 15.425,-53.055c6.327,-22.232 -3.953,-30.556 2.06,-51.682c5.059,-17.774 23.566,-38.353 29.51,-59.237c5.592,-19.649 23.266,-48.577 16.777,-58.947c-2.496,-3.989 -26.941,-9.56 -58.397,-17.428c-15.048,-3.764 -36.178,-9.327 -52.799,-14.22c-24.747,-7.285 -45.016,-14.397 -65.267,-20.975c-24.817,-8.061 -42.884,-13.404 -45.929,-10.673Z" style="stroke:#000;stroke-width:1px;"/>
            <path id="Letter-Template14" serif:id="Letter Template" d="M3753.548,558.5c-10.346,5.733 -14.421,27.334 -21.632,41c-7.432,14.087 -16.802,31.846 -22.961,43.52c-6.253,11.853 3.368,14.643 -4.608,29.76c-3.184,6.034 -19.707,14.008 -25.916,23.894c-9.465,15.07 -18.932,31.161 -17.693,37.738c2.052,10.892 24.4,12.873 36.6,19.31c13.086,6.904 34.073,11.365 45.296,17.286c9.725,5.131 20.611,17.486 32.606,23.815c13.086,6.904 32.319,24.616 42.529,22.438c4.593,-0.979 10.238,-10.905 15.628,-22.607c6.593,-14.313 12.804,-31.285 16.24,-37.796c7.976,-15.117 3.096,-18.35 10.676,-32.716c6.377,-12.086 21.626,-28.508 29.118,-42.709c7.049,-13.361 24.486,-31.469 21.148,-40.084c-1.284,-3.314 -18.747,-11.413 -41.116,-22.342c-10.701,-5.228 -25.687,-12.772 -37.399,-19.082c-17.439,-9.395 -31.554,-17.923 -45.735,-26.059c-17.378,-9.971 -30.105,-16.848 -32.78,-15.366Z" style="stroke:#000;stroke-width:1px;"/>
            <path id="Letter-Template15" serif:id="Letter Template" d="M3938.125,657.284c-10.825,4.767 -16.849,25.908 -25.273,38.862c-8.683,13.352 -14.319,34.616 -21.515,45.681c-7.306,11.234 -13.429,8.051 -22.748,22.38c-3.719,5.719 -12.21,14.08 -19.293,23.36c-10.797,14.146 -20.241,29.791 -19.606,36.454c1.052,11.033 22.644,19.869 34.207,27.389c12.403,8.066 31.506,11.676 42.144,18.594c9.217,5.994 23.705,16.236 35.075,23.63c12.403,8.066 27.047,28.421 37.413,27.182c4.663,-0.557 11.188,-9.928 17.621,-21.09c7.868,-13.654 11.253,-33.37 15.266,-39.542c9.319,-14.329 14.169,-11.724 23.024,-25.341c7.45,-11.456 22.924,-24.882 31.678,-38.342c8.236,-12.664 23.385,-33.538 20.845,-42.421c-0.977,-3.417 -17.63,-13.071 -38.912,-25.991c-10.181,-6.18 -22.003,-19.403 -33.093,-26.753c-16.511,-10.943 -32.207,-16.374 -45.588,-25.767c-16.398,-11.511 -28.447,-19.517 -31.246,-18.285Z" style="stroke:#000;stroke-width:1px;"/>
            <path id="Letter-Template16" serif:id="Letter Template" d="M4231.712,742.533c-11.133,10.047 -24.669,37.932 -37.003,56.898c-12.713,19.549 -28.741,44.194 -39.277,60.395c-10.697,16.449 -6.573,20.689 -20.217,41.669c-5.446,8.374 -20.28,19.419 -30.011,33.423c-14.833,21.346 -30.151,43.955 -32.254,51.737c-3.483,12.887 13.77,8.955 20.655,13.433c7.385,4.803 23.116,8.85 29.449,12.969c5.488,3.569 7.745,11.219 14.514,15.622c7.385,4.803 14.661,21.219 24.001,15.609c4.201,-2.523 13.492,-16.414 23.415,-32.429c12.138,-19.59 31.017,-38.495 36.893,-47.531c13.643,-20.979 8.588,-25.978 21.553,-45.914c10.908,-16.773 23.078,-45.809 35.895,-65.517c12.059,-18.542 39.646,-43.025 41.005,-52.729c0.523,-3.733 -9.859,-8.763 -22.896,-15.893c-6.237,-3.411 -14.865,-8.463 -21.413,-12.923c-9.75,-6.64 -17.205,-13.158 -24.898,-19.172c-9.428,-7.37 -16.534,-12.242 -19.412,-9.644Z" style="stroke:#000;stroke-width:1px;"/>
            <path id="Letter-Template17" serif:id="Letter Template" d="M1110.685,988.503c-0.123,16.167 24.386,42.255 34.261,62.61c10.178,20.98 18.375,45.886 26.81,63.272c8.564,17.653 9.515,19.613 20.439,42.129c4.36,8.987 20.904,20.856 27.469,36.616c10.007,24.023 10.634,52.483 18.129,57.373c12.412,8.097 27.47,-13.327 41.205,-19.99c14.733,-7.147 33.01,-22.945 45.645,-29.075c10.948,-5.311 28.555,-6.923 42.06,-13.474c14.733,-7.147 44.176,-10.545 47.881,-23.229c1.666,-5.706 -12.606,-17.91 -21.518,-34.522c-10.901,-20.319 -17.422,-45.743 -22.126,-55.441c-10.923,-22.516 -11.515,-23.735 -21.895,-45.131c-8.733,-18.001 -27.365,-42.964 -37.626,-64.115c-9.654,-19.9 -13.125,-58.173 -23.941,-62.791c-4.161,-1.776 -22.673,8.809 -46.959,21.847c-11.617,6.237 -22.708,22.149 -36.029,28.424c-19.833,9.342 -42.246,8.65 -58.885,15.781c-20.391,8.738 -34.887,15.537 -34.919,19.717Z" style="stroke:#000;stroke-width:1px;"/>
            <path id="Letter-Template18" serif:id="Letter Template" d="M1348.596,955.568c-2.248,11.787 21.614,28.596 28.172,42.113c6.759,13.933 6.782,29.937 12.384,41.483c5.687,11.723 6.319,13.025 13.573,27.977c2.895,5.968 18.955,10.54 23.021,21.148c6.198,16.17 0.889,38.696 7.26,41.267c10.549,4.258 27.47,-13.327 41.205,-19.99c14.733,-7.147 29.533,-19.082 42.168,-25.212c10.948,-5.311 32.032,-10.786 45.537,-17.337c14.733,-7.147 42.74,-13.505 47.881,-23.229c2.312,-4.374 -2.171,-14.532 -8.321,-25.452c-7.522,-13.356 -19.47,-23.601 -22.594,-30.041c-7.254,-14.952 -2.625,-21.081 -9.518,-35.29c-5.8,-11.954 -17.928,-29.514 -24.742,-43.56c-6.411,-13.215 -9.719,-37.711 -19.234,-39.646c-3.66,-0.744 -22.384,9.405 -46.835,22.101c-11.697,6.074 -25.56,23.791 -38.856,30.117c-19.796,9.418 -39.3,7.202 -55.815,14.588c-20.238,9.052 -34.704,15.915 -35.285,18.962Z" style="stroke:#000;stroke-width:1px;"/>
            <path id="Letter-Template19" serif:id="Letter Template" d="M1546.497,865.329c-3.348,11.523 15.146,28.15 20.402,42.225c5.417,14.507 7.61,32.797 12.099,44.82c4.558,12.207 5.064,13.562 10.877,29.131c2.32,6.214 14.296,14.179 17.345,25.123c4.647,16.682 0.821,36.708 6.921,39.867c10.101,5.232 28.603,-10.68 42.905,-16.02c15.34,-5.728 32.89,-22.319 46.047,-27.232c11.4,-4.257 31.214,-1.616 45.276,-6.867c15.34,-5.728 43.822,-9.419 49.856,-18.615c2.714,-4.137 -0.792,-14.672 -5.886,-26.122c-6.231,-14.005 -17.927,-27.834 -20.431,-34.539c-5.813,-15.569 -3.037,-17.957 -8.562,-32.752c-4.648,-12.447 -16.912,-31.073 -22.373,-45.698c-5.138,-13.76 -1.101,-39.231 -10.392,-42.054c-3.574,-1.086 -23.17,7.254 -48.709,17.591c-12.217,4.945 -26.796,16.752 -40.629,21.798c-20.595,7.512 -40.695,7.993 -57.832,13.791c-21.001,7.105 -36.049,12.575 -36.914,15.554Z" style="stroke:#000;stroke-width:1px;"/>
            <path id="Letter-Template20" serif:id="Letter Template" d="M1731.417,733.676c1.305,13.804 17.263,42.609 23.577,62.824c6.508,20.835 10.077,44.922 15.47,62.189c5.476,17.531 11.492,19.478 18.476,41.838c2.788,8.925 1.519,23.788 5.905,39.133c6.685,23.391 13.939,47.902 17.841,54.205c6.462,10.438 11.669,-3.645 17.504,-5.467c6.258,-1.955 13.133,-8.834 18.501,-10.511c4.651,-1.453 13.019,0.666 18.755,-1.126c6.258,-1.955 19.683,3.458 20.339,-6.353c0.295,-4.413 -4.215,-19.391 -9.765,-36.129c-6.788,-20.474 -22.086,-38.559 -25.094,-48.19c-6.984,-22.36 -0.409,-28.592 -7.046,-49.841c-5.584,-17.877 -19.307,-45.35 -25.868,-66.355c-6.173,-19.763 -8.07,-52.665 -13.496,-59.674c-2.087,-2.696 -9.816,1.133 -20.026,5.431c-4.884,2.056 -10.69,11.322 -16.364,12.929c-8.448,2.392 -16.962,-3.314 -24.109,-1.912c-8.759,1.717 -14.936,3.441 -14.599,7.01Z" style="stroke:#000;stroke-width:1px;"/>
            <path id="Letter-Template21" serif:id="Letter Template" d="M1859.008,771.879c-3.929,10.832 13.467,34.284 16.338,49.495c2.959,15.678 -5.286,31.967 -2.834,44.959c2.49,13.192 7.015,14.27 10.191,31.095c1.267,6.716 10.12,16.043 11.5,27.65c2.104,17.693 -2.928,38.127 1.755,42.584c7.755,7.381 24.573,-4.638 36.86,-6.956c13.179,-2.487 29.752,-14.151 41.055,-16.284c9.794,-1.848 25.32,3.757 37.401,1.477c13.179,-2.487 36.936,-0.151 42.831,-8.083c2.652,-3.568 0.854,-14.863 -2.153,-27.411c-3.678,-15.347 -19.21,-30.637 -20.578,-37.884c-3.175,-16.825 6.697,-19.667 3.679,-35.656c-2.539,-13.452 -10.358,-32.87 -13.341,-48.675c-2.806,-14.871 2.78,-41.362 -4.556,-46.157c-2.822,-1.845 -19.762,2.357 -41.785,7.3c-10.535,2.365 -23.099,12.839 -34.971,14.962c-17.675,3.161 -34.836,-2.352 -49.497,-0.175c-17.967,2.668 -30.879,4.958 -31.894,7.759Z" style="stroke:#000;stroke-width:1px;"/>
            <path id="Letter-Template22" serif:id="Letter Template" d="M2047.608,681.219c-2.612,13.744 4.524,41.531 6.786,62.297c2.332,21.404 12.611,48.388 14.543,66.125c1.962,18.009 -5.16,20.009 -2.658,42.979c0.999,9.168 6.603,24.364 7.756,40.069c1.758,23.939 -0.69,49.06 2.689,55.815c5.596,11.188 17.302,-1.885 25.953,-2.827c9.279,-1.011 20.992,-10.483 28.95,-11.35c6.896,-0.751 17.785,6.259 26.291,5.333c9.279,-1.011 26.111,6.253 30.158,-3.285c1.82,-4.29 0.377,-19.652 -1.941,-36.894c-2.835,-21.089 -11.228,-44.991 -12.306,-54.884c-2.502,-22.97 1.612,-24.213 -0.766,-46.042c-2.001,-18.364 -5.118,-46.984 -7.469,-68.561c-2.212,-20.302 -1.375,-53.234 -6.635,-60.905c-2.024,-2.951 -13.936,-0.312 -29.43,2.425c-7.412,1.31 -18.272,7.908 -26.632,8.662c-12.448,1.123 -22.527,-4.059 -32.859,-3.72c-12.661,0.415 -21.755,1.21 -22.43,4.764Z" style="stroke:#000;stroke-width:1px;"/>
            <path id="Letter-Template23" serif:id="Letter Template" d="M2279.086,655.293c-6.777,13.649 9.804,45.709 10.601,66.582c0.822,21.515 -6.351,44.676 -5.669,62.506c0.692,18.103 9.943,20.596 10.825,43.684c0.352,9.216 -9.46,23.98 -9.848,39.743c-0.591,24.028 -0.602,49.257 4.355,56.155c8.21,11.423 37.325,1.711 52.849,1.118c16.651,-0.636 33.261,-15.496 47.542,-16.041c12.374,-0.473 30.044,9.94 45.308,9.357c16.651,-0.636 45.443,7.314 54.117,-2.068c3.902,-4.22 3.72,-19.652 2.276,-37.001c-1.766,-21.22 -13.63,-46.04 -14.01,-55.985c-0.882,-23.089 7.279,-23.606 6.441,-45.547c-0.705,-18.46 -17.256,-46.744 -18.085,-68.434c-0.78,-20.407 21.272,-53.814 13.113,-61.703c-3.139,-3.035 -24.723,-0.877 -52.689,1.236c-13.378,1.011 -30.792,19.548 -45.77,19.964c-22.301,0.62 -42.328,-17.347 -60.746,-17.426c-22.571,-0.097 -38.858,0.331 -40.61,3.86Z" style="stroke:#000;stroke-width:1px;"/>
            <path id="Letter-Template24" serif:id="Letter Template" d="M2496.967,729.321c-6.426,9.237 8.053,31.363 7.974,45.838c-0.081,14.919 -8.391,31.314 -8.458,43.677c-0.068,12.553 4.753,13.947 4.667,29.958c-0.035,6.391 -5.986,16.925 -6.91,27.825c-1.408,16.615 -2.354,34.08 1.72,39.009c6.747,8.163 27.164,0.147 40.745,0.22c14.568,0.079 34.169,-9.473 46.664,-9.405c10.826,0.058 26.708,9.802 40.062,9.874c14.568,0.079 39.422,6.48 47.347,0.256c3.565,-2.8 3.979,-13.488 3.361,-25.543c-0.755,-14.745 -8.848,-31.05 -8.81,-37.946c0.086,-16.011 5.886,-17.36 5.968,-32.576c0.069,-12.801 6.454,-31.301 6.536,-46.341c0.076,-14.151 0.786,-38.186 -6.048,-43.901c-2.629,-2.199 -21.563,-1.378 -46.069,-0.787c-11.723,0.283 -26.31,8.186 -39.409,8.007c-19.502,-0.266 -36.674,-5.079 -52.759,-5.708c-19.711,-0.771 -34.92,-4.845 -36.581,-2.457Z" style="stroke:#000;stroke-width:1px;"/>
            <path id="Letter-Template25" serif:id="Letter Template" d="M2728.598,738.498c-7.347,8.523 -0.735,29.743 -2.31,44.132c-1.623,14.831 0.193,33.045 -1.152,45.336c-1.366,12.479 -7.795,13.382 -9.537,29.298c-0.695,6.353 3.376,17.198 1.33,27.944c-3.119,16.381 -12.144,33.171 -8.601,38.495c5.866,8.817 27.003,2.955 40.504,4.433c14.482,1.585 33.967,-3.043 46.387,-1.683c10.762,1.178 26.55,9.666 39.825,11.119c14.482,1.585 38.54,10.522 47.066,5.151c3.835,-2.416 5.352,-13.004 5.985,-25.058c0.774,-14.744 -8.467,-32.646 -7.717,-39.501c1.742,-15.916 10.528,-15.812 12.183,-30.937c1.393,-12.725 -2.231,-35.775 -0.595,-50.726c1.54,-14.067 16.62,-32.59 10.413,-38.982c-2.388,-2.459 -21.304,-3.6 -45.74,-5.547c-11.689,-0.931 -28.141,5.296 -41.151,3.763c-19.37,-2.282 -32.491,-17.973 -48.424,-20.262c-19.526,-2.805 -36.568,0.823 -38.467,3.026Z" style="stroke:#000;stroke-width:1px;"/>
            <path id="Letter-Template26" serif:id="Letter Template" d="M3065.033,722.404c-14.009,9.715 -6.658,43.807 -12.16,63.537c-5.671,20.337 -17.167,41.63 -21.866,58.483c-4.772,17.112 -0.473,21.909 -6.559,43.734c-2.429,8.711 -13.017,19.693 -18.584,34.161c-8.486,22.054 -16.527,45.476 -11.65,54.046c8.078,14.192 44.667,12.456 67,18.684c23.955,6.68 58.118,12.52 78.663,18.249c17.802,4.964 41.987,15.395 63.946,21.519c23.955,6.68 62.497,26.635 77.855,21.711c6.908,-2.215 11.558,-16.624 15.016,-33.364c4.231,-20.476 1.368,-49.94 3.989,-59.34c6.086,-21.825 11.727,-17.504 17.511,-38.245c4.866,-17.449 6.654,-46.573 12.372,-67.075c5.379,-19.29 31.062,-45.049 21.932,-55.937c-3.512,-4.189 -34.988,-11.61 -75.554,-21.859c-19.405,-4.903 -47.645,-6.273 -69.144,-12.427c-32.009,-9.162 -57.36,-23.611 -83.608,-31.727c-32.166,-9.946 -55.537,-16.661 -59.158,-14.149Z" style="stroke:#000;stroke-width:1px;"/>
            <path id="Letter-Template27" serif:id="Letter Template" d="M3404.664,824.434c-8.045,10.871 -12.757,40.755 -20.583,59.684c-8.067,19.511 -21.135,41.211 -27.821,57.379c-6.788,16.416 4.53,26.448 -4.127,47.386c-3.456,8.357 -21.734,13.723 -28.042,27.814c-9.615,21.479 -19.466,44.157 -20.17,51.38c-1.166,11.963 12.915,5.34 19.372,8.01c6.926,2.864 22.523,-4.389 28.463,-1.933c5.147,2.128 6.421,16.357 12.77,18.982c6.926,2.864 15.37,15.952 22.511,9.308c3.212,-2.989 2.589,-19.84 8.781,-35.734c7.574,-19.441 22.083,-38.908 25.812,-47.926c8.658,-20.938 2.366,-25.452 10.593,-45.349c6.922,-16.74 24.469,-39.448 32.602,-59.117c7.652,-18.506 23.149,-46.742 22.956,-55.518c-0.074,-3.376 -9.573,-5.889 -21.614,-9.761c-5.76,-1.852 -13.775,0.122 -19.944,-2.594c-9.186,-4.044 -16.409,-13.231 -23.765,-17.103c-9.014,-4.745 -15.714,-7.721 -17.793,-4.91Z" style="stroke:#000;stroke-width:1px;"/>
            <path id="Letter-Template28" serif:id="Letter Template" d="M3514.455,875.003c-8.825,10.248 -18.404,36.6 -27.606,54.9c-9.485,18.862 -21.442,42.642 -29.302,58.274c-7.981,15.871 0.308,21.979 -9.871,42.222c-4.063,8.08 -20.428,16.814 -27.758,30.401c-11.174,20.711 -22.671,42.6 -23.906,49.752c-2.045,11.844 12.486,6.278 18.728,9.417c6.696,3.367 19.086,4.517 24.829,7.405c4.976,2.502 8.896,9.553 15.034,12.64c6.696,3.367 14.152,17.042 21.763,10.943c3.424,-2.744 10.384,-16.177 17.731,-31.571c8.987,-18.829 11.673,-43.955 16.057,-52.674c10.179,-20.242 17.611,-17.974 27.284,-37.21c8.138,-16.184 20.82,-41.405 30.382,-60.421c8.996,-17.891 26.534,-44.907 26.989,-53.673c0.175,-3.372 -9.113,-6.58 -20.835,-11.329c-5.608,-2.272 -13.39,0.567 -19.343,-2.597c-8.862,-4.711 -15.745,-15.867 -22.795,-20.271c-8.64,-5.397 -15.101,-8.859 -17.383,-6.209Z" style="stroke:#000;stroke-width:1px;"/>
            <path id="Letter-Template29" serif:id="Letter Template" d="M3642.849,946.072c-12.608,7.841 -20.617,35.401 -30.925,53.101c-10.625,18.244 -24.021,41.245 -32.826,56.364c-8.94,15.351 -3.173,20.918 -14.575,40.498c-4.551,7.815 -19.822,16.257 -28.403,29.118c-13.08,19.604 -26.323,40.499 -25.956,48.749c0.608,13.663 25.582,14.899 38.373,22.348c13.72,7.99 35.077,12.947 46.844,19.799c10.196,5.938 22.256,20.443 34.832,27.768c13.72,7.99 32.695,29.304 44.589,25.969c5.35,-1.5 13.3,-14.378 21.239,-29.489c9.712,-18.483 10.718,-42.239 15.629,-50.672c11.403,-19.579 20.712,-18.708 31.548,-37.314c9.117,-15.654 23.324,-40.048 34.035,-58.441c10.078,-17.305 32.655,-41.205 30.234,-51.914c-0.931,-4.12 -19.415,-13.372 -43.006,-25.927c-11.285,-6.006 -27.054,-6.972 -39.313,-14.289c-18.253,-10.894 -32.882,-28.606 -47.647,-38.093c-18.094,-11.626 -31.412,-19.602 -34.672,-17.575Z" style="stroke:#000;stroke-width:1px;"/>
            <path id="Letter-Template30" serif:id="Letter Template" d="M3815.44,1067.027c-12.608,7.841 -20.617,35.401 -30.925,53.101c-10.625,18.244 -19.192,45.108 -27.997,60.227c-8.94,15.351 -14.762,13.192 -26.164,32.772c-4.551,7.815 -3.312,24.466 -11.893,37.327c-13.08,19.604 -36.073,36.153 -35.706,44.403c0.608,13.663 25.582,14.899 38.373,22.348c13.72,7.99 37.491,12.464 49.258,19.317c10.196,5.938 19.841,20.926 32.418,28.251c13.72,7.99 32.695,29.304 44.589,25.969c5.35,-1.5 12.334,-18.241 20.274,-33.352c9.712,-18.483 20.375,-36.445 25.287,-44.878c11.403,-19.579 7.211,-24.019 18.047,-42.625c9.117,-15.654 28.133,-36.668 38.845,-55.06c10.078,-17.305 32.655,-41.205 30.234,-51.914c-0.931,-4.12 -19.415,-13.372 -43.006,-25.927c-11.285,-6.006 -33.814,-8.421 -46.074,-15.737c-18.253,-10.894 -26.122,-27.157 -40.887,-36.644c-18.094,-11.626 -31.412,-19.602 -34.672,-17.575Z" style="stroke:#000;stroke-width:1px;"/>
        </g>
    </g>
</svg>
