<?xml version="1.0" encoding="UTF-8" standalone="no"?>
<!DOCTYPE svg PUBLIC "-//W3C//DTD SVG 1.1//EN" "http://www.w3.org/Graphics/SVG/1.1/DTD/svg11.dtd">
<svg width="100%" height="100%" viewBox="0 0 5120 1593" version="1.1" xmlns="http://www.w3.org/2000/svg" xmlns:xlink="http://www.w3.org/1999/xlink" xml:space="preserve" xmlns:serif="http://www.serif.com/" style="fill-rule:evenodd;clip-rule:evenodd;stroke-linecap:round;stroke-linejoin:round;stroke-miterlimit:1.5;">
    <g id="SEO">
        <path id="Period" d="M1260.213,681.12C1238.633,677.856 1239.903,711.449 1257.934,711.434C1280.168,711.417 1279.446,681.003 1257.934,681C1240.969,680.997 1242.775,707.291 1259.051,707.118C1278.563,706.91 1278.913,685.145 1259.223,684.994C1244.505,684.881 1245.696,703.348 1259.137,703.105C1277.346,702.776 1275.385,688.963 1259.566,689.312C1246.604,689.597 1244.075,700.842 1263.232,696.96" style="fill:none;stroke:#000;stroke-width:15px;"/>
        <path id="G" d="M1399.033,723.115C1302.138,643.985 1373.186,534.552 1472.806,546.404C1497.823,549.38 1520.388,487.829 1406.125,510.852C1256.474,541.006 1285.619,819.911 1498.54,785.723C1547.76,777.82 1589.719,722.53 1579.677,706.981C1545.502,654.056 1516.932,635.593 1490.211,662.315C1391.633,760.894 1551.025,670.76 1536.96,713.539C1523.462,754.597 1448.425,783.367 1374.105,698.866" style="fill:none;stroke:#000;stroke-width:15px;"/>
        <path id="Period1" serif:id="Period" d="M1597.17,598.299C1575.59,595.036 1576.861,628.629 1594.892,628.614C1617.126,628.596 1616.403,598.183 1594.892,598.18C1577.927,598.177 1579.733,624.471 1596.009,624.297C1615.521,624.09 1615.871,602.325 1596.181,602.174C1581.463,602.061 1582.654,620.528 1596.095,620.285C1614.304,619.956 1612.343,606.143 1596.524,606.491C1583.562,606.777 1581.033,618.022 1600.19,614.139" style="fill:none;stroke:#000;stroke-width:15px;"/>
        <path id="E" d="M1771.995,511.748C1791.19,547.81 1680.219,560.443 1654.405,540.161C1651.225,537.662 1641.295,602.712 1676.276,606.69C1780.202,618.506 1761.428,551.042 1677.955,609.346C1659.237,622.42 1686.237,683.026 1693.394,673.696C1711.032,650.702 1790.336,591.52 1810.523,636.547C1826.169,671.446 1712.86,719.481 1678.04,671.97C1570.713,525.527 1744.493,449.868 1772.649,513.14" style="fill:none;stroke:#000;stroke-width:15px;"/>
        <path id="T" d="M1794.017,452.559C1849.037,469.08 1955.44,433.683 1945.445,406.893C1936.652,383.324 1777.257,433.984 1786.4,456.554C1795.682,479.467 1860.26,457.227 1867.97,454.823C1872.634,453.369 1894.12,644.929 1936.34,628.734C1972.472,614.874 1882.886,465.739 1881.519,449.542C1881.385,447.961 1864.202,480.615 1911.748,590.743C1948.658,676.237 1941.648,580.69 1907.64,506.887" style="fill:none;stroke:#000;stroke-width:15px;"/>
        <path id="Period2" serif:id="Period" d="M2048.112,490.639C2026.532,487.376 2027.803,520.968 2045.834,520.954C2068.068,520.936 2067.345,490.523 2045.834,490.52C2028.869,490.517 2030.675,516.81 2046.951,516.637C2066.463,516.43 2066.813,494.665 2047.123,494.514C2032.405,494.401 2033.596,512.868 2047.037,512.625C2065.246,512.296 2063.285,498.483 2047.466,498.831C2034.504,499.116 2031.975,510.362 2051.132,506.479" style="fill:none;stroke:#000;stroke-width:15px;"/>
        <path id="Y" d="M2106.098,339.058C2107.163,320.985 2145.388,324.398 2151.715,336.373C2207.452,441.858 2219.546,441.274 2243.657,318.422C2245.65,308.267 2274.592,300.453 2278.469,312.196C2298.244,372.091 2225.449,431.514 2232.292,464.891C2233.947,472.965 2285.626,590.691 2243.584,599.453C2201.603,608.202 2198.651,482.921 2197.875,474.805C2193.078,424.622 2127.297,418.477 2106.337,339.938" style="fill:none;stroke:#000;stroke-width:15px;"/>
        <path id="O" d="M2447.893,375.889C2320.793,353.365 2328.277,585.206 2434.473,585.106C2565.427,584.983 2561.171,375.086 2434.473,375.063C2334.555,375.045 2338.614,575.485 2434.473,574.29C2549.393,572.858 2550.444,385.88 2434.473,384.838C2347.79,384.059 2355.309,565.473 2434.473,563.797C2541.721,561.526 2527.641,392.069 2434.473,394.472C2358.13,396.442 2357.402,581.979 2470.232,555.185" style="fill:none;stroke:#000;stroke-width:15px;"/>
        <path id="U" d="M2722.508,487.336C2637.699,539.104 2677.193,381.039 2637.69,379.017C2590.848,376.618 2589.434,575.173 2693.989,583.299C2802.789,591.756 2805.35,381.382 2764.854,376.094C2718.582,370.052 2747.009,511.901 2696.485,509.219C2633.823,505.893 2675.231,386.031 2633.736,389.43C2589.773,393.031 2610.834,567.409 2694.299,574.092C2777.584,580.76 2796.212,412.238 2756.33,376.846" style="fill:none;stroke:#000;stroke-width:15px;"/>
        <path id="R" d="M2920.446,426.097C2953.308,348.864 2855.867,383.602 2894.912,439.283C2909.735,460.422 2948.959,444.777 2951.522,400.633C2954.669,346.444 2888.156,357.598 2883.962,360.974C2875.351,367.905 2827.784,566.347 2865.953,574.477C2897.966,581.296 2889.306,453.064 2889.687,458.344C2890.033,463.154 2926.639,576.032 2953.276,578.976C2987.116,582.716 2947.464,480.595 2907.48,448.231" style="fill:none;stroke:#000;stroke-width:15px;"/>
        <path id="Period3" serif:id="Period" d="M3057.272,460.101C3035.692,456.838 3036.962,490.43 3054.993,490.416C3077.227,490.398 3076.505,459.985 3054.993,459.981C3038.028,459.979 3039.835,486.272 3056.11,486.099C3075.622,485.892 3075.972,464.127 3056.282,463.976C3041.564,463.863 3042.755,482.33 3056.196,482.087C3074.405,481.758 3072.444,467.945 3056.626,468.293C3043.664,468.578 3041.134,479.824 3060.291,475.941" style="fill:none;stroke:#000;stroke-width:15px;"/>
        <path id="S" d="M3302.095,574.889C3260.455,684.399 3066.242,586.824 3135.074,536.78C3187.996,498.303 3180.147,602.414 3230.334,566.56C3265.205,541.647 3127.698,428.934 3209.931,368.557C3294.879,306.186 3374.503,422.706 3336.206,459.39C3298.817,495.204 3296.859,397.918 3253.148,416.041C3190.708,441.929 3347.17,546.965 3288.81,608.999C3215.456,686.971 3114.8,601.145 3120.915,557.715" style="fill:none;stroke:#000;stroke-width:15px;"/>
        <path id="I" d="M3525.648,486.016C3521.852,447.904 3406.28,436.273 3401.986,459.043C3396.533,487.958 3476.823,434.837 3401.396,639.141C3399.254,644.942 3357.356,613.954 3347.059,642.487C3333.549,679.923 3464.674,707.352 3471.474,679.822C3480.503,643.265 3427.866,656.719 3428.567,637.974C3434.532,478.442 3530.573,498.858 3525.648,486.016C3516.646,462.545 3411.547,526.732 3429.652,642.416" style="fill:none;stroke:#000;stroke-width:12px;"/>
        <path id="T1" serif:id="T" d="M3528.607,506.29C3555.95,549.762 3644.891,578.706 3652.662,551.336C3659.499,527.256 3527.529,481.961 3521.458,505.413C3515.294,529.222 3569.679,546.169 3576.037,548.398C3579.884,549.746 3491.442,718.25 3527.884,727.974C3559.072,736.297 3580.004,565.453 3587.777,551.45C3588.536,550.083 3559.748,567.46 3532.052,683.489C3510.551,773.564 3557.102,691.536 3574.253,612.61" style="fill:none;stroke:#000;stroke-width:15px;"/>
        <path id="E1" serif:id="E" d="M3823.627,680.325C3812.13,719.525 3723.97,650.955 3719.7,618.406C3719.174,614.395 3666.587,653.952 3688.812,681.257C3754.838,762.378 3788.595,701.024 3688.153,684.33C3665.631,680.587 3642.551,742.791 3654.191,741.126C3682.879,737.023 3780.954,750.174 3763.898,796.478C3750.678,832.366 3636.089,787.468 3644.422,729.155C3670.107,549.42 3847.24,616.858 3823.121,681.777" style="fill:none;stroke:#000;stroke-width:15px;"/>
        <path id="Period4" serif:id="Period" d="M3869.456,758.307C3847.876,755.043 3849.147,788.636 3867.177,788.622C3889.412,788.604 3888.689,758.191 3867.177,758.187C3850.213,758.185 3852.019,784.478 3868.294,784.305C3887.806,784.097 3888.157,762.332 3868.466,762.181C3853.749,762.069 3854.94,780.536 3868.38,780.293C3886.59,779.964 3884.629,766.151 3868.81,766.499C3855.848,766.784 3853.319,778.029 3872.476,774.147" style="fill:none;stroke:#000;stroke-width:15px;"/>
        <path id="Period5" serif:id="Period" d="M1312.716,1208.384C1291.136,1205.12 1292.407,1238.713 1310.437,1238.698C1332.672,1238.68 1331.949,1208.267 1310.437,1208.264C1293.473,1208.261 1295.279,1234.555 1311.554,1234.382C1331.066,1234.174 1331.417,1212.409 1311.726,1212.258C1297.009,1212.145 1298.199,1230.612 1311.64,1230.369C1329.85,1230.04 1327.889,1216.227 1312.07,1216.575C1299.108,1216.861 1296.578,1228.106 1315.736,1224.224" style="fill:none;stroke:#000;stroke-width:15px;"/>
        <path id="F" d="M1367.219,1081.315C1522.415,1073.405 1502.333,1009.101 1456.323,1000.204C1422.523,993.668 1197.157,1040.173 1433.441,1289.662C1471.258,1329.593 1499.781,1257.018 1376.004,1159.484C1370.13,1154.855 1489.656,1165.777 1441.605,1105.348C1420.385,1078.662 1366.025,1156.308 1354.965,1129.601C1352.197,1122.916 1346.611,1078.777 1382.25,1076.995C1449.705,1073.62 1519.971,1015.871 1442.419,999.879" style="fill:none;stroke:#000;stroke-width:15px;"/>
        <path id="O1" serif:id="O" d="M1648.87,987.471C1520.058,995.792 1582.414,1219.215 1685.545,1193.886C1812.719,1162.651 1758.713,959.776 1635.637,989.858C1538.577,1013.581 1590.145,1207.317 1682.975,1183.38C1794.264,1154.683 1750.858,972.809 1637.96,999.352C1553.574,1019.192 1603.984,1193.624 1680.482,1173.187C1784.119,1145.498 1730.179,984.239 1640.249,1008.711C1566.561,1028.764 1609.938,1209.161 1713.171,1156.324" style="fill:none;stroke:#000;stroke-width:15px;"/>
        <path id="U1" serif:id="U" d="M1927.179,1008.21C1856.489,1078.035 1858.711,915.126 1819.795,922.21C1773.65,930.61 1817.774,1124.204 1921.409,1108.155C2029.252,1091.454 1983.535,886.091 1942.905,890.224C1896.48,894.947 1956.656,1026.507 1906.863,1035.474C1845.106,1046.596 1857.945,920.435 1818.333,933.252C1776.365,946.832 1836.826,1111.744 1919.601,1099.121C2002.197,1086.527 1981.712,918.22 1934.78,892.91" style="fill:none;stroke:#000;stroke-width:15px;"/>
        <path id="N" d="M2114.357,851.549C2008.714,825.469 2079.353,1074.684 2118.79,1067.944C2156.854,1061.439 2086.121,927.757 2103.218,918.725C2119.651,910.044 2164.962,1069.446 2207.357,1057.958C2275.245,1039.563 2232.939,830.481 2204.445,831.692C2144.623,834.234 2214.725,995.652 2195.625,998.632C2174.302,1001.959 2145.965,830.808 2084.343,842.184C2003.07,857.187 2088.131,1047.055 2107.201,1062.971" style="fill:none;stroke:#000;stroke-width:15px;"/>
        <path id="D" d="M2318.433,809.175C2542.268,769.419 2478.694,1017.818 2363.286,1024.103C2347.234,1024.977 2288.018,807.366 2318.433,809.175C2566.499,823.932 2423.44,1007.361 2363.364,1010.24C2351.127,1010.826 2582.236,862.724 2327.772,817.724C2322.636,816.816 2551.471,860.536 2363.364,1010.24C2351.803,1019.441 2316.395,820.685 2327.772,817.724C2332.734,816.433 2521.213,886.081 2361.889,1000.71" style="fill:none;stroke:#000;stroke-width:15px;"/>
        <path id="Period6" serif:id="Period" d="M2575.996,865.701C2554.416,862.438 2555.686,896.03 2573.717,896.016C2595.951,895.998 2595.229,865.585 2573.717,865.581C2556.752,865.579 2558.559,891.872 2574.834,891.699C2594.346,891.492 2594.696,869.726 2575.006,869.576C2560.288,869.463 2561.479,887.93 2574.92,887.687C2593.129,887.358 2591.168,873.545 2575.35,873.893C2562.388,874.178 2559.858,885.424 2579.015,881.541" style="fill:none;stroke:#000;stroke-width:15px;"/>
        <path id="O2" serif:id="O" d="M2849.065,720.06C2687.012,648.969 2622.162,958.384 2763.667,992.732C2938.162,1035.088 3000.231,755.778 2831.453,714.61C2698.35,682.143 2639.07,948.869 2767.158,978.411C2920.716,1013.828 2982.458,766.587 2828.298,727.552C2713.072,698.376 2664.543,941.032 2770.544,964.517C2914.152,996.332 2950.083,767.378 2825.189,740.31C2722.85,718.13 2662.004,963.568 2820.962,964.723" style="fill:none;stroke:#000;stroke-width:15px;"/>
        <path id="N1" serif:id="N" d="M3102.061,841.192C3019.102,770.776 2971.31,1025.362 3009.619,1036.899C3046.595,1048.034 3042.83,896.838 3062.16,896.37C3080.739,895.919 3050.287,1058.814 3093.36,1067.418C3162.333,1081.195 3217.61,875.162 3191.56,863.551C3136.871,839.175 3127.715,1014.92 3109.288,1009.078C3088.716,1002.556 3139.599,836.706 3079.363,819.436C2999.917,796.657 2991.478,1004.537 3001.46,1027.283" style="fill:none;stroke:#000;stroke-width:15px;"/>
        <path id="L" d="M3300.415,874.001C3261.897,893.894 3203.633,978.252 3209.434,1060.466C3210.747,1079.08 3300.392,1099.338 3301.897,1093.548C3322.048,1015.996 3284.555,1039.768 3284.193,1061.487C3283.799,1085.109 3235.345,1057.884 3236.3,1050.391C3251.953,927.664 3294.309,921.438 3303.4,898.46C3325.849,841.715 3276.357,879.118 3273.458,882.453C3190.798,977.543 3217.624,1064.558 3216.025,1069.339" style="fill:none;stroke:#000;stroke-width:15px;"/>
        <path id="I1" serif:id="I" d="M3471.813,952.218C3476.597,920.186 3398.465,901.466 3391.042,920.09C3381.615,943.74 3447.818,905.785 3355.544,1070.007C3352.924,1074.67 3329.814,1045.591 3317.092,1068.545C3300.4,1098.661 3386.275,1131.752 3396.368,1109.36C3409.772,1079.626 3370.533,1086.713 3374.673,1071.159C3409.903,938.788 3472.737,963.296 3471.813,952.218C3470.123,931.971 3384.506,977.201 3374.562,1074.943" style="fill:none;stroke:#000;stroke-width:12px;"/>
        <path id="N2" serif:id="N" d="M3585.092,997.052C3514.331,914.387 3426.825,1158.192 3462.824,1175.65C3497.57,1192.5 3517.796,1042.616 3536.956,1045.215C3555.372,1047.712 3499.507,1203.729 3540.674,1219.045C3606.596,1243.571 3693.803,1048.892 3669.921,1033.303C3619.782,1000.573 3582.91,1172.65 3565.641,1163.964C3546.361,1154.267 3622.867,998.568 3566.126,971.976C3491.29,936.904 3450.037,1140.824 3456.29,1164.863" style="fill:none;stroke:#000;stroke-width:15px;"/>
        <path id="E2" serif:id="E" d="M3876.378,1190.688C3861.936,1228.901 3779.242,1153.829 3777.458,1121.05C3777.238,1117.011 3721.797,1152.457 3741.882,1181.372C3801.553,1267.276 3839.875,1208.665 3740.992,1184.386C3718.819,1178.941 3691.079,1239.212 3702.812,1238.437C3731.728,1236.526 3828.521,1257.092 3807.995,1301.966C3792.086,1336.745 3681.241,1283.269 3693.981,1225.758C3733.251,1048.494 3904.746,1129.199 3875.763,1192.097" style="fill:none;stroke:#000;stroke-width:15px;"/>
        <path id="Period7" serif:id="Period" d="M3899.579,1238.922C3877.999,1235.658 3879.27,1269.251 3897.3,1269.236C3919.535,1269.219 3918.812,1238.805 3897.3,1238.802C3880.336,1238.799 3882.142,1265.093 3898.417,1264.92C3917.929,1264.712 3918.28,1242.947 3898.589,1242.796C3883.872,1242.683 3885.062,1261.15 3898.503,1260.907C3916.713,1260.578 3914.752,1246.765 3898.933,1247.114C3885.971,1247.399 3883.441,1258.644 3902.598,1254.762" style="fill:none;stroke:#000;stroke-width:15px;"/>
    </g>
</svg>
