<?xml version="1.0" encoding="UTF-8" standalone="no"?>
<!DOCTYPE svg PUBLIC "-//W3C//DTD SVG 1.1//EN" "http://www.w3.org/Graphics/SVG/1.1/DTD/svg11.dtd">
<svg width="100%" height="100%" viewBox="0 0 5120 1593" version="1.1" xmlns="http://www.w3.org/2000/svg" xmlns:xlink="http://www.w3.org/1999/xlink" xml:space="preserve" xmlns:serif="http://www.serif.com/" style="fill-rule:evenodd;clip-rule:evenodd;stroke-linecap:round;stroke-linejoin:round;stroke-miterlimit:1.5;">
    <g id="Copy-Font" serif:id="Copy Font">
        <g id="Init-2" serif:id="Init 2">
            <path id="Letter-Template" serif:id="Letter Template" d="M836.577,629.394c-2.343,16.539 20.573,38.246 30.775,56.182c10.516,18.487 23.378,41.399 32.092,56.72c8.848,15.555 12.204,19.656 23.489,39.496c4.504,7.919 13.615,16.287 20.097,30.485c9.881,21.642 20.217,42.318 29.386,45.151c15.184,4.692 35.054,-20.66 53.965,-31.417c20.285,-11.538 47.578,-27.854 64.975,-37.75c15.075,-8.575 36.002,-23.527 54.597,-34.104c20.285,-11.538 66.08,-17.946 72.651,-31.962c2.955,-6.304 -10.017,-19.834 -19.462,-34.227c-11.552,-17.605 -27.889,-34.523 -32.75,-43.068c-11.285,-19.84 -8.732,-19.332 -19.456,-38.186c-9.023,-15.862 -20.71,-42.56 -31.312,-61.198c-9.974,-17.535 -17.549,-49.047 -31.11,-50.646c-5.217,-0.615 -31.713,12.77 -65.321,33.072c-16.077,9.712 -37.677,24.352 -55.993,34.593c-27.27,15.248 -49.287,25 -72.07,37.07c-27.92,14.791 -53.949,25.511 -54.555,29.787Z" style="stroke:#000;stroke-width:1px;"/>
            <path id="Letter-Template1" serif:id="Letter Template" d="M1147.768,500.261c-0.968,14.872 7.249,24.986 14.782,41.098c9.009,19.267 24.937,43.205 32.047,59.333c7.22,16.375 5.648,15.82 14.857,36.705c3.676,8.336 16.936,24.428 22.353,39.03c8.258,22.258 14.298,41.541 21.173,46.156c11.385,7.642 20.909,-5.902 34.33,-11.819c14.396,-6.347 30.996,-17.657 43.343,-23.1c10.698,-4.717 22.208,-11.186 35.404,-17.004c14.396,-6.347 31.629,-4.813 35.822,-16.426c1.886,-5.224 -10.635,-17.346 -18.24,-32.769c-9.303,-18.864 -15.378,-38.52 -19.344,-47.515c-9.209,-20.885 -2.587,-23.203 -11.338,-43.05c-7.362,-16.698 -13.539,-28.739 -22.189,-48.358c-8.139,-18.459 -10.016,-48.192 -20.065,-52.608c-3.866,-1.699 -21.644,5.379 -45.441,16.998c-11.384,5.558 -22.86,9.283 -35.867,14.849c-19.365,8.288 -33.526,13.392 -49.735,19.694c-19.864,7.723 -31.643,14.94 -31.893,18.785Z" style="stroke:#000;stroke-width:1px;"/>
            <path id="Letter-Template2" serif:id="Letter Template" d="M1369.904,490.157c-3.257,11.325 9.674,21.614 14.709,35.668c5.19,14.486 13.158,32.517 17.458,44.521c4.367,12.188 4.218,14.333 9.787,29.878c2.223,6.205 6.388,16.036 9.302,26.939c4.442,16.62 8.07,30.726 13.946,33.998c9.731,5.417 23.661,-9.103 37.47,-14.05c14.811,-5.306 34.344,-12.842 47.047,-17.393c11.007,-3.943 27.154,-6.959 40.731,-11.824c14.811,-5.306 38.734,-6.309 44.577,-15.268c2.628,-4.03 -1.915,-13.901 -6.801,-25.353c-5.976,-14.008 -14.24,-26.899 -16.639,-33.595c-5.569,-15.545 -11.409,-14.409 -16.702,-29.182c-4.453,-12.429 -16.139,-30.215 -21.371,-44.819c-4.923,-13.74 -2.253,-27.487 -11.207,-30.5c-3.445,-1.159 -9.71,-4.482 -34.369,5.144c-11.796,4.605 -26.111,13.682 -39.467,18.348c-19.885,6.948 -39.76,8.028 -56.304,13.361c-20.275,6.536 -31.326,11.198 -32.168,14.126Z" style="stroke:#000;stroke-width:1px;"/>
            <path id="Letter-Template3" serif:id="Letter Template" d="M1568.164,373.975c-1.1,13.078 7.889,29.405 12.822,48.063c5.085,19.232 10.704,43.082 14.918,59.019c4.279,16.182 4.341,19.165 9.799,39.804c2.178,8.238 3.493,21.618 6.632,35.827c4.785,21.66 7.401,39.187 11.813,44.788c7.307,9.276 16.961,-3.612 26.034,-6.011c9.733,-2.573 24.014,-4.849 32.362,-7.056c7.233,-1.912 16.029,-4.169 24.787,-7.077c8.941,-2.969 22.957,5.41 26.093,-4.062c1.411,-4.261 -0.413,-17.263 -4.976,-32.677c-5.582,-18.854 -12.104,-40.854 -14.454,-49.743c-5.457,-20.639 -6.544,-21.75 -11.729,-41.363c-4.363,-16.501 -9.975,-41.434 -15.102,-60.822c-4.823,-18.241 -4.388,-42.674 -10.909,-48.781c-2.509,-2.349 -14.444,0.602 -30.567,5.863c-7.713,2.516 -18.645,5.425 -27.433,7.6c-13.085,3.238 -24.615,4.552 -35.548,6.695c-13.398,2.626 -14.257,6.551 -14.541,9.932Z" style="stroke:#000;stroke-width:1px;"/>
            <path id="Letter-Template4" serif:id="Letter Template" d="M1801.771,305.403c-7.152,12.555 0.936,32.198 1.443,51.491c0.523,19.886 1.857,44.618 2.291,61.098c0.44,16.732 -0.524,18.59 0.038,39.931c0.224,8.518 3.057,23.275 2.425,37.837c-0.963,22.197 -7.811,40.876 -2.83,47.291c8.248,10.623 30.887,-0.919 46.812,-1.338c17.083,-0.449 39.392,0.385 54.042,0c12.695,-0.334 30.643,0.412 46.302,0c17.083,-0.449 40.493,3.752 49.527,-4.845c4.063,-3.867 10.435,-13.38 9.213,-29.422c-1.495,-19.621 -4.885,-41.908 -5.126,-51.099c-0.561,-21.341 -2.186,-83.101 -2.698,-102.596c-0.035,-1.316 2.249,1.445 -0.102,-3.879c-7.622,-17.26 2.014,-44.877 -6.235,-52.234c-3.173,-2.83 -20.589,-5.367 -49.295,-3.647c-13.732,0.823 -33.089,1.732 -48.453,1.992c-22.875,0.387 -41.915,-0.306 -60.799,-0.533c-23.141,-0.278 -34.705,6.707 -36.554,9.953Z" style="stroke:#000;stroke-width:1px;"/>
            <path id="Letter-Template5" serif:id="Letter Template" d="M2035.921,326.591c-8.913,8.988 -9.565,33.363 -9.12,50.265c0.458,17.422 10.211,47.112 10.59,61.549c0.386,14.659 -16.955,9.043 -16.464,27.74c0.196,7.463 12.946,17.386 12.392,30.143c-0.844,19.446 1.982,33.539 6.346,39.159c7.226,9.306 25.706,12.451 39.659,12.084c14.966,-0.394 34.137,-7.779 46.972,-8.117c11.122,-0.293 28.886,-9.896 42.605,-10.257c14.966,-0.394 32.058,10.085 39.58,2.162c3.56,-3.75 4.689,-11.307 5.791,-23.912c1.501,-17.175 -3.41,-36.426 -3.622,-44.478c-0.492,-18.696 3.538,-19.419 3.071,-37.186c-0.393,-14.948 -17.517,-37.851 -17.692,-55.42c-0.145,-14.497 17.612,-38.846 10.386,-45.292c-2.78,-2.48 -15.827,-0.633 -40.976,0.873c-12.031,0.721 -32.369,-9.589 -45.83,-9.361c-20.041,0.339 -31.893,16.15 -48.437,15.951c-20.274,-0.243 -27.547,-13.673 -35.251,-5.904Z" style="stroke:#000;stroke-width:1px;"/>
            <path id="Letter-Template6" serif:id="Letter Template" d="M2233,259.967c-2.62,14.859 -3.929,35.07 -3.322,58.144c0.625,23.782 2.517,95.706 3.188,121.228c0.268,10.187 0.207,27.003 0.256,44.396c0.075,26.514 0.405,40.13 2.546,47.902c3.545,12.87 12.815,13.904 19.223,13.735c6.873,-0.181 34.616,-0.91 40.916,-1.076c6.873,-0.181 16.108,0.798 19.568,-9.29c1.556,-4.538 4.045,-12.881 3.218,-32.082c-1.012,-23.487 -2.842,-50.199 -3.131,-61.191c-0.671,-25.522 -2.718,-103.363 -3.349,-127.338c-0.593,-22.558 1.697,-52.377 -1.78,-61.344c-1.338,-3.45 -10.229,-8.072 -21.758,-6.615c-5.515,0.697 -13.295,1.38 -19.48,1.37c-9.208,-0.014 -16.894,-1.24 -24.506,-1.905c-9.329,-0.815 -10.912,10.224 -11.589,14.066Z" style="stroke:#000;stroke-width:1px;"/>
            <path id="Letter-Template7" serif:id="Letter Template" d="M2351.923,330.64c-6.423,11.264 -5.419,25.52 -4.963,42.829c0.469,17.841 1.888,71.797 2.392,90.943c0.201,7.642 -0.59,20.276 -1.158,33.341c-0.866,19.914 1.16,34.894 5.633,40.649c7.407,9.53 26.232,5.181 40.535,4.805c15.341,-0.403 77.266,-2.032 91.329,-2.402c15.341,-0.403 32.649,-2.301 40.761,-10.014c3.649,-3.469 12.786,-7.561 11.689,-21.953c-1.343,-17.604 -4.386,-37.599 -4.603,-45.845c-0.504,-19.146 -2.039,-77.54 -2.512,-95.526c-0.445,-16.922 -0.652,-36.65 -8.06,-43.251c-2.85,-2.539 -16.029,-8.426 -41.809,-6.883c-12.332,0.738 -29.716,1.555 -43.515,1.788c-20.544,0.348 -37.643,-0.274 -54.602,-0.476c-20.782,-0.249 -29.457,9.083 -31.118,11.996Z" style="stroke:#000;stroke-width:1px;"/>
            <path id="Letter-Template8" serif:id="Letter Template" d="M2546.308,270.149c-4.192,13.246 -4.856,31.493 -4.317,51.986c0.556,21.123 2.236,85.005 2.832,107.674c0.238,9.048 -0.128,23.992 -0.337,39.447c-0.319,23.559 1.308,40.793 4.408,47.664c5.134,11.379 17.745,7.008 27.408,6.753c10.365,-0.273 52.205,-1.373 61.706,-1.623c10.365,-0.273 20.79,1.805 26.171,-7.215c2.421,-4.058 2.276,-13.266 1.342,-30.316c-1.143,-20.854 4.049,-44.166 3.792,-53.929c-0.596,-22.669 -2.415,-91.806 -2.975,-113.1c-0.527,-20.035 -1.232,-45.866 -6.328,-53.777c-1.96,-3.044 -10.647,-7.711 -28.053,-6.229c-8.327,0.709 -20.067,1.443 -29.392,1.535c-13.883,0.137 -25.45,-0.827 -36.917,-1.293c-14.052,-0.572 -18.258,8.998 -19.342,12.423Z" style="stroke:#000;stroke-width:1px;"/>
            <path id="Letter-Template9" serif:id="Letter Template" d="M2689.183,260.774c-3.534,12.923 -6.713,38.139 -8.091,58.593c-1.421,21.083 -5.718,84.842 -7.243,107.467c-0.609,9.031 -2.056,23.896 -3.454,39.281c-2.131,23.453 -2.31,37.434 -1.073,44.484c2.05,11.674 9.457,11.442 15.104,11.822c6.058,0.408 30.51,2.056 36.063,2.43c6.058,0.408 14.623,-0.323 18.501,-8.958c1.744,-3.884 4.097,-8.696 4.961,-25.745c1.057,-20.853 1.661,-44.626 2.318,-54.371c1.525,-22.625 6.175,-91.63 7.608,-112.884c1.348,-19.997 0.819,-49.005 -1.495,-57.222c-0.89,-3.161 -3.311,-5.155 -13.568,-4.82c-4.907,0.16 -11.803,0.121 -17.24,-0.398c-8.095,-0.774 -14.75,-2.493 -21.388,-3.71c-8.135,-1.491 -10.089,0.689 -11.003,4.03Z" style="stroke:#000;stroke-width:1px;"/>
            <path id="Letter-Template10" serif:id="Letter Template" d="M2787.09,320.432c-7.951,9.269 -4.202,31.677 -6.302,47.516c-2.165,16.325 -8.714,65.698 -11.038,83.218c-0.928,6.993 -3.561,18.381 -6.04,30.194c-3.778,18.008 -7.196,37.007 -3.66,42.94c5.855,9.826 28.138,3.732 42.207,5.598c15.091,2.002 76.005,10.081 89.838,11.916c15.091,2.002 39.962,12.279 49.045,6.505c4.086,-2.597 6.007,-14.246 7.049,-27.527c1.275,-16.244 1.235,-34.929 2.236,-42.475c2.324,-17.52 9.411,-70.954 11.594,-87.412c2.054,-15.485 12.449,-39.297 6.162,-46.454c-2.419,-2.753 -22.16,-4.343 -47.647,-6.919c-12.192,-1.232 -29.345,-3.173 -42.899,-5.091c-20.18,-2.856 -36.842,-6.063 -53.429,-8.866c-20.326,-3.436 -35.061,-5.54 -37.117,-3.143Z" style="stroke:#000;stroke-width:1px;"/>
            <path id="Letter-Template11" serif:id="Letter Template" d="M3002.246,347.542c-8.709,8.561 -6.875,31.206 -10.313,46.81c-3.543,16.083 -14.259,64.721 -18.061,81.981c-1.518,6.889 -5.109,18.012 -8.581,29.573c-5.293,17.622 -10.311,36.262 -7.292,42.474c5,10.287 27.72,6.107 41.58,9.161c14.867,3.275 74.875,16.496 88.502,19.498c14.867,3.275 38.775,15.626 48.316,10.645c4.292,-2.241 7.194,-13.685 9.36,-26.829c2.649,-16.077 4.196,-34.699 5.833,-42.132c3.802,-17.259 15.4,-69.899 18.972,-86.112c3.361,-15.255 15.739,-38.099 10.082,-45.764c-2.176,-2.949 -21.712,-6.209 -46.887,-10.938c-12.043,-2.262 -28.97,-5.652 -42.312,-8.714c-19.865,-4.558 -36.195,-9.168 -52.483,-13.369c-19.961,-5.149 -34.464,-8.496 -36.716,-6.283Z" style="stroke:#000;stroke-width:1px;"/>
            <path id="Letter-Template12" serif:id="Letter Template" d="M3211.974,391.05c-9.21,8.02 -8.747,30.734 -13.121,46.101c-4.508,15.839 -18.142,63.742 -22.98,80.74c-1.931,6.785 -6.187,17.671 -10.351,29.001c-6.348,17.271 -12.482,35.573 -9.844,41.956c4.369,10.57 27.3,7.77 40.951,11.655c14.642,4.167 73.742,20.988 87.163,24.808c14.642,4.167 37.761,17.939 47.585,13.543c4.419,-1.977 8.008,-13.225 10.963,-26.215c3.615,-15.888 6.283,-34.382 8.367,-41.703c4.838,-16.998 19.593,-68.841 24.138,-84.809c4.276,-15.024 18.011,-37.079 12.828,-45.071c-1.994,-3.075 -21.297,-7.509 -46.141,-13.75c-11.885,-2.986 -28.575,-7.392 -41.708,-11.253c-19.553,-5.75 -35.575,-11.337 -51.58,-16.515c-19.614,-6.345 -33.888,-10.562 -36.269,-8.489Z" style="stroke:#000;stroke-width:1px;"/>
            <path id="Letter-Template13" serif:id="Letter Template" d="M3494.657,407.372c-11.776,10.565 -11.44,40.196 -17.161,60.295c-5.896,20.716 -23.727,83.366 -30.054,105.597c-2.526,8.874 -8.047,23.124 -13.457,37.952c-8.246,22.604 -16.233,46.551 -12.956,54.85c5.427,13.743 34.556,9.835 51.834,14.752c18.533,5.275 93.339,26.565 110.327,31.401c18.533,5.275 47.716,22.987 60.231,17.143c5.629,-2.629 10.307,-17.344 14.202,-34.324c4.763,-20.77 8.354,-44.928 11.08,-54.503c6.327,-22.232 25.625,-90.035 31.569,-110.92c5.592,-19.649 23.266,-48.577 16.777,-58.947c-2.496,-3.989 -26.941,-9.56 -58.397,-17.428c-15.048,-3.764 -36.178,-9.327 -52.799,-14.22c-24.747,-7.285 -45.016,-14.397 -65.267,-20.975c-24.817,-8.061 -42.884,-13.404 -45.929,-10.673Z" style="stroke:#000;stroke-width:1px;"/>
            <path id="Letter-Template14" serif:id="Letter Template" d="M3753.548,558.5c-10.346,5.733 -14.421,27.334 -21.632,41c-7.432,14.087 -29.909,56.689 -37.885,71.806c-3.184,6.034 -9.392,15.481 -15.601,25.368c-9.465,15.07 -18.932,31.161 -17.693,37.738c2.052,10.892 24.4,12.873 36.6,19.31c13.086,6.904 65.906,34.772 77.902,41.101c13.086,6.904 32.319,24.616 42.529,22.438c4.593,-0.979 10.238,-10.905 15.628,-22.607c6.593,-14.313 12.804,-31.285 16.24,-37.796c7.976,-15.117 32.302,-61.224 39.794,-75.425c7.049,-13.361 24.486,-31.469 21.148,-40.084c-1.284,-3.314 -18.747,-11.413 -41.116,-22.342c-10.701,-5.228 -25.687,-12.772 -37.399,-19.082c-17.439,-9.395 -31.554,-17.923 -45.735,-26.059c-17.378,-9.971 -30.105,-16.848 -32.78,-15.366Z" style="stroke:#000;stroke-width:1px;"/>
            <path id="Letter-Template15" serif:id="Letter Template" d="M3938.125,657.284c-10.825,4.767 -16.849,25.908 -25.273,38.862c-8.683,13.352 -34.944,53.732 -44.262,68.061c-3.719,5.719 -10.762,14.562 -17.845,23.843c-10.797,14.146 -21.689,29.309 -21.054,35.971c1.052,11.033 23.127,15.04 34.69,22.56c12.403,8.066 62.468,40.625 73.838,48.02c12.403,8.066 29.945,27.455 40.311,26.215c4.663,-0.557 11.188,-9.928 17.621,-21.09c7.868,-13.654 15.599,-29.99 19.612,-36.162c9.319,-14.329 37.739,-58.03 46.493,-71.491c8.236,-12.664 27.248,-29.11 24.708,-37.993c-0.977,-3.417 -17.63,-13.071 -38.912,-25.991c-10.181,-6.18 -24.418,-15.057 -35.507,-22.407c-16.511,-10.943 -29.792,-20.72 -43.174,-30.113c-16.398,-11.511 -28.447,-19.517 -31.246,-18.285Z" style="stroke:#000;stroke-width:1px;"/>
            <path id="Letter-Template16" serif:id="Letter Template" d="M4231.712,742.533c-11.133,10.047 -24.669,37.932 -37.003,56.898c-12.713,19.549 -51.162,78.67 -64.805,99.649c-5.446,8.374 -14.968,21.834 -24.699,35.837c-14.833,21.346 -30.151,43.955 -32.254,51.737c-3.483,12.887 13.77,8.955 20.655,13.433c7.385,4.803 37.194,24.189 43.964,28.591c7.385,4.803 14.661,21.219 24.001,15.609c4.201,-2.523 13.492,-16.414 23.415,-32.429c12.138,-19.59 25.222,-42.358 31.098,-51.394c13.643,-20.979 55.255,-84.963 68.071,-104.671c12.059,-18.542 34.817,-45.923 36.176,-55.627c0.523,-3.733 -9.859,-8.763 -22.896,-15.893c-6.237,-3.411 -14.865,-8.463 -21.413,-12.923c-9.75,-6.64 -17.205,-13.158 -24.898,-19.172c-9.428,-7.37 -16.534,-12.242 -19.412,-9.644Z" style="stroke:#000;stroke-width:1px;"/>
            <path id="Letter-Template17" serif:id="Letter Template" d="M1110.685,988.503c-0.123,16.167 19.75,40.71 29.625,61.065c10.178,20.98 40.961,84.431 51.884,106.947c4.36,8.987 10.473,24.333 17.038,40.092c10.007,24.023 21.064,49.007 28.559,53.896c12.412,8.097 27.47,-13.327 41.205,-19.99c14.733,-7.147 74.2,-35.997 87.705,-42.549c14.733,-7.147 44.176,-10.545 47.881,-23.229c1.666,-5.706 -5.267,-20.914 -14.179,-37.526c-10.901,-20.319 -24.761,-42.739 -29.466,-52.436c-10.923,-22.516 -44.238,-91.186 -54.499,-112.337c-9.654,-19.9 -18.147,-55.083 -28.963,-59.701c-4.161,-1.776 -22.673,8.809 -46.959,21.847c-11.617,6.237 -28.116,14.762 -41.437,21.037c-19.833,9.342 -36.838,16.037 -53.477,23.167c-20.391,8.738 -34.887,15.537 -34.919,19.717Z" style="stroke:#000;stroke-width:1px;"/>
            <path id="Letter-Template18" serif:id="Letter Template" d="M1348.596,955.568c-2.248,11.787 13.116,27.035 19.673,40.552c6.759,13.933 27.201,56.069 34.455,71.021c2.895,5.968 6.593,16.334 10.659,26.942c6.198,16.17 13.251,32.902 19.621,35.473c10.549,4.258 27.47,-13.327 41.205,-19.99c14.733,-7.147 74.2,-35.997 87.705,-42.549c14.733,-7.147 42.74,-13.505 47.881,-23.229c2.312,-4.374 -2.171,-14.532 -8.321,-25.452c-7.522,-13.356 -17.538,-27.851 -20.663,-34.29c-7.254,-14.952 -29.377,-60.554 -36.192,-74.6c-6.411,-13.215 -9.719,-37.711 -19.234,-39.646c-3.66,-0.744 -22.384,9.405 -46.835,22.101c-11.697,6.074 -28.264,14.457 -41.56,20.783c-19.796,9.418 -36.596,16.536 -53.111,23.922c-20.238,9.052 -34.704,15.915 -35.285,18.962Z" style="stroke:#000;stroke-width:1px;"/>
            <path id="Letter-Template19" serif:id="Letter Template" d="M1546.497,865.329c-3.348,11.523 10.511,28.15 15.766,42.225c5.417,14.507 21.799,58.382 27.612,73.951c2.32,6.214 5.025,16.883 8.074,27.827c4.647,16.682 10.093,34.004 16.192,37.163c10.101,5.232 28.603,-10.68 42.905,-16.02c15.34,-5.728 77.261,-28.848 91.323,-34.098c15.34,-5.728 43.822,-9.419 49.856,-18.615c2.714,-4.137 -0.792,-14.672 -5.886,-26.122c-6.231,-14.005 -14.837,-29.379 -17.341,-36.084c-5.813,-15.569 -23.543,-63.052 -29.003,-77.678c-5.138,-13.76 -6.123,-38.458 -15.414,-41.281c-3.574,-1.086 -23.17,7.254 -48.709,17.591c-12.217,4.945 -29.5,11.73 -43.333,16.776c-20.595,7.512 -37.991,13.015 -55.128,18.813c-21.001,7.105 -36.049,12.575 -36.914,15.554Z" style="stroke:#000;stroke-width:1px;"/>
            <path id="Letter-Template20" serif:id="Letter Template" d="M1731.417,733.676c1.305,13.804 12.628,40.428 18.942,60.643c6.508,20.835 26.189,83.847 33.173,106.207c2.788,8.925 6.928,23.788 11.313,39.133c6.685,23.391 13.939,47.902 17.841,54.205c6.462,10.438 11.669,-3.645 17.504,-5.467c6.258,-1.955 31.519,-9.845 37.256,-11.637c6.258,-1.955 19.683,3.458 20.339,-6.353c0.295,-4.413 -4.215,-19.391 -9.765,-36.129c-6.788,-20.474 -15.132,-43.581 -18.14,-53.212c-6.984,-22.36 -28.285,-90.555 -34.845,-111.56c-6.173,-19.763 -13.092,-52.278 -18.518,-59.288c-2.087,-2.696 -9.816,1.133 -20.026,5.431c-4.884,2.056 -11.849,4.691 -17.523,6.298c-8.448,2.392 -15.803,3.317 -22.95,4.719c-8.759,1.717 -14.936,3.441 -14.599,7.01Z" style="stroke:#000;stroke-width:1px;"/>
            <path id="Letter-Template21" serif:id="Letter Template" d="M1859.008,771.879c-3.929,10.832 5.741,30.421 8.612,45.632c2.959,15.678 11.907,63.092 15.082,79.917c1.267,6.716 2.394,17.974 3.774,29.581c2.104,17.693 4.798,36.196 9.481,40.653c7.755,7.381 24.573,-4.638 36.86,-6.956c13.179,-2.487 66.375,-12.527 78.455,-14.806c13.179,-2.487 36.936,-0.151 42.831,-8.083c2.652,-3.568 0.854,-14.863 -2.153,-27.411c-3.678,-15.347 -9.166,-32.568 -10.534,-39.815c-3.175,-16.825 -12.86,-68.14 -15.842,-83.945c-2.806,-14.871 -1.083,-39.817 -8.419,-44.612c-2.822,-1.845 -19.762,2.357 -41.785,7.3c-10.535,2.365 -25.417,5.5 -37.288,7.623c-17.675,3.161 -32.518,4.988 -47.179,7.164c-17.967,2.668 -30.879,4.958 -31.894,7.759Z" style="stroke:#000;stroke-width:1px;"/>
            <path id="Letter-Template22" serif:id="Letter Template" d="M2047.608,681.219c-2.612,13.744 4.524,41.531 6.786,62.297c2.332,21.404 9.383,86.134 11.885,109.104c0.999,9.168 1.967,24.364 3.121,40.069c1.758,23.939 3.946,49.06 7.324,55.815c5.596,11.188 17.302,-1.885 25.953,-2.827c9.279,-1.011 46.735,-5.091 55.241,-6.018c9.279,-1.011 26.111,6.253 30.158,-3.285c1.82,-4.29 0.377,-19.652 -1.941,-36.894c-2.835,-21.089 -6.979,-44.991 -8.056,-54.884c-2.502,-22.97 -10.134,-93.025 -12.484,-114.603c-2.212,-20.302 -1.375,-53.234 -6.635,-60.905c-2.024,-2.951 -13.936,-0.312 -29.43,2.425c-7.412,1.31 -17.885,2.886 -26.246,3.64c-12.448,1.123 -22.913,0.963 -33.245,1.301c-12.661,0.415 -21.755,1.21 -22.43,4.764Z" style="stroke:#000;stroke-width:1px;"/>
            <path id="Letter-Template23" serif:id="Letter Template" d="M2279.086,655.293c-6.777,13.649 1.595,41.746 2.392,62.62c0.822,21.515 3.308,86.581 4.19,109.669c0.352,9.216 -0.285,24.463 -0.673,40.226c-0.591,24.028 -0.602,49.257 4.355,56.155c8.21,11.423 31.048,-1.186 46.572,-1.779c16.651,-0.636 83.864,-3.204 99.127,-3.787c16.651,-0.636 45.443,7.314 54.117,-2.068c3.902,-4.22 3.72,-19.652 2.276,-37.001c-1.766,-21.22 -5.421,-45.308 -5.801,-55.252c-0.882,-23.089 -3.573,-93.507 -4.401,-115.197c-0.78,-20.407 5.82,-53.331 -2.339,-61.22c-3.139,-3.035 -24.723,-0.877 -52.689,1.236c-13.378,1.011 -32.24,2.165 -47.219,2.581c-22.301,0.62 -40.879,0.037 -59.297,-0.043c-22.571,-0.097 -38.858,0.331 -40.61,3.86Z" style="stroke:#000;stroke-width:1px;"/>
            <path id="Letter-Template24" serif:id="Letter Template" d="M2496.967,729.321c-6.426,9.237 -0.156,28.949 -0.235,43.423c-0.081,14.919 -0.324,60.039 -0.411,76.05c-0.035,6.391 -1.157,16.925 -2.081,27.825c-1.408,16.615 -2.354,34.08 1.72,39.009c6.747,8.163 27.164,0.147 40.745,0.22c14.568,0.079 73.372,0.396 86.726,0.469c14.568,0.079 39.422,6.48 47.347,0.256c3.565,-2.8 3.979,-13.488 3.361,-25.543c-0.755,-14.745 -3.053,-31.533 -3.016,-38.429c0.086,-16.011 0.35,-64.842 0.432,-79.882c0.076,-14.151 7.063,-36.737 0.229,-42.453c-2.629,-2.199 -21.563,-1.378 -46.069,-0.787c-11.723,0.283 -28.241,0.493 -41.34,0.315c-19.502,-0.266 -35.709,-1.249 -51.793,-1.878c-19.711,-0.771 -33.954,-0.982 -35.616,1.406Z" style="stroke:#000;stroke-width:1px;"/>
            <path id="Letter-Template25" serif:id="Letter Template" d="M2728.598,738.498c-7.347,8.523 -3.15,28.777 -4.724,43.166c-1.623,14.831 -6.532,59.683 -8.274,75.599c-0.695,6.353 -2.901,16.715 -4.948,27.461c-3.119,16.381 -5.866,33.653 -2.324,38.978c5.866,8.817 27.003,2.955 40.504,4.433c14.482,1.585 72.937,7.983 86.213,9.436c14.482,1.585 38.54,10.522 47.066,5.151c3.835,-2.416 5.352,-13.004 5.985,-25.058c0.774,-14.744 0.225,-31.68 0.975,-38.535c1.742,-15.916 7.055,-64.458 8.691,-79.409c1.54,-14.067 10.825,-35.81 4.619,-42.201c-2.388,-2.459 -21.304,-3.6 -45.74,-5.547c-11.689,-0.931 -28.141,-2.43 -41.151,-3.963c-19.37,-2.282 -35.388,-4.935 -51.321,-7.225c-19.526,-2.805 -33.671,-4.489 -35.57,-2.285Z" style="stroke:#000;stroke-width:1px;"/>
            <path id="Letter-Template26" serif:id="Letter Template" d="M3065.033,722.404c-14.009,9.715 -11.004,39.461 -16.506,59.192c-5.671,20.337 -22.822,81.841 -28.908,103.665c-2.429,8.711 -8.188,22.591 -13.756,37.059c-8.486,22.054 -16.527,45.476 -11.65,54.046c8.078,14.192 44.667,12.456 67,18.684c23.955,6.68 120.65,33.645 142.609,39.768c23.955,6.68 62.497,26.635 77.855,21.711c6.908,-2.215 11.558,-16.624 15.016,-33.364c4.231,-20.476 6.68,-44.438 9.301,-53.838c6.086,-21.825 24.648,-88.388 30.365,-108.89c5.379,-19.29 25.267,-46.98 16.137,-57.869c-3.512,-4.189 -34.988,-11.61 -75.554,-21.859c-19.405,-4.903 -46.679,-12.068 -68.178,-18.222c-32.009,-9.162 -58.326,-17.816 -84.574,-25.932c-32.166,-9.946 -55.537,-16.661 -59.158,-14.149Z" style="stroke:#000;stroke-width:1px;"/>
            <path id="Letter-Template27" serif:id="Letter Template" d="M3404.664,824.434c-8.045,10.871 -15.654,37.858 -23.481,56.787c-8.067,19.511 -32.465,78.516 -41.123,99.454c-3.456,8.357 -9.662,21.932 -15.97,36.023c-9.615,21.479 -19.466,44.157 -20.17,51.38c-1.166,11.963 12.915,5.34 19.372,8.01c6.926,2.864 34.884,14.424 41.233,17.05c6.926,2.864 15.37,15.952 22.511,9.308c3.212,-2.989 9.162,-16.899 15.354,-32.793c7.574,-19.441 15.509,-41.849 19.238,-50.867c8.658,-20.938 35.063,-84.797 43.196,-104.467c7.652,-18.506 23.149,-46.742 22.956,-55.518c-0.074,-3.376 -9.573,-5.889 -21.614,-9.761c-5.76,-1.852 -13.775,-4.707 -19.944,-7.423c-9.186,-4.044 -16.409,-8.402 -23.765,-12.274c-9.014,-4.745 -15.714,-7.721 -17.793,-4.91Z" style="stroke:#000;stroke-width:1px;"/>
            <path id="Letter-Template28" serif:id="Letter Template" d="M3514.455,875.003c-8.825,10.248 -18.404,36.6 -27.606,54.9c-9.485,18.862 -38.169,75.907 -48.348,96.149c-4.063,8.08 -11.254,21.16 -18.584,34.747c-11.174,20.711 -22.671,42.6 -23.906,49.752c-2.045,11.844 12.486,6.278 18.728,9.417c6.696,3.367 33.725,16.958 39.863,20.045c6.696,3.367 14.152,17.042 21.763,10.943c3.424,-2.744 10.384,-16.177 17.731,-31.571c8.987,-18.829 18.554,-40.591 22.938,-49.309c10.179,-20.242 41.223,-81.98 50.784,-100.995c8.996,-17.891 26.534,-44.907 26.989,-53.673c0.175,-3.372 -9.113,-6.58 -20.835,-11.329c-5.608,-2.272 -13.39,-5.71 -19.343,-8.874c-8.862,-4.711 -15.745,-9.59 -22.795,-13.994c-8.64,-5.397 -15.101,-8.859 -17.383,-6.209Z" style="stroke:#000;stroke-width:1px;"/>
            <path id="Letter-Template29" serif:id="Letter Template" d="M3642.849,946.072c-12.608,7.841 -20.617,35.401 -30.925,53.101c-10.625,18.244 -42.759,73.419 -54.162,92.999c-4.551,7.815 -13.062,20.12 -21.643,32.981c-13.08,19.604 -26.323,40.499 -25.956,48.749c0.608,13.663 25.582,14.899 38.373,22.348c13.72,7.99 69.099,40.243 81.676,47.567c13.72,7.99 32.695,29.304 44.589,25.969c5.35,-1.5 13.3,-14.378 21.239,-29.489c9.712,-18.483 19.41,-40.308 24.321,-48.741c11.403,-19.579 46.18,-79.293 56.891,-97.686c10.078,-17.305 32.655,-41.205 30.234,-51.914c-0.931,-4.12 -19.415,-13.372 -43.006,-25.927c-11.285,-6.006 -27.054,-14.698 -39.313,-22.015c-18.253,-10.894 -32.882,-20.88 -47.647,-30.367c-18.094,-11.626 -31.412,-19.602 -34.672,-17.575Z" style="stroke:#000;stroke-width:1px;"/>
            <path id="Letter-Template30" serif:id="Letter Template" d="M3815.44,1067.027c-12.608,7.841 -20.617,35.401 -30.925,53.101c-10.625,18.244 -42.759,73.419 -54.162,92.999c-4.551,7.815 -13.062,20.12 -21.643,32.981c-13.08,19.604 -26.323,40.499 -25.956,48.749c0.608,13.663 25.582,14.899 38.373,22.348c13.72,7.99 69.099,40.243 81.676,47.567c13.72,7.99 32.695,29.304 44.589,25.969c5.35,-1.5 13.3,-14.378 21.239,-29.489c9.712,-18.483 19.41,-40.308 24.321,-48.741c11.403,-19.579 46.18,-79.293 56.891,-97.686c10.078,-17.305 32.655,-41.205 30.234,-51.914c-0.931,-4.12 -19.415,-13.372 -43.006,-25.927c-11.285,-6.006 -27.054,-14.698 -39.313,-22.015c-18.253,-10.894 -32.882,-20.88 -47.647,-30.367c-18.094,-11.626 -31.412,-19.602 -34.672,-17.575Z" style="stroke:#000;stroke-width:1px;"/>
        </g>
    </g>
</svg>
