<?xml version="1.0" encoding="UTF-8" standalone="no"?>
<!DOCTYPE svg PUBLIC "-//W3C//DTD SVG 1.1//EN" "http://www.w3.org/Graphics/SVG/1.1/DTD/svg11.dtd">
<svg width="100%" height="100%" viewBox="0 0 5120 1593" version="1.1" xmlns="http://www.w3.org/2000/svg" xmlns:xlink="http://www.w3.org/1999/xlink" xml:space="preserve" xmlns:serif="http://www.serif.com/" style="fill-rule:evenodd;clip-rule:evenodd;stroke-linecap:round;stroke-linejoin:round;stroke-miterlimit:1.5;">
    <g id="Learn-More" serif:id="Learn More">
        <path d="M2554.226,1092.185C3145.918,1086.976 3349.605,1302.898 3309.966,1461.281C3250.424,1699.189 3005.825,1391.756 2565.214,1388.41C2163.972,1385.363 1922.756,1720.206 1813.138,1458.839C1754.745,1319.612 2023.176,1096.859 2554.226,1092.185Z" style="fill:#2f3552;stroke:#000;stroke-width:25px;"/>
        <g transform="matrix(1,0,0,1,0.303095,30.522593)">
            <g transform="matrix(0.934639,-0.355599,0.355599,0.934639,-343.761227,841.840132)">
                <text x="2118.136px" y="1356.037px" style="font-family:'ArialRoundedMTBold', 'Arial Rounded MT Bold', sans-serif;font-size:175px;fill:#fff;">L</text>
            </g>
            <g transform="matrix(0.95871,-0.284386,0.284386,0.95871,-283.971572,683.68485)">
                <text x="2212.455px" y="1319.77px" style="font-family:'ArialRoundedMTBold', 'Arial Rounded MT Bold', sans-serif;font-size:175px;fill:#fff;">e</text>
            </g>
            <g transform="matrix(0.97866,-0.205488,0.205488,0.97866,-216.124387,501.693962)">
                <text x="2307.357px" y="1291.384px" style="font-family:'ArialRoundedMTBold', 'Arial Rounded MT Bold', sans-serif;font-size:175px;fill:#fff;">a</text>
            </g>
            <g transform="matrix(0.991786,-0.127908,0.127908,0.991786,-142.835814,317.98652)">
                <text x="2404.43px" y="1271.115px" style="font-family:'ArialRoundedMTBold', 'Arial Rounded MT Bold', sans-serif;font-size:175px;fill:#fff;">r</text>
            </g>
            <g transform="matrix(0.998465,-0.05539,0.05539,0.998465,-66.043135,139.090224)">
                <text x="2476.144px" y="1260.953px" style="font-family:'ArialRoundedMTBold', 'Arial Rounded MT Bold', sans-serif;font-size:175px;fill:#fff;">n</text>
            </g>
            <g transform="matrix(0.995637,0.093314,-0.093314,0.995637,128.451101,-238.693762)">
                <text x="2616.598px" y="1254.191px" style="font-family:'ArialRoundedMTBold', 'Arial Rounded MT Bold', sans-serif;font-size:175px;fill:#fff;">M</text>
            </g>
            <g transform="matrix(0.979075,0.203498,-0.203498,0.979075,315.653503,-534.063613)">
                <text x="2754.785px" y="1267.877px" style="font-family:'ArialRoundedMTBold', 'Arial Rounded MT Bold', sans-serif;font-size:175px;fill:#fff;">o</text>
            </g>
            <g transform="matrix(0.958453,0.285251,-0.285251,0.958453,486.089255,-760.339521)">
                <text x="2853.179px" y="1288.504px" style="font-family:'ArialRoundedMTBold', 'Arial Rounded MT Bold', sans-serif;font-size:175px;fill:#fff;">r</text>
            </g>
            <g transform="matrix(0.936737,0.350035,-0.350035,0.936737,642.209586,-939.066188)">
                <text x="2919.023px" y="1307.134px" style="font-family:'ArialRoundedMTBold', 'Arial Rounded MT Bold', sans-serif;font-size:175px;fill:#fff;">e</text>
            </g>
        </g>
    </g>
    <g id="Copy-Font" serif:id="Copy Font">
        <g id="SEO">
            <path id="Period" d="M1210.846,730.43C1209.016,732.577 1207.116,736.192 1205.819,739.195C1204.426,742.42 1202.981,748.11 1202.981,751.021C1202.981,753.977 1203.305,759.089 1203.711,760.913C1204.037,762.382 1205.52,766.035 1206.818,768.359C1208.735,771.792 1209.696,773.143 1210.846,774.299C1212.749,776.212 1213.595,777.704 1215.618,778.839C1219.18,780.837 1226.152,784.493 1233.077,784.92C1240.314,785.366 1246.401,783.217 1249.739,782.082C1253.605,780.768 1257.767,776.398 1259.849,774.299C1261.537,772.596 1262.584,771.573 1263.972,769.091C1265.279,766.755 1266.533,763.979 1266.902,762.398C1267.632,759.276 1267.956,755.18 1267.956,751.598C1267.956,748.584 1267.744,745.083 1266.541,741.752C1265.013,737.524 1262.944,734.133 1259.849,730.43C1258.31,728.588 1252.181,724.214 1248.799,723.006C1245.704,721.9 1239.088,720.401 1235.416,720.376C1229.949,720.338 1225.429,720.902 1221.394,722.919C1217.489,724.87 1213.477,727.341 1210.846,730.43Z" style="stroke:#000;stroke-width:1px;"/>
            <path id="G" d="M1353.472,794.624C1384.953,819.318 1433.094,832.756 1483.919,815.451C1523.158,802.092 1565.715,777.637 1599.334,727.817C1611.018,710.503 1607.532,698.974 1602.237,687.688C1602.021,687.226 1579.599,638.521 1577.011,632.768C1565.674,607.565 1548.036,605.316 1529.117,614.261C1528.316,614.64 1463.001,644.553 1462.489,644.804C1449.79,651.024 1437.032,663.942 1444.455,679.946C1452.858,698.064 1469.6,695.652 1483.066,689.663C1495.138,684.293 1528.066,669.173 1528.14,668.912C1528.236,668.571 1547.67,709.067 1547.271,709.608C1524.848,739.961 1449.749,815.315 1383.13,733.365C1333.214,671.963 1345.676,610.236 1371.231,588.195C1411.291,553.646 1441.435,553.746 1479.489,580.559C1492.89,590.002 1514.008,586.358 1524.035,569.194C1537.56,546.042 1509.045,519.32 1488.89,513.214C1443.337,499.414 1413.67,503.006 1353.263,537.267C1317.567,557.513 1293.184,598.812 1287.863,633.632C1280.943,678.921 1301.51,753.863 1353.472,794.624Z" style="stroke:#000;stroke-width:1px;"/>
            <path id="Period1" serif:id="Period" d="M1580.397,600.707C1578.567,602.854 1576.667,606.469 1575.37,609.472C1573.977,612.697 1572.532,618.387 1572.532,621.298C1572.532,624.254 1572.857,629.366 1573.262,631.19C1573.588,632.659 1575.071,636.311 1576.369,638.636C1578.286,642.068 1579.247,643.42 1580.397,644.576C1582.3,646.489 1583.146,647.981 1585.17,649.116C1588.731,651.114 1595.703,654.77 1602.628,655.197C1609.866,655.643 1615.952,653.494 1619.29,652.359C1623.156,651.044 1627.319,646.675 1629.4,644.576C1631.088,642.873 1632.135,641.85 1633.523,639.368C1634.83,637.032 1636.084,634.256 1636.454,632.674C1637.183,629.553 1637.508,625.457 1637.508,621.875C1637.508,618.86 1637.295,615.36 1636.092,612.029C1634.565,607.801 1632.495,604.41 1629.4,600.707C1627.861,598.865 1621.732,594.491 1618.35,593.283C1615.255,592.177 1608.639,590.678 1604.967,590.653C1599.5,590.615 1594.981,591.179 1590.945,593.195C1587.041,595.147 1583.029,597.618 1580.397,600.707Z" style="stroke:#000;stroke-width:1px;"/>
            <path id="e" d="M1605.526,592.871C1605.264,604.044 1610.72,634.462 1618.705,652.034C1625.899,667.867 1644.37,691.498 1660.877,704.194C1672.89,713.434 1717.169,727.86 1760.131,713.168C1812.125,695.386 1821.307,677.04 1833.258,659.039C1843.466,643.664 1850.772,608.909 1824.836,601.605C1783.578,589.987 1789.339,654.281 1746.025,665.248C1702.46,676.278 1687.021,634.17 1687.34,634.061C1708.908,626.734 1772.633,606.712 1798.326,595.337C1824.154,583.902 1823.462,563.369 1819.41,547.709C1819.312,547.328 1763.733,566.15 1763.294,565.962C1762.66,565.689 1669.619,598.937 1669.543,598.714C1659.376,568.783 1670.179,540.296 1698.489,530.249C1721.358,522.134 1747.28,532.005 1763.294,565.962C1763.335,566.048 1819.434,547.783 1819.41,547.709C1815.55,535.702 1804.324,511.333 1775.699,493.586C1754.73,480.585 1715.817,476.107 1689.65,484.771C1650.692,497.669 1631.319,517.924 1622.355,532.101C1600.174,567.179 1605.663,587.005 1605.526,592.871Z" style="stroke:#000;stroke-width:1px;"/>
            <path id="t" d="M1841.653,452.775C1838.074,453.298 1810.506,461.242 1817.797,483.473C1825.487,506.918 1851.852,496.052 1854.447,495.359C1854.56,495.329 1867.617,537.841 1867.697,538.049C1867.801,538.317 1883.542,589.937 1883.771,590.568C1884.031,591.282 1889.82,610.601 1891.397,613.73C1892.822,616.556 1900.457,635.32 1907.963,641.825C1917.922,650.456 1934.157,659.966 1965.28,649.961C1986.966,642.989 2025.379,628.691 2013.819,600.773C2007.467,585.434 1991.142,585.416 1976.038,596.086C1975.824,596.237 1952.347,612.49 1945.315,586.828C1945.241,586.559 1927.332,529.415 1927.299,529.35C1927.268,529.288 1911.104,478.055 1911.818,477.849C1929.842,472.631 1954.807,465.021 1947.925,444.183C1940.47,421.608 1923.168,427.882 1898.716,435.426C1898.327,435.545 1885.023,390.551 1884.965,390.371C1881.731,380.284 1870.444,361.156 1847.355,367.578C1821.372,374.805 1826.168,400.783 1828.186,408.018C1828.885,410.525 1841.776,452.758 1841.653,452.775Z" style="stroke:#000;stroke-width:1px;"/>
            <path id="Period2" serif:id="Period" d="M2022.555,483.437C2020.725,485.585 2018.825,489.2 2017.528,492.203C2016.135,495.428 2014.69,501.118 2014.69,504.029C2014.69,506.985 2015.015,512.096 2015.42,513.921C2015.747,515.39 2017.229,519.042 2018.527,521.367C2020.444,524.799 2021.405,526.151 2022.555,527.307C2024.458,529.22 2025.304,530.712 2027.328,531.847C2030.889,533.845 2037.862,537.501 2044.786,537.928C2052.024,538.374 2058.11,536.225 2061.448,535.09C2065.315,533.775 2069.477,529.406 2071.558,527.307C2073.246,525.604 2074.293,524.581 2075.682,522.099C2076.988,519.763 2078.242,516.986 2078.612,515.405C2079.341,512.284 2079.666,508.188 2079.666,504.606C2079.666,501.591 2079.454,498.091 2078.25,494.76C2076.723,490.532 2074.653,487.141 2071.558,483.437C2070.019,481.596 2063.89,477.222 2060.508,476.014C2057.413,474.908 2050.797,473.409 2047.125,473.384C2041.658,473.346 2037.139,473.909 2033.103,475.926C2029.199,477.878 2025.187,480.349 2022.555,483.437Z" style="stroke:#000;stroke-width:1px;"/>
            <path id="Y" d="M2077.955,319.962C2060.011,329.637 2060.609,349.61 2072.191,365.453C2089.575,389.232 2119.135,422.459 2122.482,425.855C2127.633,431.084 2172.207,483.219 2172.362,485.328C2172.742,490.496 2174.403,495.844 2176.614,517.337C2177.756,528.441 2178.697,536.542 2180.602,549.376C2182.172,559.957 2184.136,582.098 2184.668,584.301C2188.511,600.195 2199.272,615.813 2221.816,612.628C2244.371,609.44 2248.641,591.9 2248.2,574.126C2248.183,573.413 2245.694,553.626 2244.907,548.063C2244.099,542.35 2240.744,520.641 2240.504,517.216C2240.332,514.755 2236.186,477.55 2236.055,477.162C2235.893,476.682 2274.772,396.681 2275.325,395.094C2280.04,381.555 2305.966,335.266 2306.789,322.537C2307.691,308.589 2302.96,300.174 2292.614,294.725C2284.698,290.556 2262.275,287.216 2251.937,308.622C2251.476,309.577 2198.666,426.126 2198.389,426.2C2198.005,426.303 2120.096,331.133 2119.607,330.48C2107.798,314.73 2094.716,310.924 2077.955,319.962Z" style="stroke:#000;stroke-width:1px;"/>
            <path id="o" d="M2329.541,435.324C2327.524,440.503 2324.523,458.148 2323.79,466.651C2323.254,472.87 2323.838,485.72 2324.339,491.872C2324.6,495.086 2328.338,512.515 2329.13,515.933C2329.808,518.855 2338.21,537.888 2341.825,543.212C2351.327,557.208 2353.751,560.096 2362.72,567.389C2379.39,580.943 2404.24,591.895 2439.666,591.267C2495.904,590.269 2520.229,558.072 2524.873,551.913C2534.466,539.192 2549.943,502.778 2548.522,473.201C2548.519,473.154 2488.648,474.981 2488.619,475.117C2488.596,475.221 2492.827,543.24 2439.486,546.285C2386.385,549.316 2383.377,489.994 2383.456,476.379C2383.706,433.037 2403.389,407.967 2433.793,407.643C2489.977,407.044 2488.65,475.249 2488.619,475.117C2488.552,474.84 2548.371,473.061 2548.522,473.201C2548.53,473.209 2551.298,426.368 2514.481,390.25C2493.036,369.212 2459.859,360.651 2432.338,362.181C2392.453,364.398 2372.228,377.548 2355.971,391.756C2337.901,407.549 2331.656,429.897 2329.541,435.324Z" style="stroke:#000;stroke-width:1px;"/>
            <path id="u" d="M2652.825,380.884C2653.039,374.523 2648.772,349.903 2625.383,349.425C2598.449,348.875 2593.892,371.391 2593.469,380.294C2592.295,405.051 2590.115,500.765 2590.138,502.497C2590.32,515.671 2591.937,532.915 2599.243,545.544C2601.487,549.424 2609.364,560.118 2616.365,565.179C2623.293,570.189 2634.829,576.139 2648.053,578.368C2660.421,580.452 2674.989,579.615 2680.513,578.397C2693.173,575.607 2700.096,573.897 2708.039,569.114C2717.235,563.577 2727.876,554.139 2733.789,547.737C2734,547.509 2730.407,582.065 2762.191,583.018C2784.949,583.701 2790.175,559.758 2789.912,552.701C2789.895,552.242 2794.838,388.552 2794.872,387.45C2795.167,377.89 2791.695,355.07 2767.102,353.938C2745.921,352.963 2737.245,367.089 2735.49,386.086C2735.405,387.005 2731.586,485.959 2731.586,486.522C2731.607,508.383 2713.687,532.189 2687.71,533.123C2653.916,534.338 2650.727,504.981 2650.085,486.952C2650.07,486.534 2652.628,386.748 2652.825,380.884Z" style="stroke:#000;stroke-width:1px;"/>
            <path id="r" d="M2877.892,363.434C2867.885,362.496 2850.716,367.271 2846.998,388.569C2845.701,396 2840.272,452.371 2839.317,459.181C2838.261,466.716 2835.362,495.543 2835.111,498.274C2834.665,503.133 2832.809,516.12 2830.819,537.617C2830.755,538.3 2829.115,557.25 2829.362,565.532C2829.563,572.316 2835.267,588.753 2854.693,591.036C2872.468,593.125 2883.739,582.273 2887.797,564.671C2888.477,561.723 2887.735,563.76 2890.879,535.838C2891.604,529.408 2893.033,513.22 2893.25,509.935C2894.309,493.942 2899.106,467.444 2900.925,461.141C2908.644,434.402 2918.925,426.369 2927.648,422.774C2941.956,416.879 2965.208,431.71 2972.473,432.867C2982.462,434.457 2991.583,430.684 2998.01,420.956C3001.687,415.391 3003.21,407.816 2999.619,398.518C2995.655,388.254 2979.238,374.577 2952.482,371.227C2925.849,367.892 2911.297,386.035 2902.866,397.267C2902.817,397.331 2902.882,382.223 2900.165,377.267C2897.18,371.82 2890.975,364.662 2877.892,363.434Z" style="stroke:#000;stroke-width:1px;"/>
            <path id="Period3" serif:id="Period" d="M3031.714,468.168C3029.884,470.316 3027.985,473.931 3026.687,476.934C3025.294,480.159 3023.85,485.848 3023.85,488.76C3023.85,491.716 3024.174,496.827 3024.579,498.652C3024.906,500.12 3026.389,503.773 3027.687,506.098C3029.604,509.53 3030.565,510.882 3031.714,512.038C3033.618,513.951 3034.464,515.443 3036.487,516.578C3040.049,518.576 3047.021,522.232 3053.946,522.659C3061.183,523.105 3067.27,520.956 3070.608,519.821C3074.474,518.506 3078.636,514.137 3080.717,512.038C3082.406,510.335 3083.453,509.312 3084.841,506.83C3086.147,504.494 3087.401,501.717 3087.771,500.136C3088.501,497.015 3088.825,492.919 3088.825,489.336C3088.825,486.322 3088.613,482.822 3087.41,479.491C3085.882,475.262 3083.812,471.872 3080.717,468.168C3079.178,466.327 3073.05,461.953 3069.668,460.745C3066.573,459.639 3059.956,458.14 3056.284,458.115C3050.817,458.077 3046.298,458.64 3042.263,460.657C3038.358,462.609 3034.346,465.08 3031.714,468.168Z" style="stroke:#000;stroke-width:1px;"/>
            <path id="S" d="M3163.978,465.885C3192.29,506.499 3246.92,516.904 3272.735,534.767C3315.348,564.254 3292.609,597.494 3264.529,604.628C3230.861,613.181 3191.468,597.639 3183.732,566.989C3177.249,541.299 3176.34,515.978 3145.736,519.719C3124.188,522.352 3118.688,544.533 3120.906,560.204C3122.506,571.505 3122.499,582.393 3138.686,605.944C3156.244,631.492 3190.088,646.881 3222.981,653.095C3240.414,656.388 3285.302,661.859 3320.258,640.176C3347.775,623.107 3352.581,602.466 3358.793,582.713C3362.039,572.39 3362.46,552.473 3354.201,530.114C3343.817,502.004 3301.187,481.55 3271.488,467.656C3248.55,456.925 3207.102,441.753 3213.167,414.17C3217.047,396.52 3239.154,386.451 3274.157,393.407C3291.794,396.912 3306.761,407.024 3314.13,433.833C3315.564,439.049 3321.07,473.97 3354.65,462.82C3387.108,452.042 3386.448,369.103 3281.572,346.899C3204.659,330.616 3167.412,366.234 3157.417,394.163C3148.929,417.884 3148.092,443.096 3163.978,465.885Z" style="stroke:#000;stroke-width:1px;"/>
            <path id="i" d="M3467.147,452.263C3467.152,452.265 3460.076,472.639 3460.06,472.633C3444.498,467.574 3427.601,473.607 3420.897,494.571C3420.778,494.944 3421.909,491.286 3411.522,521.141C3407.375,533.057 3400.417,553.254 3397.975,560.81C3395.46,568.592 3382.722,604.022 3380.564,610.072C3380.325,610.741 3367.559,647.531 3367.322,648.325C3363.8,660.164 3363.13,681.379 3384.74,689.116C3405.099,696.405 3418.805,681.254 3423.948,667.361C3424.347,666.284 3435.555,634.182 3435.621,633.789C3435.652,633.601 3448.155,597.375 3448.385,596.883C3448.695,596.217 3467.765,541.659 3467.9,541.123C3468.159,540.096 3478.456,510.463 3478.488,510.326C3483.068,490.697 3474.163,478.398 3460.06,472.633C3460.052,472.63 3467.065,452.232 3467.147,452.263C3481.674,457.81 3498.126,452.205 3504.783,435.033C3509.45,422.995 3507.193,405.223 3487.703,397.669C3464.736,388.767 3451.36,407.241 3448.774,414.69C3444.067,428.255 3446.957,445.016 3467.147,452.263Z" style="stroke:#000;stroke-width:1px;"/>
            <path id="t1" serif:id="t" d="M3544.702,500.746C3541.545,498.981 3514.84,488.496 3507.087,510.571C3498.911,533.85 3526.442,541.285 3528.922,542.315C3529.03,542.36 3513.502,584.034 3513.44,584.247C3513.359,584.523 3494.414,635.055 3494.212,635.695C3493.983,636.42 3486.812,655.269 3486.158,658.713C3485.568,661.821 3480.199,681.355 3482.193,691.086C3484.837,703.996 3491.925,721.425 3522.705,732.438C3544.153,740.112 3583.33,752.16 3591.159,722.975C3595.461,706.94 3582.521,696.985 3564.044,696.253C3563.782,696.243 3535.262,694.841 3545.309,670.202C3545.415,669.944 3566.002,613.709 3566.016,613.638C3566.029,613.569 3584.402,563.087 3585.093,563.358C3602.568,570.194 3627.006,579.357 3634.235,558.638C3642.067,536.19 3624.522,530.633 3600.532,521.728C3600.151,521.586 3616.994,477.794 3617.058,477.615C3620.633,467.644 3623.327,445.598 3601.101,436.634C3576.09,426.546 3564.076,450.073 3561.272,457.041C3560.3,459.456 3544.81,500.806 3544.702,500.746Z" style="stroke:#000;stroke-width:1px;"/>
            <path id="e1" serif:id="e" d="M3655.861,611.661C3647.984,619.589 3631.017,645.418 3624.722,663.664C3619.05,680.103 3616.196,709.961 3619.441,730.532C3621.802,745.502 3644.011,786.435 3685.298,805.33C3735.265,828.197 3754.55,821.199 3775.608,816.358C3793.594,812.223 3822.807,792.027 3809.009,768.883C3787.061,732.065 3747.008,782.689 3708.029,760.848C3668.824,738.881 3686.59,697.7 3686.896,697.841C3707.59,707.362 3767.612,736.674 3794.083,746.095C3820.694,755.566 3834.318,740.188 3842.152,726.036C3842.342,725.692 3789.059,701.114 3788.87,700.675C3788.597,700.041 3698.201,660.159 3698.3,659.945C3711.513,631.228 3738.952,617.987 3766.409,630.173C3788.589,640.016 3800.609,665.014 3788.87,700.675C3788.84,700.766 3842.118,726.106 3842.152,726.036C3847.612,714.666 3856.23,689.258 3847.666,656.685C3841.393,632.824 3816.233,602.802 3791.284,591.087C3754.137,573.645 3726.142,575.016 3709.883,579.137C3669.652,589.334 3659.996,607.499 3655.861,611.661Z" style="stroke:#000;stroke-width:1px;"/>
            <path id="Period4" serif:id="Period" d="M3895.839,755.395C3894.009,757.542 3892.109,761.157 3890.812,764.16C3889.419,767.385 3887.974,773.075 3887.974,775.986C3887.974,778.942 3888.298,784.054 3888.704,785.878C3889.03,787.347 3890.513,791 3891.811,793.324C3893.728,796.757 3894.689,798.108 3895.839,799.264C3897.742,801.177 3898.588,802.669 3900.612,803.804C3904.173,805.802 3911.145,809.458 3918.07,809.885C3925.307,810.331 3931.394,808.182 3934.732,807.047C3938.598,805.733 3942.76,801.363 3944.842,799.264C3946.53,797.561 3947.577,796.538 3948.965,794.056C3950.272,791.72 3951.526,788.944 3951.895,787.363C3952.625,784.241 3952.949,780.145 3952.949,776.563C3952.949,773.549 3952.737,770.048 3951.534,766.717C3950.006,762.489 3947.937,759.098 3944.842,755.395C3943.303,753.553 3937.174,749.179 3933.792,747.971C3930.697,746.865 3924.081,745.366 3920.409,745.341C3914.942,745.303 3910.423,745.867 3906.387,747.883C3902.482,749.835 3898.47,752.306 3895.839,755.395Z" style="stroke:#000;stroke-width:1px;"/>
            <path id="Period5" serif:id="Period" d="M1261.749,1195.225C1259.919,1197.372 1258.02,1200.987 1256.722,1203.99C1255.329,1207.215 1253.885,1212.905 1253.885,1215.816C1253.885,1218.772 1254.209,1223.884 1254.614,1225.708C1254.941,1227.177 1256.424,1230.83 1257.722,1233.154C1259.638,1236.587 1260.6,1237.938 1261.749,1239.094C1263.653,1241.008 1264.499,1242.499 1266.522,1243.634C1270.083,1245.632 1277.056,1249.289 1283.98,1249.715C1291.218,1250.161 1297.305,1248.013 1300.643,1246.877C1304.509,1245.563 1308.671,1241.193 1310.752,1239.094C1312.441,1237.391 1313.487,1236.368 1314.876,1233.886C1316.182,1231.55 1317.436,1228.774 1317.806,1227.193C1318.536,1224.071 1318.86,1219.976 1318.86,1216.393C1318.86,1213.379 1318.648,1209.878 1317.444,1206.548C1315.917,1202.319 1313.847,1198.928 1310.752,1195.225C1309.213,1193.383 1303.085,1189.009 1299.703,1187.801C1296.608,1186.696 1289.991,1185.197 1286.319,1185.171C1280.852,1185.133 1276.333,1185.697 1272.298,1187.714C1268.393,1189.665 1264.381,1192.136 1261.749,1195.225Z" style="stroke:#000;stroke-width:1px;"/>
            <path id="F" d="M1288.352,1068.094C1284.588,1078.11 1289.973,1087.949 1294.948,1098.159C1307.85,1124.639 1336.274,1179.225 1347.282,1201.013C1358.459,1223.133 1354.263,1215.193 1368.518,1243.407C1374.208,1254.669 1388.304,1283.113 1398.048,1302.398C1408.484,1323.053 1427.813,1328.386 1442.101,1321.168C1465.32,1309.436 1461.723,1285.665 1455.677,1273.699C1454.568,1271.503 1410.301,1186.133 1411.056,1185.751C1417.821,1182.333 1428.756,1176.808 1453.835,1164.137C1481.194,1150.314 1476.292,1152.777 1494.774,1143.439C1504.587,1138.481 1523.184,1127.903 1512.435,1106.628C1502.677,1087.314 1484.593,1093.706 1477.639,1097.219C1449.425,1111.474 1389.605,1141.758 1388.895,1141.525C1388.185,1141.291 1357.447,1078.274 1357.11,1077.607C1357.084,1077.556 1438.211,1036.245 1454.531,1028C1471.969,1019.19 1486.044,1008.207 1476.247,988.816C1471.822,980.057 1462.377,967.667 1437.776,980.097C1401.075,998.64 1339.684,1029.522 1311.855,1043.535C1295.458,1051.791 1292.718,1056.477 1288.352,1068.094Z" style="stroke:#000;stroke-width:1px;"/>
            <path id="o1" serif:id="o" d="M1559.319,1082.513C1559.182,1088.07 1562.358,1105.684 1564.559,1113.93C1566.169,1119.961 1571.088,1131.847 1573.649,1137.462C1574.988,1140.396 1584.428,1155.516 1586.335,1158.461C1587.966,1160.979 1602.338,1176.022 1607.548,1179.8C1621.242,1189.733 1624.503,1191.624 1635.417,1195.434C1655.702,1202.514 1682.795,1204.366 1715.898,1191.732C1768.447,1171.675 1780.378,1133.127 1782.652,1125.756C1787.349,1110.531 1789.525,1071.025 1778.134,1043.692C1778.116,1043.649 1722.431,1065.721 1722.45,1065.858C1722.464,1065.964 1749.566,1128.494 1700.437,1149.49C1651.529,1170.392 1628.534,1115.626 1623.979,1102.796C1609.48,1061.95 1619.469,1031.681 1647.951,1021.041C1700.586,1001.378 1722.524,1065.972 1722.45,1065.858C1722.293,1065.621 1777.945,1043.613 1778.134,1043.692C1778.145,1043.697 1764.824,998.704 1717.922,977.254C1690.601,964.759 1656.49,967.986 1631.129,978.781C1594.372,994.425 1579.822,1013.667 1569.363,1032.556C1557.739,1053.55 1559.462,1076.691 1559.319,1082.513Z" style="stroke:#000;stroke-width:1px;"/>
            <path id="u1" serif:id="u" d="M1846.93,942.23C1845.392,936.055 1834.538,913.548 1811.914,919.502C1785.861,926.358 1787.652,949.26 1789.688,957.938C1795.346,982.068 1819.493,1074.712 1819.991,1076.371C1823.777,1088.99 1830.061,1105.13 1840.55,1115.272C1843.772,1118.387 1854.279,1126.512 1862.399,1129.46C1870.436,1132.378 1883.161,1134.937 1896.489,1133.454C1908.955,1132.068 1922.735,1127.268 1927.713,1124.583C1939.123,1118.427 1945.311,1114.886 1951.639,1108.108C1958.964,1100.261 1966.61,1088.267 1970.541,1080.49C1970.681,1080.212 1976.701,1114.429 2007.528,1106.631C2029.601,1101.048 2028.061,1076.59 2025.874,1069.875C2025.731,1069.438 1985.603,910.666 1985.334,909.597C1982.996,900.323 1973.4,879.329 1949.439,884.984C1928.802,889.854 1924.332,905.817 1927.853,924.567C1928.023,925.475 1951.483,1021.683 1951.638,1022.224C1957.652,1043.242 1946.946,1071.049 1922.22,1079.07C1890.055,1089.504 1878.938,1062.147 1873.378,1044.984C1873.249,1044.587 1848.348,947.924 1846.93,942.23Z" style="stroke:#000;stroke-width:1px;"/>
            <path id="n" d="M2057.653,861.247C2045.986,864.009 2032.466,872.674 2038.618,900.582C2044.96,929.346 2057.995,986.683 2062.85,1010.605C2067.78,1034.897 2068.544,1036.769 2073.898,1059.435C2079.697,1083.988 2099.006,1087.35 2111.617,1084.007C2125.672,1080.282 2137.323,1064.933 2131.336,1044.062C2131.262,1043.807 2113.048,969.007 2111.365,949.351C2108.491,915.78 2120.813,896.223 2145.539,890.098C2166.653,884.867 2180.003,891.933 2190.28,929.237C2198.42,958.789 2212.347,1028.264 2212.381,1028.454C2215.382,1045.383 2232.936,1057.073 2245.79,1054.41C2269.972,1049.401 2273.399,1029.176 2270.468,1015.88C2270.416,1015.645 2264.738,991.214 2263.844,986.494C2261.953,976.514 2264.573,990.931 2258.558,961.852C2256.335,951.108 2247.147,909.864 2247.022,909.395C2246.887,908.885 2242.142,888.93 2239.683,883.38C2219.198,837.13 2180.624,833.513 2153.805,839.874C2110.374,850.175 2099.657,877.514 2093.391,886.883C2093.234,887.118 2086.759,854.354 2057.653,861.247Z" style="stroke:#000;stroke-width:1px;"/>
            <path id="d" d="M2371.129,800.536C2322.822,805.934 2301.262,838.194 2293.461,865.686C2284.956,895.661 2289.646,946.864 2307.182,975.467C2321.312,998.514 2349.268,1031.314 2395.979,1027.616C2440.106,1024.121 2465.887,983.001 2465.889,983.02C2467.911,1006.654 2485.344,1014.953 2498.131,1012.764C2513.801,1010.082 2524.867,996.613 2520.933,973.724C2520.527,971.358 2507.169,884.467 2507.515,884.42C2508.051,884.347 2449.787,892.756 2449.827,892.982C2462.583,965.731 2421.095,976.845 2410.01,977.996C2368.719,982.282 2355.248,945.422 2350.303,918.59C2344.542,887.339 2355.466,847.983 2389.523,842.975C2422.551,838.119 2443.427,867.897 2449.827,892.982C2449.924,893.364 2506.836,884.443 2507.515,884.42C2508.132,884.4 2490.537,756.858 2486.996,738.919C2485.755,732.631 2483.97,701.177 2453.687,704.92C2434.039,707.348 2429.078,725.358 2431.041,741.027C2436.121,781.588 2441.947,820.395 2441.754,820.235C2413.463,796.691 2384.658,799.024 2371.129,800.536Z" style="stroke:#000;stroke-width:1px;"/>
            <path id="Period6" serif:id="Period" d="M2550.438,858.499C2548.608,860.647 2546.709,864.262 2545.411,867.265C2544.018,870.49 2542.574,876.179 2542.574,879.091C2542.574,882.046 2542.898,887.158 2543.303,888.982C2543.63,890.451 2545.113,894.104 2546.411,896.429C2548.328,899.861 2549.289,901.213 2550.438,902.369C2552.342,904.282 2553.188,905.774 2555.211,906.909C2558.773,908.907 2565.745,912.563 2572.67,912.99C2579.907,913.436 2585.994,911.287 2589.332,910.152C2593.198,908.837 2597.36,904.468 2599.441,902.369C2601.13,900.666 2602.177,899.643 2603.565,897.161C2604.872,894.825 2606.125,892.048 2606.495,890.467C2607.225,887.346 2607.549,883.25 2607.549,879.667C2607.549,876.653 2607.337,873.153 2606.134,869.822C2604.606,865.593 2602.536,862.203 2599.441,858.499C2597.902,856.658 2591.774,852.284 2588.392,851.076C2585.297,849.97 2578.68,848.471 2575.008,848.446C2569.541,848.408 2565.022,848.971 2560.987,850.988C2557.082,852.94 2553.07,855.411 2550.438,858.499Z" style="stroke:#000;stroke-width:1px;"/>
            <path id="O" d="M2675.271,790.156C2670.487,802.726 2666.66,816.341 2665.958,830.653C2665.548,839.012 2664.355,861.865 2664.501,870.137C2664.711,881.983 2666.823,892.255 2667.511,896.908C2668.099,900.887 2675.431,927.554 2679.684,935.06C2690.863,954.793 2692.776,959.36 2703.97,970.077C2724.775,989.997 2752.302,1008.015 2803.159,1011.351C2878.403,1016.287 2914.428,976.332 2923.83,965.29C2937.677,949.025 2957.76,908.663 2959.996,863.227C2959.999,863.164 2894.992,859.859 2894.938,860.037C2894.897,860.173 2893.135,963.762 2806.867,959.531C2728.797,955.702 2727.033,870.064 2728.614,851.88C2733.649,793.991 2759.027,749.037 2816.99,753.12C2903.436,759.209 2894.966,860.216 2894.938,860.037C2894.879,859.66 2959.809,863.025 2959.996,863.227C2960.006,863.239 2965.925,792.937 2925.544,746.972C2896.349,713.739 2856.506,701.533 2819.566,700.592C2766.029,699.229 2741.3,710.996 2717.654,729.609C2692.374,749.509 2678.048,782.858 2675.271,790.156Z" style="stroke:#000;stroke-width:1px;"/>
            <path id="n1" serif:id="n" d="M3042.645,818.712C3030.874,816.432 3014.987,818.77 3009.117,846.738C3003.068,875.566 2991.369,933.19 2985.956,956.992C2980.46,981.162 2980.387,983.182 2975.945,1006.044C2971.134,1030.81 2987.351,1041.816 3000.221,1043.955C3014.564,1046.34 3031.497,1037.14 3034.623,1015.654C3034.661,1015.391 3048.821,939.72 3055.371,921.111C3066.558,889.327 3085.832,876.568 3110.889,881.154C3132.286,885.07 3141.549,897 3135.574,935.23C3130.841,965.515 3114.963,1034.571 3114.916,1034.757C3110.689,1051.423 3121.882,1069.298 3134.694,1072.157C3158.797,1077.537 3170.239,1060.51 3173.035,1047.186C3173.084,1046.95 3177.956,1022.345 3179.082,1017.676C3181.463,1007.8 3177.922,1022.02 3184.398,993.039C3186.79,982.332 3195.378,940.959 3195.457,940.48C3195.543,939.959 3199.424,919.818 3199.466,913.748C3199.814,863.166 3166.141,844.006 3139.079,838.774C3095.254,830.302 3074.242,850.814 3064.678,856.777C3064.437,856.927 3072.01,824.399 3042.645,818.712Z" style="stroke:#000;stroke-width:1px;"/>
            <path id="l" d="M3286.28,832.829C3285.88,834.031 3279.114,857.829 3278.962,858.642C3278.837,859.315 3261.423,919.449 3261.214,920.465C3261.071,921.154 3245.17,976.364 3244.992,976.774C3244.76,977.309 3234.751,1012.768 3234.637,1013.284C3234.504,1013.878 3225.994,1042.388 3225.845,1042.819C3225.686,1043.28 3219.974,1064.147 3219.73,1066.14C3218.327,1077.606 3218.959,1095.932 3239.998,1102.105C3257.761,1107.316 3271.281,1097.302 3277.606,1079.558C3278.777,1076.273 3279.89,1071.553 3280.16,1070.649C3280.351,1070.007 3285.641,1051.564 3285.876,1050.705C3286.047,1050.083 3303.399,989.178 3303.653,987.841C3303.862,986.74 3320.881,929.221 3321.067,928.221C3321.243,927.275 3335.722,876.15 3335.965,875.537C3336.079,875.25 3344.098,847.558 3343.99,847.893C3343.87,848.267 3346.723,837.716 3347.263,832.966C3348.06,825.967 3345.008,807.852 3325.905,802.395C3310.145,797.893 3296.641,806.059 3291.536,817.545C3289.052,823.133 3286.595,831.881 3286.28,832.829Z" style="stroke:#000;stroke-width:1px;"/>
            <path id="i1" serif:id="i" d="M3420.825,896.628C3420.829,896.629 3414.17,917.143 3414.154,917.138C3398.492,912.398 3381.722,918.774 3375.447,939.87C3375.335,940.245 3376.391,936.565 3366.615,966.625C3362.712,978.624 3356.167,998.959 3353.88,1006.562C3351.524,1014.394 3339.511,1050.077 3337.476,1056.169C3337.252,1056.842 3325.238,1093.885 3325.018,1094.684C3321.737,1106.593 3321.5,1127.816 3343.263,1135.111C3363.767,1141.984 3377.161,1126.557 3382.02,1112.562C3382.397,1111.477 3392.948,1079.153 3393.005,1078.758C3393.033,1078.57 3404.795,1042.096 3405.014,1041.6C3405.312,1040.928 3423.264,985.993 3423.389,985.454C3423.627,984.422 3433.317,954.585 3433.346,954.448C3437.525,934.729 3428.372,922.614 3414.154,917.138C3414.146,917.135 3420.742,896.598 3420.825,896.628C3435.461,901.877 3451.796,895.938 3458.101,878.633C3462.522,866.503 3459.903,848.781 3440.263,841.626C3417.119,833.194 3404.123,851.936 3401.689,859.437C3397.259,873.095 3400.49,889.794 3420.825,896.628Z" style="stroke:#000;stroke-width:1px;"/>
            <path id="n2" serif:id="n" d="M3525.996,948.215C3514.958,943.533 3498.932,942.511 3487.365,968.643C3475.444,995.578 3451.998,1049.501 3441.746,1071.653C3431.335,1094.148 3430.843,1096.109 3421.737,1117.544C3411.872,1140.765 3425.441,1154.907 3437.583,1159.681C3451.115,1165.001 3469.593,1159.53 3477.126,1139.166C3477.218,1138.917 3506.829,1067.855 3517.112,1051.018C3534.674,1022.263 3556.183,1013.798 3579.736,1023.503C3599.848,1031.79 3606.422,1045.388 3592.615,1081.535C3581.677,1110.17 3551.763,1174.403 3551.678,1174.576C3544.072,1189.995 3551.297,1209.809 3563.232,1215.275C3585.686,1225.557 3600.423,1211.288 3605.933,1198.838C3606.031,1198.618 3615.921,1175.567 3617.995,1171.235C3622.38,1162.072 3615.955,1175.242 3628.326,1148.246C3632.896,1138.272 3649.913,1099.596 3650.091,1099.143C3650.283,1098.652 3658.275,1079.761 3659.58,1073.833C3670.457,1024.433 3641.514,998.679 3616.135,987.925C3575.037,970.509 3550.212,986.195 3539.616,990.035C3539.349,990.131 3553.532,959.895 3525.996,948.215Z" style="stroke:#000;stroke-width:1px;"/>
            <path id="e2" serif:id="e" d="M3700.319,1109.261C3691.886,1116.595 3673.084,1141.12 3665.477,1158.859C3658.624,1174.842 3653.605,1204.413 3655.343,1225.165C3656.609,1240.268 3675.779,1282.709 3715.581,1304.559C3763.751,1331.002 3783.495,1325.427 3804.848,1322.131C3823.088,1319.317 3853.693,1301.301 3841.617,1277.214C3822.407,1238.896 3778.776,1286.47 3741.49,1261.85C3703.988,1237.087 3724.704,1197.308 3724.999,1197.471C3744.945,1208.474 3802.674,1242.077 3828.389,1253.4C3854.24,1264.783 3868.948,1250.437 3877.791,1236.892C3878.005,1236.564 3826.652,1208.172 3826.496,1207.721C3826.27,1207.069 3739.017,1160.712 3739.131,1160.506C3754.399,1132.827 3782.729,1121.618 3809.226,1135.77C3830.631,1147.203 3840.8,1173.009 3826.496,1207.721C3826.46,1207.809 3877.752,1236.96 3877.791,1236.892C3884.064,1225.951 3894.508,1201.237 3888.338,1168.127C3883.818,1143.873 3860.911,1112.099 3836.88,1098.599C3801.101,1078.5 3773.081,1077.829 3756.565,1080.756C3715.699,1087.997 3704.746,1105.411 3700.319,1109.261Z" style="stroke:#000;stroke-width:1px;"/>
            <path id="Period7" serif:id="Period" d="M3891.321,1260.764C3889.491,1262.912 3887.591,1266.527 3886.294,1269.529C3884.901,1272.754 3883.456,1278.444 3883.456,1281.355C3883.456,1284.311 3883.781,1289.423 3884.186,1291.247C3884.513,1292.716 3885.995,1296.369 3887.294,1298.694C3889.21,1302.126 3890.172,1303.478 3891.321,1304.633C3893.225,1306.547 3894.071,1308.039 3896.094,1309.174C3899.655,1311.172 3906.628,1314.828 3913.552,1315.255C3920.79,1315.7 3926.877,1313.552 3930.214,1312.417C3934.081,1311.102 3938.243,1306.733 3940.324,1304.633C3942.012,1302.93 3943.059,1301.908 3944.448,1299.426C3945.754,1297.09 3947.008,1294.313 3947.378,1292.732C3948.108,1289.611 3948.432,1285.515 3948.432,1281.932C3948.432,1278.918 3948.22,1275.418 3947.016,1272.087C3945.489,1267.858 3943.419,1264.467 3940.324,1260.764C3938.785,1258.923 3932.656,1254.549 3929.275,1253.341C3926.18,1252.235 3919.563,1250.736 3915.891,1250.711C3910.424,1250.673 3905.905,1251.236 3901.87,1253.253C3897.965,1255.205 3893.953,1257.676 3891.321,1260.764Z" style="stroke:#000;stroke-width:1px;"/>
        </g>
    </g>
</svg>
