<?xml version="1.0" encoding="UTF-8" standalone="no"?>
<!DOCTYPE svg PUBLIC "-//W3C//DTD SVG 1.1//EN" "http://www.w3.org/Graphics/SVG/1.1/DTD/svg11.dtd">
<svg width="100%" height="100%" viewBox="0 0 5120 1593" version="1.1" xmlns="http://www.w3.org/2000/svg" xmlns:xlink="http://www.w3.org/1999/xlink" xml:space="preserve" xmlns:serif="http://www.serif.com/" style="fill-rule:evenodd;clip-rule:evenodd;stroke-linecap:round;stroke-linejoin:round;stroke-miterlimit:1.5;">
    <g id="Learn-More" serif:id="Learn More">
        <path d="M2554.226,1158.797C3145.918,1158.793 3349.605,1158.969 3309.966,1159.099C3250.424,1159.293 3005.825,1159.042 2565.214,1159.039C2163.972,1159.037 1922.756,1159.31 1813.138,1159.097C1754.745,1158.983 2023.176,1158.801 2554.226,1158.797Z" style="fill:#2f3552;stroke:#000;stroke-width:25px;"/>
        <g transform="matrix(1,0,0,1,0.303095,-36.186141)">
            <g transform="matrix(1,-0.000317,0.000317,1,-0.398219,0.660726)">
                <text x="2083.923px" y="1256.431px" style="font-family:'ArialRoundedMTBold', 'Arial Rounded MT Bold', sans-serif;font-size:175px;fill:#fff;">L</text>
            </g>
            <g transform="matrix(1,-0.000244,0.000244,1,-0.30708,0.535328)">
                <text x="2189.641px" y="1256.398px" style="font-family:'ArialRoundedMTBold', 'Arial Rounded MT Bold', sans-serif;font-size:175px;fill:#fff;">e</text>
            </g>
            <g transform="matrix(1,-0.000171,0.000171,1,-0.215307,0.393152)">
                <text x="2293.676px" y="1256.372px" style="font-family:'ArialRoundedMTBold', 'Arial Rounded MT Bold', sans-serif;font-size:175px;fill:#fff;">a</text>
            </g>
            <g transform="matrix(1,-0.000104,0.000104,1,-0.131131,0.25027)">
                <text x="2397.517px" y="1256.355px" style="font-family:'ArialRoundedMTBold', 'Arial Rounded MT Bold', sans-serif;font-size:175px;fill:#fff;">r</text>
            </g>
            <g transform="matrix(1,-0.000044,0.000044,1,-0.055504,0.109316)">
                <text x="2474.235px" y="1256.346px" style="font-family:'ArialRoundedMTBold', 'Arial Rounded MT Bold', sans-serif;font-size:175px;fill:#fff;">n</text>
            </g>
            <g transform="matrix(1,0.000078,-0.000078,1,0.097681,-0.203971)">
                <text x="2623.672px" y="1256.341px" style="font-family:'ArialRoundedMTBold', 'Arial Rounded MT Bold', sans-serif;font-size:175px;fill:#fff;">M</text>
            </g>
            <g transform="matrix(1,0.000172,-0.000172,1,0.216582,-0.477346)">
                <text x="2769.633px" y="1256.353px" style="font-family:'ArialRoundedMTBold', 'Arial Rounded MT Bold', sans-serif;font-size:175px;fill:#fff;">o</text>
            </g>
            <g transform="matrix(1,0.000248,-0.000248,1,0.311752,-0.713207)">
                <text x="2875.22px" y="1256.372px" style="font-family:'ArialRoundedMTBold', 'Arial Rounded MT Bold', sans-serif;font-size:175px;fill:#fff;">r</text>
            </g>
            <g transform="matrix(1,0.000314,-0.000314,1,0.394241,-0.924515)">
                <text x="2947.577px" y="1256.389px" style="font-family:'ArialRoundedMTBold', 'Arial Rounded MT Bold', sans-serif;font-size:175px;fill:#fff;">e</text>
            </g>
        </g>
    </g>
    <g id="Copy-Font" serif:id="Copy Font">
        <g id="Solutions">
            <path id="W" d="M991.961,765.471C991.85,765.539 902.418,666.347 892.748,655.609C877.572,638.758 865.636,644.063 856.271,651.587C848.09,658.161 843.654,671.386 853.748,684.929C859.792,693.037 990.657,831.373 991.099,831.827C1005.194,846.306 1018.381,846.497 1031.89,838.781C1047.926,829.621 1047.899,811.426 1045.307,803.017C1045.192,802.644 1006.668,646.83 1006.784,646.758C1006.921,646.674 1120.549,762.571 1120.776,762.804C1133.501,775.869 1148.957,773.689 1159.454,767.33C1166.079,763.316 1176.761,754.607 1172.897,733.485C1172.84,733.178 1122.489,544.886 1117.828,535.02C1110.421,519.342 1098.091,518.421 1088.513,521.287C1076.411,524.908 1068.906,536.361 1071.635,549.242C1076.276,571.148 1115.185,696.543 1115.119,696.56C1115.044,696.579 1042.373,620.334 1012.289,591.986C1004.214,584.378 990.807,575.755 972.569,585.724C954.311,595.705 954.251,612.728 955.281,617.646C961.672,648.161 992.172,765.341 991.961,765.471Z" style="stroke:#000;stroke-width:1px;"/>
            <path id="h" d="M1167.915,511.725C1165.296,503.601 1162.665,487.544 1181.711,480.834C1198.729,474.838 1207.327,485.739 1211.866,494.54C1212.125,495.042 1236.177,557.744 1236.232,557.565C1244.055,532.203 1261.695,520.638 1277.484,514.434C1311.704,500.99 1338.668,518.712 1349.353,538.254C1359.702,557.182 1375.347,600.969 1375.457,601.18C1375.733,601.715 1390.107,638.973 1390.158,639.148C1395.352,656.959 1390.192,667.472 1377.233,672.509C1361.752,678.528 1351.002,668.63 1346.798,657.561C1346.662,657.202 1315.628,577.871 1315.474,577.568C1306.209,559.382 1297.67,545.959 1274.992,555.461C1253.564,564.439 1248.003,589.403 1257.172,610.927C1257.479,611.647 1284.341,680.912 1284.416,681.178C1288.168,694.571 1287.252,707.11 1271.179,713.736C1254.84,720.471 1243.737,708.139 1240.309,698.247C1240.181,697.876 1221.996,650.641 1221.644,649.861C1221.474,649.484 1204.756,607.278 1196.245,585.928C1187.089,562.959 1168.07,512.206 1167.915,511.725Z" style="stroke:#000;stroke-width:1px;"/>
            <path id="a" d="M1411.794,534.224C1421.539,535.288 1431.5,532.362 1434.42,522.201C1443.418,490.888 1458.323,487.865 1471.905,484.281C1502.693,476.157 1504.435,485.824 1514.702,508.37C1514.909,508.825 1521.897,539.229 1522,539.591C1555.394,657.795 1357.818,601.624 1522,539.591C1522.055,539.57 1514.726,508.365 1514.702,508.37C1514.654,508.382 1457.552,537.156 1442.1,544.852C1410.537,560.571 1402.542,587.028 1411.112,613.67C1419.131,638.598 1453.227,651.605 1484.851,643.569C1521.385,634.286 1531.819,616.005 1541.877,605.136C1542.017,604.985 1553.048,616.602 1563.013,621.261C1573.136,625.994 1580.133,624.638 1589.247,616.17C1597.712,608.306 1596.255,597.893 1594.527,594.703C1583.449,574.244 1585.182,578.308 1578.783,562.996C1578.143,561.464 1562.439,495.802 1557.78,483.998C1541.801,443.516 1516.537,435.816 1469.628,447.706C1429.543,457.866 1403.006,474.962 1396.735,498.684C1391.348,519.061 1399.681,532.901 1411.794,534.224Z" style="stroke:#000;stroke-width:1px;"/>
            <path id="t" d="M1593.539,427.67C1590.607,427.925 1567.833,433.07 1572.702,451.477C1577.836,470.888 1599.771,463.311 1601.912,462.872C1602.005,462.853 1610.595,498.009 1610.651,498.182C1610.722,498.405 1621.06,541.087 1621.217,541.611C1621.394,542.203 1625.18,558.173 1626.313,560.79C1627.336,563.153 1632.649,578.759 1638.438,584.4C1646.119,591.884 1658.856,600.381 1684.615,593.729C1702.564,589.094 1734.449,579.302 1726.383,556.073C1721.951,543.31 1708.688,542.521 1695.912,550.472C1695.731,550.585 1675.887,562.675 1671.392,541.493C1671.345,541.271 1659.507,493.998 1659.484,493.944C1659.461,493.891 1648.761,451.503 1649.351,451.369C1664.241,447.986 1684.884,442.988 1680.282,425.733C1675.297,407.039 1660.943,411.315 1640.72,416.283C1640.399,416.362 1631.726,379.177 1631.687,379.028C1629.538,370.68 1621.276,354.605 1602.215,358.726C1580.763,363.364 1583.426,384.696 1584.722,390.67C1585.171,392.74 1593.64,427.661 1593.539,427.67Z" style="stroke:#000;stroke-width:1px;"/>
            <path id="o" d="M2037.099,398.882C2035.718,403.052 2034.07,417.102 2033.838,423.843C2033.669,428.775 2034.654,438.894 2035.301,443.729C2035.638,446.255 2039.3,459.86 2040.065,462.525C2040.719,464.804 2048.128,479.485 2051.199,483.54C2059.27,494.2 2061.301,496.38 2068.678,501.77C2082.389,511.789 2102.452,519.42 2130.389,517.477C2174.738,514.394 2192.625,487.988 2196.039,482.937C2203.092,472.504 2213.822,443.13 2211.493,419.842C2211.489,419.805 2164.305,423.691 2164.288,423.799C2164.275,423.882 2170.39,477.399 2128.411,481.979C2086.62,486.539 2081.825,439.837 2081.331,429.088C2079.76,394.866 2094.273,374.274 2118.258,372.777C2162.582,370.012 2164.318,423.902 2164.288,423.799C2164.224,423.584 2211.368,419.738 2211.493,419.842C2211.5,419.848 2211.773,382.762 2181.238,355.756C2163.452,340.025 2136.915,334.621 2115.255,336.952C2083.863,340.33 2068.435,351.535 2056.183,363.414C2042.565,376.617 2038.547,394.512 2037.099,398.882Z" style="stroke:#000;stroke-width:1px;"/>
            <path id="S" d="M1820.488,413.869C1854.278,438.158 1900.493,431.147 1925.949,438.098C1967.967,449.571 1959.226,482.275 1938.957,495.774C1914.656,511.959 1879.084,510.641 1864.39,488.504C1852.074,469.949 1844.281,450.129 1821.064,461.642C1804.717,469.749 1806.552,488.87 1812.688,500.674C1817.113,509.186 1820.149,517.819 1839.56,531.969C1860.616,547.318 1891.745,550.065 1919.557,545.803C1934.298,543.544 1971.412,535.343 1993.067,508.388C2010.114,487.17 2008.158,469.464 2007.565,452.07C2007.255,442.979 2002.026,427.072 1989.232,411.653C1973.148,392.269 1933.64,387.962 1906.214,385.242C1885.032,383.142 1847.936,382.692 1845.038,359.131C1843.184,344.054 1857.898,329.897 1887.59,325.635C1902.551,323.487 1917.241,327.322 1930.572,346.518C1933.165,350.252 1947.285,376.398 1970.791,358.179C1993.513,340.568 1969.823,275.001 1880.477,286.694C1814.955,295.268 1795.375,333.909 1795.253,358.842C1795.15,380.019 1801.529,400.24 1820.488,413.869Z" style="stroke:#000;stroke-width:1px;"/>
            <path id="l" d="M2249.898,289.15C2249.854,290.201 2249.898,310.75 2249.963,311.434C2250.017,312 2249.876,363.996 2249.941,364.854C2249.985,365.437 2249.924,413.155 2249.876,413.523C2249.813,414.003 2249.936,444.603 2249.963,445.042C2249.993,445.546 2249.723,470.256 2249.703,470.634C2249.682,471.038 2249.896,489.006 2250.158,490.652C2251.661,500.128 2256.359,514.615 2274.569,514.728C2289.944,514.824 2298.446,503.735 2299.436,488.121C2299.619,485.23 2299.427,481.207 2299.436,480.424C2299.442,479.867 2299.445,463.932 2299.436,463.192C2299.429,462.657 2299.345,410.06 2299.242,408.935C2299.157,408.008 2299.582,358.191 2299.502,357.349C2299.426,356.554 2299.286,312.423 2299.34,311.878C2299.365,311.623 2299.43,287.679 2299.421,287.971C2299.41,288.297 2299.273,279.22 2298.618,275.304C2297.652,269.534 2291.071,255.77 2274.569,255.784C2260.957,255.797 2252.044,265.407 2250.597,275.745C2249.893,280.775 2249.932,288.321 2249.898,289.15Z" style="stroke:#000;stroke-width:1px;"/>
            <path id="u" d="M2394.233,342.012C2394.255,336.385 2389.839,314.738 2369.156,314.929C2345.338,315.15 2341.902,335.167 2341.762,343.047C2341.373,364.956 2341.955,449.601 2342.022,451.131C2342.527,462.768 2344.408,477.966 2351.196,488.935C2353.282,492.304 2360.523,501.549 2366.843,505.839C2373.097,510.084 2383.448,515.04 2395.193,516.663C2406.178,518.181 2419.031,517.059 2423.88,515.838C2434.996,513.04 2441.068,511.348 2447.963,506.913C2455.945,501.778 2465.101,493.158 2470.159,487.346C2470.34,487.139 2468.07,517.771 2496.185,517.781C2516.314,517.788 2520.305,496.491 2519.888,490.261C2519.861,489.856 2519.938,345.066 2519.939,344.091C2519.949,335.634 2516.283,315.558 2494.518,315.202C2475.774,314.896 2468.477,327.607 2467.424,344.442C2467.373,345.257 2466.592,432.807 2466.608,433.304C2467.199,452.623 2451.987,474.132 2429.053,475.638C2399.22,477.598 2395.632,451.737 2394.592,435.821C2394.568,435.452 2394.212,347.199 2394.233,342.012Z" style="stroke:#000;stroke-width:1px;"/>
            <path id="t1" serif:id="t" d="M2572.074,332.015C2569.196,331.395 2545.918,329.606 2545.15,348.631C2544.341,368.693 2567.534,367.912 2569.709,368.122C2569.804,368.131 2567.661,404.259 2567.663,404.439C2567.666,404.674 2564.977,448.508 2564.972,449.054C2564.967,449.673 2563.883,466.049 2564.195,468.884C2564.477,471.443 2564.958,487.922 2568.83,495.017C2573.966,504.431 2583.637,516.303 2610.213,517.531C2628.73,518.387 2662.085,518.417 2661.217,493.843C2660.739,480.341 2648.298,475.682 2633.747,479.518C2633.54,479.573 2611.016,485.283 2612.958,463.717C2612.978,463.491 2615.585,414.828 2615.579,414.769C2615.573,414.713 2617.829,371.053 2618.432,371.099C2633.658,372.25 2654.857,373.552 2655.541,355.707C2656.281,336.374 2641.305,336.234 2620.516,335.026C2620.185,335.007 2622.847,296.918 2622.854,296.763C2623.258,288.153 2620.096,270.358 2600.666,268.683C2578.8,266.799 2575.063,287.969 2574.543,294.059C2574.363,296.17 2572.172,332.037 2572.074,332.015Z" style="stroke:#000;stroke-width:1px;"/>
            <path id="i" d="M2718.402,313.501C2718.406,313.501 2717.41,331.592 2717.396,331.591C2703.657,331.109 2691.41,339.894 2690.851,358.375C2690.841,358.703 2690.907,355.487 2689.432,382.001C2688.843,392.584 2687.901,410.505 2687.679,417.171C2687.449,424.038 2685.367,455.598 2685.025,460.983C2684.988,461.578 2683.197,494.243 2683.19,494.939C2683.087,505.315 2687.459,522.601 2706.701,523.845C2724.828,525.017 2732.388,509.609 2733.325,497.199C2733.397,496.237 2735.015,467.719 2734.976,467.386C2734.958,467.227 2736.667,435.079 2736.738,434.628C2736.835,434.019 2739.6,385.547 2739.585,385.082C2739.557,384.193 2741.01,357.88 2741.004,357.762C2740.158,340.851 2730.119,332.981 2717.396,331.591C2717.388,331.59 2718.328,313.495 2718.402,313.501C2731.417,314.616 2743.404,306.281 2744.804,290.872C2745.785,280.071 2739.847,266.242 2722.359,264.655C2701.752,262.785 2695.228,280.8 2694.865,287.414C2694.205,299.458 2700.419,312.324 2718.402,313.501Z" style="stroke:#000;stroke-width:1px;"/>
            <path id="o1" serif:id="o" d="M2778.779,393.532C2776.359,397.475 2771.284,411.481 2769.423,418.336C2768.061,423.35 2766.634,433.961 2766.131,439.074C2765.869,441.744 2766.345,456.573 2766.487,459.49C2766.609,461.984 2770.668,478.818 2772.838,483.715C2778.545,496.587 2780.102,499.312 2786.366,506.615C2798.008,520.188 2816.736,532.844 2845.844,537.583C2892.051,545.106 2916.748,522.345 2921.465,517.99C2931.209,508.994 2949.285,481.466 2952.507,457.031C2952.513,456.992 2903.206,449.609 2903.162,449.716C2903.129,449.798 2896.506,506.134 2852.368,500.716C2808.428,495.323 2814.763,446.292 2816.846,435.153C2823.479,399.693 2843.318,382.08 2868.267,386.323C2914.371,394.166 2903.169,449.829 2903.162,449.716C2903.149,449.48 2952.405,456.895 2952.507,457.031C2952.513,457.039 2961.728,419.087 2936.931,384.046C2922.487,363.635 2896.585,351.703 2873.818,348.874C2840.823,344.774 2822.309,352.544 2806.887,361.77C2789.746,372.024 2781.316,389.401 2778.779,393.532Z" style="stroke:#000;stroke-width:1px;"/>
            <path id="n" d="M3021.25,358.58C3010.488,356.855 2996.121,359.446 2991.61,385.031C2986.96,411.402 2978.023,464.105 2973.804,485.891C2969.52,508.015 2969.513,509.852 2966.149,530.756C2962.505,553.401 2977.564,562.924 2989.321,564.49C3002.424,566.235 3017.539,557.378 3019.748,537.764C3019.775,537.524 3030.417,468.35 3035.822,451.249C3045.053,422.041 3062.191,409.882 3085.094,413.312C3104.651,416.242 3113.418,426.81 3109.112,461.722C3105.701,489.379 3093.303,552.591 3093.266,552.762C3089.915,568.029 3100.61,583.942 3112.335,586.164C3134.394,590.344 3144.29,574.537 3146.439,562.348C3146.477,562.132 3150.181,539.632 3151.067,535.356C3152.94,526.313 3150.14,539.337 3155.173,512.815C3157.033,503.016 3163.62,465.171 3163.677,464.733C3163.74,464.257 3166.676,445.842 3166.535,440.326C3165.365,394.355 3134.205,377.935 3109.462,373.976C3069.393,367.566 3050.904,386.821 3042.388,392.521C3042.174,392.664 3048.1,362.886 3021.25,358.58Z" style="stroke:#000;stroke-width:1px;"/>
            <path id="s" d="M3204.991,488.378C3224.198,517.379 3254.129,523.134 3269.581,536.491C3289.581,553.781 3280.182,559.142 3271.981,561.939C3250.631,569.219 3229.545,552.818 3225.25,542.747C3219.164,528.478 3217.986,511.755 3197.801,512.982C3185.244,513.746 3177.883,525.475 3176.222,534.706C3175.103,540.928 3173.465,550.947 3183.583,565.668C3194.559,581.636 3219.296,594.79 3240.795,600.285C3252.189,603.197 3281.809,608.487 3305.293,597.741C3323.78,589.281 3328.526,576.49 3332.207,561.294C3333.697,555.142 3335.301,543.769 3330.371,530.194C3324.172,513.127 3302.044,501.448 3283.449,490.484C3268.977,481.95 3245.407,473.331 3249.749,460.57C3253.148,450.58 3269.026,453.661 3274.542,455.684C3279.8,457.613 3291.969,461.769 3296.185,475.396C3298.827,483.936 3309.328,501.266 3331.669,496.618C3353.264,492.126 3355.21,437.599 3286.717,418.676C3236.487,404.799 3211.696,425.716 3206.047,437.438C3199.639,450.734 3193.601,471.181 3204.991,488.378Z" style="stroke:#000;stroke-width:1px;"/>
            <path id="C" d="M3478.299,495.353C3467.892,510.383 3460.87,535.522 3456.785,549.364C3455.023,555.338 3452.877,569.357 3452.494,576.898C3451.873,589.13 3452.646,604.516 3455.392,619.328C3457.507,630.733 3460.574,639.379 3464.551,646.768C3473.972,664.272 3482.69,675.585 3489.717,681.238C3506.786,694.967 3518.521,702.254 3539.981,708.859C3572.819,718.966 3597.306,720.456 3625.672,709.259C3643.045,702.401 3649.517,697.23 3662.996,684.275C3681.427,666.563 3689.162,635.644 3672.242,624.783C3637.141,602.251 3633.87,642.869 3603.473,658.84C3579.18,671.604 3480.853,669.588 3519.777,551.141C3554.665,444.974 3648.299,483.388 3653.648,537.084C3655.937,560.06 3670.918,576.089 3689.317,571.22C3707.508,566.406 3715.576,547.063 3711,526.652C3707.65,511.71 3702.115,494.637 3686.364,476.728C3671.177,459.458 3641.776,439.646 3611.138,435.579C3581.295,431.618 3564.847,432.719 3542.606,440.658C3502.472,454.984 3486.19,483.955 3478.299,495.353Z" style="stroke:#000;stroke-width:1px;"/>
            <path id="a1" serif:id="a" d="M3721.567,637.749C3728.967,644.562 3738.976,648.212 3747.576,641.597C3774.075,621.215 3788.226,627.796 3801.626,633.107C3832.001,645.146 3827.553,654.191 3822.303,679.064C3822.197,679.565 3809.454,708.931 3809.318,709.293C3764.915,827.254 3635.944,660.545 3809.318,709.293C3809.375,709.309 3822.326,679.074 3822.303,679.064C3822.256,679.044 3757.573,668.035 3740.125,664.981C3704.485,658.743 3681.77,675.726 3672.624,702.948C3664.067,728.419 3684.306,759.925 3715.317,772.546C3751.143,787.127 3770.894,778.383 3785.82,775.531C3786.027,775.491 3788.064,791.804 3793.456,801.719C3798.934,811.793 3805.539,814.934 3818.223,813.491C3830.004,812.151 3835.141,802.664 3835.657,798.977C3838.966,775.333 3837.922,779.745 3841.962,763.202C3842.366,761.547 3869.382,697.753 3872.722,685.168C3884.178,642.004 3868.001,620.259 3822.018,601.512C3782.725,585.493 3750.397,583.453 3730.772,599.226C3713.915,612.775 3712.368,629.28 3721.567,637.749Z" style="stroke:#000;stroke-width:1px;"/>
            <path id="n1" serif:id="n" d="M3959.049,676.431C3950.293,671.405 3936.997,668.936 3924.696,689.618C3912.016,710.936 3886.984,753.655 3876.182,771.143C3865.212,788.9 3864.604,790.49 3854.831,807.493C3844.245,825.912 3854.165,839.102 3863.835,844.316C3874.612,850.127 3890.611,847.414 3898.96,831.148C3899.062,830.949 3930.975,774.522 3941.268,761.482C3958.846,739.211 3977.681,734.301 3996.393,744.786C4012.373,753.74 4016.5,765.771 4001.316,794.6C3989.288,817.437 3957.809,868.125 3957.721,868.26C3949.809,880.385 3953.853,897.678 3963.281,903.449C3981.017,914.307 3994.775,903.862 4000.636,894.008C4000.739,893.834 4011.33,875.56 4013.5,872.147C4018.089,864.928 4011.391,875.291 4024.452,853.968C4029.277,846.09 4047.4,815.47 4047.593,815.109C4047.804,814.718 4056.388,799.73 4058.076,794.905C4072.145,754.701 4050.541,730.255 4030.408,718.708C3997.803,700.009 3975.469,710.622 3966.223,712.765C3965.991,712.819 3980.893,688.969 3959.049,676.431Z" style="stroke:#000;stroke-width:1px;"/>
            <path id="I" d="M4235.437,790.206C4234.733,791.061 4221.725,808.351 4221.346,808.967C4221.032,809.476 4187.907,853.066 4187.417,853.828C4187.084,854.346 4156.742,894.393 4156.468,894.672C4156.11,895.035 4136.79,920.819 4136.534,921.204C4136.239,921.648 4120.327,942.234 4120.07,942.538C4119.795,942.864 4108.57,958.094 4107.744,959.643C4102.992,968.558 4097.743,983.71 4112.968,995.364C4125.823,1005.204 4140.004,1001.287 4150.747,988.798C4152.736,986.485 4155.129,982.984 4155.633,982.331C4155.992,981.868 4166.109,968.484 4166.572,967.856C4166.906,967.402 4200.223,923.165 4200.851,922.154C4201.368,921.322 4233.348,879.742 4233.815,878.985C4234.256,878.269 4262.152,841.107 4262.543,840.684C4262.727,840.485 4277.98,820.412 4277.787,820.651C4277.571,820.919 4283.218,813.207 4285.154,809.501C4288.005,804.041 4291.214,788.3 4277.342,777.838C4265.899,769.207 4252.312,771.622 4244.534,779.389C4240.749,783.167 4235.992,789.531 4235.437,790.206Z" style="stroke:#000;stroke-width:1px;"/>
            <path id="A" d="M1209.774,1214.876C1214.337,1232.909 1229.996,1240.101 1243.34,1235.055C1259.398,1228.983 1260.361,1217.075 1258.582,1205.291C1258.474,1204.578 1248.086,1158.483 1248.082,1158.275C1248.079,1158.045 1330.24,1106.143 1330.23,1106.128C1330.215,1106.105 1296.529,1079.59 1296.529,1079.589C1296.521,1079.581 1216.579,1018.398 1216.249,1018.668C1215.732,1019.09 1238.364,1117.045 1238.505,1117.246C1238.648,1117.452 1296.53,1079.579 1296.529,1079.589C1296.528,1079.59 1330.201,1106.098 1330.23,1106.128C1330.248,1106.146 1340.427,1113.752 1340.546,1113.853C1340.662,1113.951 1354.103,1123.917 1354.293,1124.053C1354.42,1124.144 1371.365,1135.579 1371.505,1135.675C1384.26,1144.433 1396.83,1140.118 1405.304,1130.161C1412.768,1121.389 1415.036,1102.884 1395.231,1090.266C1395.219,1090.258 1230.815,973.433 1230.776,973.407C1218.003,964.971 1203.695,958.381 1184.622,970.49C1170.019,979.761 1165.929,995.753 1169.579,1013.454C1169.738,1014.228 1209.741,1214.745 1209.774,1214.876Z"/>
            <path id="s1" serif:id="s" d="M1416.736,1029.914C1452.59,1040.688 1481.315,1024.847 1503.293,1025.263C1531.741,1025.801 1527.655,1036.707 1522.795,1044.665C1510.141,1065.384 1481.407,1066.328 1470.921,1060.953C1456.064,1053.336 1443.578,1040.311 1427.723,1055.22C1417.86,1064.495 1419.843,1079.266 1424.823,1088.046C1428.18,1093.965 1433.721,1103.381 1452.224,1108.596C1472.296,1114.253 1501.817,1108.108 1523.387,1097.857C1534.818,1092.423 1562.967,1076.413 1574.999,1051.357C1584.471,1031.633 1579.594,1017.783 1572.18,1002.677C1569.178,996.562 1562.676,986.048 1549.253,978.21C1532.378,968.356 1506.031,973.925 1483.1,977.652C1465.252,980.553 1439.818,989.646 1434.627,976.099C1430.563,965.495 1445.82,957.115 1451.776,954.992C1457.455,952.968 1470.383,948.031 1483.251,956.403C1491.316,961.65 1511.932,968.761 1527.217,949.537C1541.992,930.956 1506.069,884.504 1436.377,915.992C1385.267,939.085 1379.153,973.455 1382.548,987.042C1386.398,1002.453 1395.476,1023.526 1416.736,1029.914Z" style="stroke:#000;stroke-width:1px;"/>
            <path id="s2" serif:id="s" d="M1592.931,954.413C1627.933,967.695 1657.706,953.925 1679.599,955.893C1707.939,958.442 1703.091,969.031 1697.681,976.625C1683.594,996.398 1654.865,995.309 1644.785,989.205C1630.504,980.557 1618.971,966.681 1602.101,980.433C1591.606,988.987 1592.54,1003.861 1596.887,1012.972C1599.817,1019.112 1604.678,1028.897 1622.767,1035.407C1642.389,1042.469 1672.27,1038.427 1694.51,1029.726C1706.298,1025.115 1735.507,1011.134 1749.281,986.992C1760.124,967.988 1756.238,953.827 1749.911,938.235C1747.349,931.922 1741.607,920.976 1728.772,912.208C1712.635,901.185 1685.961,904.877 1662.823,906.974C1644.815,908.606 1618.802,915.878 1614.581,901.998C1611.278,891.133 1627.089,883.852 1633.18,882.156C1638.987,880.538 1652.233,876.528 1664.477,885.789C1672.15,891.593 1692.212,900.143 1708.818,882.049C1724.869,864.559 1692.321,815.683 1620.577,842.165C1567.962,861.586 1559.433,895.438 1561.859,909.231C1564.609,924.875 1572.175,946.537 1592.931,954.413Z" style="stroke:#000;stroke-width:1px;"/>
            <path id="i1" serif:id="i" d="M1773.755,785.232C1773.759,785.231 1779.113,802.632 1779.1,802.636C1765.98,806.962 1757.49,819.504 1763.392,837.121C1763.497,837.434 1762.441,834.379 1770.274,859.888C1773.401,870.07 1778.747,887.292 1780.857,893.654C1783.03,900.208 1792.046,930.685 1793.597,935.881C1793.769,936.455 1803.445,967.872 1803.681,968.531C1807.193,978.349 1817.328,993.124 1835.901,987.603C1853.398,982.401 1855.165,965.245 1851.73,953.22C1851.464,952.288 1843.068,924.84 1842.916,924.539C1842.843,924.396 1833.27,893.494 1833.18,893.044C1833.06,892.436 1818.804,845.778 1818.628,845.345C1818.292,844.517 1810.507,819.204 1810.461,819.095C1803.779,803.447 1791.578,799.52 1779.1,802.636C1779.092,802.638 1773.683,785.251 1773.755,785.232C1786.412,781.755 1794.814,769.727 1790.772,754.714C1787.939,744.19 1777.531,733.219 1760.493,737.806C1740.414,743.212 1740.531,762.465 1742.491,768.827C1746.058,780.411 1756.392,790.378 1773.755,785.232Z" style="stroke:#000;stroke-width:1px;"/>
            <path id="s3" serif:id="s" d="M1887.574,863.589C1917.749,885.747 1950.12,880.44 1970.69,888.192C1997.316,898.226 1989.814,907.133 1982.569,913.004C1963.708,928.29 1936.316,919.557 1928.236,910.981C1916.787,898.828 1909.385,882.374 1889.452,891.113C1877.052,896.55 1873.974,911.131 1875.726,921.073C1876.907,927.773 1878.975,938.502 1894.664,949.612C1911.683,961.664 1941.557,965.76 1965.314,963.323C1977.905,962.032 2009.79,956.372 2029.518,936.792C2045.048,921.379 2045.091,906.695 2043.163,889.979C2042.383,883.211 2039.777,871.127 2029.754,859.247C2017.153,844.31 1990.462,840.735 1967.607,836.568C1949.818,833.325 1922.808,833.375 1922.453,818.872C1922.175,807.519 1939.357,804.732 1945.68,804.726C1951.708,804.721 1965.544,804.399 1974.865,816.596C1980.707,824.241 1997.752,837.845 2018.592,824.85C2038.736,812.289 2020.443,756.49 1944.23,762.822C1888.337,767.466 1871.067,797.804 1869.716,811.743C1868.183,827.554 1869.68,850.45 1887.574,863.589Z" style="stroke:#000;stroke-width:1px;"/>
            <path id="t2" serif:id="t" d="M2067.928,746.713C2064.995,746.581 2041.799,748.688 2044.204,767.529C2046.74,787.397 2069.424,782.777 2071.599,782.623C2071.694,782.616 2075.585,818.509 2075.617,818.687C2075.659,818.916 2080.294,862.481 2080.38,863.019C2080.478,863.628 2082.131,879.917 2082.909,882.654C2083.611,885.125 2086.821,901.254 2091.808,907.591C2098.424,915.998 2109.908,926.069 2136.253,922.863C2154.611,920.63 2187.425,915.121 2182.49,891.092C2179.778,877.891 2166.766,875.373 2153.09,881.564C2152.896,881.651 2131.688,891.009 2130.016,869.473C2129.999,869.247 2124.482,820.946 2124.466,820.89C2124.45,820.835 2119.419,777.514 2120.02,777.459C2135.188,776.063 2156.257,773.823 2153.966,756.156C2151.484,737.016 2136.729,739.366 2116.079,741.63C2115.751,741.666 2112.043,703.757 2112.024,703.604C2110.992,695.067 2104.926,678.088 2085.535,679.668C2063.713,681.445 2063.554,702.89 2064.054,708.968C2064.227,711.074 2068.029,746.718 2067.928,746.713Z" style="stroke:#000;stroke-width:1px;"/>
            <path id="Y" d="M2301.519,655.564C2286.947,661.706 2285.436,678.462 2292.668,692.958C2303.522,714.713 2322.689,745.683 2324.895,748.884C2328.291,753.812 2356.993,802.21 2356.903,803.99C2356.683,808.349 2357.417,812.998 2356.98,831.2C2356.755,840.603 2356.672,847.476 2356.855,858.407C2357.006,867.42 2356.318,886.136 2356.505,888.035C2357.858,901.734 2364.489,915.952 2381.913,915.732C2399.346,915.512 2404.313,901.316 2405.727,886.414C2405.784,885.817 2405.842,869.011 2405.792,864.277C2405.741,859.415 2405.33,840.909 2405.485,838.021C2405.597,835.945 2406.11,804.404 2406.049,804.065C2405.974,803.646 2443.354,741.001 2443.93,739.735C2448.84,728.931 2473.073,693.055 2474.95,682.507C2477.007,670.948 2474.244,663.403 2466.928,657.729C2461.329,653.387 2444.639,648.167 2434.686,664.936C2434.242,665.684 2382.692,757.363 2382.475,757.395C2382.173,757.44 2332.405,669.465 2332.097,668.866C2324.684,654.425 2315.129,649.827 2301.519,655.564Z" style="stroke:#000;stroke-width:1px;"/>
            <path id="o2" serif:id="o" d="M2489.971,784.501C2488.143,788.785 2485.156,803.484 2484.315,810.586C2483.699,815.781 2483.844,826.56 2484.099,831.726C2484.232,834.425 2486.895,849.124 2487.467,852.008C2487.956,854.475 2494.485,870.642 2497.37,875.198C2504.954,887.176 2506.907,889.66 2514.224,896.009C2527.824,907.809 2548.345,917.648 2578.035,918.071C2625.168,918.742 2646.405,892.426 2650.46,887.391C2658.836,876.992 2672.776,846.906 2672.377,822.094C2672.377,822.055 2622.179,821.981 2622.151,822.094C2622.129,822.181 2623.85,879.268 2579.09,880.389C2534.53,881.505 2533.6,831.736 2534.031,820.334C2535.402,784.037 2552.56,763.565 2578.035,764.108C2625.113,765.112 2622.174,822.205 2622.151,822.094C2622.102,821.861 2672.255,821.973 2672.377,822.094C2672.384,822.101 2675.958,782.94 2646.087,751.702C2628.688,733.505 2601.128,725.445 2578.035,725.989C2544.567,726.778 2527.274,737.25 2513.276,748.716C2497.718,761.46 2491.888,780.012 2489.971,784.501Z" style="stroke:#000;stroke-width:1px;"/>
            <path id="u1" serif:id="u" d="M2779.619,771.893C2780.563,766.728 2780.053,746.12 2761.023,742.906C2739.109,739.204 2732.671,757.028 2731.251,764.244C2727.303,784.305 2713.964,862.154 2713.774,863.571C2712.331,874.344 2711.568,888.612 2716.005,899.801C2717.368,903.238 2722.505,912.917 2727.607,917.893C2732.656,922.818 2741.352,929.067 2751.875,932.483C2761.717,935.678 2773.707,936.754 2778.362,936.427C2789.031,935.679 2794.886,935.12 2801.947,932.176C2810.12,928.767 2819.944,922.35 2825.543,917.84C2825.743,917.679 2818.637,945.446 2844.461,950.063C2862.951,953.368 2870.107,934.46 2870.745,928.669C2870.786,928.292 2894.59,795.302 2894.75,794.407C2896.146,786.641 2896.068,767.598 2876.134,763.704C2858.966,760.35 2850.18,770.83 2846.453,786.122C2846.273,786.862 2831.206,867.156 2831.138,867.616C2828.515,885.459 2811.016,902.723 2789.703,900.348C2761.977,897.258 2762.92,872.915 2764.573,858.124C2764.612,857.781 2778.75,776.655 2779.619,771.893Z" style="stroke:#000;stroke-width:1px;"/>
            <path id="W1" serif:id="W" d="M3093.38,904.949C3093.255,904.913 3107.065,772.073 3108.567,757.701C3110.924,735.146 3098.992,729.831 3087.134,727.913C3076.774,726.237 3063.979,731.795 3060.677,748.36C3058.7,758.278 3043.553,948.101 3043.512,948.734C3042.193,968.897 3050.88,978.821 3065.655,983.69C3083.196,989.47 3096.693,977.269 3101.204,969.713C3101.404,969.378 3191.356,836.446 3191.487,836.485C3191.641,836.53 3181.622,998.527 3181.601,998.851C3180.414,1017.051 3192.381,1027.072 3204.133,1030.612C3211.55,1032.846 3225.17,1034.951 3238.273,1017.94C3238.464,1017.692 3344.622,854.232 3348.831,844.164C3355.518,828.166 3347.948,818.39 3339.406,813.194C3328.614,806.628 3315.083,808.721 3307.341,819.372C3294.176,837.485 3227.078,950.338 3227.021,950.3C3226.957,950.257 3234.942,845.23 3235.858,803.904C3236.104,792.813 3233.533,777.081 3213.918,770.207C3194.281,763.327 3181.595,774.678 3178.631,778.736C3160.243,803.913 3093.617,905.019 3093.38,904.949Z" style="stroke:#000;stroke-width:1px;"/>
            <path id="i2" serif:id="i" d="M3416.029,900.16C3416.033,900.162 3408.44,916.613 3408.427,916.607C3395.833,911.096 3381.211,914.749 3373.88,931.723C3373.75,932.025 3374.997,929.06 3363.855,953.164C3359.408,962.786 3351.928,979.098 3349.265,985.213C3346.521,991.512 3332.956,1020.084 3330.653,1024.964C3330.399,1025.503 3316.697,1055.21 3316.434,1055.854C3312.514,1065.462 3310.208,1083.142 3327.638,1091.39C3344.058,1099.16 3356.764,1087.622 3362.207,1076.43C3362.629,1075.563 3374.642,1049.648 3374.729,1049.324C3374.771,1049.169 3388.206,1019.913 3388.438,1019.521C3388.753,1018.99 3409.186,974.948 3409.344,974.511C3409.645,973.674 3420.692,949.747 3420.73,949.636C3426.175,933.603 3419.743,922.587 3408.427,916.607C3408.421,916.603 3415.963,900.128 3416.029,900.16C3427.717,905.993 3441.933,902.662 3448.912,888.853C3453.804,879.174 3453.381,864.131 3437.708,856.211C3419.24,846.878 3406.537,861.221 3403.762,867.236C3398.71,878.189 3399.746,892.44 3416.029,900.16Z" style="stroke:#000;stroke-width:1px;"/>
            <path id="t3" serif:id="t" d="M3489.009,951.324C3486.651,949.561 3466.235,938.236 3457.61,955.21C3448.515,973.111 3469.925,982.064 3471.815,983.162C3471.897,983.21 3454.896,1015.159 3454.822,1015.324C3454.727,1015.538 3434.018,1054.265 3433.786,1054.76C3433.524,1055.32 3425.715,1069.755 3424.818,1072.463C3424.007,1074.907 3417.579,1090.088 3418.142,1098.151C3418.889,1108.849 3422.734,1123.67 3446.381,1135.86C3462.858,1144.353 3493.166,1158.279 3502.616,1135.578C3507.808,1123.105 3498.439,1113.685 3483.613,1111.11C3483.403,1111.073 3460.548,1106.88 3471.299,1088.083C3471.411,1087.886 3494.058,1044.735 3494.077,1044.679C3494.094,1044.625 3514.337,1005.876 3514.866,1006.169C3528.228,1013.56 3546.957,1023.577 3555.014,1007.639C3563.742,990.373 3550.186,984.006 3531.791,974.246C3531.498,974.091 3549.788,940.574 3549.859,940.436C3553.814,932.777 3558.355,915.283 3541.389,905.665C3522.297,894.841 3510.079,912.529 3507.068,917.849C3506.025,919.692 3489.089,951.384 3489.009,951.324Z" style="stroke:#000;stroke-width:1px;"/>
            <path id="h1" serif:id="h" d="M3627.053,978.433C3631.993,971.312 3643.325,959.29 3660.481,970.518C3675.81,980.551 3672.317,994.209 3668.016,1003.297C3667.77,1003.815 3632.012,1061.877 3632.191,1061.811C3657.475,1052.486 3677.681,1059.587 3692.421,1068.501C3724.365,1087.819 3726.692,1120.499 3717.513,1141.169C3708.624,1161.187 3682.944,1200.806 3682.841,1201.024C3682.58,1201.577 3661.383,1236.144 3661.274,1236.293C3650.106,1251.465 3638.444,1253.783 3626.39,1246.434C3611.989,1237.655 3613.347,1222.88 3619.685,1212.664C3619.891,1212.332 3664.759,1138.385 3664.909,1138.074C3673.868,1119.387 3679.433,1104.222 3657.786,1091.784C3637.331,1080.032 3613.762,1090.937 3602.05,1111.605C3601.658,1112.296 3562.34,1176.672 3562.171,1176.896C3553.679,1188.181 3542.998,1195.173 3527.744,1186.291C3512.236,1177.261 3515.34,1160.701 3521.207,1151.836C3521.427,1151.504 3548.323,1107.711 3548.736,1106.946C3548.935,1106.577 3572.678,1067.067 3584.655,1047.038C3597.541,1025.49 3626.761,978.855 3627.053,978.433Z" style="stroke:#000;stroke-width:1px;"/>
            <path id="Question" d="M3790.235,1159.759C3806.911,1180.104 3820.439,1169.068 3833.201,1159.98C3861.877,1139.559 3895.418,1165.801 3895.657,1185.048C3896.484,1251.614 3814.871,1192.975 3774.635,1249.059C3768.368,1257.793 3764.495,1269.06 3779.478,1281.751C3779.503,1281.772 3771.789,1291.802 3771.743,1291.767C3762.776,1284.903 3746.024,1279.724 3732.733,1295.715C3727.233,1302.331 3720.637,1320.347 3736.339,1333.334C3753,1347.114 3767.991,1339.397 3776.17,1330.198C3785.785,1319.385 3783.08,1299.408 3771.743,1291.767C3771.626,1291.688 3779.309,1281.628 3779.478,1281.751C3788.862,1288.528 3800.147,1287.063 3808.402,1279.307C3822.477,1266.082 3836.517,1265.857 3843.492,1265.59C3865.009,1264.766 3867.515,1263.861 3878.202,1263.65C3890.437,1263.408 3910.834,1258.064 3921.464,1249.127C3928.799,1242.96 3944.145,1225.871 3943.934,1196.264C3943.785,1175.244 3928.596,1149.92 3911.006,1134.328C3884.84,1111.135 3862.558,1108.593 3842.123,1108.207C3806.769,1107.539 3772.98,1138.707 3790.235,1159.759Z" style="stroke:#000;stroke-width:1px;"/>
        </g>
    </g>
</svg>
