<?xml version="1.0" encoding="UTF-8" standalone="no"?>
<!DOCTYPE svg PUBLIC "-//W3C//DTD SVG 1.1//EN" "http://www.w3.org/Graphics/SVG/1.1/DTD/svg11.dtd">
<svg width="100%" height="100%" viewBox="0 0 5120 1593" version="1.1" xmlns="http://www.w3.org/2000/svg" xmlns:xlink="http://www.w3.org/1999/xlink" xml:space="preserve" xmlns:serif="http://www.serif.com/" style="fill-rule:evenodd;clip-rule:evenodd;stroke-linecap:round;stroke-linejoin:round;stroke-miterlimit:1.5;">
    <g id="Learn-More" serif:id="Learn More">
        <path d="M2554.226,1092.185C3145.918,1086.976 3349.605,1302.898 3309.966,1461.281C3250.424,1699.189 3005.825,1391.756 2565.214,1388.41C2163.972,1385.363 1922.756,1720.206 1813.138,1458.839C1754.745,1319.612 2023.176,1096.859 2554.226,1092.185Z" style="fill:#2f3552;stroke:#000;stroke-width:25px;"/>
        <g transform="matrix(1,0,0,1,0.303095,30.522593)">
            <g transform="matrix(0.934639,-0.355599,0.355599,0.934639,-343.761227,841.840132)">
                <text x="2118.136px" y="1356.037px" style="font-family:'ArialRoundedMTBold', 'Arial Rounded MT Bold', sans-serif;font-size:175px;fill:#fff;">L</text>
            </g>
            <g transform="matrix(0.95871,-0.284386,0.284386,0.95871,-283.971572,683.68485)">
                <text x="2212.455px" y="1319.77px" style="font-family:'ArialRoundedMTBold', 'Arial Rounded MT Bold', sans-serif;font-size:175px;fill:#fff;">e</text>
            </g>
            <g transform="matrix(0.97866,-0.205488,0.205488,0.97866,-216.124387,501.693962)">
                <text x="2307.357px" y="1291.384px" style="font-family:'ArialRoundedMTBold', 'Arial Rounded MT Bold', sans-serif;font-size:175px;fill:#fff;">a</text>
            </g>
            <g transform="matrix(0.991786,-0.127908,0.127908,0.991786,-142.835814,317.98652)">
                <text x="2404.43px" y="1271.115px" style="font-family:'ArialRoundedMTBold', 'Arial Rounded MT Bold', sans-serif;font-size:175px;fill:#fff;">r</text>
            </g>
            <g transform="matrix(0.998465,-0.05539,0.05539,0.998465,-66.043135,139.090224)">
                <text x="2476.144px" y="1260.953px" style="font-family:'ArialRoundedMTBold', 'Arial Rounded MT Bold', sans-serif;font-size:175px;fill:#fff;">n</text>
            </g>
            <g transform="matrix(0.995637,0.093314,-0.093314,0.995637,128.451101,-238.693762)">
                <text x="2616.598px" y="1254.191px" style="font-family:'ArialRoundedMTBold', 'Arial Rounded MT Bold', sans-serif;font-size:175px;fill:#fff;">M</text>
            </g>
            <g transform="matrix(0.979075,0.203498,-0.203498,0.979075,315.653503,-534.063613)">
                <text x="2754.785px" y="1267.877px" style="font-family:'ArialRoundedMTBold', 'Arial Rounded MT Bold', sans-serif;font-size:175px;fill:#fff;">o</text>
            </g>
            <g transform="matrix(0.958453,0.285251,-0.285251,0.958453,486.089255,-760.339521)">
                <text x="2853.179px" y="1288.504px" style="font-family:'ArialRoundedMTBold', 'Arial Rounded MT Bold', sans-serif;font-size:175px;fill:#fff;">r</text>
            </g>
            <g transform="matrix(0.936737,0.350035,-0.350035,0.936737,642.209586,-939.066188)">
                <text x="2919.023px" y="1307.134px" style="font-family:'ArialRoundedMTBold', 'Arial Rounded MT Bold', sans-serif;font-size:175px;fill:#fff;">e</text>
            </g>
        </g>
    </g>
    <g id="Copy-Font" serif:id="Copy Font">
        <g id="Websites">
            <path id="W" d="M1039.33,834.965C1039.201,835.047 932.436,720.525 920.891,708.127C902.774,688.671 888.886,695.122 878.057,704.125C868.596,711.99 863.653,727.579 875.75,743.257C882.992,752.642 1039.088,912.238 1039.616,912.762C1056.42,929.459 1071.881,929.425 1087.565,920.116C1106.183,909.066 1105.796,887.74 1102.593,877.934C1102.451,877.499 1054.253,695.612 1054.387,695.526C1054.546,695.424 1190,829.055 1190.27,829.323C1205.441,844.39 1223.515,841.533 1235.695,833.874C1243.382,829.039 1255.734,818.623 1250.791,793.94C1250.719,793.58 1188.023,573.856 1182.367,562.382C1173.378,544.15 1158.908,543.311 1147.736,546.857C1133.621,551.338 1125.049,564.909 1128.499,579.954C1134.367,605.541 1182.423,751.765 1182.345,751.786C1182.258,751.81 1095.587,663.857 1059.77,631.216C1050.157,622.455 1034.273,612.61 1013.09,624.652C991.883,636.707 992.145,656.662 993.449,662.407C1001.536,698.05 1039.575,834.809 1039.33,834.965Z" style="stroke:#000;stroke-width:1px;"/>
            <path id="e" d="M1280.975,652.557C1282.006,661.802 1289.903,686.285 1298.452,699.888C1306.154,712.145 1324.029,729.576 1339.063,738.206C1350.004,744.486 1388.14,751.442 1421.938,734.525C1462.842,714.052 1468.368,697.893 1476.216,681.71C1482.92,667.887 1485.066,638.403 1462.856,635.274C1427.525,630.297 1439.457,682.689 1404.951,696.572C1370.247,710.535 1352.81,677.524 1353.061,677.399C1370.034,668.947 1420.365,645.316 1440.288,633.064C1460.317,620.748 1457.453,603.887 1452.362,591.421C1452.238,591.119 1408.494,612.85 1408.111,612.744C1407.557,612.59 1334.521,650.404 1334.434,650.229C1322.705,626.674 1328.436,601.97 1350.666,590.521C1368.624,581.273 1391.109,586.522 1408.111,612.744C1408.154,612.81 1452.39,591.48 1452.362,591.421C1447.837,581.948 1435.856,563.1 1410.262,551.657C1391.514,543.274 1358.914,543.925 1338.298,553.993C1307.602,568.983 1293.883,587.855 1288.071,600.55C1273.691,631.962 1280.433,647.703 1280.975,652.557Z" style="stroke:#000;stroke-width:1px;"/>
            <path id="b" d="M1459.197,447.706C1459.385,448.247 1475.393,492.276 1484.3,516.73C1493.48,541.936 1509.78,585.585 1517.389,606.474C1525.113,627.682 1526.56,632.524 1536.412,659.575C1540.345,670.372 1554.903,686.824 1573.439,680.219C1600.151,670.703 1594.898,646.685 1595.23,646.82C1642.138,665.927 1676.807,644.116 1695.155,624.455C1709.679,608.892 1716.88,587.487 1716.45,559.933C1716.188,543.163 1702.12,498.963 1686.782,478.48C1666.859,451.872 1648.609,437.565 1616.692,438.342C1593.606,438.904 1559.725,448.402 1537.746,485.634C1537.7,485.713 1564.726,569.814 1564.641,569.533C1541.628,493.34 1600.971,477.087 1629.141,495.371C1646.035,506.336 1654.118,522.142 1658.875,554.714C1665.08,597.201 1606.256,639.277 1565.449,569.427C1562.218,563.896 1537.816,485.895 1537.746,485.634C1537.678,485.381 1525.343,448.106 1515.239,425.127C1510.015,413.246 1497.014,396.393 1477.534,403.247C1447.774,413.718 1456.366,439.52 1459.197,447.706Z" style="stroke:#000;stroke-width:1px;"/>
            <path id="s" d="M1759.633,512.323C1798.58,530.031 1833.541,516.504 1858.365,520.35C1890.498,525.329 1884.196,537.051 1877.47,545.317C1859.958,566.836 1827.274,563.492 1816.226,555.794C1800.571,544.887 1788.433,528.219 1768.188,542.667C1755.594,551.656 1755.571,568.686 1759.862,579.395C1762.754,586.612 1767.582,598.127 1787.735,606.874C1809.596,616.363 1843.97,613.939 1869.97,605.643C1883.75,601.246 1918.085,587.439 1935.559,560.913C1949.314,540.033 1945.919,523.599 1939.843,505.354C1937.383,497.968 1931.635,485.064 1917.639,474.126C1900.042,460.375 1869.352,462.635 1842.811,463.334C1822.155,463.878 1791.957,470.268 1788.158,454.13C1785.185,441.497 1803.75,434.351 1810.821,432.861C1817.562,431.442 1832.961,427.837 1846.247,439.294C1854.573,446.474 1876.827,457.693 1897.089,438.272C1916.674,419.5 1883.13,361.379 1799.372,386.333C1737.947,404.633 1725.745,442.615 1727.502,458.523C1729.495,476.566 1736.539,501.823 1759.633,512.323Z" style="stroke:#000;stroke-width:1px;"/>
            <path id="i" d="M1975.842,329.729C1975.846,329.728 1979.601,349.225 1979.586,349.229C1964.853,352.372 1954.17,364.97 1958.494,384.765C1958.571,385.118 1957.785,381.681 1963.273,410.26C1965.463,421.667 1969.231,440.969 1970.768,448.115C1972.352,455.477 1978.537,489.581 1979.607,495.397C1979.725,496.04 1986.514,531.242 1986.692,531.984C1989.343,543.042 1998.591,560.255 2019.377,556.457C2038.961,552.879 2042.897,534.487 2040.59,521.045C2040.412,520.003 2034.542,489.255 2034.413,488.911C2034.351,488.747 2027.612,454.116 2027.568,453.618C2027.509,452.945 2017.55,400.679 2017.41,400.189C2017.143,399.251 2011.686,370.891 2011.648,370.767C2006.248,353.015 1993.482,347.32 1979.586,349.229C1979.578,349.23 1975.762,329.742 1975.842,329.729C1989.974,327.451 2000.5,315.4 1997.887,298.647C1996.056,286.903 1986.064,273.782 1967.051,276.749C1944.645,280.244 1942.504,301.132 1943.878,308.26C1946.381,321.239 1956.412,333.263 1975.842,329.729Z" style="stroke:#000;stroke-width:1px;"/>
            <path id="t" d="M2080.946,330.798C2077.467,330.77 2050.097,334.28 2053.768,356.482C2057.64,379.895 2084.296,373.432 2086.864,373.154C2086.976,373.141 2093.155,415.468 2093.201,415.677C2093.26,415.947 2100.655,467.324 2100.78,467.958C2100.922,468.674 2103.593,487.887 2104.634,491.094C2105.573,493.988 2110.08,512.945 2116.262,520.229C2124.463,529.893 2138.501,541.314 2169.553,536.366C2191.19,532.918 2229.801,524.959 2222.906,496.725C2219.117,481.214 2203.601,478.803 2187.679,486.731C2187.453,486.843 2162.754,498.851 2159.831,473.426C2159.801,473.159 2151.155,416.213 2151.133,416.147C2151.112,416.083 2143.259,365.012 2143.967,364.92C2161.866,362.603 2186.713,359.029 2183.227,338.212C2179.45,315.659 2162.084,319.087 2137.733,322.672C2137.346,322.729 2131.297,278.008 2131.268,277.828C2129.672,267.765 2121.747,247.927 2098.858,250.647C2073.099,253.707 2073.849,279.104 2074.707,286.278C2075.004,288.764 2081.065,330.799 2080.946,330.798Z" style="stroke:#000;stroke-width:1px;"/>
            <path id="e1" serif:id="e" d="M2231.163,375.588C2228.321,384.916 2225.77,411.762 2228.357,428.404C2230.689,443.399 2240.669,467.595 2251.563,482.139C2259.492,492.723 2293.322,515.238 2332.878,512.97C2380.749,510.225 2392.771,496.959 2407.039,484.635C2419.227,474.107 2433.522,446.611 2413.437,434.387C2381.487,414.941 2371.243,470.331 2332.265,469.384C2293.062,468.433 2289.966,429.419 2290.26,429.403C2310.107,428.306 2368.364,426.43 2392.627,422.899C2417.018,419.348 2421.254,401.928 2421.523,387.815C2421.529,387.473 2370.401,390.251 2370.076,389.99C2369.607,389.612 2283.608,395.724 2283.596,395.519C2282.074,367.977 2297.838,346.57 2323.989,344.768C2345.114,343.313 2364.584,357.692 2370.076,389.99C2370.09,390.071 2421.525,387.883 2421.523,387.815C2421.096,376.818 2417.379,353.703 2397.484,332.07C2382.911,316.224 2351.256,303.329 2327.232,304.471C2291.462,306.171 2270.427,318.649 2259.566,328.461C2232.693,352.738 2232.655,370.69 2231.163,375.588Z" style="stroke:#000;stroke-width:1px;"/>
            <path id="C" d="M2575.496,297.958C2569.001,317.326 2569.283,346.489 2569.204,362.616C2569.17,369.575 2571.227,385.288 2573.161,393.5C2576.298,406.821 2581.913,423.093 2589.467,438.136C2595.283,449.719 2601.263,458.044 2607.83,464.737C2623.384,480.594 2636.259,490.024 2645.559,493.906C2668.147,503.332 2683.008,507.503 2708.093,507.919C2746.479,508.554 2773.224,502.538 2800.185,481.699C2816.697,468.936 2822.035,461.374 2832.473,443.278C2846.745,418.537 2845.431,382.948 2823.894,376.553C2779.215,363.288 2788.337,407.897 2760.68,434.492C2738.578,455.745 2632.422,484.159 2637.361,344.933C2641.789,220.14 2754.226,232.249 2776.665,288.215C2786.267,312.162 2807.331,324.705 2825.563,313.758C2843.589,302.935 2846.232,279.665 2834.974,259.182C2826.731,244.188 2815.482,227.587 2793.008,213.264C2771.337,199.452 2733.623,187.332 2699.476,192.496C2666.215,197.525 2648.905,203.822 2627.504,219.259C2588.886,247.115 2580.422,283.271 2575.496,297.958Z" style="stroke:#000;stroke-width:1px;"/>
            <path id="Period" d="M2817.247,327.374C2815.416,329.522 2813.517,333.137 2812.22,336.14C2810.827,339.365 2809.382,345.054 2809.382,347.966C2809.382,350.922 2809.706,356.033 2810.112,357.858C2810.438,359.326 2811.921,362.979 2813.219,365.304C2815.136,368.736 2816.097,370.088 2817.247,371.244C2819.15,373.157 2819.996,374.649 2822.019,375.784C2825.581,377.782 2832.553,381.438 2839.478,381.865C2846.715,382.311 2852.802,380.162 2856.14,379.027C2860.006,377.712 2864.168,373.343 2866.25,371.244C2867.938,369.541 2868.985,368.518 2870.373,366.036C2871.68,363.7 2872.934,360.923 2873.303,359.342C2874.033,356.221 2874.357,352.125 2874.357,348.542C2874.357,345.528 2874.145,342.028 2872.942,338.697C2871.414,334.468 2869.345,331.078 2866.25,327.374C2864.711,325.533 2858.582,321.159 2855.2,319.951C2852.105,318.845 2845.488,317.346 2841.817,317.321C2836.35,317.283 2831.83,317.846 2827.795,319.863C2823.89,321.815 2819.878,324.286 2817.247,327.374Z" style="stroke:#000;stroke-width:1px;"/>
            <path id="r" d="M2923.635,303.42C2913.642,302.342 2896.409,306.878 2892.394,328.121C2890.993,335.534 2884.779,391.823 2883.73,398.619C2882.568,406.139 2879.268,434.924 2878.979,437.65C2878.465,442.503 2876.429,455.462 2874.139,476.93C2874.066,477.612 2872.162,496.537 2872.293,504.822C2872.4,511.608 2877.873,528.122 2897.266,530.676C2915.01,533.013 2926.431,522.319 2930.734,504.775C2931.455,501.837 2930.685,503.863 2934.218,475.988C2935.032,469.568 2936.687,453.402 2936.95,450.121C2938.231,434.144 2943.397,407.715 2945.304,401.438C2953.395,374.809 2963.787,366.92 2972.559,363.448C2986.948,357.752 3009.991,372.906 3017.239,374.164C3027.205,375.894 3036.378,372.248 3042.94,362.611C3046.694,357.097 3048.323,349.544 3044.862,340.197C3041.04,329.878 3024.816,315.974 2998.109,312.251C2971.525,308.546 2956.722,326.484 2948.135,337.597C2948.085,337.661 2948.36,322.555 2945.713,317.562C2942.804,312.073 2936.7,304.829 2923.635,303.42Z" style="stroke:#000;stroke-width:1px;"/>
            <path id="e2" serif:id="e" d="M3071.863,393.359C3066.824,401.178 3057.484,425.147 3055.519,441.093C3053.749,455.46 3056.598,480.264 3062.803,496.45C3067.319,508.23 3092.492,537.71 3129.38,545.941C3174.024,555.904 3188.514,546.865 3204.819,539.276C3218.747,532.793 3239.033,511.29 3223.79,494.836C3199.542,468.662 3175.702,516.818 3140.182,505.787C3104.457,494.693 3111.787,458.087 3112.061,458.148C3130.559,462.316 3184.505,475.784 3207.69,478.869C3230.997,481.97 3239.426,467.089 3243.352,454.209C3243.448,453.897 3195.807,443.116 3195.577,442.792C3195.245,442.323 3114.738,425.51 3114.781,425.319C3120.564,399.649 3140.611,384.115 3165.077,389.28C3184.841,393.453 3198.958,411.723 3195.577,442.792C3195.569,442.87 3243.337,454.273 3243.352,454.209C3245.828,444.007 3248.443,421.827 3235.828,396.79C3226.587,378.45 3200.902,358.364 3178.559,353.148C3145.293,345.382 3122.738,351.348 3110.214,357.52C3079.225,372.791 3074.509,389.254 3071.863,393.359Z" style="stroke:#000;stroke-width:1px;"/>
            <path id="a" d="M3318.533,456.805C3327.892,463.444 3339.745,466.127 3348.519,457.399C3375.558,430.505 3392.522,435.906 3408.452,439.978C3444.564,449.209 3440.838,460.087 3438.493,488.991C3438.446,489.573 3428.272,524.645 3428.17,525.074C3394.981,664.972 3224.942,494.978 3428.17,525.074C3428.238,525.084 3438.521,488.999 3438.493,488.991C3438.437,488.975 3363.654,485.87 3343.469,484.937C3302.239,483.031 3278.991,505.531 3272.578,537.656C3266.577,567.716 3294.033,600.44 3330.949,610.238C3373.596,621.558 3394.681,608.808 3411.158,603.422C3411.386,603.348 3416.049,621.511 3423.584,631.952C3431.239,642.559 3439.167,645.158 3453.312,641.691C3466.448,638.472 3470.889,626.994 3470.94,622.747C3471.266,595.515 3470.723,600.659 3472.903,581.355C3473.121,579.424 3494.467,503.333 3496.428,488.608C3503.15,438.11 3481.701,415.844 3426.959,401.279C3380.181,388.833 3343.306,391.199 3323.379,411.884C3306.263,429.652 3306.9,448.552 3318.533,456.805Z" style="stroke:#000;stroke-width:1px;"/>
            <path id="t1" serif:id="t" d="M3573.5,444.192C3570.326,442.457 3543.522,432.225 3535.979,454.372C3528.023,477.728 3555.623,484.902 3558.112,485.908C3558.221,485.952 3543.087,527.771 3543.027,527.985C3542.948,528.262 3524.482,578.97 3524.286,579.612C3524.064,580.339 3517.071,599.255 3516.449,602.705C3515.888,605.819 3510.704,625.403 3512.79,635.114C3515.556,647.998 3522.808,665.36 3553.691,676.082C3575.21,683.553 3614.499,695.23 3622.052,665.973C3626.202,649.898 3613.169,640.066 3594.686,639.508C3594.424,639.5 3565.892,638.368 3575.706,613.635C3575.809,613.376 3595.865,556.95 3595.878,556.878C3595.89,556.809 3613.786,506.156 3614.48,506.42C3632.018,513.09 3656.541,522.023 3663.575,501.236C3671.194,478.716 3653.598,473.324 3629.525,464.646C3629.142,464.508 3645.571,420.558 3645.633,420.379C3649.115,410.375 3651.6,388.305 3629.291,379.551C3604.185,369.699 3592.394,393.339 3589.656,400.333C3588.706,402.757 3573.608,444.251 3573.5,444.192Z" style="stroke:#000;stroke-width:1px;"/>
            <path id="i1" serif:id="i" d="M3739.406,488.993C3739.41,488.995 3731.422,507.173 3731.408,507.167C3717.498,501.382 3701.549,505.679 3693.859,524.425C3693.722,524.759 3695.029,521.485 3683.306,548.12C3678.627,558.752 3670.76,576.776 3667.965,583.53C3665.085,590.487 3650.797,622.066 3648.373,627.46C3648.105,628.056 3633.69,660.881 3633.415,661.593C3629.314,672.199 3627.143,691.618 3646.406,700.303C3664.554,708.486 3678.244,695.588 3683.983,683.216C3684.428,682.257 3697.069,653.62 3697.158,653.263C3697.2,653.093 3711.332,620.766 3711.578,620.332C3711.912,619.744 3733.414,571.076 3733.578,570.593C3733.891,569.67 3745.514,543.232 3745.553,543.109C3751.197,525.431 3743.927,513.492 3731.408,507.167C3731.401,507.163 3739.333,488.958 3739.406,488.993C3752.33,495.149 3767.839,491.213 3775.208,475.942C3780.374,465.237 3779.606,448.763 3762.275,440.401C3741.852,430.547 3728.221,446.518 3725.302,453.165C3719.987,465.268 3721.409,480.861 3739.406,488.993Z" style="stroke:#000;stroke-width:1px;"/>
            <path id="o" d="M3786.485,594.996C3782.007,598.288 3770.019,611.579 3764.845,618.366C3761.059,623.33 3754.668,634.493 3751.795,639.955C3750.294,642.809 3744.112,659.528 3742.95,662.839C3741.956,665.669 3738.854,686.242 3739.053,692.674C3739.577,709.583 3740.077,713.319 3743.743,724.283C3750.556,744.659 3765.67,767.221 3795.92,785.67C3843.939,814.959 3881.728,800.806 3888.95,798.094C3903.865,792.492 3936.443,770.038 3951.09,744.302C3951.113,744.261 3899.581,713.727 3899.483,713.826C3899.409,713.902 3866.538,773.601 3819.868,747.593C3773.407,721.702 3802.651,670.001 3810.012,658.548C3833.444,622.086 3863.496,611.463 3889.341,627.479C3937.102,657.076 3899.44,713.954 3899.483,713.826C3899.575,713.556 3951.037,744.104 3951.09,744.302C3951.093,744.314 3978.526,706.246 3966.79,656.024C3959.954,626.771 3936.528,601.766 3912.471,588.313C3877.606,568.816 3853.483,569.083 3832.143,572.37C3808.425,576.023 3791.178,591.547 3786.485,594.996Z" style="stroke:#000;stroke-width:1px;"/>
            <path id="n" d="M4077.923,679.749C4067.94,673.108 4052.379,669.142 4036.183,692.687C4019.49,716.955 3986.485,765.617 3972.315,785.494C3957.927,805.678 3957.081,807.514 3944.171,826.898C3930.185,847.896 3940.908,864.302 3951.959,871.236C3964.274,878.965 3983.445,877.003 3994.611,858.382C3994.747,858.154 4036.98,793.787 4050.196,779.141C4072.77,754.125 4095.472,749.781 4116.826,763.671C4135.06,775.531 4139.009,790.11 4118.761,823.083C4102.72,849.204 4061.452,906.804 4061.337,906.957C4051.013,920.706 4054.451,941.514 4065.171,949.091C4085.338,963.345 4102.458,952.044 4110.174,940.827C4110.311,940.629 4124.29,919.803 4127.129,915.928C4133.132,907.733 4124.384,919.489 4141.529,895.244C4147.864,886.287 4171.735,851.42 4171.993,851.008C4172.273,850.561 4183.618,833.473 4185.996,827.888C4205.813,781.348 4182.127,750.689 4159.173,735.431C4122,710.721 4094.705,721.549 4083.581,723.365C4083.301,723.411 4102.827,696.316 4077.923,679.749Z" style="stroke:#000;stroke-width:1px;"/>
            <path id="Period1" serif:id="Period" d="M4194.292,901.226C4192.462,903.374 4190.562,906.989 4189.265,909.991C4187.872,913.216 4186.427,918.906 4186.427,921.817C4186.427,924.773 4186.751,929.885 4187.157,931.709C4187.483,933.178 4188.966,936.831 4190.264,939.155C4192.181,942.588 4193.142,943.94 4194.292,945.095C4196.195,947.009 4197.041,948.501 4199.065,949.636C4202.626,951.634 4209.598,955.29 4216.523,955.716C4223.76,956.162 4229.847,954.014 4233.185,952.879C4237.051,951.564 4241.213,947.195 4243.295,945.095C4244.983,943.392 4246.03,942.37 4247.418,939.887C4248.725,937.552 4249.979,934.775 4250.348,933.194C4251.078,930.073 4251.402,925.977 4251.402,922.394C4251.402,919.38 4251.19,915.88 4249.987,912.549C4248.459,908.32 4246.39,904.929 4243.295,901.226C4241.756,899.385 4235.627,895.01 4232.245,893.802C4229.15,892.697 4222.534,891.198 4218.862,891.172C4213.395,891.135 4208.876,891.698 4204.84,893.715C4200.935,895.666 4196.923,898.138 4194.292,901.226Z" style="stroke:#000;stroke-width:1px;"/>
            <path id="A" d="M1445.024,1194.878C1446.993,1217.487 1464.445,1229.21 1481.502,1225.742C1502.027,1221.569 1505.516,1207.416 1505.676,1192.878C1505.686,1191.997 1502.187,1134.454 1502.224,1134.203C1502.265,1133.926 1611.358,1087.482 1611.349,1087.462C1611.336,1087.432 1575.952,1048.914 1575.951,1048.913C1575.944,1048.902 1491.631,959.59 1491.18,959.851C1490.475,960.258 1498.581,1082.649 1498.711,1082.919C1498.843,1083.195 1575.955,1048.902 1575.951,1048.913C1575.951,1048.914 1611.32,1087.421 1611.349,1087.462C1611.367,1087.488 1622.139,1098.638 1622.263,1098.783C1622.383,1098.923 1636.622,1113.554 1636.824,1113.755C1636.959,1113.889 1655.131,1130.973 1655.28,1131.116C1668.929,1144.157 1684.91,1141.417 1697.062,1131.082C1707.767,1121.978 1714.116,1100.135 1692.731,1081.068C1692.718,1081.056 1517.566,908.222 1517.524,908.183C1503.791,895.527 1487.848,884.793 1462.512,895.646C1443.113,903.956 1435.06,922.416 1435.995,944.447C1436.036,945.41 1445.009,1194.714 1445.024,1194.878Z"/>
            <path id="Period2" serif:id="Period" d="M1612.99,958.55C1611.16,960.697 1609.261,964.312 1607.963,967.315C1606.57,970.54 1605.126,976.23 1605.126,979.141C1605.126,982.097 1605.45,987.209 1605.855,989.033C1606.182,990.502 1607.665,994.155 1608.963,996.479C1610.88,999.912 1611.841,1001.264 1612.99,1002.419C1614.894,1004.333 1615.74,1005.824 1617.763,1006.959C1621.325,1008.957 1628.297,1012.614 1635.222,1013.04C1642.459,1013.486 1648.546,1011.338 1651.884,1010.203C1655.75,1008.888 1659.912,1004.518 1661.993,1002.419C1663.682,1000.716 1664.729,999.693 1666.117,997.211C1667.423,994.876 1668.677,992.099 1669.047,990.518C1669.777,987.396 1670.101,983.301 1670.101,979.718C1670.101,976.704 1669.889,973.204 1668.686,969.873C1667.158,965.644 1665.088,962.253 1661.993,958.55C1660.454,956.709 1654.326,952.334 1650.944,951.126C1647.849,950.021 1641.232,948.522 1637.56,948.496C1632.093,948.458 1627.574,949.022 1623.539,951.039C1619.634,952.99 1615.622,955.462 1612.99,958.55Z" style="stroke:#000;stroke-width:1px;"/>
            <path id="n1" serif:id="n" d="M1679.499,880.231C1668.251,884.383 1655.877,894.618 1665.357,921.578C1675.128,949.365 1694.996,1004.706 1702.706,1027.867C1710.536,1051.385 1711.52,1053.15 1719.574,1075.003C1728.298,1098.676 1747.872,1099.68 1759.986,1094.838C1773.488,1089.442 1783.198,1072.796 1774.733,1052.802C1774.63,1052.558 1747.51,980.508 1743.464,961.199C1736.554,928.22 1746.422,907.318 1770.227,898.25C1790.555,890.506 1804.66,895.907 1819.369,931.696C1831.022,960.047 1853.242,1027.331 1853.298,1027.514C1858.323,1043.957 1877.161,1053.44 1889.599,1049.244C1912.999,1041.349 1913.957,1020.858 1909.441,1008.014C1909.361,1007.787 1900.772,984.22 1899.314,979.644C1896.23,969.965 1900.574,983.96 1891.088,955.821C1887.584,945.424 1873.479,905.593 1873.298,905.142C1873.102,904.652 1865.98,885.417 1862.87,880.204C1836.945,836.769 1798.217,837.84 1772.363,847.396C1730.495,862.869 1723.16,891.303 1718.073,901.36C1717.945,901.613 1707.559,869.871 1679.499,880.231Z" style="stroke:#000;stroke-width:1px;"/>
            <path id="d" d="M1984.48,788.66C1937.1,799.519 1919.35,834.023 1914.728,862.224C1909.688,892.971 1920.173,943.308 1940.85,969.731C1957.51,991.02 1989.016,1020.427 2035.003,1011.438C2078.446,1002.946 2099.381,959.159 2099.385,959.179C2104.083,982.429 2122.347,988.691 2134.802,985.061C2150.065,980.614 2159.527,965.973 2153.015,943.68C2152.341,941.376 2129.185,856.569 2129.523,856.483C2130.047,856.349 2073.119,871.332 2073.184,871.552C2094.133,942.377 2054.18,958.14 2043.298,960.544C2002.762,969.5 1985.186,934.412 1977.219,908.317C1967.941,877.924 1974.317,837.58 2007.582,828.731C2039.844,820.149 2063.972,847.358 2073.184,871.552C2073.324,871.921 2128.851,856.583 2129.523,856.483C2130.134,856.392 2098.143,731.681 2092.584,714.261C2090.635,708.155 2085.283,677.108 2055.624,684.272C2036.379,688.92 2033.499,707.377 2037.232,722.721C2046.894,762.441 2057.097,800.334 2056.887,800.196C2026.101,780.024 1997.749,785.618 1984.48,788.66Z" style="stroke:#000;stroke-width:1px;"/>
            <path id="Period3" serif:id="Period" d="M2154.395,805.477C2152.565,807.624 2150.666,811.239 2149.369,814.242C2147.975,817.467 2146.531,823.157 2146.531,826.068C2146.531,829.024 2146.855,834.135 2147.261,835.96C2147.587,837.429 2149.07,841.081 2150.368,843.406C2152.285,846.838 2153.246,848.19 2154.395,849.346C2156.299,851.259 2157.145,852.751 2159.168,853.886C2162.73,855.884 2169.702,859.54 2176.627,859.967C2183.864,860.413 2189.951,858.264 2193.289,857.129C2197.155,855.814 2201.317,851.445 2203.398,849.346C2205.087,847.643 2206.134,846.62 2207.522,844.138C2208.829,841.802 2210.083,839.026 2210.452,837.444C2211.182,834.323 2211.506,830.227 2211.506,826.645C2211.506,823.63 2211.294,820.13 2210.091,816.799C2208.563,812.571 2206.494,809.18 2203.398,805.477C2201.859,803.635 2195.731,799.261 2192.349,798.053C2189.254,796.947 2182.637,795.448 2178.965,795.423C2173.498,795.385 2168.979,795.949 2164.944,797.965C2161.039,799.917 2157.027,802.388 2154.395,805.477Z" style="stroke:#000;stroke-width:1px;"/>
            <path id="Period4" serif:id="Period" d="M2227.941,794.865C2226.111,797.012 2224.212,800.627 2222.915,803.63C2221.521,806.855 2220.077,812.545 2220.077,815.456C2220.077,818.412 2220.401,823.524 2220.807,825.348C2221.133,826.817 2222.616,830.47 2223.914,832.794C2225.831,836.227 2226.792,837.578 2227.941,838.734C2229.845,840.647 2230.691,842.139 2232.714,843.274C2236.276,845.272 2243.248,848.928 2250.173,849.355C2257.41,849.801 2263.497,847.652 2266.835,846.517C2270.701,845.203 2274.863,840.833 2276.945,838.734C2278.633,837.031 2279.68,836.008 2281.068,833.526C2282.375,831.19 2283.629,828.414 2283.998,826.833C2284.728,823.711 2285.052,819.615 2285.052,816.033C2285.052,813.019 2284.84,809.518 2283.637,806.187C2282.109,801.959 2280.04,798.568 2276.945,794.865C2275.406,793.023 2269.277,788.649 2265.895,787.441C2262.8,786.335 2256.183,784.836 2252.512,784.811C2247.045,784.773 2242.525,785.337 2238.49,787.354C2234.585,789.305 2230.573,791.776 2227.941,794.865Z" style="stroke:#000;stroke-width:1px;"/>
            <path id="H" d="M2351.994,679.497C2350.209,665.024 2341.496,643.694 2318.707,645.387C2293.936,647.227 2285.875,661.161 2287.843,684.363C2289.937,709.059 2302.32,890.755 2305.145,922.239C2306.381,936.009 2314.933,956.422 2337.737,955.761C2363.119,955.025 2370.23,934.797 2369.563,916.996C2369.192,907.088 2361.254,816.988 2362.059,816.919C2365.872,816.594 2415.718,812.576 2420.255,811.912C2423.751,811.4 2483.404,807.835 2487.7,807.613C2487.827,807.606 2493.03,889.348 2495.634,909.89C2497.488,924.521 2504.242,943.093 2529.327,941.451C2554.719,939.788 2560.001,914.657 2558.982,901.081C2556.615,869.559 2542.029,670.803 2541.481,665.037C2539.542,644.631 2526.992,630.025 2507.343,631.136C2484.511,632.427 2476.319,649.22 2477.208,667.483C2477.615,675.837 2482.589,745.44 2483.288,754.38C2483.295,754.475 2421.185,759.603 2420.728,759.655C2420.263,759.708 2358.15,764.16 2357.693,764.278C2357.525,764.322 2352.712,685.32 2351.994,679.497Z" style="stroke:#000;stroke-width:1px;"/>
            <path id="o1" serif:id="o" d="M2599.326,783.805C2597.373,789.009 2594.595,806.691 2593.969,815.202C2593.511,821.428 2594.257,834.269 2594.835,840.414C2595.137,843.624 2599.094,861.005 2599.929,864.413C2600.644,867.326 2609.285,886.252 2612.967,891.53C2622.644,905.406 2625.104,908.263 2634.164,915.442C2651.003,928.785 2675.99,939.424 2711.405,938.349C2767.626,936.643 2791.543,904.143 2796.11,897.926C2805.542,885.085 2820.559,848.479 2818.765,818.922C2818.763,818.875 2758.919,821.456 2758.891,821.592C2758.87,821.697 2763.957,889.657 2710.659,893.373C2657.6,897.073 2653.845,837.793 2653.753,824.179C2653.457,780.837 2672.823,755.521 2703.22,754.814C2759.393,753.508 2758.925,821.724 2758.891,821.592C2758.821,821.317 2818.613,818.785 2818.765,818.922C2818.774,818.93 2820.952,772.058 2783.683,736.407C2761.975,715.641 2728.693,707.498 2701.193,709.374C2661.339,712.093 2641.281,725.496 2625.204,739.908C2607.335,755.927 2601.371,778.352 2599.326,783.805Z" style="stroke:#000;stroke-width:1px;"/>
            <path id="s1" serif:id="s" d="M2875.651,816.469C2900.381,853.366 2938.641,860.503 2958.465,877.45C2984.125,899.386 2972.161,906.299 2961.709,909.927C2934.498,919.373 2907.458,898.58 2901.903,885.751C2894.031,867.573 2892.409,846.228 2866.643,847.938C2850.615,849.002 2841.298,864.03 2839.243,875.829C2837.857,883.782 2835.837,896.586 2848.86,915.312C2862.987,935.624 2894.668,952.246 2922.158,959.111C2936.728,962.749 2974.587,969.296 3004.498,955.408C3028.043,944.476 3034.014,928.109 3038.607,908.68C3040.466,900.814 3042.434,886.28 3036.043,868.981C3028.008,847.232 2999.67,832.475 2975.849,818.606C2957.31,807.812 2927.152,796.972 2932.607,780.646C2936.876,767.867 2957.172,771.689 2964.23,774.233C2970.958,776.658 2986.525,781.88 2992.005,799.251C2995.439,810.137 3008.97,832.192 3037.464,826.099C3065.007,820.21 3067.107,750.572 2979.516,726.892C2915.28,709.526 2883.771,736.41 2876.64,751.418C2868.552,768.44 2860.986,794.591 2875.651,816.469Z" style="stroke:#000;stroke-width:1px;"/>
            <path id="t2" serif:id="t" d="M3128.649,770.473C3125.305,769.093 3097.548,761.839 3092.459,784.675C3087.092,808.758 3115.309,812.886 3117.893,813.616C3118.006,813.648 3107.512,856.865 3107.475,857.084C3107.427,857.368 3094.588,909.784 3094.463,910.444C3094.322,911.19 3089.429,930.756 3089.186,934.252C3088.967,937.409 3085.945,957.44 3089.075,966.867C3093.227,979.374 3102.325,995.844 3134.191,1003.141C3156.396,1008.226 3196.722,1015.559 3201.047,985.653C3203.423,969.223 3189.397,960.867 3170.963,962.324C3170.701,962.344 3142.216,964.323 3149.281,938.669C3149.355,938.4 3163.151,880.127 3163.156,880.055C3163.161,879.985 3175.439,827.685 3176.158,827.872C3194.318,832.594 3219.667,838.805 3224.397,817.377C3229.52,794.161 3211.442,790.716 3186.567,784.709C3186.172,784.614 3197.721,739.137 3197.763,738.952C3200.135,728.629 3200.204,706.419 3177.075,700.144C3151.046,693.083 3141.898,717.865 3139.937,725.116C3139.257,727.629 3128.764,770.52 3128.649,770.473Z" style="stroke:#000;stroke-width:1px;"/>
            <path id="i2" serif:id="i" d="M3299.172,801.907C3299.177,801.908 3293.327,820.883 3293.312,820.878C3278.83,816.728 3263.48,822.826 3257.992,842.331C3257.894,842.678 3258.816,839.276 3250.227,867.081C3246.799,878.179 3241.052,896.986 3239.05,904.017C3236.988,911.258 3226.417,944.268 3224.628,949.905C3224.43,950.527 3213.877,984.789 3213.685,985.528C3210.828,996.535 3210.899,1016.074 3231.032,1022.492C3250,1028.539 3262.119,1014.155 3266.4,1001.207C3266.732,1000.202 3276.004,970.304 3276.051,969.94C3276.074,969.766 3286.403,936.031 3286.598,935.571C3286.862,934.949 3302.638,884.135 3302.745,883.637C3302.95,882.684 3311.463,855.087 3311.488,854.96C3315.066,836.752 3306.474,825.725 3293.312,820.878C3293.304,820.876 3299.096,801.881 3299.172,801.907C3312.717,806.539 3327.672,800.85 3333.24,784.834C3337.143,773.608 3334.491,757.33 3316.315,751.012C3294.896,743.566 3283.188,760.996 3281.051,767.934C3277.159,780.566 3280.361,795.894 3299.172,801.907Z" style="stroke:#000;stroke-width:1px;"/>
            <path id="n2" serif:id="n" d="M3400.551,844.062C3389.276,839.985 3373.218,839.831 3363.083,866.551C3352.637,894.092 3332.145,949.205 3323.107,971.88C3313.929,994.906 3313.543,996.89 3305.611,1018.787C3297.017,1042.507 3311.332,1055.894 3323.714,1060.004C3337.514,1064.584 3355.669,1058.12 3362.089,1037.379C3362.167,1037.125 3387.889,964.564 3397.245,947.196C3413.225,917.532 3434.244,907.916 3458.288,916.331C3478.819,923.518 3486.12,936.74 3474.289,973.581C3464.918,1002.766 3438.524,1068.524 3438.448,1068.701C3431.688,1084.51 3439.975,1103.904 3452.188,1108.716C3475.165,1117.768 3489.109,1102.721 3493.937,1089.991C3494.023,1089.766 3502.651,1066.214 3504.487,1061.776C3508.37,1052.389 3502.667,1065.887 3513.558,1038.262C3517.582,1028.055 3532.481,988.514 3532.634,988.053C3532.799,987.552 3539.757,968.256 3540.739,962.266C3548.926,912.35 3518.631,888.2 3492.708,878.835C3450.727,863.67 3426.788,880.676 3416.415,885.084C3416.154,885.195 3428.679,854.235 3400.551,844.062Z" style="stroke:#000;stroke-width:1px;"/>
            <path id="g" d="M3598.902,974.698C3565.836,996.076 3534.821,1071.594 3546.605,1107.046C3578.518,1203.055 3667.76,1168.124 3667.649,1168.357C3634.682,1237.527 3614.04,1222.85 3589.844,1214.667C3534.706,1196.021 3569.621,1142.85 3522.565,1141.369C3498.034,1140.597 3495.058,1176.668 3505.397,1194.784C3513.811,1209.527 3533.401,1237.036 3586.547,1259.924C3661.382,1292.153 3697.545,1241.733 3713.366,1209.459C3718.409,1199.171 3774.606,1083.697 3788.353,1058.614C3788.808,1057.783 3715.146,1055.162 3715.152,1055.313C3716.344,1085.391 3693.758,1123.264 3672.493,1134.031C3659.569,1140.575 3618.969,1145.368 3603.388,1103.834C3592.286,1074.237 3626.681,1007.542 3666.872,1009.018C3683.486,1009.628 3709.282,1019.212 3715.152,1055.313C3715.203,1055.625 3788.219,1058.9 3788.353,1058.614C3790.945,1053.079 3809.703,1023.862 3780.018,1010.265C3753.315,998.034 3741.545,1028.453 3741.497,1028.319C3733.482,1006.327 3726.758,985.285 3697.238,968.685C3643.24,938.32 3604.544,971.05 3598.902,974.698Z" style="stroke:#000;stroke-width:1px;"/>
            <path id="Period5" serif:id="Period" d="M3803.328,1140.927C3801.498,1143.074 3799.598,1146.689 3798.301,1149.692C3796.908,1152.917 3795.464,1158.607 3795.464,1161.518C3795.464,1164.474 3795.788,1169.586 3796.193,1171.41C3796.52,1172.879 3798.002,1176.532 3799.301,1178.856C3801.217,1182.288 3802.179,1183.64 3803.328,1184.796C3805.232,1186.709 3806.078,1188.201 3808.101,1189.336C3811.662,1191.334 3818.635,1194.99 3825.559,1195.417C3832.797,1195.863 3838.884,1193.714 3842.221,1192.579C3846.088,1191.265 3850.25,1186.895 3852.331,1184.796C3854.019,1183.093 3855.066,1182.07 3856.455,1179.588C3857.761,1177.252 3859.015,1174.476 3859.385,1172.895C3860.115,1169.773 3860.439,1165.677 3860.439,1162.095C3860.439,1159.081 3860.227,1155.58 3859.023,1152.249C3857.496,1148.021 3855.426,1144.63 3852.331,1140.927C3850.792,1139.085 3844.663,1134.711 3841.282,1133.503C3838.187,1132.397 3831.57,1130.898 3827.898,1130.873C3822.431,1130.835 3817.912,1131.399 3813.877,1133.415C3809.972,1135.367 3805.96,1137.838 3803.328,1140.927Z" style="stroke:#000;stroke-width:1px;"/>
        </g>
    </g>
</svg>
